<svg xmlns="http://www.w3.org/2000/svg" xmlns:xlink="http://www.w3.org/1999/xlink" width="491.14" height="253.57" viewBox="0 0 491.14 253.57"><defs><style>.cls-1{fill:url(#linear-gradient);}.cls-2{fill:url(#linear-gradient-2);}</style><linearGradient id="linear-gradient" x1="279.83" y1="148.58" x2="279.83" gradientUnits="userSpaceOnUse"><stop offset="0" stop-color="#a2f0ff" stop-opacity="0"/><stop offset="1" stop-color="#fff" stop-opacity="0.7"/></linearGradient><linearGradient id="linear-gradient-2" x1="376.08" y1="142.84" x2="352.09" y2="317.59" gradientTransform="matrix(0.92, 0.11, 0.12, -0.99, -237.81, 352.32)" gradientUnits="userSpaceOnUse"><stop offset="0" stop-color="#a2f0ff" stop-opacity="0"/><stop offset="1" stop-color="#fff"/></linearGradient></defs><title>img-clouds</title><g id="Layer_2" data-name="Layer 2"><g id="CLOUDS"><path class="cls-1" d="M454.95,82.17a47.6,47.6,0,0,0-18.32,3.55,25.73,25.73,0,0,0-5.55-21.35,16.71,16.71,0,0,0,6.76-10.78,1.11,1.11,0,0,1-2.1.3c-3.18-6.69-11-11.78-20.45-12.53a26.24,26.24,0,0,0-18.59,5.3c0-.3,0-.6,0-.91a42.36,42.36,0,0,0-76.84-24.61A33.88,33.88,0,0,0,276,18.83a42.35,42.35,0,0,0-69.7-1.08,33.88,33.88,0,0,0-48.63,2.07c-11.72,1.24-21.5,6.61-26.1,14.22a1.11,1.11,0,0,1-2.06-.6c-.52,6.88,2.81,13.42,8.65,18.51a25.76,25.76,0,0,0-21.63,32.76c-5.1,2.68-9.1,6-11.58,9.7A28,28,0,0,0,92,91.34c-12.53,0-22.77,7.76-23.45,17.53a1.11,1.11,0,0,1,2.07-.46c3.7,6.41,11.88,10.87,21.38,10.87,8.22,0,15.45-3.34,19.64-8.39a1.11,1.11,0,0,1,1.46-.2c8.62,5.62,21.53,9.19,36,9.19,11.51,0,22.05-2.27,30.23-6,.35-.16,3.6,2.92,4,3,3.86,1.13,7.19,2.21,10.32,3.17a27.83,27.83,0,0,0,10,2.55,60.23,60.23,0,0,0,13.28.88c1.89-.07,3.58-.22,5.15-.43a42.36,42.36,0,0,0,71.29,10.45,33.9,33.9,0,0,0,57.3-11.77,45.64,45.64,0,0,1,15.63-3.9c.37,0,.69-.23,1-.09a74.35,74.35,0,0,0,29.08,5.53c12.12,0,23.16-2.52,31.5-6.65a1.11,1.11,0,0,1,1.15.1c6.58,4.82,15.77,7.81,26,7.81,15.72,0,29.08-7.13,34.08-17.1a1.11,1.11,0,0,1,2.11.44C491.08,93.66,474.9,82.17,454.95,82.17Z"/><path class="cls-2" d="M233.26,172.6c0,.35,0,.7-.09,1-1,8.1-8.58,13.95-17.41,13.85a20.11,20.11,0,0,1,.5,7.53c-1,8.16-7,14.85-15.63,18.83a22.59,22.59,0,0,1-3.11,16c-7,10.71-22.32,12.17-34.25,3.26-.32-.24-.63-.48-.93-.73q-.92.34-1.86.63c-4.06,13.48-19.14,22.34-35.77,20.27a37.34,37.34,0,0,1-16-5.85,25.44,25.44,0,0,1-9.87-4.13,32.77,32.77,0,0,1-20.66,4.17c-14.36-1.79-25.34-12.4-27.62-25.32-7.79-1.19-13.43-9.75-14.43-20.72a30.12,30.12,0,0,1-6.62-16.15c-18.35-3.06-31.35-18.41-29.28-35,2.13-17.06,19.42-28.94,38.61-26.55a39.48,39.48,0,0,1,6.23,1.3c3.91-12.49,17.38-20.71,32.16-18.86,1.11.14,2.2.33,3.26.58,5.75-10.6,16.93-17.14,28.83-15.66a27,27,0,0,1,8.87,2.72c6-11.1,16.84-18,28.27-16.53,10.51,1.31,18.83,9.3,22.49,20.1a24.71,24.71,0,0,1,18.66-5.49c11,1.38,19.51,10.12,21.76,21.16a47.81,47.81,0,0,1,5.76.37c21.41,2.67,37,19.08,34.79,36.66C248.7,159.78,242.33,167.81,233.26,172.6Zm-53.82-9.68.25,0-.26-.31C179.44,162.72,179.44,162.82,179.44,162.92Z"/></g></g></svg>