<svg xmlns="http://www.w3.org/2000/svg" width="588.44" height="477.38" viewBox="0 0 588.44 477.38"><defs><style>.cls-1{fill:#f03242;}</style></defs><title>img-dragon_3</title><g id="Layer_2" data-name="Layer 2"><g id="Layer_3" data-name="Layer 3"><path class="cls-1" d="M586.85,358.47c-3-8.62-101.33-87.62-109.47-90.79-6.61-2.57,77.49,69.56,70.19,71.88-3.73,1.19-25.42-23.13-39.27-26.16-2.72-.6,27.95,28.84,24.9,28.31-24.51-4.28-80.81-14.12-105.05-19.73-24.5-5.67-38.24-15.91-36.27-10.2,5.4,15.62,159,89.55,175.26,84.37S592.26,374.1,586.85,358.47Z"/><path class="cls-1" d="M396.15,326.43a9,9,0,0,1-2-1.71l1.25-6-3,3.15,0,0c-.54-.64-1.2-1.24-1.82-1.85l1-4.89L389,317.92a3.64,3.64,0,0,1-.17-.35l-.55-1.6-.09-.25,3.11-4.09-3.79,2.12-.94-2.71c-.07-.21-.15-.4-.23-.59l2.94-3.86-3.79,2.13c-1.44-2.43-3.28-3.71-4-5.25a3.63,3.63,0,0,1-.17-.4c-.75-2.18-3-1.45-3.77-3.63l-.15-.43-2.11-6.1,1.52-2.9,1.49.72,3.38,1.62.75.36,3.44,1.66.88.42.49.24,3.57,1.72-1.5,5.76,4.47-4.33,2.81,1.35-1.41,5.4,4.19-4.06,1.72.83-3,5.41,5.83-4,.07,0,1.45.71-1.3,5,3.82-3.71c.55.29,1.1.6,1.63.91l-1.68,6.42,4.57-4.43a6.31,6.31,0,0,1,.93,1l-1.51,7.21,3.84-4.09a11.5,11.5,0,0,0,1.84,1.19l.15-1v0h0l.42-2.82h0l.19-1.24-5.28-8-.6-.6c-.27-.28-.62-.64-1-1.06s-.51-.57-.77-.88a12.18,12.18,0,0,1-2.15-3.27c-.75-2.18-3-8.7-6-10.16h0l-.58-.3-.22-.12-.49-.27-.28-.16-.54-.32-.29-.17-.7-.42-.2-.12-1-.59-.21-.13-.78-.49-.34-.21-.7-.44-.32-.21-.73-.47-.26-.17L393,278.43l-.24-.15-.58-.38-.32-.21-.42-.28-.29-.19-.28-.19-.31-.2h0l-.88-.58-3.77-3.63c-.45-1.29-1.43-1.57-2.94-2.33h0a15.56,15.56,0,0,1-1.51-.87l-.3-.2-.23-.16-.36-.27-.22-.17-.42-.34-.19-.16c-.21-.18-.42-.38-.64-.59-3.77-3.63-6.8-5.09-7.55-7.26-.63-1.84-11.48-12.46-14.86-15.74h0l-.27-.26-.09-.09-.24-.23,0,0-.36-.35h0l3.76,10.88,11.32,10.89,5.25,7.93h0l0,.05-1.52,2.9a6.07,6.07,0,0,1-.52.8,2.63,2.63,0,0,1-.58.57h0a.78.78,0,0,1-.44.15h0l-.09,0-.08,0-.08,0-.09-.08-.06-.07-.08-.12a2.08,2.08,0,0,1-.17-.4,7.91,7.91,0,0,0-2-2.82h-.13a16.44,16.44,0,0,1-1.72-1.83l-.06-.08c-.08-.1-.16-.2-.23-.31a4,4,0,0,1-.39-.8,3.72,3.72,0,0,0-.54-.94c-1.8-2.43-7-6.32-7-6.32l-4.53-5.81-6.8-5.09-3.53-3.39h0l-.25-.24.25.73h0l.34,1,1.66,4.81,4.53,5.81,4.53,5.81,0,0,0,0,0,.13.05.14,0,0c.2.53.61,1.55,1.18,2.69v0l.38.72,0,.07.32.56.06.11.3.49.12.18.28.42.17.23.26.34.22.26.24.28.27.27.22.22.33.26.19.15a4,4,0,0,0,.53.31h0L358,273.69a31.55,31.55,0,0,1-9.54-7q-.57-.62-1.11-1.28a22.07,22.07,0,0,1-3.75-5.9,14.55,14.55,0,0,0-.9-2c-.49-.93-1.12-2-1.81-3.06l-.86-1.32c-.59-.89-1.21-1.79-1.83-2.66L337.1,249l2.71-5.85-4.67,3.19c-1.25-1.67-2.12-2.78-2.12-2.78l-.54-.59,3.35-5.14-5.55,2.76-2.53-2.74,3.19-6.17-5.64,3.52-4.35-4.7-2.87-1.59c.14-.17.22-.29.22-.29a5.3,5.3,0,0,1,2.44-2l2.81-.8a1.33,1.33,0,0,1,1.77.78l3.54,1.55-2.5-3.13-3.54-1.55-.37-1.18c-.16-.52.79-.35,1.91,0h0l.52.17,0,0,.47.17.08,0,.42.16.09,0,.37.15.08,0,.32.13.07,0,.26.11,0,0,.19.08h0l.07,0,2.81-.8-5.46-3.37h0l-.22-.13.27-.08h0l3.95-1.13-3.18-.37-2.44,2-2.81.8-.67,2.76-3.48,3.56a6,6,0,0,0-2.9-.43l-2.72-1.51a23.17,23.17,0,0,1-1.83-2.35l-1.14.7-7.81-4.33.79.11,1.55-2.44h0l19.67-30.88L337.68,166l20.45-21,4.21-3.58h0l8.78-7.46h0l.14-.12h0l.5-.43-2.22-28.28L371.11,66l3.09-42L373.49,0,373,1h0l-8.58,16.39L347,32.58l-17.4,7.95-14.82,4.71h0l-1.06.34h0l-1.45,4.5h0l-4.63,14.35-.3,1-.56,1.91c-.23.77-.5,1.66-.79,2.63l-.63,2-.69,2.18c-.36,1.12-.73,2.26-1.11,3.4l-.38,1.13c-1.79,5.25-3.66,10-4.65,10.32A28.68,28.68,0,0,0,294,91.89c-1.66,1.17-3.58,2.57-5.44,4L287,97c-3.61,2.71-6.66,5.06-6.66,5.06L273,104.4h0l-.27.09h0l-1.53.49,6,17.41,0,14.5,0,14.5-15.91,19.55-2.28,8-.84,3.61-12.69,16-11.42-15.32-6.77-19.59L219,146.94l-20.34-44.26-1.33,1-.54-.32L164.69,84.51,79.34,34.35,19.65,14.69,0,8.86,9.84,22.75l1.3,2.09h0L26.78,58.76,28,60.59l.05.15,5.3,8,6.82,19.72,3.79,11,.54,1.56h0l.14.4.08.23h0l.53,1.54L62.57,117l14.34,12.35,4.5,20.31L92,158.35l32.46,28.32,6.72,9h0l12.14,16.36,1.61.78h0l13.49,6.5,19.64,13.08,18.87,18.15,4,6.28-5.6,54.61-6.13,47.84s-1.32,9.39-3.09,18.77c-.2,1-.4,2.09-.61,3.11-.41,2.06-.84,4.07-1.28,5.92-.33,1.39-.66,2.69-1,3.86-.22.78-.44,1.5-.66,2.16a17.46,17.46,0,0,1-1,2.41c-.43.81-.92,1.69-1.46,2.62-.36.62-.75,1.25-1.15,1.9-.8,1.3-1.68,2.65-2.59,4s-1.84,2.74-2.78,4.09-1.86,2.65-2.74,3.88c-1.54,2.15-2.94,4.06-4,5.49l-.82,1.1-1.15,1.53-50.75,57.2h0l11-8.8h0l34.37-27.38,39.38-39.09,12.12-15.93,5.31-13.77,2.53-7.85,4.89,2.35,4.08,4.59s5.87,7.46,6.63,9.63,3.77,3.63,3.77,3.63l1.52-2.9-.75-2.18,5.29.73-.75-2.18-.29-.85-.38-1.1-.83-2.41-7.55-7.26s-3.77-3.63-4.53-5.81l-2.26-6.53.51-1,1.49,1.43,2.71-.12s5.53,8,6.07,9.63,2.74,2.64,2.74,2.64l1.1-2.11-.55-1.58,3.85.53-.55-1.58L244,359l-5.49-5.28s-2.74-2.64-3.29-4.22l-1.64-4.75,4.41-8.43,1.66-5.8L238,325.78l-4.39-7.39-1.09-3.17s-.49,1.71-1.11,3.6l3.95-15.26,8.42-24.1c1.94-5.55,5.24-9.23,9-12.85l9.84-8h0s3.6-2.19,8.17-4.4l.41-.2.16-.07a61.27,61.27,0,0,1,6.41-2.58l0,0-3,5.8a3.36,3.36,0,0,0-.42,1.49c0,2,2.07,3.27,2.68,5,.75,2.18,3.77,3.63,3.77,3.63s3.85,1.85,3.94,4.5l.66,1.93.22.63a5.1,5.1,0,0,1,.29.52,2.12,2.12,0,0,1-.74,3,2.93,2.93,0,0,1-.62.3l-.76,1.46h0l-2.27,4.34,6.06-4.34,3-5.8,1-.3,1.31-.42a.8.8,0,0,1,.22,0h.06l.11,0,0,0,.08.07,0,0a.54.54,0,0,1,.07.16v0a1.17,1.17,0,0,1,0,.19s0,.06,0,.08,0,.12,0,.18v.1c0,.07,0,.14,0,.22l0,.1c0,.11,0,.23-.08.35l0,.07-.09.31,0,.13-.09.29,0,.14L293,276l0,.09,0,.11h0c-.86,2.26-2.27,5-2.27,5l1.5,4.35,5.73-7.91h0l1.09-1.51.14.42h0l2.11,6.11.76-5.07-.51-.49h0l-3.26-3.14-.7-2c-.49-1.42-2.37-2.54-4.82-2.88l-1.28-.18-3.46-2.59-.07-.06c-.23-.17-.44-.35-.64-.53l-.21-.22c-.13-.13-.27-.26-.38-.4s-.14-.19-.2-.28-.19-.25-.27-.37-.11-.2-.16-.3-.14-.25-.2-.38-.07-.21-.11-.31-.1-.25-.13-.38,0-.22-.06-.33-.05-.25-.07-.38,0-.22,0-.34,0-.25,0-.38,0-.22,0-.34,0-.27.06-.41a4.53,4.53,0,0,0-.18-2.22,1.7,1.7,0,0,1,0-.26,1.92,1.92,0,0,1,0-.22c0-.08,0-.18,0-.26s0-.16,0-.25,0-.19.07-.29,0-.18.07-.27.07-.21.11-.31.06-.19.1-.29l.14-.32.13-.3.16-.33.15-.3.19-.34.16-.29.2-.34L287,254l.2-.31.18-.28.19-.29.18-.26.16-.23.19-.27.15-.21.16-.23.13-.17c.32-.43.53-.7.53-.7l-.15-1.23h0l-.06-.49a34.39,34.39,0,0,1,5.14.33h.08l1.14.19.24,0a23.85,23.85,0,0,1,2.94.76l.45.15.63.25.55.23.52.25.61.33.37.21a9.47,9.47,0,0,1,.84.58l.23.19a7,7,0,0,1,.52.48l.22.24a5.3,5.3,0,0,1,.39.51l.16.23a4.22,4.22,0,0,1,.37.78c3,8.77,28.69,24.69,28.69,24.69l29.53,12.56c.14.49.29,1.23.45,2.11l.08.44c.11.61.23,1.27.36,2s.28,1.39.44,2.09.35,1.4.55,2.06c.1.33.21.65.32,1,.57,1.55,1.29,2.78,2.23,3.23,1.79.86,4.65,4.8,6.67,7.85l.89,1.36.5.79.41.66.31.51.27.44s9.07,4.36,9.82,6.54a2,2,0,0,0,.32.55l.09.11a3.27,3.27,0,0,0,.49.46l.11.08a5.52,5.52,0,0,0,.56.35l.12.07c.23.12.46.22.7.32l.18.07.73.26h0l.74.22.14,0,.66.16h.06c.66.14,1.12.21,1.12.21l2,.28h0l3.3.46A10,10,0,0,1,396.15,326.43Z"/></g></g></svg>