<svg xmlns="http://www.w3.org/2000/svg" width="211.05" height="201" viewBox="0 0 211.05 201"><defs><style>.cls-1,.cls-2{fill:#29abe2;}.cls-1{opacity:0.31;}.cls-3{fill:#8cc63f;}.cls-4{fill:#e6e6e6;opacity:0.47;}.cls-5{fill:none;}</style></defs><title>img-globe_4</title><g id="Layer_2" data-name="Layer 2"><g id="Layer_1-2" data-name="Layer 1"><ellipse class="cls-1" cx="105.53" cy="100.5" rx="105.53" ry="100.5"/><ellipse class="cls-2" cx="105.53" cy="100.5" rx="96.2" ry="91.62"/><path class="cls-3" d="M122,106.4H105.1a4.3,4.3,0,0,1-4.4-4.19V82.36a4.3,4.3,0,0,1,4.4-4.19h19.82a4.3,4.3,0,0,1,4.4,4.19v1.46a4.3,4.3,0,0,0,4.4,4.19h.73a4.3,4.3,0,0,0,4.4-4.19V22a4.3,4.3,0,0,0-4.4-4.19H133a4.3,4.3,0,0,0-4.4,4.19V31.3a4.3,4.3,0,0,1-4.4,4.19h-6.61a4.3,4.3,0,0,1-4.4-4.19V22a4.3,4.3,0,0,0-4.4-4.19H105.1A4.3,4.3,0,0,0,100.7,22V31.3a4.3,4.3,0,0,1-4.4,4.19H80.14a4.3,4.3,0,0,1-4.4-4.19V22a4.3,4.3,0,0,0-4.4-4.19H67.66A4.3,4.3,0,0,0,63.26,22V74a4.3,4.3,0,0,0,4.4,4.19H77.94a4.3,4.3,0,0,1,4.4,4.19V121.9a4.3,4.3,0,0,0,4.4,4.19H100.7a4.3,4.3,0,0,1,4.4,4.19v12.62a4.3,4.3,0,0,0,4.4,4.19h16.15a4.3,4.3,0,0,1,4.4,4.19v8a4.3,4.3,0,0,0,4.4,4.19h11.75a4.3,4.3,0,0,0,4.4-4.19V146.71a4.3,4.3,0,0,1,4.4-4.19h4.4a4.3,4.3,0,0,0,4.4-4.19V110.6a4.3,4.3,0,0,0-4.4-4.19Z"/><rect class="cls-4" x="51.31" y="43.31" width="44.89" height="10.55" rx="5.05" ry="5.05"/><path class="cls-5" d="M105.24,63.3a4.86,4.86,0,0,0-5,4.72h0a4.86,4.86,0,0,0,5,4.72h40.23a4.86,4.86,0,0,0,5-4.72h0a4.86,4.86,0,0,0-5-4.72"/><rect class="cls-4" x="116.6" y="31.65" width="36.15" height="8.33" rx="3.99" ry="3.99"/><rect class="cls-4" x="63.55" y="51.64" width="44.89" height="8.33" rx="3.99" ry="3.99"/><rect class="cls-4" x="76.96" y="107.72" width="28.57" height="8.33" rx="3.99" ry="3.99"/><rect class="cls-4" x="120.1" y="59.97" width="28.57" height="8.33" rx="3.99" ry="3.99"/><rect class="cls-4" x="57.72" y="87.17" width="36.15" height="8.33" rx="3.99" ry="3.99"/><rect class="cls-4" x="34.98" y="136.59" width="36.15" height="8.33" rx="3.99" ry="3.99"/><rect class="cls-4" x="145.17" y="116.05" width="46.64" height="8.33" rx="3.99" ry="3.99"/><path class="cls-3" d="M193.56,103.28a6.86,6.86,0,0,0,7,6.66h.66a87.94,87.94,0,0,0-7.66-46.41Z"/></g></g></svg>