<svg xmlns="http://www.w3.org/2000/svg" width="89.32" height="202.5" viewBox="0 0 89.32 202.5"><defs><style>.cls-1{fill:none;stroke:#39b54a;stroke-miterlimit:10;}.cls-2{fill:#1a1a1a;}.cls-3{fill:#29abe2;}.cls-4{fill:#39b54a;}.cls-5{fill:#f7931e;}.cls-6{fill:#fff;}</style></defs><title>img-router</title><g id="Layer_2" data-name="Layer 2"><g id="Layer_1-2" data-name="Layer 1"><circle class="cls-1" cx="44.66" cy="44.66" r="44.16"/><circle class="cls-1" cx="44.66" cy="44.66" r="36.62"/><circle class="cls-1" cx="44.66" cy="44.66" r="30.16"/><rect class="cls-2" x="20.45" y="27.97" width="47.14" height="174.53" rx="5.42" ry="5.42"/><rect x="22.94" y="37.22" width="42.18" height="156.18" rx="5.42" ry="5.42"/><circle class="cls-3" cx="44.6" cy="69.14" r="5.7"/><circle class="cls-3" cx="44.6" cy="88.52" r="5.7"/><circle class="cls-4" cx="44.6" cy="107.9" r="5.7"/><circle class="cls-5" cx="44.6" cy="127.28" r="5.7"/><circle class="cls-6" cx="44.6" cy="46.34" r="5.7"/><path class="cls-1" d="M45.17,139.82"/><path class="cls-1" d="M45.17,148.94"/><path class="cls-1" d="M45.17,152.36"/><path class="cls-1" d="M45.17,145.52"/><rect class="cls-4" x="43.46" y="145.52" width="2.28" height="10.26"/><path class="cls-4" d="M43,148h0a14.08,14.08,0,0,1,3.42,0A8,8,0,1,1,43,148m.47,2.23a5.7,5.7,0,1,0,2.45,0,14.4,14.4,0,0,0-2.45,0"/></g></g></svg>