<svg xmlns="http://www.w3.org/2000/svg" width="207.04" height="201" viewBox="0 0 207.04 201"><defs><style>.cls-1{fill:#22b573;}.cls-2{fill:#ff0;stroke:#fffc59;stroke-width:0.25px;}.cls-2,.cls-21,.cls-3,.cls-4{stroke-miterlimit:10;}.cls-21,.cls-3,.cls-4{fill:none;}.cls-3{stroke:#43c1ed;}.cls-4{stroke:#e6e6e6;stroke-width:3px;}.cls-5{fill:#c69c6d;}.cls-6{fill:#29abe2;}.cls-7{fill:#43c1ed;}.cls-8{fill:#a67c52;}.cls-9{fill:#f2f2f2;}.cls-10,.cls-14{fill:#fff;}.cls-11{fill:#f7931e;}.cls-12{fill:#c1272d;}.cls-13{fill:#2b96ff;opacity:0.38;}.cls-14{opacity:0.85;}.cls-15{fill:#ffce00;}.cls-16{fill:#f4c70c;}.cls-17{fill:#cecece;}.cls-18{fill:#9c9c9c;}.cls-19{fill:#313131;}.cls-20{fill:#ceceff;}.cls-21{stroke:#f4c70c;}.cls-22{fill:#ffe266;}.cls-23{fill:#fcd532;}</style></defs><title>img-web-development_2</title><g id="Layer_2" data-name="Layer 2"><g id="Layer_2-2" data-name="Layer 2"><rect class="cls-1" y="184.29" width="36.49" height="16.65"/><path class="cls-2" d="M14.2,186.86a3.45,3.45,0,0,1,2.57.93l-.69,1a2.63,2.63,0,0,0-2-.75c-1.68,0-2.72,1.43-2.72,4.61s1,4.64,2.83,4.64a2.37,2.37,0,0,0,1.89-.69l.61.92a3.43,3.43,0,0,1-2.65.95c-2.66,0-3.81-2.23-3.81-5.7C10.24,189,11.62,186.86,14.2,186.86Z"/><path class="cls-2" d="M19.45,194l.41-2.73H18.29l0-1H20l.46-3.08h1L21,190.26h2.69l.46-3.08h1l-.47,3.08h1.32l-.06,1H24.49l-.4,2.73h1.34l0,1H23.95l-.47,3.23h-1L23,195H20.28l-.47,3.23h-1l.47-3.23H17.78l0-1Zm1,0h2.7l.4-2.73H20.83Z"/><ellipse class="cls-3" cx="100.8" cy="137.53" rx="3.61" ry="4.03"/><path class="cls-4" d="M88.17,131"/><path class="cls-5" d="M93.89,131.57c2-.68.4-.37-1-.13.85-.5.23.2,1.38.45,1.42,0,3.19-.7,1.8-1.07C97.71,131.48,94.84,131.46,93.89,131.57Z"/><polyline class="cls-6" points="100.97 131.06 100.97 143.11 88.17 143.11 88.17 131.06"/><path class="cls-6" d="M94.57,142.06a28.18,28.18,0,0,0-4.78.35v1.39a28.18,28.18,0,0,0,4.78.35c3.53,0,6.4-.47,6.4-1S98.1,142.06,94.57,142.06Z"/><path class="cls-7" d="M88.17,143.11c0,.27.61.51,1.61.69v-1.39C88.78,142.6,88.17,142.84,88.17,143.11Z"/><rect class="cls-7" x="88.17" y="131.23" width="1.66" height="11.59"/><path class="cls-7" d="M100.62,131.41c.23-.11.35-.22.35-.34,0-.58-2.86-1-6.4-1s-6.4.47-6.4,1c0,.12.12.23.35.34a18.63,18.63,0,0,1,6-.71A18.63,18.63,0,0,1,100.62,131.41Z"/><path class="cls-8" d="M100.62,131.41a18.63,18.63,0,0,0-6-.71,18.63,18.63,0,0,0-6,.71,18.63,18.63,0,0,0,6,.71A18.63,18.63,0,0,0,100.62,131.41Z"/><path class="cls-9" d="M92.05,131.38A10.6,10.6,0,0,1,90,129.44a6.42,6.42,0,0,1-1.34-2.59,3.09,3.09,0,0,1,0-1.57,3.2,3.2,0,0,1,.78-1.34,11.44,11.44,0,0,1,2.24-1.77c.82-.52,1.73-.75,2.24-1.52a3.66,3.66,0,0,0,.83-2.44c-.14-1.73-1.76-2.89-3.4-3.19h.08a5.85,5.85,0,0,1-1.47-.2,2.56,2.56,0,0,1-.78-.36,1.4,1.4,0,0,1-.58-.88,2.46,2.46,0,0,1,.45-1.64,7.58,7.58,0,0,1,.89-1.13,19.73,19.73,0,0,1,2-1.89c.69-.59,1.42-1.15,2.17-1.68l.07.08-1.82,2c-.6.68-1.21,1.34-1.75,2a8.1,8.1,0,0,0-.71,1.06,1.58,1.58,0,0,0-.27.92c0,.14.23.32.62.43a6.3,6.3,0,0,0,1.22.21h.08a5.58,5.58,0,0,1,2.63,1.42,4.21,4.21,0,0,1,.86,1.26,3.48,3.48,0,0,1,.25,1.5,4.67,4.67,0,0,1-1.14,2.63,3.94,3.94,0,0,1-1.09.94,8,8,0,0,0-1.14.75,11.58,11.58,0,0,0-1.86,1.93,2.59,2.59,0,0,0-.6,2.22,7,7,0,0,0,1,2.39,20.26,20.26,0,0,0,1.6,2.23Z"/><path class="cls-9" d="M96.35,131a7.62,7.62,0,0,1-2-1.43,2.1,2.1,0,0,1-.61-1.23,1.14,1.14,0,0,1,.24-.79,2.43,2.43,0,0,1,.53-.46c1.35-.89,2.72-1.67,4-2.55a4.37,4.37,0,0,0,.41-.33.38.38,0,0,0,.15-.3,1.33,1.33,0,0,0-.36-.87,7.38,7.38,0,0,1-.72-1,1.09,1.09,0,0,1,.16-1.31,6.31,6.31,0,0,1,2.2-1.06,2.55,2.55,0,0,0,1-.53c.2-.25.14-.45-.15-.68-.55-.45-1.4-.72-1.94-1.57a1.75,1.75,0,0,1-.13-1.51,3.41,3.41,0,0,1,.79-1.11c.59-.58,1-1.08.77-1.57s-.79-.94-1.44-1.35c-.33-.22-.67-.43-1-.7a2.51,2.51,0,0,1-.52-.52,1.22,1.22,0,0,1-.24-.92,1.81,1.81,0,0,1,1-1.16,6.78,6.78,0,0,1,1.17-.49,22.44,22.44,0,0,1,4.75-.85l0,.1a44.08,44.08,0,0,0-4.49,1.48,6,6,0,0,0-1,.51c-.3.18-.54.46-.52.56s.14.28.43.49.62.4,1,.61a7.88,7.88,0,0,1,1,.74,2.5,2.5,0,0,1,.83,1.21,1.91,1.91,0,0,1-.23,1.54,5.12,5.12,0,0,1-.87,1c-.59.54-.91,1-.63,1.57s1,1,1.62,1.55a1.22,1.22,0,0,1,.37.65.89.89,0,0,1-.29.73,3.6,3.6,0,0,1-1.14.56,5,5,0,0,0-2.08.95.71.71,0,0,0,0,.89,7.4,7.4,0,0,0,.79.84,1.93,1.93,0,0,1,.64,1.24,1.5,1.5,0,0,1-.05.42,1.23,1.23,0,0,1-.21.37,3.47,3.47,0,0,1-.47.48A27.32,27.32,0,0,1,95,127.79a2.56,2.56,0,0,0-.4.28.44.44,0,0,0-.13.31,1.54,1.54,0,0,0,.36.9A11.09,11.09,0,0,0,96.41,131Z"/><path class="cls-10" d="M91,136a.62.62,0,0,0-.51-.7v-.2q.7.15,1.41.26v.19c-.28,0-.42.12-.42.5v2a3.31,3.31,0,0,1-.05.61,1.71,1.71,0,0,1-.16.49.93.93,0,0,1-.29.33.71.71,0,0,1-.42.12.61.61,0,0,1-.26-.06.67.67,0,0,1-.22-.17.83.83,0,0,1-.15-.26.92.92,0,0,1-.06-.33.68.68,0,0,1,.07-.33.21.21,0,0,1,.21-.13c.15,0,.22.11.22.3s0,.28-.13.28a.16.16,0,0,1-.13-.06.48.48,0,0,0,.14.3.42.42,0,0,0,.3.12.26.26,0,0,0,.24-.13,1,1,0,0,0,.13-.33,2.43,2.43,0,0,0,.05-.43c0-.16,0-.3,0-.43Z"/><path class="cls-10" d="M93.66,139.61v-.18l.15,0,.14,0,.1,0a.08.08,0,0,0,0-.06.44.44,0,0,1,0-.07.41.41,0,0,0,0-.11l-.23-.75q-.06-.16-.31-.17l-.74,0a.2.2,0,0,0-.23.15l-.17.64a.49.49,0,0,0,0,.16q0,.29.44.29v.22H91.68v-.22a.36.36,0,0,0,.25-.12.88.88,0,0,0,.17-.32c.39-1.19.79-2.33,1.19-3.46l.15.09c.4,1.23.8,2.43,1.19,3.63a.55.55,0,0,0,.11.16l.08,0,.2.06q0,.09,0,.18Zm-.44-3.29-.44,1.26a.7.7,0,0,0-.05.21c0,.06.06.1.19.1l.63,0q.15,0,.15-.07a1.22,1.22,0,0,0-.06-.2Z"/><path class="cls-10" d="M95.89,139.67c-.38-1.17-.76-2.32-1.14-3.48-.1-.26-.24-.39-.44-.39v-.18q.68,0,1.36,0v.18h-.23c-.11,0-.17,0-.17.12a.85.85,0,0,0,0,.12l0,.15c.28.9.56,1.8.84,2.71.26-.87.53-1.76.79-2.66a1.68,1.68,0,0,0,0-.22c0-.2-.15-.29-.46-.27v-.18q.6,0,1.2-.12v.19l-.16,0c-.12,0-.21.13-.27.36-.4,1.27-.81,2.49-1.21,3.69Z"/><path class="cls-10" d="M98.93,139.63v-.2l.15,0,.14,0,.1-.05a.09.09,0,0,0,0-.07.56.56,0,0,1,0-.08.48.48,0,0,0,0-.12l-.22-.81c0-.11-.14-.16-.3-.15l-.74,0a.22.22,0,0,0-.23.18l-.17.66a.51.51,0,0,0,0,.16q0,.29.44.28v.22H97v-.22a.37.37,0,0,0,.25-.12.89.89,0,0,0,.17-.32c.4-1.19.81-2.43,1.21-3.73l.15.05c.39,1.22.78,2.5,1.17,3.85a.62.62,0,0,0,.11.18l.08,0,.2.07v.21Zm-.42-3.48-.44,1.39a.81.81,0,0,0-.06.22c0,.06.06.09.18.08l.63,0c.1,0,.15,0,.15-.09a1.27,1.27,0,0,0-.05-.21Z"/><rect class="cls-11" x="4.32" y="160.62" width="20.11" height="23.42"/><path class="cls-12" d="M10.78,167.89q0-1.51-1.32-1.5v-.49h3.69v.49q-1.09,0-1.09,1.44v5.1a8.36,8.36,0,0,1-.14,1.55,4.32,4.32,0,0,1-.43,1.26,2.38,2.38,0,0,1-.74.85,1.9,1.9,0,0,1-1.1.31,1.65,1.65,0,0,1-.67-.14,1.77,1.77,0,0,1-.56-.39,1.94,1.94,0,0,1-.4-.6,2,2,0,0,1-.15-.78,1.56,1.56,0,0,1,.19-.78.6.6,0,0,1,.54-.34q.58,0,.58.69t-.34.69a.42.42,0,0,1-.35-.13,1.08,1.08,0,0,0,.37.7,1.13,1.13,0,0,0,.77.28.71.71,0,0,0,.62-.34,2.49,2.49,0,0,0,.34-.83,6,6,0,0,0,.14-1.09q0-.59,0-1.08Z"/><path class="cls-12" d="M19.17,169.19a5,5,0,0,0-.87-2.11,1.83,1.83,0,0,0-1.5-.79,1.51,1.51,0,0,0-1.18.49,1.79,1.79,0,0,0-.44,1.24,1.68,1.68,0,0,0,.32,1,2.8,2.8,0,0,0,1,.78q.79.42,1.44.71a4.81,4.81,0,0,1,1.11.66,2.52,2.52,0,0,1,.71.95,3.91,3.91,0,0,1,.25,1.55,4.84,4.84,0,0,1-.15,1.19,3.35,3.35,0,0,1-.46,1.05,2.3,2.3,0,0,1-2,1,3.28,3.28,0,0,1-.78-.08,2.65,2.65,0,0,1-.56-.2,1.7,1.7,0,0,1-.36-.23l-.18-.16a5.42,5.42,0,0,1-.49.41,1.82,1.82,0,0,1-.49.26q-.14-1.24-.21-2.2t-.07-1.67h.43a3.58,3.58,0,0,0,.23,1.31,3.54,3.54,0,0,0,.6,1,2.73,2.73,0,0,0,.82.66,1.89,1.89,0,0,0,.88.24,1.87,1.87,0,0,0,.6-.11,2,2,0,0,0,.62-.36,2.09,2.09,0,0,0,.49-.62,1.88,1.88,0,0,0,.2-.9,2.26,2.26,0,0,0-.28-1.14,1.87,1.87,0,0,0-.89-.77l-1.37-.6a5.23,5.23,0,0,1-1.15-.66,2.83,2.83,0,0,1-.8-1,3.34,3.34,0,0,1-.3-1.52,3.72,3.72,0,0,1,.19-1.24,3.07,3.07,0,0,1,.52-1,2.36,2.36,0,0,1,.77-.62,2,2,0,0,1,.92-.22,1.73,1.73,0,0,1,1,.25l.73.45a2.33,2.33,0,0,1,.84-.57,11.11,11.11,0,0,1,.26,1.59q.08.84.08,1.82Z"/><polygon class="cls-13" points="165.89 118.58 132.94 118.58 128.38 138.87 165.89 138.87 165.89 118.58"/><polygon class="cls-14" points="155.44 140.61 154.46 139.83 165.27 119.23 166.25 120.01 155.44 140.61"/><polygon class="cls-14" points="153.89 139.37 151.48 137.45 162.28 116.85 164.69 118.77 153.89 139.37"/><polygon class="cls-14" points="142.22 140.1 141.24 139.32 152.05 118.72 153.03 119.5 142.22 140.1"/><polygon class="cls-14" points="140.67 138.86 138.26 136.94 149.06 116.34 151.47 118.26 140.67 138.86"/><rect class="cls-15" x="130.61" y="153.37" width="25.62" height="2.45"/><rect class="cls-16" x="130.61" y="155.46" width="25.62" height="2.66"/><path class="cls-15" d="M75.2,154.76l6.85-11.46h27.87l6.85,14.53s87.26-1.24,87.26,0v5.49l3,1.56-.57,1.86v1l-2,1.33.43,9.68-14.56.59-4.74-9.54-35.58.44v7.2h8.29l-.14,5.31h-10l-1.92,1.42h-15L130,185.76v2h-5.12v-3.54h-4.6v-2.3H75.2V175.6l-1.39-2.39v-3.6l1.39-2.24Z"/><rect class="cls-16" x="112.51" y="168.87" width="17.82" height="1.48"/><polygon class="cls-15" points="170.84 144.19 195.74 128.36 206.47 128.36 205.7 117.26 179.84 116.78 176.78 123.87 167.01 130.49 170.84 144.19"/><polygon class="cls-17" points="100.73 83.19 113.75 99.31 116.24 96 100.73 77.4 100.73 83.19"/><path class="cls-17" d="M69.88,29.1,27.13.94h0a1.32,1.32,0,0,1,2-.73L70.56,27.53Z"/><polygon class="cls-15" points="185.11 134.1 22.07 18.04 28.59 4.13 191.62 120.19 185.11 134.1"/><path class="cls-17" d="M18.91,77.4v3.07l1.22,1.89L21,83.51l.36,1.24s-.65,1.15-.79,1a11.9,11.9,0,0,0-.93-.8L18,83.15s-.43-.8-.65-.89a11.1,11.1,0,0,0-1.72,0,17.12,17.12,0,0,0,0,1.95c.07.44.5.66.72,1.52s1.15,1.75,1.22,2.11a2,2,0,0,0,1.44,1.06,12.61,12.61,0,0,0,2.59,0,4.52,4.52,0,0,0,2-1.24c.22-.27.36-1.59.65-1.86a5.85,5.85,0,0,0,.48-2.21,1.81,1.81,0,0,0-.48-1.77c-.72-.71-2.51-2.13-2.51-2.13l-1.22-2.3Z"/><ellipse class="cls-15" cx="25.83" cy="6.71" rx="5.36" ry="6.61"/><ellipse class="cls-16" cx="25.83" cy="6.71" rx="3.82" ry="4.71"/><rect class="cls-17" x="24.29" y="26.74" width="0.96" height="38.31"/><polygon class="cls-17" points="16.98 63.22 17.94 63.16 16.47 24.89 15.51 24.95 16.98 63.22"/><path class="cls-15" d="M25.37,6.34,15.62,20.41c-2.22,3.2-1.55,8.09,1.4,10.21l1.83,1.32c2.81,2,6.41.11,7.14-3.79L29.61,8.92Zm-4.91,20.4A1.7,1.7,0,0,1,19,24.9a1.7,1.7,0,0,1,1.49-1.84A1.7,1.7,0,0,1,22,24.9,1.7,1.7,0,0,1,20.46,26.74Z"/><path class="cls-15" d="M21.6,59.86H20.52c-2.89,0-5.23,2.89-5.23,6.45L16.39,79h7.9l1.53-13.92C25.83,62.19,23.93,59.86,21.6,59.86Zm-1,8.5a2.08,2.08,0,0,1,0-4.07,2.08,2.08,0,0,1,0,4.07Z"/><path class="cls-9" d="M74,36.49,65.15,30.2a5.5,5.5,0,0,1-1.43-6.59h0c1.08-2.3,3.48-3.09,5.35-1.77l8.83,6.29a5.5,5.5,0,0,1,1.43,6.59h0C78.26,37,75.85,37.82,74,36.49Z"/><polygon class="cls-17" points="195.94 118.26 79.15 35.12 79.85 33.63 196.63 116.78 195.94 118.26"/><polygon class="cls-15" points="89.23 62.69 100.73 83.19 107.62 74.5 89.23 62.69"/><polygon class="cls-15" points="116.54 93.52 112.22 98.72 130.73 121.04 135.4 115.41 116.54 93.52"/><path class="cls-15" d="M165.86,113.71l-33.52,2.13-5.94,30.71,4.21,7.09H157l16.67-6.14ZM136.55,137.1v1.65h-6.32l4.21-19.37h2.11ZM152.07,135l-12.26,2.13V119.38h12.26Zm13.77-2.83-11.09,3.31V119.38l11.09,1Z"/><rect class="cls-6" x="4.43" y="90.51" width="35.06" height="33.54"/><path class="cls-10" d="M6.25,107.09,11,103.91v.92l-4,2.61v0l4,2.61V111l-4.72-3.18Z"/><path class="cls-10" d="M12.38,101.54h.9v4h0a2,2,0,0,1,.64-.83,1.53,1.53,0,0,1,.92-.33c.66,0,1.72.53,1.72,2.76V111h-.9v-3.7c0-1-.29-1.92-1.14-1.92a1.39,1.39,0,0,0-1.2,1.17,1.83,1.83,0,0,0-.06.56V111h-.9Z"/><path class="cls-10" d="M19.07,102.7v1.85h1.28v.89H19.07v3.48c0,.8.17,1.25.67,1.25a1.55,1.55,0,0,0,.52-.08l0,.88a1.73,1.73,0,0,1-.79.16,1.11,1.11,0,0,1-1-.49,2.94,2.94,0,0,1-.35-1.68v-3.52h-.76v-.89h.76V103Z"/><path class="cls-10" d="M21.36,106.29c0-.67,0-1.21,0-1.75h.78l0,1h0a1.71,1.71,0,0,1,1.55-1.19,1.54,1.54,0,0,1,1.39,1.29h0a2.58,2.58,0,0,1,.55-.84,1.44,1.44,0,0,1,1.09-.45c.65,0,1.62.56,1.62,2.8V111h-.88v-3.65c0-1.24-.35-2-1.07-2-.51,0-.91.49-1.06,1.07a2.46,2.46,0,0,0-.07.59v4h-.88v-3.86c0-1-.35-1.77-1-1.77s-1,.59-1.11,1.17a2.08,2.08,0,0,0-.07.57V111h-.87Z"/><path class="cls-10" d="M29.85,101.54h.9V111h-.9Z"/><path class="cls-10" d="M36.9,107.83,32.18,111v-.92l4-2.61v0l-4-2.61v-.92l4.72,3.17Z"/><polygon class="cls-16" points="83.2 172.24 83.2 158.12 113.71 158.12 121.18 172.24 118.97 172.24 112.8 159.66 84.25 159.66 84.25 172.83 83.2 172.83 83.2 172.24"/><rect class="cls-16" x="75.2" y="154.76" width="6.23" height="0.71"/><rect class="cls-16" x="80.86" y="154.76" width="0.57" height="12.7"/><ellipse cx="101.01" cy="181.57" rx="15.76" ry="19.43"/><ellipse class="cls-18" cx="101.01" cy="181.57" rx="6.37" ry="7.85"/><ellipse class="cls-19" cx="101.01" cy="181.57" rx="4.74" ry="5.85"/><ellipse class="cls-17" cx="101.01" cy="181.57" rx="3.5" ry="4.31"/><path class="cls-16" d="M130,160.48v18.9h18.49v-18.9Zm17.63,18H130.84V161.36h16.78Z"/><rect class="cls-16" x="130.32" y="169.67" width="17.91" height="0.68"/><rect class="cls-16" x="130.32" y="172.83" width="17.91" height="0.77"/><rect class="cls-16" x="133.01" y="160.9" width="0.43" height="18.13"/><rect class="cls-16" x="145.65" y="160.9" width="0.67" height="17.89"/><polygon class="cls-16" points="148.76 171.53 156.09 156.47 180.94 156.47 192.15 179.09 189.42 179.09 179.46 159.07 156.42 159.07 150.34 172.83 148.76 172.83 148.76 171.53"/><ellipse class="cls-20" cx="194.64" cy="166.74" rx="1.51" ry="1.86"/><polyline class="cls-21" points="186.21 166.74 190.24 166.74 192.15 170.29 196.7 170.29 196.7 167.78 198.19 165.33 201.39 164.44 204.51 169.1 204.94 170.29 196.7 170.29"/><rect x="197.56" y="154.58" width="5.7" height="3.72"/><rect x="196.25" y="188.12" width="8.76" height="2.01"/><rect x="198.38" y="182.81" width="4.5" height="6.73"/><rect x="198.95" y="156.76" width="3.35" height="27.46"/><path d="M80.18,181.92H76.35V157.83h3.83Zm1.25,1.77H75.87v4.9h5.56Zm-1.25-4h-3v7.56h3Zm2.54,8.92H73.81v2.18h8.91Z"/><ellipse cx="168.65" cy="181.16" rx="15.76" ry="19.43"/><ellipse class="cls-18" cx="168.65" cy="181.16" rx="6.37" ry="7.85"/><ellipse class="cls-19" cx="168.65" cy="181.16" rx="4.74" ry="5.85"/><ellipse class="cls-17" cx="168.65" cy="181.16" rx="3.5" ry="4.31"/><rect class="cls-16" x="130.61" y="152.92" width="25.62" height="0.89"/><polygon class="cls-22" points="173.71 125.95 27.22 21.66 28.32 19.31 174.81 123.6 173.71 125.95"/><polygon class="cls-22" points="112.22 98.75 131.57 122.1 132.34 121.18 112.81 98.04 112.22 98.75"/><polygon class="cls-16" points="121.34 88.71 123.14 89.99 129.74 76.14 128.12 74.98 121.34 88.71"/><polygon class="cls-16" points="130.55 95.2 132.35 96.48 138.95 82.63 137.33 81.48 130.55 95.2"/><polygon class="cls-23" points="131.69 92.9 130.55 95.2 132.35 96.48 133.45 94.16 131.69 92.9"/><polygon class="cls-23" points="110.78 145.13 109.92 143.3 82.05 143.3 80.96 145.13 110.78 145.13"/><polygon class="cls-23" points="122.48 86.41 121.34 88.71 123.14 89.99 124.25 87.66 122.48 86.41"/><rect class="cls-16" x="90.91" y="143.3" width="1.39" height="15.12"/><ellipse class="cls-6" cx="20.73" cy="88.77" rx="0.5" ry="5.58"/><polygon class="cls-22" points="131.39 121.3 126.3 146.83 126.84 147.71 132.24 121.55 131.39 121.3"/></g></g></svg>