<?xml version="1.0" encoding="utf-8"?>
<!-- Generator: Adobe Illustrator 21.1.0, SVG Export Plug-In . SVG Version: 6.00 Build 0)  -->
<svg version="1.1" id="Layer_1" xmlns="http://www.w3.org/2000/svg" xmlns:xlink="http://www.w3.org/1999/xlink" x="0px" y="0px"
	 viewBox="0 0 247.4 247" style="enable-background:new 0 0 247.4 247;" xml:space="preserve">
<style type="text/css">
	.st0{fill:#EDBFAE;stroke:#000000;stroke-width:0.5;stroke-miterlimit:10;}
	.st1{stroke:#000000;stroke-width:0.5;stroke-miterlimit:10;}
	.st2{fill:#FFFFFF;}
	.st3{fill:#FFFFFF;stroke:#000000;stroke-width:0.5;stroke-miterlimit:10;}
	.st4{fill:#D1948E;}
	.st5{fill:#5C7193;}
	.st6{fill:#6B3E1F;stroke:#000000;stroke-width:0.5;stroke-miterlimit:10;}
	.st7{fill:#F6CDB9;stroke:#000000;stroke-width:0.5;stroke-miterlimit:10;}
	.st8{fill:none;stroke:#000000;stroke-width:0.5;stroke-miterlimit:10;}
	.st9{fill:#CECCCC;stroke:#000000;stroke-width:0.5;stroke-miterlimit:10;}
	.st10{fill:#B28A8A;stroke:#000000;stroke-width:0.5;stroke-miterlimit:10;}
	.st11{fill:#FFFFFF;stroke:#FFFFFF;stroke-width:0.5;stroke-miterlimit:10;}
	.st12{fill:#E39999;stroke:#000000;stroke-width:0.5;stroke-miterlimit:10;}
</style>
<title>im-potrait</title>
<g id="Layer_2">
	<g id="Layer_23">
		<path class="st0" d="M169.8,175.3l0.6,1.7v7.3l-4.9,9.5l-7.2,7.8l-7.8,4.9l-10.1,2.9l-8.4,1.2l-10.1-1.8l-11.3-2.3l-10.4-4.3
			l-5.2-5.2l-6.1-7.8l-5.2-7.8l-2.3-7.2l-1.7-8.7l-1.7-9v-7.8l1.2-4l1.7-3.2l5.8-1.2l4.9-1.7l2.9-1.7l7.5-19.1l4.3-9.8l14.7,21.7
			l17.6,7.2c0,0,39.3,13.3,39.6,13L169.8,175.3z"/>
		<path d="M210,92.1l3.8-15.3l-8.4-8.4l-4.6-5.2l-7.8-9.8l-9.8-7.5l-20.5-5.2l-16.2,2.6l-15.3,4.3l-7.9,7.4l-7.2,3.2l1.3-7.1
			l5.2-10.1l6.1-13l3.2-7.2L139,13l10.7-8.1l10.4-2.6l12.4-1.1L185.7,0l11,2l11.8,7.5c0,0,11.8,12.2,12.7,12.5s4.7,10.6,4.7,10.6
			l4,15.3v9l-6.4,18.2l-4.9,11.8l-6.1,8.4L210,92.1z"/>
		<path class="st1" d="M120.2,53.4L128,58l-1.7,17.3l-19.9,38.7l-4.9-2.3l-3.5-8.1l-2.9-7.2v-9c0,0,2.3-6.6,2.6-7.5s4.6-6.9,5.5-7.5
			L120.2,53.4z"/>
		<path class="st0" d="M212.5,31.7L212.5,31.7l-39.1-16.6l0,0l0,0c1.7-4.1,6.4-6,10.5-4.2l31.8,13.5
			C215.6,24.3,212.5,31.7,212.5,31.7z"/>
		<path class="st2" d="M197.4,88c-1,0.9-2.7,0.7-3.8,0.3c-0.7-0.2-1.5-0.3-2.2-0.5c-0.5-0.2-1-0.5-1.4-0.8c-1.1-0.5-2.2-1-3.2-1.7
			c-1.2-0.9-2.5-1.6-3.9-2c-0.8-0.3-1.6-0.4-2.4-0.7c-0.3-0.1-0.7-0.2-1-0.3c-0.3-0.2-0.6-0.4-0.8-0.6c0.2-0.5,1.4-0.6,1.8-0.6
			c0.7,0,1.3,0,2-0.1c1.6-0.3,3.2-0.5,4.9-0.6c1.6,0,5.8,2,4.9,0.6c-4-6.5,2.1,1.6,3.3,3.7c0.8,1.1,1.3,2.2,1.7,3.4"/>
		<path class="st3" d="M161.1,74.1c-0.1-0.3-0.4-0.6-0.5-0.9s-0.1-0.8-0.2-1.1c-0.2-0.5-0.4-1-0.7-1.5c-0.2-0.5-0.3-0.9-0.4-1.4
			c-0.2-0.7-0.6-1.3-1.2-1.7c-0.5-0.5-1.1-0.9-1.7-1.2c-0.7-0.3-1.5-0.4-2.2-0.7c-0.8-0.4-1.6-0.6-2.4-0.7c-0.7-0.1-1.4-0.2-2.2-0.3
			c-0.8,0.1-1.5,0.2-2.2,0.4c-1.2,0.3-2.5,0.6-3.8,0.8c0.3,0.5,0.9,0.7,1.3,1.1c0.5,0.4,0.9,0.8,1.3,1.2c2,1.9,4.8,2.2,7.4,2.8
			c1.3,0.3,2.5,0.8,3.6,1.4c1.1,0.6,2.3,1,3.4,1.6"/>
		<ellipse class="st4" cx="180" cy="82.2" rx="1.9" ry="2.3"/>
		<circle class="st5" cx="190.5" cy="84.5" r="4.2"/>
		<path class="st2" d="M142.8,66.4c0.1,1.3,1.6,2.3,2.6,2.8c0.7,0.3,1.3,0.8,2,1.2c0.5,0.2,1.1,0.3,1.6,0.3c1.2,0.4,2.4,0.7,3.6,0.9
			c1.5,0.1,2.9,0.5,4.3,1.2c0.8,0.3,1.4,0.7,2.2,1.1c0.3,0.1,0.6,0.3,0.9,0.4c0.3,0.1,0.7,0.1,1,0.1c0.2-0.5-0.6-1.4-0.9-1.7
			c-0.5-0.4-1-0.9-1.4-1.4c-1-1.3-2-2.6-3.2-3.7c-1.2-1.2-2.5-2.2-4.1-2.9c-1.6-0.5-3.4-0.3-4.9,0.5c-1.3,0.3-2.5,0.8-3.6,1.4"/>
		
			<ellipse transform="matrix(0.6725 -0.7401 0.7401 0.6725 -2.3249 142.3506)" class="st4" cx="159.7" cy="73.8" rx="2.3" ry="1.9"/>
		
			<ellipse transform="matrix(0.6725 -0.7401 0.7401 0.6725 -1.0544 135.0386)" class="st5" cx="152.1" cy="68.7" rx="4.2" ry="4.2"/>
		<ellipse transform="matrix(0.2123 -0.9772 0.9772 0.2123 52.9607 203.0865)" cx="152.5" cy="68.7" rx="1.7" ry="1.7"/>
		<circle cx="190.2" cy="84.2" r="1.7"/>
		<path class="st0" d="M106.3,103.1v10.7l3.5,11.8l2.6,8.7l5.8,13.3l6.6,7.5l6.3,4l8.4,2.9h10.1l7.1-1.8l8.4-4c0,0,8.1-4.1,8.1-3.5
			s6.9-4.3,6.9-4.3l5.5-3.8l4.3-5.8l8.4-17l12.7-26.6l4.3-9.5l1.2-2.3l1.2-9.2l0.9-6.9V54.5l-2-4c-0.6-2.9-1.8-2.9-4.6-5.2
			c-2.8-2.3-2.6-3.2-6.3-5.2s-11.6-5.8-11.6-5.8l-9.8-4l-7.5-2.6l-8.7-2h-6.1l-8.4,2l-7.5,3.5l-6.6,4.6l-8.4,8.4l-5.2,5.2l-2,4
			L106.3,103.1z M178.6,81.9c0.2-0.6,1.3-0.7,1.8-0.7c0.7,0,1.3,0,2-0.1c1.6-0.4,3.2-0.6,4.9-0.6c1.7-0.1,3.4,0.1,4.9,0.7
			c1.6,0.7,2.6,2.3,3.3,4c0.7,1.2,1.3,2.4,1.7,3.7c0.1,0,0,0,0,0c-1,0.8-2.6,0.6-3.7,0.2c-1.2-0.4-2.5-0.9-3.6-1.4
			c-1.1-0.7-2.4-1-3.3-1.9c-1.2-1-2.5-1.7-3.9-2.2c-0.8-0.3-1.6-0.5-2.4-0.7c-0.3-0.1-0.7-0.2-1-0.3
			C179.1,82.3,178.9,82.1,178.6,81.9z M143.1,66c1.3-0.2,2.6-0.6,3.9-0.9c0.8-0.2,3.8-0.1,4.5-0.2c1.9-0.2,4,1.2,4.8,1.6
			c0.6,0.4,1.2,0.9,1.7,1.4c0.6,0.5,1,1.2,1.2,1.9c0.2,0.5,0.3,1.1,0.4,1.6c0.3,0.5,0.5,1.1,0.7,1.7c0.1,0.4,0.1,0.9,0.2,1.3
			s0.4,0.6,0.5,1l-0.4-0.2c-1.1-0.7-2.3-1.2-3.4-1.8c-1.2-0.7-2.4-1.2-3.7-1.5c-2.7-0.7-5.5-1-7.6-3.2c-0.4-0.5-0.9-0.9-1.4-1.3
			C144,66.8,143.4,66.6,143.1,66z"/>
		<path class="st6" d="M212.1,96.5l2-3.5l-0.9-1.3l-4.3,5.3l-3.1,5.9l-0.6-1.2l-2,7.5v-1.4l-3.5,9.2v-2.3l-3.2,7.8v-2.3l-3.2,6.9
			l-1.4-2.3l-0.9,4.6l-2.4,1.4l-4.3,5.2l-2.3-2.9c0,0-6.1,2.6-6.1,2.3s3.2-4.6,3.2-4.6l-2-0.6l4-4h-4.3l2.3-2.9l-2.3-0.9l2.3-1.2
			c0,0-0.6-2-0.6-2.3s-1.2-3.5-1.2-3.5l-2.9,1.4l-1.2-4.6l-2.3,2.3l-1.8-3.5l-1.7,2.3l-1.4-2.6l-3.2,1.4l-0.6-2.9l-5.2,1.4l0.6-3.8
			l-4,2v-3.5l-4,2l1.4-3.2l-2.6,0.6l-1.4-2.6l-4.3,2.6v-2.9l-5.5,2l1.2-2l-7.5,2.3l0.9-3.5l-4.3,6.9l-0.9-2.3l-2,7.8l0.3-2.3
			l-4.6,4.3l1.2-5.5l-3.5,0.9l3.5-6.3l-4.6-1.2l4-4.6h-4.6l2.9-4.3l-4.6-0.6l5.2-4.6l-2.9-0.9l2.6-2.6l-1.4-2.3c0,0,2-4,2.3-4h-2.3
			l2.9-4l-2.3-0.3l2-2.9l-0.9-2.3l1.6-3l0.9,0.6l1.2-4.3l1.4-1.4v-5.5c0,0,0.9,2.3,1.2,2s1.7-4.6,2.3-5.8l1.9-0.7l-1.1-5.2l-3.5,3.2
			l-1.4,4.3l-17.6,49.7v10.7l3.5,11.8l2.6,8.7l5.8,13.3l6.6,7.5l6.3,4l8.4,2.9h10.1l7.2-1.7l8.4-4c0,0,8.1-4.1,8.1-3.5
			s6.9-4.3,6.9-4.3l5.5-3.8l4.3-5.8l8.4-17L212.1,96.5z"/>
		<polygon class="st7" points="150.2,130.8 149.9,136.6 145.9,137.5 148.8,142.1 145.9,144.1 146.8,148.2 143.9,149.9 143.9,154.2 
			147.9,151.1 151.1,154.2 153.7,151.1 156.3,154.2 156.3,149.9 161.2,152.5 161.5,148.2 165.8,151.1 166.7,148.2 171,148.2 
			168.7,145.6 173.3,141.8 168.7,141.8 173.3,137.8 168.7,136.6 172.5,132 167.6,132 		"/>
		<polygon class="st7" points="145.8,123.8 142.3,129.3 144.5,132.1 139.5,134.9 140.2,138.2 136.9,141.5 137.8,144.5 135,148.4 
			134.2,143.5 130,144.9 130.2,140.7 126.4,142.4 129.2,138.4 124.1,138.4 126.7,134.2 121.9,134.8 123.1,131.7 120.2,129.5 
			123.4,128.3 122.7,122.6 125.9,124.8 125.3,118.8 129.3,120.1 129.7,114 133.1,116.4 		"/>
		<polygon class="st6" points="204.2,72.8 207.7,72.2 201.1,71.6 204.8,71.3 197.9,69.9 202.5,69.6 195.6,68.7 197.6,67.9 
			192.2,68.4 193.9,67.3 184.9,69.9 189.5,69 186,71.1 189.5,70.8 184.3,72.5 190.9,72.5 191.8,70.8 194.7,73.9 194.4,72.2 
			199.3,74.5 198.5,72.8 204.2,76.2 201.9,73.4 206.8,77.4 206.3,75.1 208.6,78.8 208.9,77.4 209.4,81.4 210,79.1 211.2,81.7 
			210.9,79.4 209.2,74.5 206.8,73.4 		"/>
		<path class="st8" d="M200.2,89.2c0-0.9-0.2-1.7-0.5-2.5c-0.3-0.9-0.6-1.9-1-2.8c-0.7-1.8-2.1-3.3-3.8-4.3c-1.4-0.7-2.9-1.9-4.6-2
			c-0.7,0-1.4-0.1-2.1-0.2c-0.8,0-1.5,0.1-2.2,0.2c-1.1,0-2.2,0.1-3.3,0.5c-1.1,0.4-2.7,0.8-3.5,1.6"/>
		<path class="st8" d="M175.2,108c1-0.4,1.5-2.5,1.5-3.5c0-1.2-0.6-2-1.1-3c-0.7-1.3-1-2.7-1.7-4c-0.3-0.6-0.7-1.1-1-1.6
			c-0.1-0.2-0.4-0.8-0.4-0.7"/>
		<path d="M170.9,107.4c0,0.7-2,0.5-2.5,0.5c-0.8,0-1.6-0.1-2.3-0.2c-0.4-0.1-0.8-0.5-1.1-0.7c-0.4-0.2-0.8-0.3-1.2-0.4
			c0.6-0.4,1.3-0.8,2-1c0.8-0.2,1.6-0.3,2.4-0.3c0.9,0.1,1.8-0.1,2.4,0.7c0.4,0.4,1,1.9,0,1.9"/>
		<path d="M157.8,103.5c-0.9-0.1-1.6,0-2.2-0.6s-1.1-1.4-1.7-2c-0.4-0.4-0.9-0.7-1.5-1c-0.9-0.4-1.9-0.6-2.9-1
			c0.7-0.6,1.7-0.1,2.5,0c0.9,0,1.7,0.3,2.4,0.9c1.4,1.2,3.3,2.1,3.6,4.1"/>
		<polygon class="st6" points="149.9,50.7 147.7,48 153.1,51.8 150.4,49.2 156.7,52.5 153.3,49.3 159.2,53.1 158.2,51.2 162,55 
			161.4,53 166.7,60.8 163.7,57.2 165,61 162.6,58.5 165.4,63.2 160.3,59 160.8,57.1 156.5,57.7 157.9,56.5 152.6,55.2 154.4,54.4 
			147.7,53.3 151.4,52.6 145,52.6 146.9,51.2 142.7,52.6 143.4,51.3 140.4,54 141.4,51.9 138.9,53.1 140.6,51.5 145.1,48.9 
			147.6,49.5 		"/>
		<path class="st8" d="M147.1,98.5c-0.7-1-0.9-2.2-0.5-3.3c0.3-0.8,2.2-3,2.4-2.9"/>
		<path class="st8" d="M166.8,109.8c1.9,0.2,3.8,0.2,5.6-0.1"/>
		<path class="st8" d="M149.3,101.3c1.3,0.4,2.6,2,4,2.7"/>
		<path class="st8" d="M173.5,90.1c0.1-1.8,0.5-3.6,1-5.3"/>
		<path class="st8" d="M156.2,78.3c1.3-0.3,2.6-0.6,3.9-1"/>
		<path class="st8" d="M178.7,85.3c0.8,1,1.7,1.9,2.7,2.7"/>
		<path class="st8" d="M142,65c0.6-0.6,1.3-1.1,2.1-1.5c0.8-0.5,1.7-0.9,2.6-1.3c1.8-0.8,3.8-0.9,5.7-0.4c1.5,0.5,3.4,0.6,4.7,1.7
			c0.5,0.5,1.1,0.9,1.7,1.4c0.6,0.5,1,1.1,1.4,1.7c0.8,0.8,1.5,1.6,2,2.6c0.5,1.1,1.4,2.4,1.4,3.6"/>
		<path class="st8" d="M129.7,185.7c2.4,1.6,7.1-2.8,8.4-4.7c1.9-2.8,5-5.7,4.5-9.5"/>
		<path class="st8" d="M88.4,159.6c0.3-7.8,3.6-15.9,6.6-23"/>
		<path class="st8" d="M161.6,194.8c-0.1-0.7,1.6-3,2.1-4.1c0.8-1.7,1.2-3.5,1.8-5.3c1.1-3.5,2.6-6.9,4.4-10.1"/>
		<path class="st8" d="M109.2,155.4c0.6-1.4,0.5-3,1.6-4.2"/>
		<path class="st8" d="M130.7,177.2c0.7-0.8,4.6-4.1,5.6-3.3"/>
		<path class="st8" d="M103.1,33.8"/>
		<polygon class="st0" points="126.4,51.1 109.1,95.3 108.2,95.3 105,95.3 103.6,93.9 102.1,89.8 101,85.5 102.1,83.5 102.1,80 
			103,75.4 104.1,69.3 105.9,64.7 107.3,59.5 109.1,55.7 112.5,52.6 115.1,51.1 117.7,52 121.2,55.7 		"/>
		<path class="st0" d="M192.8,132.7c-0.1,0.2-0.2,0.4-0.2,0.7c0,0.8,0.7,1.5,1.5,1.5l0,0c0.1,0,0.3,0,0.4-0.1l2.7-0.8
			c0,0,4.8-3.2,4.9-3.6c0-0.1,0-0.2,0-0.2V128c0-0.2,0.1-0.4,0.2-0.6l3-6.3l0.1-0.1l1.4-3.9c0-0.1,0-0.2,0.1-0.2l0.8-4.1
			c0.1-0.3,0.2-0.6,0.4-0.8l1.5-1.5c0.2-0.2,0.3-0.3,0.3-0.5l0.8-2l1.7-4l1.2-2.9l0.8-1.7c0.2-0.5,0.1-1.1-0.2-1.6l-0.6-0.7
			c-0.4-0.4-1-0.6-1.5-0.5c-1,0.3-1.8,0.9-2.2,1.9L192.8,132.7z"/>
		<path class="st8" d="M210.4,100.1c0.2,0.6-0.8,1.4-1.2,2.1c-0.6,0.8-1.1,1.7-1.2,2.7c-0.2,1-1,4.2,0,4.9c-0.1-0.8-0.1-1.6-0.1-2.4
			c0.3-0.6,0.5-1.1,0.9-1.7c0.3-0.7,0.1-1.6,0.5-2.2c0.3-0.4,1.4-1.1,1.8-1.6c0.6-0.7,3-3.1,0.7-2.3c-0.8,0.3-2.2,1.3-2.2,2.2"/>
		<path class="st8" d="M207,109.8c0.6,1.3-0.6,3-0.7,4.3c-0.1,1.5-0.7,5-2,6c-2.5-4.4-0.4-7.6,2.6-10.9c0.3,0.7-0.2,1.3,0,2"/>
		<path class="st8" d="M114,150.9c0.1,1.1-0.2,2.2-0.1,3.3"/>
		<path class="st8" d="M117.4,62.5c1.5,2.9-2.8,3.4-4.6,3.3c-2.7-0.1-3.2,0.9-4.3,3.2c-0.7,1.6-1.4,3.3-1.9,5c-0.3,1-0.8,2-1.4,2.9
			c-0.6,1.1-0.4,2.3-1,3.3c0.1-2.9-0.3-6,0.3-8.9c0.2-1.4,0.7-2.7,1.3-3.9c0.4-0.6,0.8-1.2,1.1-1.9c0.1-0.7,0.1-1.3,0-2
			c0.1-3,1.2-5.8,3.2-8c1.1-1.2,1.9-2.3,3.6-1.8s1.2,1.7,1.7,3.2s2,2.7,2.2,4.3c0,0.8-0.1,1.7-0.4,2.5"/>
		<path class="st8" d="M117.2,67.1c1.9,0.1-1.5,6-2.1,6.9c-0.8,1.4-1.9,2.7-2.8,4c-0.6,0.9-1.2,3-2.1,3.4c-0.1-0.8,0.6-1.7,0.2-2.4
			c-0.4-1-1.6-0.7-2.1-1.7c-0.6-1.2,0.1-3.7,0.7-4.8c1.1-1.8,2.9-3.2,5-3.8c0.8-0.3,3.4-1,3.1-1.8"/>
		<path class="st9" d="M80.9,141.5l-2.9,6.6v8.4l5.8,24.9l6.9,10.1l9.5,10.7l10.7,4.3l22.5,4l8.1-1.4l9-2.6l7.8-4.9l7.5-9l4-9
			l0.6-6.6l-0.6-1.7l0.9-2.9l2.9,1.4l5.8,4.9l3.2,4.3l3.5,2.9l4.7,8.6l5.5,5.2l8.4,10.7l8.4,11l-2.3,1.7l13.6,6.1l20.8,17.3H-1
			c0.2-26.9,0.8-58.1,1-85c8.1-2.4,16.2-6.8,24.3-9.2l9.2-3.8l20.5-3.8l11.3-2l3.5-1.7l7.8-2.3h11.8L80.9,141.5z"/>
		<path class="st9" d="M-6,162.7"/>
		<polygon class="st6" points="180,4.9 173.3,8.9 171.3,14.4 177.7,17.6 174.5,11.3 182.3,17.3 180.8,10.7 188.9,21.7 188.1,13.9 
			195.9,25.7 193.6,15.3 200.2,26.3 201.4,20.8 207.4,33.8 208.3,22.8 214.4,36.4 214.1,26.6 221.3,40.4 216.7,26.9 221.9,33.8 
			213.5,18.5 222.4,29.2 217.2,18.2 225.6,25.7 214.1,13 220.7,18.2 211.2,8.4 218.7,14.1 214.4,8.9 206,6.6 212,6.6 199.3,3.8 
			204.5,2.9 184.3,2.9 		"/>
		<path class="st10" d="M161.2,120.5c-2.2,0-4.4-0.5-6.3-1.6c-1.4-0.8-2.7-2-4.2-2.8c-0.9-0.5-1.9-1-2.9-1.4
			c-0.9-0.3-1.8-0.5-2.7-0.9c-1.6-0.6-3.3-1.3-4.9-1.8c-1.4-0.4-2.8-0.7-4.2-0.9c-0.8-0.2-2.1-0.6-3-0.2c-0.6,0.4-1,1.1-1.1,1.8
			c0,0.9,0.8,1.8,1,2.6c0.4,1.5,0.9,2.9,1.6,4.2c0.2,0.6,0.6,1.2,1.1,1.6c0.6,0.5,1.3,0.9,2,1.2c1.1,0.6,2.1,1.2,3.1,1.8
			c1,0.6,1.8,1.4,2.8,2c2.5,1.7,4.8,3.4,7.8,4.2c1.5,0.4,3,0.7,4.5,0.6c0.5-0.1,1.1-0.2,1.6-0.1c0.7,0.2,1.5,0.5,2.1,0.9
			c0.8,0.4,1.7,0.4,2.5,0.1c0.3-0.1,0.7-0.2,1.1-0.3c0.4,0,0.8,0,1.2-0.1c0.7-0.2,1.4-0.6,1.9-1.2c0.8-0.8,3.1-2.2,2.5-3.5
			c-0.4-0.6-1-1.1-1.6-1.6c-0.7-0.6-1.6-1-2.3-1.6s-1.2-1.3-1.9-1.8c-0.6-0.4-1.2-0.8-1.7-1.4"/>
		<path class="st11" d="M166.4,125.1l-1.2,0.6l-1.4,2v1.4l1.2,0.3l0.6-0.9l1.2-1.7c0,0,0-1.2-0.3-1.4L166.4,125.1z"/>
		<polygon class="st11" points="163.2,127.9 161.8,129.7 160.3,129.1 160.1,127.9 160.6,126.2 161.8,124.2 163.5,123.3 164.7,123.9 
			164.7,125.9 		"/>
		<polygon class="st11" points="161.2,124.2 159.8,127.7 159.2,127.9 157.2,127.7 156.3,126.5 156.9,124.8 157.7,122.8 159.2,121.9 
			160.3,121.9 161.2,122.5 161.2,123.9 		"/>
		<path class="st11" d="M156,126.5l-0.5,0.6l-1.2-0.3l-0.9-0.3l-0.6-0.6h-0.6l-2-1.7l0.3-0.3l1.7-3.8l1.2-1.7c0,0,3.7,1.2,4,1.2
			c0.3,0,0.3,2.6,0.3,2.6L156,126.5z"/>
		<polygon class="st11" points="150.2,123.9 147.9,124.2 146.2,122.8 144.2,121.9 143.9,120.2 145.9,117.3 147.3,116.4 149.1,117 
			151.7,118.7 152,120.2 		"/>
		<polygon class="st11" points="140.4,119.9 139.5,117.8 140.7,115.2 143.3,113.5 145.3,113.8 145.9,117.3 143.9,119.9 141.9,120.7 
			140.7,120.2 		"/>
		<polygon class="st11" points="140.7,114.9 139.5,117.6 137.5,118.4 136.9,118.1 136.9,116.1 137.2,114.9 139,112.9 140.1,113.5 		
			"/>
		<polygon class="st11" points="136.9,111.8 135.5,112.1 134.9,113.8 134.3,116.4 136.7,116.1 137.2,114.9 137.2,112.3 		"/>
		<path class="st11" d="M163.8,131.6l-2.3,0.6h-4.6l-3.8-0.9l-3.8-1.7l-4.6-1.7l-2.6-2l-2.9-2.3l-3.5-2.3v-1.4l1.4-0.9l0.6,0.6
			l0.9,1.2h2.9v1.4h0.9l1.7,0.6l1.4,0.6l3.2,1.2c1,0.6,2.1,1.2,3.2,1.7c0.3,0,0.3,0.9,0.3,0.9h1.7c0.4,0.4,0.9,0.6,1.4,0.9h1.4
			l1.7,0.9l2,0.9c0,0,1.7,0.3,1.7,0s1.4,0.9,1.4,0.9L163.8,131.6z"/>
		<path class="st12" d="M130.9,112.1l0.6,2.6l0.9,3.2l1.2,3.8l2,3.5l2.6,4l4.6,3.2l4.6,1.2l2.3,2h4.9l4.3-0.6l3.8-0.9l4-2.3l3.2-1.7
			l1.1-1.8l-6.7-6.9l-5.5-2.9h-4l-5.2-3.8l-4.6-1.7l-6-1.7l-6.6-0.9L130.9,112.1z M132.9,111.5l5.2,0.6l3.5,1.4l3.5,1.2l3.8,1.7
			l2.9,1.4l1.2,1.7l3.5,0.6l1.7,0.6l4,1.2l2.3,1.7l2.3,1.4l1.7,1.4v0.6l-0.9,1.2l-1.4,1.2l-0.9,1.2l-1.4,0.6h-4.6l-2.9-0.6l-3.2-0.9
			l-3.2-1.2l-2-0.9l-6.4-3.5l-5.2-3.2l-0.9-2l-0.9-3.5l-1.7-2.6L132.9,111.5z"/>
		<path class="st12" d="M182.9,111.8"/>
		<path class="st8" d="M191.9,80.8c0-0.1,0.1-0.2,0.2-0.3"/>
		<path class="st8" d="M190.9,80.6c0-0.4,0.2-0.7,0.5-0.9"/>
		<path class="st8" d="M190.1,80.6c0-0.3-0.2-1.1,0.2-1.2"/>
		<path class="st8" d="M189,80.4c0-0.4,0.1-1.1,0.5-1.2"/>
		<path class="st8" d="M188.2,80.4c-0.3-0.3-0.1-1,0.2-1.2"/>
		<path class="st8" d="M187.1,80.3c-0.3-0.1,0.1-1.1,0.4-0.9"/>
		<path class="st8" d="M186.1,80.5c-0.2-0.2,0.1-1,0.3-1"/>
		<path class="st8" d="M185.3,80.5c-0.1-0.2-0.1-0.6,0.1-0.7"/>
		<path class="st8" d="M184.3,80.7c-0.1-0.2,0-0.5,0.1-0.7"/>
		<path class="st8" d="M183.4,81c0-0.2,0-0.6,0.2-0.7"/>
		<path class="st8" d="M191.9,80.8c0.1-0.4,0.5-0.6,0.8-0.5"/>
		<path class="st8" d="M192.7,81.2c0.1-0.2,0.3-0.4,0.6-0.4"/>
		<path class="st8" d="M193.6,81.9c0.2-0.1,0.4-0.4,0.7-0.4"/>
		<path class="st8" d="M194.4,82.8c0.2-0.2,0.3-0.6,0.7-0.6"/>
		<path class="st8" d="M194.8,83.6c0.2-0.3,0.6-0.5,1-0.5"/>
		<path class="st8" d="M195.4,84.9c0.3-0.3,0.6-0.4,1-0.4"/>
		<path class="st8" d="M195.9,86c0.2-0.2,0.4-0.4,0.7-0.4"/>
		<path class="st8" d="M196.5,86.9c0.2-0.2,0.4-0.3,0.6-0.4"/>
		<path class="st8" d="M196.9,87.8c0.1-0.1,0.3-0.2,0.5-0.2"/>
		<path class="st8" d="M153,65.1c0.3-0.1,0.4-0.4,0.4-0.7c0-0.1-0.2-0.7-0.2-0.6"/>
		<path class="st8" d="M152,64.8c0.1-0.2-0.2-0.7-0.3-1"/>
		<path class="st8" d="M150.2,65.1c0.2-0.4,0.1-0.9-0.2-1.3"/>
		<path class="st8" d="M148.4,64.9c0-0.3-0.1-0.6-0.2-0.9"/>
		<path class="st8" d="M147.3,64.9c0.3-0.2,0-0.7-0.3-0.8"/>
		<path class="st8" d="M145.8,65.3c0.1-0.4,0.1-0.8-0.2-1.2"/>
		<path class="st8" d="M149.4,64.9c0-0.3-0.2-0.6-0.4-0.7"/>
		<path class="st8" d="M154,65.3c0.2-0.3,0.3-0.6,0.4-1"/>
		<path class="st8" d="M155,66c0-0.4,0.5-1,0.7-1.1"/>
		<path class="st8" d="M156.2,66.1c0.2-0.2,0.4-0.7,0.8-0.7"/>
		<path class="st8" d="M157,66.6c0.1-0.3,0.4-0.5,0.6-0.7"/>
		<path class="st8" d="M157.7,67.2c0.2-0.2,0.4-0.5,0.8-0.5"/>
		<path class="st8" d="M158.8,68.3c0.2-0.3,0.5-0.6,0.9-0.7"/>
		<path class="st8" d="M159.6,69.9c0.1-0.3,0.2-0.9,0.6-0.9"/>
		<path class="st8" d="M159.6,71.1c0.3-0.3,0.6-0.5,0.9-0.7"/>
		<path class="st8" d="M160.4,72.3c0.2-0.2,0.4-0.5,0.6-0.8"/>
		<path class="st8" d="M145.1,74.7c0.8,0.6,1.8,0.9,2.8,1"/>
		<path class="st8" d="M189.7,92.4c1,0.6,2.4,0.8,3.4,1.2"/>
		<circle class="st2" cx="189.5" cy="83.3" r="0.7"/>
		
			<ellipse transform="matrix(0.999 -4.396806e-02 4.396806e-02 0.999 -2.8152 6.7521)" class="st2" cx="152.1" cy="67.4" rx="0.7" ry="0.7"/>
	</g>
</g>
</svg>
