<svg xmlns="http://www.w3.org/2000/svg" width="107" height="201" viewBox="0 0 107 201"><defs><style>.cls-1{fill:#1a1a1a;}.cls-2{fill:#4d4d4d;}.cls-3{fill:#333;}.cls-4{fill:#f2f2f2;}</style></defs><title>img-phone-2</title><g id="Layer_2" data-name="Layer 2"><g id="Layer_1-2" data-name="Layer 1"><path class="cls-1" d="M101.23,0H5.77A5.78,5.78,0,0,0,0,5.77V195.23A5.78,5.78,0,0,0,5.77,201h95.47a5.78,5.78,0,0,0,5.77-5.77V5.77A5.78,5.78,0,0,0,101.23,0ZM96.5,177h-86V13h86Z"/><circle class="cls-2" cx="53.25" cy="188" r="7"/><rect class="cls-3" x="36.25" y="4" width="34" height="2" rx="1" ry="1"/><polygon class="cls-4" points="10.5 142.98 96.5 15.5 96.5 13 92.54 13 10.5 134.62 10.5 142.98"/><polygon class="cls-4" points="96.5 32.84 96.5 24.47 10.5 151.96 10.5 160.33 96.5 32.84"/><polygon class="cls-4" points="96.5 48.25 96.5 39.88 10.5 167.37 10.5 175.74 96.5 48.25"/></g></g></svg>