<svg xmlns="http://www.w3.org/2000/svg" xmlns:xlink="http://www.w3.org/1999/xlink" width="396.46" height="548.3" viewBox="0 0 396.46 548.3"><defs><style>.cls-1,.cls-10{fill:#fff;}.cls-2{fill:#edbfae;}.cls-11,.cls-2,.cls-3,.cls-6,.cls-7,.cls-8{stroke:#000;}.cls-10,.cls-11,.cls-13,.cls-15,.cls-2,.cls-27,.cls-29,.cls-3,.cls-30,.cls-31,.cls-32,.cls-34,.cls-6,.cls-7,.cls-8{stroke-miterlimit:10;}.cls-10,.cls-11,.cls-2,.cls-3,.cls-6,.cls-7{stroke-width:0.25px;}.cls-4{fill:#d1948e;}.cls-5{fill:#5c7193;}.cls-6{fill:#6b3e1f;}.cls-7{fill:#f6cdb9;}.cls-21,.cls-27,.cls-29,.cls-30,.cls-32,.cls-8{fill:none;}.cls-9{fill:#b28a8a;}.cls-10{stroke:#fff;}.cls-11{fill:#e39999;}.cls-12{fill:#ccc;}.cls-13,.cls-25{fill:#f2f2f2;}.cls-13,.cls-27,.cls-31{stroke:#999;}.cls-14{fill:#ced5db;}.cls-15,.cls-19{fill:#c2c8cc;}.cls-15,.cls-34{stroke:#b3b3b3;}.cls-16,.cls-31{fill:#b3b3b3;}.cls-17{fill:#c1272d;}.cls-18{fill:#00c27b;}.cls-20{fill:#eaeff4;}.cls-22{fill:#f74b4b;}.cls-23{fill:#666;}.cls-24{fill:#999;}.cls-26{fill:#e6e6e6;}.cls-27{stroke-width:6px;}.cls-28{fill:gray;}.cls-29{stroke:gray;}.cls-30{stroke:#c2c8cc;stroke-width:0.5px;}.cls-32{stroke:#4d4d4d;}.cls-33,.cls-34{fill:#4d4d4d;}.cls-35{opacity:0.49;}.cls-36{fill:url(#radial-gradient);}</style><radialGradient id="radial-gradient" cx="422.87" cy="578.54" r="15" gradientTransform="translate(-540.79 -36.68) scale(1.83 0.25)" gradientUnits="userSpaceOnUse"><stop offset="0.06" stop-color="#e0e0e0"/><stop offset="0.21" stop-color="#fff"/><stop offset="0.51" stop-color="#4f4f4f"/><stop offset="1"/></radialGradient></defs><title>img-astronaut</title><g id="Layer_2" data-name="Layer 2"><g id="Moon"><circle class="cls-1" cx="322.31" cy="490.24" r="6.33"/></g><g id="HELMET"><path class="cls-2" d="M248.58,129c0,.17,17.78,5.17,17.78,5.17l8.29,1.82,11-3.77-1,4.37-2.22,8.27.6,1.29,1.34,1.77,1.8,1.79-.2,1.49-.63,1.65-2,2.64-3,2.61-2.88,2.51-2.72,1.89-3.92,1.38-4.23,1.17-3.24.5-4.91-1-4.7-1.94-4.13-1.86-2.75-2.42L244,154.87l-1.56-3.55-.6-4.39.69-4.41,1.88-2.44.66-.45Z"/><path d="M250.27,102.2l0-4.3,1.29-5.2,2.42-7.7,2.33-3,5.45-4.21s4.07-2.61,4.46-2.5S274,74.14,274,74.14l6.26.32,4.52,2,4.53,3.6,4.22,3.4,3.11,3.4,1.79,5.32.6,4.39-.72,3.21-1.17,5.87-.74,4.68L295.07,113l-1.8-2.82-1-4.41-4.44-5.17-5.21-4.79-8.81-3.2-5.53.17-5.39,1.44-3,.64-5.23.81L252,101.76Z"/><path class="cls-3" d="M296,121a17.58,17.58,0,0,1,0,3.87c-.12.36-1,3.17-1,3.17l-2.33,3-2.93,1.75-3.36,1.9-2.39-.41,2.81-17.92,3.87-6.29,4,.32Z"/><path class="cls-2" d="M282.7,80.58l-15.06-3.13-.78,3.27,18.57,3.86h0A3.35,3.35,0,0,0,282.7,80.58Z"/><path class="cls-1" d="M257.71,103.5a5.61,5.61,0,0,1,1.53-.75c1-.41,5.31-1.65,2.16-.43-.66.26,1.38.6,2,1a13.33,13.33,0,0,1,1.62,1.37,5.15,5.15,0,0,0,.71.52c.17.11.57.44.5.65a2.12,2.12,0,0,1-.45,0c-.14,0-.28-.1-.43-.14-.35-.11-.68-.25-1-.34a5.71,5.71,0,0,0-2-.28,9.31,9.31,0,0,1-1.64-.22,3.19,3.19,0,0,1-.73-.06c-.32-.11-.62-.27-.94-.38-.49-.17-1.17-.51-1.3-1"/><path class="cls-1" d="M274.72,107.53c.54.06,1.1.18,1.65.26a7.17,7.17,0,0,1,1.68.42,6.9,6.9,0,0,0,3.43.84,7.31,7.31,0,0,1,.8-.08,1.76,1.76,0,0,0,.76,0c-.41-.37-.78-.79-1.16-1.18a5.31,5.31,0,0,0-.69-.69,7.21,7.21,0,0,0-.86-.42,3.59,3.59,0,0,0-1.07-.34c-.34-.07-.64-.23-1-.3a4.24,4.24,0,0,0-.94,0,1.57,1.57,0,0,0-.87.28c-.18.12-.34.26-.52.37a6.41,6.41,0,0,0-.63.34c-.13.1-.24.24-.37.33s-.29.1-.41.19"/><path d="M274.7,107.61c1.72.37,3.28.93,4.95,1.45a7.75,7.75,0,0,0,3.45.1.25.25,0,0,0,.11-.41c-1.53-1.48-2.64-2.68-4.87-3-1.7-.25-2.52.91-3.93,1.56-.28.13,0,.56.25.42,1.48-.71,2.17-1.77,4-1.35s2.83,1.46,4.16,2.73l.11-.41c-2.87.49-5.39-1.06-8.24-1.23a.08.08,0,0,0,0,.16Z"/><path class="cls-4" d="M264.88,105.19a.84.84,0,0,0,.08,1.24,1,1,0,0,0,1.28-.33.84.84,0,0,0-.08-1.24A1,1,0,0,0,264.88,105.19Z"/><path class="cls-5" d="M262.65,104.89a2,2,0,0,1-2.61.41,1.67,1.67,0,0,1-.44-2.43,2,2,0,0,1,2.61-.41A1.67,1.67,0,0,1,262.65,104.89Z"/><path class="cls-1" d="M283.12,109.36a6.21,6.21,0,0,0-1-1.34,3,3,0,0,0-1.67-1.35,6.4,6.4,0,0,0-2.22,0,14.48,14.48,0,0,0-2.13.48,5.54,5.54,0,0,1-.89.14c-.21,0-.73.13-.77.35a2,2,0,0,0,.39.2c.14,0,.3,0,.45.07.36.06.72.08,1.08.16a5.6,5.6,0,0,1,1.85.63,9.12,9.12,0,0,0,1.55.54,3.09,3.09,0,0,0,.67.27c.33,0,.68,0,1,.09a2,2,0,0,0,1.68-.32"/><path class="cls-4" d="M276,107.63a.89.89,0,0,1-.71,1,.93.93,0,0,1-1-.86.89.89,0,0,1,.71-1A.93.93,0,0,1,276,107.63Z"/><path class="cls-5" d="M277.36,108a1.85,1.85,0,0,0,2.08,1.53,1.77,1.77,0,0,0,1.64-1.93,1.85,1.85,0,0,0-2.08-1.53A1.77,1.77,0,0,0,277.36,108Z"/><path d="M278.77,108.4a.8.8,0,0,0,1-.38.7.7,0,0,0-.41-.95.8.8,0,0,0-1,.38A.7.7,0,0,0,278.77,108.4Z"/><path d="M261.93,104.27a.81.81,0,0,1-1.08.17.69.69,0,0,1-.18-1,.81.81,0,0,1,1.08-.17A.69.69,0,0,1,261.93,104.27Z"/><path class="cls-2" d="M293.42,109.47l.32-1.86-.54-3-.87-4.86-1.22-3.17-1.83-3-2.52-2.71-.63-.42-1.58-1L280.87,88,277.46,87l-4.62-1s-3.81-.61-5.71-.84-2,.14-3.66.22-2.07-.2-3,.64l-1.79.88-.9,1.17-2.4,3.13-1.49,2.56-2,3.41-.18,1.06-.9,4.28-2.28,12.07-1.38,7.8.07,3,1,2.6s1.25,3.34,1.4,3.14,2,3.13,2,3.13l2,3.39,2.18,2.33,3.68,2.45,3.8,1,3.36.17,4.37-.94,5.56-3.1,3.2-2.31,4.34-3.17,2.78-3.62Zm-27.74-3.56c-.15,0-.29-.09-.43-.13-.36-.1-.69-.24-1.05-.32a5.54,5.54,0,0,0-2-.21,9.05,9.05,0,0,1-1.68-.16,14.81,14.81,0,0,1-1.7-.4c-.48-.15-1.12-.45-1.27-1,0,0,0,0,0,0a8.32,8.32,0,0,1,1.59-.85,3.5,3.5,0,0,1,2.25-.56,5.59,5.59,0,0,1,2,1,12.11,12.11,0,0,1,1.6,1.39,4.67,4.67,0,0,0,.7.52c.17.11.56.45.48.67A2.14,2.14,0,0,1,265.68,105.91Zm16.69,3.23a7.74,7.74,0,0,0-.85.12,6.77,6.77,0,0,1-3.59-.77,7,7,0,0,0-1.76-.38c-.57-.05-1.16-.17-1.73-.21l-.2,0c.12-.1.31-.13.44-.23s.27-.26.41-.38a7.49,7.49,0,0,1,.68-.4c.19-.13.38-.29.57-.42a1.76,1.76,0,0,1,.93-.34,4.4,4.4,0,0,1,1-.05,4.64,4.64,0,0,1,2.14.62c.25.2,1.36.9,1.59,1.15.38.42.76.86,1.17,1.24A1.84,1.84,0,0,1,282.37,109.14Z"/><path class="cls-6" d="M248.36,114.82l-1.38,7.8.07,3,1,2.6s1.25,3.34,1.4,3.14,2,3.13,2,3.13l2,3.39,2.18,2.33,3.68,2.45,3.8,1,3.36.17,4.37-.94,5.56-3.1,3.2-2.31,4.34-3.17,2.78-3.62,6.5-21.08.6-1.82-.44-1.91-1.77,1.48.5.7c-.09.53-.69,2.35-.66,2.51s.95-.41.95-.41L291,112.08l.15.84-.71,1.75h.47l-.21,1.41-.92.57,0,1.47-.92-.46v2.07l-.84-.56a11.2,11.2,0,0,1-.21,1.93l-1.13.43L287,123l-1.28-.41.69,2.82-1.83-.92-.08,2.17-1.68-1.12.27,2.54-2-.73-.39,3-1-1.13-1,2.14-.56-2.58-.5.85,1.29-3.13-.92.57.23-3.39-.59,1.38-2.13-2.6-.11,1-1.47-2-.75,1-.9-1.93L271,121l-.8-.82-.3,1.43L269,120l-.9,1.17-.95-1.66-.77,1.41-1.52-1.75-1,.84-.78-1.26-1.2.53,0-1.2-1.53.75-.24-1.34-1.62,1.29-.68-1.19s-1.25.8-1.32.89-.81.64-.81.64l.54,1-1.07-.27.09,1.54-1.58-1,.42,2.35-.89-.29s0,2.24,0,2.33a21.62,21.62,0,0,1-1.61-2.25l-1.59.42-.23-2.81-.47-1,.89-1.77-1.13.43.65-3.12-.45.59-.15.2.87-3.41-.6.78,1.14-4-.38.49,1.22-3-.51.25.35-2.72-.19-2.85-.66.22-.17,1.66Z"/><polygon class="cls-7" points="257.13 125.52 255.34 124.33 255.51 126.81 253.53 126.08 254.16 128.57 252.47 127.45 253.18 129.84 251.66 130.16 253.24 131.21 252.8 132.39 255.13 132.46 254.11 134 256.57 134.31 255.45 135.78 257.22 135.33 257.34 137.03 259.32 136.72 259.97 138.78 261.09 137.31 260.49 136.03 261.86 134.87 261.33 133.48 263.58 132.62 262.34 131.35 263.74 129.32 257.13 125.52"/><polygon class="cls-7" points="273.73 128.57 275.59 128.57 274.16 130.74 275.91 131.28 274.15 133.17 275.9 133.18 274.14 134.94 275.02 136.16 273.38 136.15 273.04 137.51 271.4 136.15 271.29 138.18 269.43 136.96 269.42 138.99 268.44 137.5 267.45 138.99 266.25 137.49 264.71 138.98 264.72 136.95 265.82 136.13 265.49 134.24 266.59 133.29 265.5 131.12 267.04 130.72 267.15 128.01 273.73 128.57"/><polygon class="cls-6" points="258.07 96.17 256.93 96 255.03 97.24 254.32 97.96 255.42 97.36 255.03 98.28 256.29 97.05 256.02 97.61 257.83 96.89 257.02 97.54 259.86 97.36 258.27 97.77 261.27 98 260.51 98.38 262.89 98.78 262.34 99.3 264.22 98.92 264.08 99.72 266.5 101.32 265.06 99.48 266.24 100.42 265.51 98.89 266.96 100.3 264.35 97.22 264.68 98.03 262.87 96.55 263.38 97.33 260.63 95.94 262.23 97.16 259.34 95.97 260.63 96.98 258.06 95.57 259.17 96.6 258.07 96.17"/><path d="M266.46,105c-1.63-4.24-7.1-4.9-10.09-1.85,0,0,0,0,0,0,3-3,8.43-2.37,10,1.84,0,0,0,0,0,0Z"/><path d="M264.92,111.82c-.31-.08-.91.26-1.17.38-.73.32-1.39.77-2.1,1.12s-1.58,1.4-1.23,2.31a.2.2,0,1,0,.37-.16,1.58,1.58,0,0,1,.46-1.54,7.33,7.33,0,0,1,1.34-.75,12.54,12.54,0,0,1,2.33-1.25.06.06,0,0,0,0-.11Z"/><path d="M262.31,116.6c-.36-.22.25-.6.47-.65.42-.11.68.18,1.05.36a3,3,0,0,1,.82.68,2.62,2.62,0,0,1,.46.83c-.18,0-.36-.12-.55-.15a3.48,3.48,0,0,1-.6,0,4.64,4.64,0,0,1-.91-.49c-.19-.12-1-.56-.77-.79"/><path d="M267.93,118.3c.63-.59,1.55-.44,2.37-.51a1.79,1.79,0,0,1,1.09.28c.31.16.81.23.91.61-.44-.11-.86-.29-1.31-.39a2.77,2.77,0,0,0-.8,0c-.39,0-.76.19-1.15.25a1.34,1.34,0,0,1-1-.31"/><polygon class="cls-6" points="285.86 102.41 286.92 102.82 287.86 104.8 288.06 105.75 287.46 104.71 287.28 105.69 286.89 104.03 286.81 104.63 285.65 103.14 285.99 104.09 283.67 102.56 284.79 103.69 282.1 102.43 282.55 103.12 280.28 102.31 280.46 103.02 279.07 101.79 278.74 102.54 275.78 102.74 278.04 101.86 276.5 102.09 277.98 101.14 275.95 101.64 279.91 100.27 279.17 100.8 281.55 100.42 280.68 100.84 283.8 100.98 281.75 101.25 284.89 101.63 283.22 101.87 286.2 101.9 284.68 102.25 285.86 102.41"/><path d="M274.17,116.69c.15.09.1.94.1,1.1a1.41,1.41,0,0,1-1,1.24c-.15.06,0,.28.13.22a1.63,1.63,0,0,0,1.15-1.41c0-.29.08-1.19-.22-1.37a.13.13,0,0,0-.13.22Z"/><path d="M261.07,116.84a9.66,9.66,0,0,0,2,1.43c.14.08.27-.14.13-.22a9.4,9.4,0,0,1-2-1.39c-.12-.11-.29.07-.18.18Z"/><path d="M269.61,119.62a15.37,15.37,0,0,1,2.15,0,.13.13,0,0,0,.07-.24,15.75,15.75,0,0,0-2.22-.05c-.16,0-.16.23,0,.25Z"/><path d="M266.84,107.83a21.76,21.76,0,0,1-1.08,2c-.07.12.1.25.19.15a6.24,6.24,0,0,0,1-2.13c0-.06-.07-.09-.1,0Z"/><path d="M274,108.84c.37.45.74.89,1.1,1.34.11.14.33-.08.19-.19a9.81,9.81,0,0,1-1.21-1.23c0-.06-.13,0-.08.08Z"/><path d="M263.5,107.4a6,6,0,0,0,1.75-.21c.17,0,.14-.34,0-.31-.58.07-1.12.3-1.71.33a.1.1,0,0,0,0,.19Z"/><path d="M274,106.43c3.24-2.84,8.61-1.6,9.85,2.6a0,0,0,0,0,0,0,6.09,6.09,0,0,0-9.89-2.61s0,0,0,0Z"/><path d="M255.92,144.94c-1.57,1.46-1.87,7.71.92,8.26.45.09.63-.61.19-.68-2.48-.38-2-6.21-1.07-7.55,0,0,0,0,0,0Z"/><path d="M282.19,144.59c-.78,3.27-1.64,6.53-3.54,9.35-.09.13.13.26.22.13,1.92-2.84,2.78-6.12,3.56-9.41,0-.16-.2-.22-.24-.07Z"/><path d="M244.9,139.63a23.54,23.54,0,0,1-1.22,5,11.33,11.33,0,0,0-.59,2,4.91,4.91,0,0,1-.25,1.58c-.08.14.14.27.22.13a2.47,2.47,0,0,0,.21-.91,12.69,12.69,0,0,1,.64-2.69,23.45,23.45,0,0,0,1.23-5.06c0-.16-.23-.16-.25,0Z"/><path d="M272.66,145.75a6.14,6.14,0,0,1-.51,1.77.13.13,0,0,0,.24.07,6.28,6.28,0,0,0,.52-1.84c0-.16-.26-.16-.25,0Z"/><path d="M257.59,147.37c.41,0,.66.95.76,1.24a6.74,6.74,0,0,1,.3,1.15c0,.16.26.09.24-.07a6.93,6.93,0,0,0-.47-1.6c-.15-.36-.38-.95-.84-1-.16,0-.16.24,0,.25Z"/><path class="cls-8" d="M306.09,107.85"/><polygon class="cls-2" points="293.82 110.92 296.06 110.49 297.23 110.82 297.8 111.94 298.24 113.85 297.89 115.54 297.07 117.65 296.5 119.64 295.34 121.97 294.45 123.74 293.55 124.92 293.45 125.88 291.9 127.07 290.32 128.09 289.42 128.23 288.27 127.46 287.95 127.25 293.13 108.1 293.82 110.92"/><path class="cls-2" d="M250.49,104a1.3,1.3,0,0,0-.31-1.16.69.69,0,0,0-.68-.21l-.39.09a.64.64,0,0,0-.49.48l-.17.78-.33,1.26L247.7,107l-.25.86a.58.58,0,0,0,0,.26l.15.85a.58.58,0,0,1-.05.36l-.78,1.56,0,.09-.5,1.64,0,.06-.54,2.85a.59.59,0,0,1-.11.25l-.56.73-.06.09a15.66,15.66,0,0,0,.84,2.41l.77.92a.64.64,0,0,0,.14.12h0a.68.68,0,0,0,1-.4Z"/><path d="M249.79,105.2a1.42,1.42,0,0,0-.3-1.5c-.19-.21-.36-.34-.54-.07s0,1.07.09,1.39a3.72,3.72,0,0,1,.19.63c0,.38-.23.63-.36.95-.07.17-.14.53-.2.69a2.74,2.74,0,0,1-.56.83.13.13,0,0,0,.12.21c.61-.11.95-.88,1.19-1.37a4,4,0,0,0,.37-1c.09-.44-.14-1.23.13-1.58.1-.13-.12-.25-.22-.13-.36.48,0,1.3-.21,1.87s-.68,1.83-1.33,1.95l.12.21a3.27,3.27,0,0,0,.75-1.1,4.55,4.55,0,0,1,.15-.7,3.74,3.74,0,0,0,.24-.43,1.06,1.06,0,0,0,.06-.33c0-.48-.27-1-.31-1.45,0-.16-.09-.4.06-.49s.4,1.09.32,1.27.15.27.22.13Z"/><path d="M248.33,109.07a4.29,4.29,0,0,1,.54-.68l-.21-.09c.15,1.32.22,3.45-1.38,4-.49.17-.29-.24-.18-.62a5.61,5.61,0,0,1,.46-1.07c.31-.59.57-1.68,1.08-2,.13-.09,0-.31-.13-.22-.64.47-.81,1.46-1.17,2.14a3.4,3.4,0,0,0-.58,2.18.13.13,0,0,0,.18.07c1.92-.88,2.19-2.5,2-4.44a.13.13,0,0,0-.21-.09,4,4,0,0,0-.54.68c-.1.12.07.3.18.18Z"/><path d="M271,146.13c.3-.37.52-.79.81-1.16.1-.12-.08-.3-.18-.18-.29.37-.52.79-.81,1.16-.1.12.08.3.18.18Z"/><path d="M293.31,114.57a4.87,4.87,0,0,1,2.39-1.8l.36-.3q1.85.11,1.76,1.39c.46,1.3-.63,2.34-1.15,3.35a2.7,2.7,0,0,0-.35.87,9,9,0,0,1-.74,2.38c-.18.32-1.2,2.13-1.54,2.12a27.39,27.39,0,0,0,1.18-4.66,1.78,1.78,0,0,0-.23-1.11c-.34-.63-2.84-1.57-1.48-2.6.13-.1,0-.31-.13-.22-.87.66-.51,1.16.11,1.92.16.2.57.33.7.53a3.83,3.83,0,0,1,.31,3.41c-.32,1.13-.65,2.25-1,3.38,0,.11.13.22.21.12a14.62,14.62,0,0,0,2.8-4.81c.55-1.78,2.26-3.78,1.39-5.8a1.27,1.27,0,0,0-1.57-.84A6.31,6.31,0,0,0,294,113.2a2.61,2.61,0,0,0-1,1.31c-.06.15.18.21.24.07Z"/><path d="M292.25,115.64c-.37.53.61,1.37.88,1.78a2.91,2.91,0,0,1,.22,3.19c-1,1.33-1,.21-1.76.68-.34.21-.37.79-.34.07s.1-1.33.11-2c0-.41.19-3.74.92-3.48.15.05.22-.19.07-.24-.84-.3-1,1.48-1.09,1.94a13.52,13.52,0,0,0-.15,2,9.33,9.33,0,0,0-.11,2.69.13.13,0,0,0,.23,0,1.18,1.18,0,0,1,.15-.24l.84-.61.29,0a4,4,0,0,0,.41-.08,2.32,2.32,0,0,0,1-1.49,3,3,0,0,0-.16-2c-.14-.33-1.48-1.91-1.26-2.22.09-.13-.12-.26-.22-.13Z"/><polygon class="cls-6" points="284.59 77.75 277.24 72.86 278.9 74.42 273.53 72.32 275.73 73.79 272.08 72.54 269.16 73.26 273.39 73.12 267.37 74.14 271.14 73.98 263.63 75.49 268.63 74.97 263.89 77.43 269.92 75.98 262.9 79.14 266.59 78.05 261.38 81.53 267.61 78.58 264.95 81.83 270.69 78.7 268.15 82.63 273.74 79.7 272.73 81.83 278 79.72 274.46 82.69 280.37 80.56 278.03 82.99 283.83 81.23 281.57 83.13 285.99 82.97 283.18 84.35 286.32 84.81 287.01 82.46 285.64 79.49 284.59 77.75"/><path class="cls-9" d="M262.51,123.16a4,4,0,0,1-1,.06c-.4,0-.77.13-1.16.17s-.83,0-1.25,0a2.83,2.83,0,0,0-1,.14c-.58.32-.12,1.33,0,1.79a1.78,1.78,0,0,0,.37.85,2.74,2.74,0,0,0,.41.32,2.79,2.79,0,0,1,.31.36,1.53,1.53,0,0,0,.94.55,7,7,0,0,1,1,.22c.22.09.36.3.54.43a6.91,6.91,0,0,0,1.8.87,12.47,12.47,0,0,0,4,.47c.51,0,1,0,1.51,0s1.05.07,1.59.13a8.8,8.8,0,0,0,1.06.07,1.78,1.78,0,0,0,.83-.27,9.6,9.6,0,0,0,1.69-1c.31-.24.82-.35,1.05-.64a.85.85,0,0,0,.09-.87c-.21-.33-.81-.5-1.16-.66a16.1,16.1,0,0,0-1.77-.7c-.75-.23-1.52-.38-2.27-.57-.41-.11-.81-.25-1.22-.36a11.17,11.17,0,0,0-1.43-.23c-.76-.09-1.53,0-2.28-.07a6,6,0,0,1-2.71-1"/><path d="M262.51,123c-2.12.26-6.63-.4-4.12,3.18.84,1.2,2.32,1.46,3.53,2.11,2.16,1.16,4.26,1.12,6.67,1.17,2.21,0,3.16.4,5.07-.74.65-.39,2.25-1,1.72-2.07s-3.51-1.55-4.52-1.81c-2.66-.68-6-.47-8.36-1.82a.13.13,0,0,0-.13.22c2.43,1.42,5.36,1.06,8,1.75.91.24,5.14.8,4.2,2.83-.49,1.07-3.19,1.54-4.07,1.52-1.55,0-3.15-.06-4.71-.17a8.48,8.48,0,0,1-3.52-.92c.63.35-.76-.64-1.14-.79-1.08-.44-3.22-.93-3.06-2.65s3.18-1.4,4.38-1.55c.16,0,.16-.27,0-.25Z"/><path class="cls-10" d="M259.28,123.55c-.18,0-.48.42-.48.42l0,.87,0,.43.5.18.38-.49v-1l-.27-.48Z"/><polygon class="cls-10" points="259.76 124.17 260.28 123.48 260.85 123.56 261.26 124.28 261.15 125.24 260.91 125.97 260.51 126.29 259.83 126.14 259.76 125.2 259.76 124.17"/><polygon class="cls-10" points="261.54 124.32 261.92 123.83 262.38 123.84 262.8 124.12 263.1 124.77 262.89 125.66 262.65 126.39 262.04 126.57 261.23 126.18 261.09 125.94 261.47 124.42 261.54 124.32"/><path class="cls-10" d="M263.25,124.57s.68-.88.78-.81,1.77.59,1.77.59l0,.87-.35,1.69,0,.17-1.19.1-.21-.14-.36.06-.39-.11-.5-.18-.06-.34Z"/><polygon class="cls-10" points="265.88 125.28 266.36 124.86 267.76 124.91 268.54 125.13 268.84 125.77 268.82 127.24 268.27 127.76 267.31 127.56 266.3 127.63 265.54 126.97 265.88 125.28"/><polygon class="cls-10" points="269.98 128.01 269.41 127.92 268.9 127.14 268.84 125.77 269.95 124.74 270.76 125.13 271.26 126.34 271 127.5 270.16 127.98 269.98 128.01"/><polygon class="cls-10" points="271.92 125.9 272.49 125.98 272.59 127.08 272.4 127.55 271.87 128.23 271.59 128.19 271.06 127.42 271.33 126.25 271.92 125.9"/><polygon class="cls-10" points="273.27 126.2 272.59 127.08 272.5 127.62 273.27 128.27 273.74 127.25 273.98 126.53 273.52 126.08 273.27 126.2"/><path class="cls-10" d="M258.87,125.94s.83,0,.75.06.63.42.63.42l1,.2.86.13.53.35a3,3,0,0,0,.75.06l.63.42s.23-.29.33-.22a15.1,15.1,0,0,0,1.61.18l1.46.38.68.15.78.22.32.21.38-.49.74.49.32.21.62-.18.36-.06.3.64-.38.49-1.86-.06-1.65.08-1.47.06-2.13-.53-1.82-.32-1.59-.61-1.68-1.12-.69-.75Z"/><path class="cls-11" d="M275.58,126.71l-2.64-1.31-2.66-.88-2.13-.53h-2.87l-1.47-1-2.75-.35-4.22.74,0,.87.71,1.36.87,1.76,1.14,1.2,1.43,1.24,1.79,1.19,1.37-.13,2,.73,2.51,0,2-.74,1.64-.68,1.4-1,1.14-.87.89-.74Zm-.89.74-1.31.46-1.22,1-.84.47-2.72-.18-3.21-.36-1-.2-1.46-.38-1.38-.48-1.2-.5-.53-.35-1.16-.77-.38-.54V125l-.23-.74v-.6l.15-.2,1-.07,1.22.07,1.29,0,1.77.59.78.22,1.41.64.87-.31,1.43.21,1.82.32,1.56.45,1.64.35,2,1.06Z"/><path class="cls-11" d="M256.81,115"/><path d="M261.47,102.11l0,.15c0,.16.22.23.24.07l0-.15c0-.16-.22-.23-.24-.07Z"/><path d="M261.93,102.1l-.06.32c-.08.14.14.27.22.13a.65.65,0,0,0,.08-.51c0-.16-.27-.09-.24.07Z"/><path d="M262.39,102.26c0,.09-.14.25-.2.32s.07.3.18.18.34-.33.27-.56-.29-.09-.24.07Z"/><path d="M262.77,102.43a.52.52,0,0,1-.14.38c-.1.13.12.25.22.13a.58.58,0,0,0,.14-.63c-.07-.15-.28,0-.22.13Z"/><path d="M263.15,102.63l-.14.29a.13.13,0,0,0,.07.24.47.47,0,0,0,.31-.6c0-.16-.27-.09-.24.07Z"/><path d="M263.49,103a.3.3,0,0,1-.08.17c-.16,0-.09.27.07.24s.37-.55.08-.65-.22.19-.07.24Z"/><path d="M263.81,103.25l-.09.24c-.13.09,0,.31.13.22a.45.45,0,0,0,.18-.58c-.07-.14-.29,0-.22.13Z"/><path d="M264.05,103.54l-.08.15c-.13.1,0,.31.13.22a.38.38,0,0,0,.2-.36c0-.16-.26-.16-.25,0Z"/><path d="M264.4,103.78l-.12.22c-.12.11.06.29.18.18a.65.65,0,0,0,.18-.33.13.13,0,0,0-.24-.07Z"/><path d="M264.61,104.12a.42.42,0,0,1-.09.24.13.13,0,0,0,.22.13.7.7,0,0,0,.12-.36c0-.16-.24-.16-.25,0Z"/><path d="M261.34,102l.11.25c0,.16.22.23.24.07a.49.49,0,0,0-.23-.53c-.13-.09-.26.12-.13.22Z"/><path d="M261,102.05l.07.2c0,.16.26.16.25,0a.58.58,0,0,0-.14-.38c-.1-.12-.28.05-.18.18Z"/><path d="M260.42,102.06a1.59,1.59,0,0,1,.15.29c.07.15.28,0,.22-.13a1.06,1.06,0,0,0-.15-.29c-.1-.13-.31,0-.22.13Z"/><path d="M260,102.11a.39.39,0,0,1,.06.26.13.13,0,0,0,.25,0,.5.5,0,0,0-.13-.44c-.12-.11-.29.06-.18.18Z"/><path d="M259.51,102.25a.44.44,0,0,1,.2.34c0,.16.28.09.24-.07a.78.78,0,0,0-.31-.49c-.13-.1-.25.12-.13.22Z"/><path d="M258.9,102.56l.23.32c.05.15.29.09.24-.07a.87.87,0,0,0-.29-.43c-.12-.1-.3.07-.18.18Z"/><path d="M258.55,102.89a.51.51,0,0,1,.1.25c0,.16.27.09.24-.07a.69.69,0,0,0-.16-.36c-.1-.12-.28.05-.18.18Z"/><path d="M258.09,103a.45.45,0,0,1,.11.26c0,.16.27.09.24-.07a.68.68,0,0,0-.13-.32c-.1-.13-.31,0-.22.13Z"/><path d="M257.72,103.35l.07.13c.05.15.3.09.24-.07a.63.63,0,0,0-.14-.24c-.1-.12-.28.05-.18.18Z"/><path d="M280.2,105.92v0a.13.13,0,0,0-.18-.07.49.49,0,0,0-.31.61c.05.15.29.09.24-.07s.08-.27.19-.33l-.18-.07v0c.05.15.3.09.24-.07Z"/><path d="M280.55,106.17a1.12,1.12,0,0,0-.42.33c-.09.14.13.26.22.13a.92.92,0,0,1,.33-.24.13.13,0,0,0-.13-.22Z"/><path d="M281.2,106.57a.65.65,0,0,0-.5.46.13.13,0,0,0,.24.07l.32-.29a.13.13,0,0,0-.07-.24Z"/><path d="M281.73,107.11l-.29.26a.13.13,0,0,0,.18.18l.29-.26c.12-.1-.05-.28-.18-.18Z"/><path d="M282.28,107.38c-.23,0-.47.08-.44.34s.26.16.25,0l.19-.09c.16,0,.16-.24,0-.25Z"/><path d="M282.72,107.75a.74.74,0,0,0-.45.44c-.06.15.18.21.24.07l.27-.27c.15-.06.08-.3-.07-.24Z"/><path d="M281.53,106.93a.68.68,0,0,0-.44.17c-.13.1.05.27.18.18l.26-.1c.16,0,.16-.26,0-.25Z"/><path d="M279.4,105.71a1.16,1.16,0,0,0-.13.49c0,.16.23.16.25,0a1,1,0,0,1,.1-.37.13.13,0,0,0-.22-.13Z"/><path d="M278.77,105.71a.64.64,0,0,1,0,.44.13.13,0,0,0,.22.13.88.88,0,0,0,.06-.63c0-.16-.27-.09-.24.07Z"/><path d="M278.19,105.61a.72.72,0,0,1,.06.34.13.13,0,0,0,.25,0,.67.67,0,0,0-.13-.52c-.1-.12-.28.06-.18.18Z"/><path d="M277.83,105.56a.7.7,0,0,1,0,.36c0,.16.24.16.25,0a1.15,1.15,0,0,0,0-.42.13.13,0,0,0-.24.07Z"/><path d="M277.31,105.7a.5.5,0,0,1,.12.3c0,.16.27.09.24-.07a.73.73,0,0,0-.18-.41c-.1-.12-.28.06-.18.18Z"/><path d="M276.65,105.67a.73.73,0,0,1,.12.39c0,.16.27.16.25,0a1.22,1.22,0,0,0-.15-.52.13.13,0,0,0-.22.13Z"/><path d="M276.06,106a.48.48,0,0,1,0,.37c-.06.15.18.22.24.07a.59.59,0,0,0,0-.56c-.08-.14-.29,0-.22.13Z"/><path d="M275.58,106.43a1.48,1.48,0,0,1,.14.44c0,.16.27.09.24-.07a2.22,2.22,0,0,0-.17-.5c-.07-.15-.28,0-.22.13Z"/><path d="M275.14,106.65c0,.13,0,.26,0,.4s.26.16.25,0,0-.26,0-.4a.13.13,0,0,0-.25,0Z"/><path d="M278.86,111.31a3.21,3.21,0,0,0,1.33.35c.16,0,.16-.25,0-.25a2.87,2.87,0,0,1-1.2-.31c-.14-.07-.27.15-.13.22Z"/><path d="M257.75,106.47c.53.12,1,.34,1.56.42.16,0,.23-.22.07-.24-.54-.08-1-.3-1.56-.42-.16,0-.22.21-.07.24Z"/><path class="cls-1" d="M262,103.87a.31.31,0,0,1-.41.06.26.26,0,0,1-.07-.38.31.31,0,0,1,.41-.06A.26.26,0,0,1,262,103.87Z"/><path class="cls-1" d="M279.79,107.55a.31.31,0,0,1-.42,0,.26.26,0,0,1-.05-.39.31.31,0,0,1,.42,0A.26.26,0,0,1,279.79,107.55Z"/><path class="cls-12" d="M333.5,139.74l-6.69,14.66,1.89,13.88-1.89,8.58s-10.25,18.47-10.91,19,0,20.58,0,20.58L312.2,241l-10.38,24.65s2.7,15.82.76,15.84-10.84,13.11-10.84,13.11a18.7,18.7,0,0,0,1.82,11c2.82,5.16-.2,12.47,2.22,14.29,1.3,1,7,3.89,12,6.37a50,50,0,0,0,6.68-17.11l32.81-172.67Z"/><polygon class="cls-12" points="171.09 121.13 166.08 147.51 179.74 138.09 171.09 121.13"/><path class="cls-12" d="M182.49,79.77a50,50,0,0,0-6.83,17.34l-.82,4.32,4.91,1.71,7.4-10.36Z"/><path class="cls-12" d="M161.35,278.32,158,270.58,151.08,251s12.63-8.46,14.63-10.14-1.56-19.35-1.56-19.35l1.56-10.3-8.91-14.95-15.2,80a50.4,50.4,0,0,0-.71,5.25C153.07,283.86,161.35,278.32,161.35,278.32Z"/><path class="cls-13" d="M331.31,80.92,307.45,209.65,203.53,188.78,228.16,55.94c-20.33,2.14-38,17.77-42.53,39.71l-36.57,178.4c-5.56,27.14,11.11,54.07,37,59.83l70.14,15.59c25.94,5.76,51.71-11.73,57.28-38.87l36.57-178.4A51.69,51.69,0,0,0,331.31,80.92Z"/><path class="cls-14" d="M142,162.49l-1.08,10,2.59,6.85a48.06,48.06,0,0,0,2.24,4.26c.5.61,5.52,2.74,5.52,2.74l11.87-3.2,12.32-7.15,17.34-13.46,11.56-9.37V147.8l-3-5.93-4.95-3.78Z"/><path class="cls-14" d="M143.17,163.93s3.5,1.07,4.56,0,3-3,3.65-3.5,3.5-3.2,5.48-3.2,3.65.3,4.56,0,9.74-3.8,9.74-3.8l2.74-2.13,7.61-2.59,4.72-5.93,7.46-1.67,3.2-2.59-4.72-3.8-3.8-5.63-7.46-10-3.65-5.17-.51-3.25-4.05-7.09-1.75-5.09-1.5-4.37-1.93-1.95-2.43-7.91-3.5-5.78-2.67-4.74-3.42-6.06-1.22-6.39-4.11-4.41-7.76-2.74L100.26,67.62v17.5s3.35,9.89,3.8,10.35,6.69,9.74,6.69,9.74l2.28,5.48,2.66,2.89v4.87l3,2.89.76,3.5,3.2,3,1.52,5,3,2.43.46,4.72,3.35,1.67,1.22,5a53,53,0,0,0,2.59,4.72c.46.46,3,4.56,3,4.56l3,5.17Z"/><polygon class="cls-14" points="158.16 183.46 158.16 258.41 166.14 294.62 182.88 304.36 199.01 335.7 204.33 338.44 245.56 324.14 263.02 305.59 280.09 322.17 281.77 300.1 289.69 262.06 302.47 231.33 302.47 200.29 313.73 174.43 204.33 153.13 158.16 183.46"/><rect class="cls-15" x="203.4" y="189.42" width="74.13" height="114.41" rx="4.46" ry="4.46" transform="translate(50.27 -40.56) rotate(10.76)"/><path class="cls-16" d="M232.12,299.38l-32.7-5.8-.44-.08.08-.44,19.5-105,.16-.89.89.17,32.56,6.32.75.15-.15.75-10.27,52.64c-1.72,8.75-3.41,17.53-5.18,26.2Zm-.06-.08,19.89-104.94.07.1-32.59-6.18.12-.08-20,105,0-.07Z"/><path class="cls-16" d="M251.92,275.37l-32.65-6.06-.17,0,0-.18L232,200l.07-.39.39.07,16.31,3,16.29,3.09.49.09-.09.49-3.3,17.35L258.77,241l-3.42,17.23Zm-.06-.08,6.26-34.68,3.14-17.23,3.26-17.16.39.58-16.29-3.1-16.27-3.19.47-.32-13.33,69-.14-.21Z"/><rect class="cls-17" x="217.99" y="198.37" width="3.76" height="8.12" transform="translate(41.66 -37.49) rotate(10.76)"/><rect class="cls-18" x="223.04" y="199.29" width="3.76" height="3.43" transform="translate(41.48 -38.46) rotate(10.76)"/><rect x="222.15" y="204" width="3.76" height="3.43" transform="translate(42.34 -38.21) rotate(10.76)"/><path class="cls-14" d="M166.14,294.62,143.63,314.7,131.15,329l-8.22,8.82L112.39,350.1l-8.22,7.4-7.71,5.38S94.13,370.8,92,371.1s-10,3.55-10,3.55l-17.14,5.27L21.1,391.28,9.53,400.62l-6.29,8.72L0,422.93l1.22,16.43,7.1,10.35,12,3.85,17-2.23,13.39-4.06,14.81-5.68,9.74-.2,2.84-1,6.9.41s7.1,1,8.32,1,11-.41,11-.41l18.05-11.16,4.26-.2,9.33-10.55,6.9-7.3L160.67,399l13.39-8.93,16.23-10.35,15-13,4.87-.41,4.67.2,4.47,2,3.65,12,11.56,16.23,12.37,11.77,9.74,13.19,3.85,9.74,4.87,8.72,2.43,13.39,7.71,17.24,1.42,1.83v5.88l3.25,6.69a65,65,0,0,0,4.46,7.71c1.62,2,13,11.36,13,11.36l28,38.34,9.33,4.06,9.13,1.62L354,543l7.3-9.74,5.68-9.53,2.43-11-1.22-11.16-9.53-14.2-15-12.37-6.29-8.52-2.23-5.48-.61-13.19L330.06,439l-2.23-6.29-.61-8.93-5.07-8.93-2.84-11.56L315,390.68l1.83-5.68-10.35-11,1.42-2.43-6.49-10.14-6.09-12.58L287,335.29l-16-30.23Z"/><polygon class="cls-12" points="66.8 379.31 64.81 379.92 43.05 385.58 37.12 395.14 21.71 404.26 15.01 416.64 15.01 437.49 19.68 444.64 29.87 452.31 37.33 451.33 50.72 447.27 60.81 443.4 49.7 432.34 52.13 402.64 66.8 379.31"/><path class="cls-19" d="M368.19,501.64l-9.53-14.2-15-12.37L342,472.83c-3.72,2.67-7.84,5.65-8.9,6.5-2,1.62-25.15,23.94-25.15,23.94s-4.64,1.2-9.22,2.56l26.87,36.8,9.33,4.06,9.13,1.62L354,543l7.3-9.74,5.68-9.53,2.43-11Z"/><path class="cls-19" d="M180.9,119l-3.65-5.17-.51-3.25-4.05-7.09-1.75-5.09-1.5-4.37-1.93-1.95-2.43-7.91-3.5-5.78-2.67-4.74-3.42-6.06-1.22-6.39-4.11-4.41-1.9-.67c-.88,4.57-2.87,15.17-2.51,15.89.46.91,4.26,3.35,4.26,5.33S147.28,83,150,83s5.17,1.67,4.87,3.65,3.2,4.56,3.2,4.56v4.41h4a51.21,51.21,0,0,0-1.37,5.63c0,.91,4.11,4.41,4.11,4.41s-1.37,7.3-1.52,7.76,4.87,3.61,4.87,3.61l1.07,6.13,10.5,2.28-.91,7s-.46,2.74,1.83,2.74,7-2,6.69,0-.76,4.56-.76,4.56l4.16-7.2-2.33-3.45Z"/><path class="cls-20" d="M123,83.75l5.76-2.84c1.9-1,3.79-1.95,5.64-3s3.68-2.13,5.48-3.26c.9-.57,1.79-1.16,2.65-1.78s1.74-1.24,2.58-1.91a29.77,29.77,0,0,1-4.8,4.32,50.41,50.41,0,0,1-5.43,3.5,57.3,57.3,0,0,1-5.81,2.82c-1,.42-2,.79-3,1.17S124.06,83.46,123,83.75Z"/><path class="cls-20" d="M120.47,99.26a42.62,42.62,0,0,1,5.92-2c1-.24,2-.42,3-.74a12.32,12.32,0,0,0,2.8-1.31,23.51,23.51,0,0,0,4.31-4.29c1.37-1.54,2.69-3.14,4.12-4.68l.08.06a27.49,27.49,0,0,1-3.39,5.31,21.4,21.4,0,0,1-2.2,2.29,9.41,9.41,0,0,1-2.67,1.8c-1,.42-2,.74-2.95,1.13s-1.92.86-2.9,1.23a24.6,24.6,0,0,1-6.14,1.32Z"/><path class="cls-20" d="M130.59,103.14l5.76-2.84c1.9-1,3.79-1.95,5.64-3s3.68-2.13,5.48-3.26c.9-.57,1.79-1.16,2.65-1.78s1.74-1.24,2.58-1.91a29.76,29.76,0,0,1-4.8,4.32,50.41,50.41,0,0,1-5.43,3.5,57.3,57.3,0,0,1-5.81,2.82c-1,.42-2,.79-3,1.17S131.63,102.85,130.59,103.14Z"/><path class="cls-20" d="M138.88,120.57a12,12,0,0,1,2.4-1.77,9.87,9.87,0,0,1,2.75-1.14c1-.23,2-.41,2.93-.6a12.23,12.23,0,0,1,1.51-.18,3.85,3.85,0,0,0,1.32-.28,16.36,16.36,0,0,0,4.61-3.23c.71-.64,1.42-1.3,2.1-2,.35-.34.69-.68,1-1a5.93,5.93,0,0,0,.88-1.09l.09,0a1.51,1.51,0,0,1-.23.75c-.11.22-.23.45-.36.66-.26.42-.54.83-.83,1.24a19.94,19.94,0,0,1-2,2.26,14.35,14.35,0,0,1-2.32,1.91,9,9,0,0,1-2.77,1.31,4.18,4.18,0,0,1-1.58.08l-.7-.07c-.24,0-.48,0-.72,0a7.74,7.74,0,0,0-2.74.92c-.85.46-1.73.83-2.62,1.23s-1.78.77-2.71,1.12Z"/><path class="cls-20" d="M144.4,133.24c2.1-.69,4.19-1.33,6.22-2.13a47.93,47.93,0,0,0,5.89-2.75,23.8,23.8,0,0,0,5.13-3.87,9.8,9.8,0,0,0,1.86-2.58,3.63,3.63,0,0,0,.33-3.08,3.66,3.66,0,0,1,.12,3.26,10.25,10.25,0,0,1-1.73,2.9,19.61,19.61,0,0,1-5.21,4.22,32.12,32.12,0,0,1-6.13,2.6c-1.05.35-2.14.57-3.2.86S145.49,133.09,144.4,133.24Z"/><path class="cls-20" d="M151.19,139.69a36.28,36.28,0,0,1,6-1.58c1-.15,2.06-.24,3.07-.45a15.47,15.47,0,0,0,2.94-.94,56.27,56.27,0,0,0,5.29-3.08c1.76-1.06,3.53-2.12,5.39-3.08l.06.08a31.59,31.59,0,0,1-4.88,3.9,28.68,28.68,0,0,1-2.73,1.54,13.49,13.49,0,0,1-3,1.15c-1,.25-2,.45-3,.74s-2,.66-3,.95a26.67,26.67,0,0,1-6.17.86Z"/><path class="cls-19" d="M104.27,78.47c3.25-.86,6.43-1.89,9.64-2.79a56.47,56.47,0,0,0,9.29-3.63L141,62.72l-.11.09,1.87-2.18c.63-.72,1.21-1.48,1.9-2.15l4-4.14-3.48,4.58c-.56.78-1.23,1.47-1.84,2.21l-1.87,2.18,0,.05-.06,0-17.82,9.34a57.21,57.21,0,0,1-9.41,3.68A53.6,53.6,0,0,1,104.27,78.47Z"/><path class="cls-20" d="M104.86,67.21,98.32,56.78a2.26,2.26,0,0,1-.27-.62l-1.74-6.53a2.18,2.18,0,0,0-.63-1.06l-7.59-6.86-.16-.16-6.08-6.88a2.11,2.11,0,0,1-.18-.23l-1.06-1.6a2.27,2.27,0,0,1-.33-.79l-.73-3.53a2.35,2.35,0,0,1,.27-1.66l1.19-2a1.86,1.86,0,0,1,2-.92l2.78.68a1.86,1.86,0,0,1,.76.39L91,28.8l.17.16,3.53,3.78a2,2,0,0,0,.32.28l5.7,4a1.88,1.88,0,0,0,.27.16l3.11,1.46-4-3.11-.2-.18-4.35-4.43a2.11,2.11,0,0,1-.32-.42l-3.46-6-.07-.13-1.78-3.59a2.32,2.32,0,0,1-.23-.8l-.34-3.41a7.65,7.65,0,0,1,2.09-6.13h0a1,1,0,0,1,.7-.3h0A6.79,6.79,0,0,1,97.62,13l1.5,2.05a2.2,2.2,0,0,1,.24.43l2.57,6q.21.48.44.95l.27.55,3,6.11a2.16,2.16,0,0,0,.28.43l2.78,3.32a1,1,0,0,0,.77.37h.12a1.11,1.11,0,0,0,1-1.16h0a1.22,1.22,0,0,0-.33-.85L108,28.78a15.18,15.18,0,0,1-1.79-2.24l-.88-1.34a21,21,0,0,1-3.09-7.87L102,16.08a2.35,2.35,0,0,0-.05-.23l-1.13-4a2.37,2.37,0,0,1-.09-.64v-.86a2.38,2.38,0,0,1,0-.4l.93-5.39a2.33,2.33,0,0,1,.13-.46l.9-2.28a2,2,0,0,1,1.3-1.22l1.31-.36a1.77,1.77,0,0,1,1.46.24l2.24,1.47a2.07,2.07,0,0,1,.71.81l2.38,4.79a2.3,2.3,0,0,1,.18.51l1.44,6.39,1,5.14a2.26,2.26,0,0,0,.06.26c.22.69,1.28,4,1.84,4.36.41.27.86,2.1,1.14,3.35a2.06,2.06,0,0,0,1.33,1.55l1,.33c-.38-.14-1.88-4.3-2.38-5.14s-.88-6.11-.88-6.38a35.63,35.63,0,0,0,.25-6.66,41.31,41.31,0,0,1,.5-6.66A26.72,26.72,0,0,1,120.2.77,1.86,1.86,0,0,1,121.69,0h.57a4.35,4.35,0,0,1,3.51,1.86l1.43,2a2.26,2.26,0,0,1,.41,1.06c.19,1.57.68,5.73.68,6.07s.38,7.91,0,8.47a36.23,36.23,0,0,0-.78,5.79,2.25,2.25,0,0,0,.71,1.87l2.37,2.14a1.79,1.79,0,0,0,1.84.37l.19-.07a1.06,1.06,0,0,0,.5-.39l4.83-6.93a2.08,2.08,0,0,1,.23-.28l3.54-3.55a10.7,10.7,0,0,1,6.66-3.17h0a1.87,1.87,0,0,1,1.7.85h0a11.85,11.85,0,0,1,2,6.62v.77a2.36,2.36,0,0,1-.13.79l-2.54,7.17a2.24,2.24,0,0,1-.2.42l-3.42,5.62a2.23,2.23,0,0,0-.16.32L143,44.35a2.34,2.34,0,0,0-.17.73l-.41,6.08a2.21,2.21,0,0,1-.84,1.62l-15,11.35a1.83,1.83,0,0,1-.4.23c-1.72.72-13.45,5.59-13.8,5.46s-4.58-1.28-6.3-1.75A1.94,1.94,0,0,1,104.86,67.21Z"/><path class="cls-19" d="M131.07,35.39a41.82,41.82,0,0,1-4.36,2.45,36.4,36.4,0,0,0-4.47,2.25q-2.15,1.29-4.35,2.46c-1.45.8-3,1.52-4.39,2.3v0c-.06-.12,0-.12.06-.17l.12-.11.25-.2.51-.37c.35-.23.69-.47,1-.69.71-.44,1.43-.87,2.16-1.27,1.46-.81,3-1.55,4.47-2.25a40.42,40.42,0,0,0,4.4-2.37A39.35,39.35,0,0,1,131,35.34Z"/><path class="cls-19" d="M134.81,37.22c-1.91,1.34-3.88,2.58-5.9,3.74s-4.09,2.23-6,3.53a137.15,137.15,0,0,1-12,7.08l0,0a137.15,137.15,0,0,1,11.93-7.27c2.06-1.1,4-2.36,6-3.65s4-2.38,6.09-3.43Z"/><path class="cls-21" d="M107,21.42"/><path class="cls-19" d="M105.67,19.92a5.69,5.69,0,0,1,1.8-.87c.33-.08.66-.11,1-.2a7.05,7.05,0,0,0,.94-.35,8,8,0,0,1,1.92-.6,4.26,4.26,0,0,1,1,0,1.74,1.74,0,0,1,.53.14.54.54,0,0,1,.35.42h0c-.19-.26-.53-.2-.83-.18s-.62.1-.94.16c-.64.11-1.28.24-1.94.33a4.84,4.84,0,0,0-1,.24c-.31.12-.6.29-.9.44a7.33,7.33,0,0,1-1.92.52Z"/><path class="cls-21" d="M94.47,23.27"/><path class="cls-20" d="M87.3,37.2"/><path class="cls-19" d="M143.86,21.87a5.29,5.29,0,0,1,1.53,1.32c.2.28.36.58.56.85a8.35,8.35,0,0,0,.66.76,6.44,6.44,0,0,1,1.87,3.56h0c-.74-1.13-1.41-2.23-2-3.41a4.49,4.49,0,0,0-.57-.82,9.65,9.65,0,0,0-.74-.68,8.54,8.54,0,0,1-1.25-1.56Z"/><path class="cls-19" d="M139.91,31.21a4.77,4.77,0,0,1,1.48,1.07c.2.23.37.49.57.72a5.88,5.88,0,0,0,.68.61,7,7,0,0,1,1.31,1.3,2.66,2.66,0,0,1,.62,1.76h-.05a6.18,6.18,0,0,0-1-1.43c-.35-.47-.74-.93-1.08-1.43a4.05,4.05,0,0,0-.6-.68c-.23-.2-.5-.35-.74-.53a6.15,6.15,0,0,1-1.23-1.34Z"/><path class="cls-19" d="M96.64,33.65A5.64,5.64,0,0,1,98,32.24c.28-.18.58-.33.85-.51a6.79,6.79,0,0,0,.75-.64,8.2,8.2,0,0,1,1.58-1.21,4.54,4.54,0,0,1,.94-.39,1.9,1.9,0,0,1,.53-.07.53.53,0,0,1,.49.23l0,0c-.27-.15-.57,0-.84.17s-.54.32-.82.49c-.55.32-1.11.66-1.69,1a4.83,4.83,0,0,0-.82.55c-.25.21-.46.48-.69.71a7.11,7.11,0,0,1-1.62,1.12Z"/><path class="cls-19" d="M104.4,12.06a5.69,5.69,0,0,1,1.8-.87c.33-.08.66-.11,1-.2a7,7,0,0,0,.94-.35,8,8,0,0,1,1.92-.6,4.26,4.26,0,0,1,1,0,1.74,1.74,0,0,1,.53.14.54.54,0,0,1,.35.42h0c-.19-.26-.53-.2-.83-.18s-.62.1-.94.16c-.64.11-1.28.24-1.94.33a4.84,4.84,0,0,0-1,.24c-.31.12-.6.29-.9.44a7.33,7.33,0,0,1-1.92.52Z"/><path class="cls-19" d="M120.16,9.78a5.64,5.64,0,0,1,1.92-.51c.33,0,.67,0,1,0a7,7,0,0,0,1-.17,7.86,7.86,0,0,1,2-.22,4.2,4.2,0,0,1,1,.17c.3.11.76.3.75.71h0c-.15-.29-.49-.3-.79-.34s-.63,0-.95,0c-.64,0-1.29,0-2,0a4.8,4.8,0,0,0-1,.05c-.32.06-.64.18-1,.26a7.29,7.29,0,0,1-2,.15Z"/><path class="cls-19" d="M119.1,17a5.64,5.64,0,0,1,1.92-.51c.33,0,.67,0,1,0a7,7,0,0,0,1-.17,7.86,7.86,0,0,1,2-.22,4.2,4.2,0,0,1,1,.17c.3.11.76.3.76.71h0c-.15-.29-.49-.3-.79-.34s-.63,0-.95,0c-.64,0-1.29,0-2,0a4.8,4.8,0,0,0-1,.05c-.32.06-.64.18-1,.26a7.29,7.29,0,0,1-2,.15Z"/><path class="cls-19" d="M93.21,23.26a6,6,0,0,1,1.43-1.45c.29-.19.6-.34.87-.54a7.27,7.27,0,0,0,.78-.66,8.53,8.53,0,0,1,1.63-1.25,4.58,4.58,0,0,1,1-.4,1.8,1.8,0,0,1,.55-.07.51.51,0,0,1,.49.27l0,0a.43.43,0,0,0-.43,0,2.23,2.23,0,0,0-.43.18c-.29.14-.56.32-.84.5-.57.33-1.14.69-1.74,1a5.09,5.09,0,0,0-.84.57c-.26.22-.47.49-.71.73a7.6,7.6,0,0,1-1.66,1.17Z"/><path class="cls-19" d="M84.43,38a5.64,5.64,0,0,1,1.13-1.63c.24-.22.52-.42.75-.65a6.77,6.77,0,0,0,.63-.76,8.21,8.21,0,0,1,1.35-1.47,4.54,4.54,0,0,1,.86-.55,1.9,1.9,0,0,1,.51-.16.53.53,0,0,1,.52.14l0,0c-.29-.1-.55.14-.8.31s-.48.41-.72.62c-.49.41-1,.84-1.5,1.25a4.82,4.82,0,0,0-.71.68c-.21.25-.37.55-.56.82A7.11,7.11,0,0,1,84.47,38Z"/><path class="cls-19" d="M87.49,41.8a5.64,5.64,0,0,1,1.13-1.63c.24-.22.52-.42.75-.65a6.77,6.77,0,0,0,.63-.76,8.2,8.2,0,0,1,1.35-1.47,4.54,4.54,0,0,1,.86-.55,1.9,1.9,0,0,1,.51-.16.53.53,0,0,1,.52.14l0,0c-.29-.1-.55.14-.8.31s-.48.41-.72.62c-.49.41-1,.84-1.5,1.25a4.82,4.82,0,0,0-.71.68c-.21.25-.37.55-.56.82a7.11,7.11,0,0,1-1.4,1.38Z"/><path class="cls-20" d="M141.78,164.27l-.89,8.18,2.59,6.85a48.07,48.07,0,0,0,2.24,4.26,27.28,27.28,0,0,0,4.64,2.36l2.82-1.19-.34-1.8s-3.38-1.64-3.53-2.39-.37-3.63-.37-3.63a31.93,31.93,0,0,1,2.13-3.89c.42-.35,2-3.26,2.81-4s3.49-4.79,3.55-5.7,3.64-1.76,5.48-2.26,3.68-4.66,3.68-4.66l-.28-2.72Z"/><path class="cls-20" d="M196.37,138.13q-8.17,4.64-16.38,9.2c-2.73,1.53-5.44,3.11-8.22,4.53s-5.59,2.82-8.49,4l0-.09c2.62-1.73,5.35-3.28,8.06-4.84s5.54-2.92,8.32-4.36q8.34-4.33,16.71-8.58Z"/><path class="cls-20" d="M162.56,164.09a10.49,10.49,0,0,1,3.1,2.34,12.47,12.47,0,0,1,2.21,3.25,12.1,12.1,0,0,1,1.11,3.77,11.8,11.8,0,0,1-.13,3.88,29,29,0,0,0-.63-3.74A17.13,17.13,0,0,0,167,170.1a17.86,17.86,0,0,0-1.91-3.18A21.59,21.59,0,0,0,162.56,164.09Z"/><path class="cls-20" d="M167.59,160.71a10.07,10.07,0,0,1,3.59,1A6.6,6.6,0,0,1,174,164.4a8,8,0,0,1,.87,3.73c0,1.26-.13,2.45,0,3.68a14.3,14.3,0,0,1-.73-3.62,9.44,9.44,0,0,0-1-3.31,7.11,7.11,0,0,0-2.33-2.46A23,23,0,0,0,167.59,160.71Z"/><path class="cls-20" d="M158.16,168.28a11.11,11.11,0,0,1,3,4.1,7.23,7.23,0,0,1,.58,2.55,2.82,2.82,0,0,1-1,2.39,3.61,3.61,0,0,0,.19-2.32,12.35,12.35,0,0,0-.73-2.24C159.59,171.28,158.83,169.84,158.16,168.28Z"/><path class="cls-19" d="M163.1,183.1l12.32-7.15,17.34-13.46,11.56-9.37v-2l-18.71,15.13-11.87,9.54-11.19,6.54-9.38,2.39-2.09,1.51.15.06Z"/><path class="cls-20" d="M163.25,281.52l10.29-14,9-1.8,4.55-19.08s11.67-3.74,13.11-2.87S193.68,228,193.68,228l-4.05-7.3s-3.42-4-4-5.48-4.55-7.91-4.55-9.49-7.54-3.28-7.54-3.28H163.48L158,190.25v68.16Z"/><path class="cls-20" d="M309.09,173.52l-12.31-2.4-7.4-.42-9.13,3.41s8.82,3.06,9.43,3.2-9.43,0-9.43,0-9.13,2.88-6.69,3.19S286.34,182,286.34,182l8.82,3.88,3,7.07h-5.81l6.72,12.72a20.89,20.89,0,0,0,3.35-2.54v-2.88l7.87-18.08C309.84,178.86,309.37,175.48,309.09,173.52Z"/><path class="cls-19" d="M227.31,166.21a48.14,48.14,0,0,1,7.79.25c1.29.17,2.57.42,3.86.56s2.59.18,3.89.2c2.6,0,5.19.15,7.78.35a76.11,76.11,0,0,1,7.72,1.09v.1a76.11,76.11,0,0,1-7.8-.13c-2.59-.21-5.17-.48-7.74-.87-1.29-.19-2.57-.35-3.87-.42s-2.6,0-3.9-.05a48.15,48.15,0,0,1-7.73-1Z"/><path class="cls-19" d="M209.91,175.34q-1.58-3.59-3-7.24c-1-2.43-1.88-4.87-2.78-7.32v-.08c0-2.31.09-4.61.21-6.92.12,2.31.17,4.61.21,6.92v-.08c1,2.43,1.9,4.86,2.8,7.31S209.1,172.85,209.91,175.34Z"/><path class="cls-19" d="M167.58,190.2c1.65-.52,3.32-.93,5-1.34s3.36-.77,5-1.07l-.07,0c2-.71,4.15-1.28,6.18-2l-.06,0c.82-.85,1.66-1.67,2.54-2.46a9.49,9.49,0,0,1,3-2,13.2,13.2,0,0,1,3.61-.35c1.19,0,2.37.07,3.55.2l.26,0,.14.24a22.29,22.29,0,0,0,2.05,3,3.13,3.13,0,0,0,1.19,1,.12.12,0,0,0,.11,0s0,0,.13,0l.45-.13.89-.27-.06,0c1.51-.74,3-1.47,4.58-2.15l0,.09c-1.4.95-2.83,1.84-4.26,2.72h0l0,0-.87.33-.44.16a1.31,1.31,0,0,1-.68.06,3.69,3.69,0,0,1-1.77-1.18,17.76,17.76,0,0,1-2.23-3.12l.4.27c-1.14-.14-2.3-.26-3.45-.31a14.76,14.76,0,0,0-3.38.13,8.75,8.75,0,0,0-2.95,1.61,21.72,21.72,0,0,0-2.59,2.34l0,0h0c-2,.78-4,1.73-6,2.55h-.07c-1.68.38-3.37.68-5.07,1s-3.4.53-5.12.7Z"/><path class="cls-14" d="M172.61,219.77s9.75,20.62,14.27,21.26"/><path class="cls-14" d="M177.71,219.77s7.3,15.59,11.86,18.45"/><path class="cls-14" d="M164.06,236.89s7.56,19.46,11.36,20"/><path class="cls-19" d="M300.21,211.26a47.6,47.6,0,0,1-1.36,8.73c-.38,1.42-.86,2.82-1.24,4.24s-.69,2.86-1,4.3a68.26,68.26,0,0,1-2.31,8.54,42,42,0,0,1-3.77,8l-.09,0c1-2.78,1.94-5.54,2.85-8.32l2.79-8.34a42.53,42.53,0,0,0,1.2-4.24c.31-1.44.5-2.9.75-4.35.55-2.88,1.24-5.73,2.08-8.57Z"/><path class="cls-20" d="M153.73,155.26l6-1.47,6-4.77-6,2.11-14,4.73,1.11-.76c.46-.3,4.26-4.87,4.26-4.87s-3,1.52-4.57,2.13-7.15.76-7.15.76l.76-4.26s.76-.46.76-.91,9-7.34,9-7.34L144.4,142a18.48,18.48,0,0,1-3.51.91c-.91,0-7.61.76-7.61.76l11.82-10.45s-7.56,3.45-8.47,3.6-6.39,0-6.39,0l17.7-10.19-7,3.65h-8.72l1-2.59,8.82-5.78-5.33,2.13-6.24.76s-2.43-3.35-1.37-4.22a44.72,44.72,0,0,0,5.33-4.91c1.53-1.83,2-3.8,0-2.74s-4.12,2-4.12,2l-5.91,2.75c-1.65.76-1.33-2.75-1.33-2.75s1.77-1.36,2.68-2.12.91-2.89.8-3.57,2.85-5.26,2.85-5.26-1.37.61-1.52,1-3.8,1.63-4.13,2.24-7.88.91-7.88.91l5.32-3.15,6.69-3.69V99.57a38.65,38.65,0,0,0-5.63.76c-1.37.46-3.2,2.43-4.72,2.89s-3.65-3.65-3.65-3.65l6.54-4,4.87-2.24H119l-6,1.18,7.52-5.74-10.76,3.31L123,83.59l-2.65,1.27-10.6,1.93,10.6-6.39-9.74,2-10.35-1.45v4.19s3.35,9.89,3.8,10.35,6.69,9.74,6.69,9.74l2.28,5.48,2.66,2.89v4.87l3,2.89.76,3.5,3.2,3,1.52,5,3,2.43.46,4.72,3.35,1.67,1.22,5a53,53,0,0,0,2.59,4.72c.46.46,3,4.56,3,4.56l3,5.17,2.28,2.74s3.5,1.07,4.56,0,3-3,3.65-3.5,3.5-3.2,5.48-3.2c1.72,0,3.22.23,4.17.09l4.68-3.35Z"/><path class="cls-19" d="M298.81,234.47l-6.26,9.28-7.13,11.61s-2.43,5.88-1.83,6.69,1,4.26.91,4.87-5.78,5.48-5.78,5.48,2.23,9.33,2.23,9.94-4.87,9.13-4.87,9.94v10.55l1.34,16.75,2.65,2.57,1.69-22.07,7.91-38,9.93-23.87C299.12,235.93,298.81,234.47,298.81,234.47Z"/><path class="cls-19" d="M192.31,378l-7.61-1.7-5.17,4-22.11,16.25h-3.25l-5.51,5.07-4,5.07s-5.52,3.65-5.72,4.87-6.29,7.51-6.29,7.91-5.38,5.07-5.38,5.07l-3.14,4.06,2.45,1.4,9.32-10.53,6.9-7.3L160.67,399l13.39-8.93,16.23-10.35Z"/><path class="cls-20" d="M62.68,434.29c1.95.34.14-.71-2.42-2A4.69,4.69,0,0,0,62.68,434.29Z"/><path class="cls-20" d="M182,311.13s2.74,2.21,3,2.36a21.51,21.51,0,0,0,2.13.53l-1.37-1.9-4.87-4.87c-.46-.46-4.41-3.23-4.64-3.52s-6.85-2.65-6.85-2.65l-12.11,1.42-13.68,12.2L131.15,329l-8.22,8.82L112.38,350.1l-8.22,7.4-7.71,5.38S94.13,370.8,92,371.1s-10,3.55-10,3.55l-17.14,5.27-8.64,2.24L44.83,398.81l-5.27,17.63S42,426.58,44.43,428.2s7.71,8.11,11.36,8.93a16.67,16.67,0,0,0,6.9,0L52.95,429s4.22,1.81,7.32,3.32c-4.06-5.24-8.73-19.14-8.73-19.14l3-11.36v9.33s2,7.61,3.65,10.3,3.27,6.75,5.28,8,5.26,3.25,6.08,4.46,2-2.43,0-4.87-4.46-6.59-4.46-7.56v-8.27s5.06,9.74,5.57,11.36,5,5.68,6.19,6.09,9.33,5.68,7.71,4.06-6.49-6.9-6.9-8.52-2-1.72-3.25-4.72S70,412.38,70,412.38l12.17,13.39s.81-5.27-1.22-6.49-3.65-1.62-5.68-6.09S69.18,403.46,70.8,401s2.43-12.58,2.43-12.58.81,16.18,2.43,16.61,6.09,8.54,6.09,8.54l7.3,4.46-6.49-13L79.32,397l5.27,8.09,6.9,6.51a41.21,41.21,0,0,0-2.84-6.51C87,402.24,85.4,399.8,85,397s-.81-5.27-.81-5.27l13,13.37-3.65-9.31-6.9-8.52,10.55,9.33-5.27-9.33-.41-6.9,10.14,6.9-4.4-11.31L96,372.62l8.11,6.09,4.87,3.25-7.3-11.77,15.82,8.93-2.21-3.25a30.73,30.73,0,0,1-3.35-3c-1.29-1.45-2.51-2-3.35-3s-3.2-2.05-3-3.65a5.85,5.85,0,0,1,.76-2.51,6.1,6.1,0,0,0,2.13,2.81c1.37.76,8.14,5.1,9.81,5.55s0-1.22,0-1.22L114,367.14l-3.65-3.52-2.21-3.2L114,364.3s4.72,3.8,5.48,3.8,1.22-1,1.22-1-8.52-9.23-8.75-10.37,3.65,0,3.65,0l1.22-3.26,6.61,3.86,2.81,2L121.88,354l1.51-.85,4.18,2.13-.31-2.66,2.13-2.51,6.64-7,3.79,2.69-1.38-5.16-3.35-5.17L141.8,338l2.51.46-8.6-9.43-.76-3.5,7.53,4.79,1.83.15,2.51-.61L142.1,326l-1.83-3.65,7.76-10,5.4,7.15a42.3,42.3,0,0,0,4.49,4.34l6.39,4a35.8,35.8,0,0,0-2.43-3.2,28,28,0,0,1-2.81-3.88c-.08-.3-2.43-4-2.43-4s-2.36-4.41-2.43-4.49a7,7,0,0,1,.68-1.29l5.25,4.94,8.37,4.94,6.31,1.75,3.73,1.52-5.33-6s-6.92-4.72-7.46-5.17-6.24-4.26-6.24-4.26l.76-4a45,45,0,0,1,4,3.27,52.78,52.78,0,0,0,4.56,5.48c.38.15,2.66,1.29,2.36,1.07s-2.59-3-2.59-3l-3.35-4.26-2.89-2.51,6.24,2.66s3.35,2.43,3.73,2.89,5.1,4,5.1,4,4.87,3.73,5.17,3.73a29.63,29.63,0,0,1,3,1.37s-1.75-3-2.05-3.27-4.87-4.26-5.25-4.49-7.9-7.85-7.9-7.85l6.69,2.91Z"/><path class="cls-22" d="M165.6,398.81l8.83-6.21c-4.38-10.66-10.26-23.07-18.82-32.52a108.52,108.52,0,0,0-32.83-24.61l-7.86,9.05c8.65,5.52,14.63,9.07,22.47,16.73A151.23,151.23,0,0,1,165.6,398.81Z"/><path class="cls-19" d="M102.24,401.63l4.46,8.32s5.58,5.88,6.64,6.9,5.33,3,5.53,3.65-8.32-9.43-8.32-9.43l-5.68-7.81-2.64-6.69Z"/><path class="cls-19" d="M116.44,386s5.68,3.65,5.68,4.26,2.43,4.67,2.84,5.48,5.48,4.67,6.9,5.88,4.46,3.45,4.46,3.45l-4.67-6.27-4.46-5.5s-3.65-4.26-4.26-5.07-6.49-5.07-6.49-5.07L112,381.55Z"/><path class="cls-19" d="M128.41,369.29s2.43,5.77,4.26,6.37,5.27,3.85,6.69,4.87a70.62,70.62,0,0,1,5.31,5.07l-6.12-8.16-4.67-4.83Z"/><path class="cls-19" d="M106.91,419.68s6,4.67,6.44,5.07a31.45,31.45,0,0,0,4.31,2.23c.61.2,6.49,1.62,6.49,1.62v-2l-8.62-2.43-5-2.69-3.65-2.79Z"/><path class="cls-19" d="M84.19,423.64l6.49,5s2.84,2,3.85,2.64a55.09,55.09,0,0,0,5.27,2.1s3.65,2.77,4.67,2.77h6.09l-3.65,1.37L101,436.32l-3.65-2-3.65-2-5.48-3.73Z"/><path class="cls-19" d="M84.19,428.61s4.06,2.79,4.26,3.73,2.84,2.76,3.85,3.58,3.25,1.83,3.65,2.43,3.25,2,3.25,2l-6.09-1.83L87,434.36,83,428.61Z"/><path class="cls-19" d="M119.69,405.08s1.22,4.46,2.23,5.07,3.45,2,3.85,2.64,3.45,3.45,2.64,1.62-2.84-5.45-3.65-5.87-2.84-5.08-2.84-5.08Z"/><path class="cls-20" d="M12.37,407.51l8.93-8.7,26-9.76v-4.57l-26.17,6.8L9.53,400.62l-6.29,8.72L0,422.93l1.22,16.43,7.1,10.35,9.6,3.09c1.46-.52,2.37-.86,2.37-.86l-6.49-6.09-4.26-9.53V421.46Z"/><path class="cls-19" d="M209.56,341.58l2.43,5.07s-.41,6.09,0,7.91a12.94,12.94,0,0,0,1.22,3.25s-.41-4.46,0-5.27-.61-5.27,0-6.49-1.78-6.29-1.78-6.29Z"/><path class="cls-19" d="M218.08,335.47l-1.42,9.76s1.62,6.69,1.42,7.3a26.18,26.18,0,0,0,1.22-2.43,2.49,2.49,0,0,0,1.21-2.23v-8.11Z"/><path class="cls-19" d="M197,341.38l-7.3-5.91-7.91-9.1,4.06,2.84s5.07,3.85,5.68,4.67,4.26,4.56,4.26,4.56Z"/><path class="cls-19" d="M172.23,326.37s6.29,4.67,6.9,5.27,5.07,5.07,5.58,5.88,2.54,1.83,3.35,3.85S191.7,346,191.7,346s3.85-1.36,2-2-4.06-2.06-4.36-2.66-3.76-5.42-4.67-5.17-5-5.78-5-5.78Z"/><path class="cls-19" d="M245.06,401.83c0-1.22-2.76-4.26-4.59-5.27s-1.9-4.79-3.73-7.08S231.46,377,230.65,375,228,362.48,228,362.48s-10.14-3.65-12.17-3-8.72-.41-11.56,0-6.8,3-7.3,4.67-12.17,11.16-12.27,12.17c-.07.66,3.68,1.44,3,5.06l2.53-1.61,15-13,4.87-.41,4.67.2,4.47,2,3.65,12,11.56,16.23,10.55,12.86,10.17,11.84c1.19-2-4.69-14.35-4.69-14.35S245.06,403.05,245.06,401.83Z"/><path class="cls-16" d="M313.27,402.26a32.28,32.28,0,0,1-4.16,4.37,31.91,31.91,0,0,1-4.82,3.62,31.91,31.91,0,0,1,4.16-4.37A32.27,32.27,0,0,1,313.27,402.26Z"/><path class="cls-16" d="M315.55,406.6a50.58,50.58,0,0,1-5.87,4.74,50,50,0,0,1-6.45,3.93,50,50,0,0,1,5.87-4.74A50.59,50.59,0,0,1,315.55,406.6Z"/><path class="cls-16" d="M317.53,409.72a43.49,43.49,0,0,1-5.42,4.44,43,43,0,0,1-6,3.62,43,43,0,0,1,5.42-4.44A43.5,43.5,0,0,1,317.53,409.72Z"/><path class="cls-16" d="M313.57,418.47a27.35,27.35,0,0,1-4,3.82,27,27,0,0,1-4.65,3,27,27,0,0,1,4-3.82A27.35,27.35,0,0,1,313.57,418.47Z"/><path class="cls-23" d="M259.64,420.29a75.3,75.3,0,0,1,9.2-.5,74.42,74.42,0,0,1,9.2.5,74.43,74.43,0,0,1-9.2.5A75.31,75.31,0,0,1,259.64,420.29Z"/><path class="cls-19" d="M303.38,465.46a4.59,4.59,0,0,1,1.64-.7,4,4,0,0,1,1.64-.07,14.92,14.92,0,0,0,1.65.49,3.63,3.63,0,0,0,1.64-.24,7,7,0,0,1,1.64-.42,8.36,8.36,0,0,1,1.64-.14,7.5,7.5,0,0,1,3.3.93v.2a7.5,7.5,0,0,1-3.28,1,8.36,8.36,0,0,1-1.65-.1A7,7,0,0,1,310,466a3.63,3.63,0,0,0-1.65-.21,14.92,14.92,0,0,0-1.64.53,4,4,0,0,1-1.65,0,4.59,4.59,0,0,1-1.65-.66Z"/><line class="cls-21" x1="294.4" y1="458.94" x2="299.12" y2="458.71"/><path class="cls-23" d="M278.28,449.91a8.41,8.41,0,0,1,3.22-.27c.53.08,1.06.25,1.6.3a7,7,0,0,0,1.61-.06,17.82,17.82,0,0,1,3.22-.16,13,13,0,0,1,3.2.58v.1a13,13,0,0,1-3.23.39,17.82,17.82,0,0,1-3.21-.35,7,7,0,0,0-1.6-.16c-.54,0-1.08.16-1.61.21a8.41,8.41,0,0,1-3.2-.46Z"/><path class="cls-23" d="M316.66,444.45a6,6,0,0,1,1.62-2.18c.36-.28.79-.48,1.12-.78a4.89,4.89,0,0,0,.86-1,12.53,12.53,0,0,1,1.7-2.1,9.22,9.22,0,0,1,2.23-1.58l.07.07a9.22,9.22,0,0,1-1.54,2.26,12.53,12.53,0,0,1-2.07,1.74,4.89,4.89,0,0,0-1,.88c-.29.34-.49.77-.76,1.14a6,6,0,0,1-2.14,1.66Z"/><path class="cls-19" d="M296.72,479.08a4.28,4.28,0,0,1,1.2-1.23,3.66,3.66,0,0,1,1.43-.65,13.82,13.82,0,0,0,1.65-.13,3.33,3.33,0,0,0,1.37-.81,6.41,6.41,0,0,1,1.3-1,7.66,7.66,0,0,1,1.41-.71,6.94,6.94,0,0,1,3.28-.3l.08.18a6.94,6.94,0,0,1-2.54,2.09,7.65,7.65,0,0,1-1.5.49,6.41,6.41,0,0,1-1.61.23,3.33,3.33,0,0,0-1.54.39,13.81,13.81,0,0,0-1.26,1.07,3.65,3.65,0,0,1-1.48.55,4.29,4.29,0,0,1-1.71,0Z"/><line class="cls-21" x1="321.26" y1="490.58" x2="330.69" y2="481.38"/><path class="cls-20" d="M365.15,521c-.91-.91-3.58-2.89-4-3.35s-2.36-3.35-2.36-3.35.91-.68,1.14-.53a38.88,38.88,0,0,1,3.5,2.66c1.07,1,2.05,2.66,2.89,3.35l1.26,1,.52-2.36L366,516.68l-.08-2.43a5,5,0,0,1,1.52.23,9.23,9.23,0,0,1,1.38,1l.28-1.24c-1.16-1.19-2.11-2.14-2.11-2.14l.61-2.05,1.14-.23.35-.11-.88-8.08L362,492.38l-2.53,0s-3.09-1.67-2.43-3.73a18.68,18.68,0,0,0,.49-2.2l-7.21-5.94h-1.42c-.15.3.76,5.86.76,6.39s1.83,7.15,1.83,7.15,3,2.66,3,3a25,25,0,0,1-2.78,4.64c-.49.3-3.23.91-3.83,1.45a6.72,6.72,0,0,0-1.6,3.5c.08.84,1.6,2.13,2,2.21s1.22,4.34,1.22,4.64a5.75,5.75,0,0,0,.76,1.9c.08-.15,1.37-1.67,1.75-1.67s1.22.3,1.45.08a43.38,43.38,0,0,0,.23-5.33s1.6-3.8,1.6-4.18,1.14-1.67,1.6-2.13.91-2.43,1.22-3-.76,4-.76,4a25.3,25.3,0,0,0-1,3.88c0,.84-.53,5.33-.53,5.33s-2.74,4-2.74,4.56.15,5.55.15,5.55l.15,6,4.26,2.74,3,2.89.72-1,.69-1.15c-1.58-1.32-3.22-2.72-3.45-3-.46-.53-2.28-2.89-2.28-2.89l2.28-1.45s2.28,2.13,2.74,2.66c.3.35,1.12,1.54,2,2.5l1.65-2.78c-2.68-2.07-6-4.74-6-4.74l-1-3.5,1.52.38s1.83,2.28,2.05,2.51,4.31,2.37,4.93,2.82h0l.55-.92.24-1.06C366.27,522,365.46,521.32,365.15,521Z"/><path class="cls-20" d="M337,538.76l-9.53-4.52.41-3.6,3.47-4.87-1.65-6.49-2.84-3.18-4.87,3.18h-3s-2.43-5.68-1.37-6.69-3.16,2.43-3.16,2.43l-2.55-1-2.43-6.62-2.66,3-4.15-6.29v-4.13l-7.42-3.78-3-4.29,5.68-2.41s-.41-6.09-4.26-3.49a3.58,3.58,0,0,1-5.64-1.38l-2.07-4.06,6.69-1.62,4.23-2.14,4.89-3.31s-.81-2.05-7.1-.63-6.66,0-6.66,0l5-3.65s1.42-4.26-1.42-3-3.61,0-3.61,0l-1.26-1.42s4.26-1.62,2.43-1.62a17.71,17.71,0,0,1-5.07-1.42l-3-1.62-9.18-5.88L268,448.69s-.57-.46-1.29-1.09l1.08,6,7.71,17.24,1.42,1.83v5.88l3.25,6.69a65,65,0,0,0,4.46,7.71c1.62,2,13,11.36,13,11.36l24,32.93,4.33.34,2.05,2.84.2-4.06,2,1.42,1,3.65,1.19-1.42,2-1L337,544Z"/><path class="cls-24" d="M317.59,393.39c-1,1.14-2.14,2.19-3.26,3.23s-2.27,2-3.45,3-2.37,1.9-3.63,2.75-2.56,1.65-3.83,2.48l-.07,0h0a56.84,56.84,0,0,0-8.08,3.6c-2.6,1.41-5.3,2.61-8,3.83s-5.41,2.33-8.19,3.34-5.58,1.94-8.46,2.69l-.08-.18c2.55-1.54,5.17-2.9,7.83-4.18s5.35-2.48,8.1-3.53,5.49-2.15,8.31-3a56.84,56.84,0,0,0,8.21-3.27l-.09.05c1.12-1,2.22-2.09,3.35-3.11s2.32-2,3.55-2.85,2.46-1.78,3.73-2.62,2.56-1.65,3.92-2.37Z"/><path class="cls-16" d="M287.71,338s-.76,2.33-1.72,2.89a33,33,0,0,0-3.91,3.35,27.78,27.78,0,0,0-1.32,3,10.19,10.19,0,0,0,0,2.18s2.84-2.28,3-2.59a32.33,32.33,0,0,1,2.94-3.12,11,11,0,0,0,1.88-1.29c.51-.41.64-3.48.64-3.48l-1-1.66Z"/><path class="cls-16" d="M292.12,345.69l-1.17,2-1.12,3.2a28.37,28.37,0,0,0-1.42,2.54,16.46,16.46,0,0,0,0,2.74,13.65,13.65,0,0,1,.61,1.57s2.59-.81,3.09-1.42a6.39,6.39,0,0,0,1-1.42,11.4,11.4,0,0,0,.41-3.2,27.72,27.72,0,0,0,0-3.6C293.34,348,292.12,345.69,292.12,345.69Z"/><path class="cls-25" d="M282.38,337.25l-4.16,5.24s-1,2.08-1.22,2.43-1.12,2.49-1.12,2.49a22.9,22.9,0,0,1-2.13,1.62c-.3.1.25-1.52.25-1.52s.91-1.57,1.12-1.83,1-2,1.22-2.54,1.43-2.33,1.68-2.73,2.33-2.79,2.33-2.79a9.83,9.83,0,0,0,.71-1c.15-.3,1.32-1.83,1.32-1.83Z"/><path class="cls-25" d="M284,348.38a31,31,0,0,1-2,4.16c-.36.2-1.17,3.25-1.62,3.35a11.5,11.5,0,0,0-2.33,1.62,10.34,10.34,0,0,1-3,2c-.86.15-2.94.2-2.94.2a2.88,2.88,0,0,1,1-2.18c1.07-.86,3.35-3.45,4.21-4.21a28.08,28.08,0,0,0,2.89-3.91c.25-.41,2.18-2.69,2.18-2.69Z"/><path class="cls-26" d="M273.91,336.82l-3.85,4.31s-3.09,4.51-3.35,4.92-5.78,3.75-7.2,3.91-2.94.91-4.41.61-3.7-.3-2.59-.86,3.3-1.27,3.75-1.62,1.17-1.62,1.47-1.72,4-.91,4-.91a23.36,23.36,0,0,1,2-2.49c.3-.15,2.33-1.12,2.69-1.32s3.25-2.43,3.6-2.74S273.91,336.82,273.91,336.82Z"/><path class="cls-25" d="M293.56,359.34l-2.6,4.82-4,1.37L284,367.8h9.55c1.15,0,3,.46,4.34,0s3.35-1.67,3.5-2.43a17.63,17.63,0,0,0,0-2.89l-4.87-9.86Z"/><polygon class="cls-12" points="296.53 355.18 296.53 359.69 295.03 356.39 295.03 353.81 296.53 355.18"/><path class="cls-23" d="M264.73,323.22l-7.61,4.26-4.92,3.35-4.52,3-3.2,3.38s5.48-3.23,6.24-3.38,4.65-3.64,4.65-3.64Z"/><path class="cls-16" d="M358.3,536.08l-7.07-3.73-1.07.38s2.59,2.81,2.89,3.35,3.73,1.83,3.73,1.83l.86.25,1.16-1.55Z"/><path class="cls-16" d="M347.88,536.38l2.28,3.88,1.92,3.78,2.11-1.27a9.88,9.88,0,0,0-.9-2,27.92,27.92,0,0,1-1.52-3Z"/><path class="cls-16" d="M340.43,547.26l.12-.39a31.94,31.94,0,0,0,1.1-4.25c0-.76-.53-4-.53-4s1.45-1.14,1.67,0-.23,2.46,0,4.08a24.74,24.74,0,0,1,.07,3.07,13.13,13.13,0,0,1-.3,2.29l-2.13-.38"/><path class="cls-16" d="M346.31,547.1,344.53,541,344,537.6s2.66.08,2.74,1.37,1.59,7.06,1.59,7.06Z"/><path class="cls-19" d="M284.4,426.43a11.11,11.11,0,0,0,2-1.06Z"/><path class="cls-19" d="M303.68,445l-26.78,3.45,15-5.48L276,445l19-9.13-16,4.73s11.07-6.35,13.13-7.46c-2,.64-11.78.08-9.27-.11s6.69-5.88,6.69-5.88l-13,3.38,7.91-4.14a18.91,18.91,0,0,1-7.91,1.37c-6.29-.2-9.33-3.25-11-4.16s-8.52-3.35-8.52-3.35l-13.39-16.84-.3,1.7,3.54,3.37,9.74,13.19,3.85,9.74,4.87,8.72,2.43,13.39,1.8,4,24.49-.77-16-2.43h9.61Z"/><path class="cls-19" d="M292.06,433.18a1.08,1.08,0,0,0,.26-.11C292.48,433,292.37,433,292.06,433.18Z"/><path class="cls-20" d="M341.71,472.44l-4.35-5.9-2.23-5.48-.61-13.19L330.06,439l-2.23-6.29-.61-8.93-3.29-5.8-8.37,8-13,7.12,21.19-9.07-15,11.26-3.12.76s7.3,1.67,8.22.91,2.45-2.12,8.06-5.17,1.52.07.91,1.48-3.77,4.61-5.91,6.13-8.16,6.39-8.16,6.39L323.46,443l3.2-5-.68,7s-3.88,6.39-4.64,7.15-8.37,5.49-8.37,5.49,6.16-.16,7.49-1.08a15.72,15.72,0,0,0,3.77-3,9.36,9.36,0,0,1,1.75-1.83l3.27-4s-5.17,11.79-6.24,12.86-5.48,4.72-5.48,4.72,7.76-3.2,8.44-4.11a58.63,58.63,0,0,1,4.64-6.24c1.67-1.67-8.22,11.72-8.22,11.72l-3.65,1.83,11.87-5,1.83-1.83-8.52,11.31,8.52-3.7,1.63-.76,4.15,4.46Z"/><path class="cls-22" d="M309.46,375A105.46,105.46,0,0,1,278.55,398c-10.84,5.38-23.84,9.88-34.06,11.71l7.12,9.86c12.14-1.23,21.08-4.54,34.47-11.18,14.64-7.26,23-13.93,31.44-23.77Z"/><polygon class="cls-26" points="224.26 227.07 255 233.32 284.51 238.02 282.38 252.32 216.66 238.97 204.33 236.5 206.61 223.11 224.26 227.07"/><rect class="cls-24" x="256.52" y="225.62" width="10.35" height="25.18" transform="translate(43.55 -40.43) rotate(9.63)"/><path class="cls-27" d="M259.56,248.06l-7.3,30.43s-6.09,15.21-11.87,18.56-14.91,4.56-14.91,4.56-42.68.61-45.68-1.83-25.52-18.87-25.52-18.87S136,258.41,137.54,249.59s11.27-34,16.19-34.38c10.42-.91,3.89-3,3.89-3"/><path class="cls-27" d="M206.16,299.82"/><path class="cls-28" d="M261.95,252.2a10.71,10.71,0,0,1-1.62-1,18.08,18.08,0,0,1-1.46-1.15,17.81,17.81,0,0,1-1.33-1.3,10.65,10.65,0,0,1-1.17-1.49,10.56,10.56,0,0,1,1.62,1,17.77,17.77,0,0,1,1.46,1.16,18.15,18.15,0,0,1,1.33,1.3A10.8,10.8,0,0,1,261.95,252.2Z"/><path class="cls-28" d="M261,255.71a9.73,9.73,0,0,1-1.61-.81,16.46,16.46,0,0,1-1.46-1,16.21,16.21,0,0,1-1.35-1.16,9.69,9.69,0,0,1-1.19-1.36,9.6,9.6,0,0,1,1.61.81,16.16,16.16,0,0,1,1.46,1,16.5,16.5,0,0,1,1.34,1.16A9.81,9.81,0,0,1,261,255.71Z"/><path class="cls-28" d="M260.19,259.51a10.16,10.16,0,0,1-1.63-.86,17.22,17.22,0,0,1-1.48-1.06,17,17,0,0,1-1.36-1.2,10.13,10.13,0,0,1-1.21-1.4,10,10,0,0,1,1.63.86,17,17,0,0,1,1.48,1.06,17.28,17.28,0,0,1,1.36,1.21A10.25,10.25,0,0,1,260.19,259.51Z"/><path class="cls-28" d="M259.39,262.88a10.71,10.71,0,0,1-1.62-1,18.08,18.08,0,0,1-1.46-1.15,17.81,17.81,0,0,1-1.33-1.3A10.66,10.66,0,0,1,253.8,258a10.57,10.57,0,0,1,1.62,1,17.77,17.77,0,0,1,1.46,1.16,18.12,18.12,0,0,1,1.33,1.3A10.8,10.8,0,0,1,259.39,262.88Z"/><path class="cls-28" d="M258.43,266.39a9.73,9.73,0,0,1-1.61-.81,16.47,16.47,0,0,1-1.46-1,16.19,16.19,0,0,1-1.35-1.16,9.68,9.68,0,0,1-1.19-1.36,9.6,9.6,0,0,1,1.61.81,16.16,16.16,0,0,1,1.46,1,16.49,16.49,0,0,1,1.34,1.16A9.81,9.81,0,0,1,258.43,266.39Z"/><path class="cls-28" d="M257.63,270.19a10.17,10.17,0,0,1-1.63-.86,17.24,17.24,0,0,1-1.48-1.06,17,17,0,0,1-1.36-1.2,10.13,10.13,0,0,1-1.21-1.4,10,10,0,0,1,1.63.86,17,17,0,0,1,1.48,1.06,17.31,17.31,0,0,1,1.36,1.21A10.24,10.24,0,0,1,257.63,270.19Z"/><path class="cls-28" d="M256.82,273.56a10.71,10.71,0,0,1-1.62-1,18.08,18.08,0,0,1-1.46-1.15,17.81,17.81,0,0,1-1.33-1.3,10.67,10.67,0,0,1-1.17-1.49,10.56,10.56,0,0,1,1.62,1,17.79,17.79,0,0,1,1.46,1.16,18.12,18.12,0,0,1,1.33,1.3A10.81,10.81,0,0,1,256.82,273.56Z"/><path class="cls-28" d="M255.87,277.07a9.72,9.72,0,0,1-1.61-.81,16.46,16.46,0,0,1-1.46-1,16.21,16.21,0,0,1-1.35-1.16,9.68,9.68,0,0,1-1.19-1.36,9.6,9.6,0,0,1,1.61.81,16.17,16.17,0,0,1,1.46,1,16.5,16.5,0,0,1,1.34,1.16A9.81,9.81,0,0,1,255.87,277.07Z"/><path class="cls-28" d="M254.63,281.32a10.5,10.5,0,0,1-1.46-1.14c-.45-.41-.87-.84-1.28-1.29a6.39,6.39,0,0,0-.61-.64c-.2-.2-.47-.29-.68-.51a10.13,10.13,0,0,1-1.21-1.4,10.05,10.05,0,0,1,1.63.86,17,17,0,0,1,1.48,1.06,7.06,7.06,0,0,1,1.19,1.45A9.37,9.37,0,0,1,254.63,281.32Z"/><path class="cls-28" d="M253.14,284.58a11.18,11.18,0,0,1-1.38-1.29c-.42-.46-.82-.93-1.2-1.43s-.74-1-1.07-1.52a12,12,0,0,1-.9-1.64,10.12,10.12,0,0,1,1.43,1.22,15.31,15.31,0,0,1,1.22,1.4,15.91,15.91,0,0,1,1.06,1.54A10,10,0,0,1,253.14,284.58Z"/><path class="cls-28" d="M251.35,287.9a10.06,10.06,0,0,1-1.36-1.19c-.41-.43-.8-.87-1.17-1.33s-.71-.93-1-1.43a10.58,10.58,0,0,1-.88-1.56,9.38,9.38,0,0,1,1.4,1.13,14.66,14.66,0,0,1,1.2,1.31,13.78,13.78,0,0,1,1,1.45A9,9,0,0,1,251.35,287.9Z"/><path class="cls-28" d="M249.44,291.5a11,11,0,0,1-1.29-1.33c-.39-.47-.76-1-1.1-1.45s-.67-1-1-1.52a11.48,11.48,0,0,1-.81-1.64,9.69,9.69,0,0,1,1.36,1.24,14.89,14.89,0,0,1,1.14,1.41,14.12,14.12,0,0,1,1,1.55A8.89,8.89,0,0,1,249.44,291.5Z"/><path class="cls-28" d="M247.39,294.61a12.14,12.14,0,0,1-1.13-1.54c-.34-.53-.65-1.07-.94-1.61s-.57-1.09-.83-1.65a12.72,12.72,0,0,1-.67-1.73,9.68,9.68,0,0,1,1.25,1.4,14.29,14.29,0,0,1,1,1.56,11.8,11.8,0,0,1,.79,1.69A9.13,9.13,0,0,1,247.39,294.61Z"/><path class="cls-28" d="M244.61,297.72a13.39,13.39,0,0,1-.91-1.57c-.28-.54-.53-1.08-.77-1.62s-.47-1.07-.68-1.6a14,14,0,0,1-.58-1.67,8.94,8.94,0,0,1,1.16,1.37,12.19,12.19,0,0,1,.9,1.53,10,10,0,0,1,.63,1.67A5.88,5.88,0,0,1,244.61,297.72Z"/><path class="cls-28" d="M240.7,300.62a11.7,11.7,0,0,1-.37-1.83c-.08-.61-.14-1.21-.19-1.81s-.13-1.22-.22-1.78-.21-1.07-.29-1.67a8.64,8.64,0,0,1,.88,1.62,7.2,7.2,0,0,1,.49,1.71,8.16,8.16,0,0,1,.06,1.87A7.71,7.71,0,0,1,240.7,300.62Z"/><path class="cls-28" d="M237.16,302.12a12,12,0,0,1-.07-1.9c0-.62.07-1.24.12-1.86s.13-1.22.22-1.83a15.86,15.86,0,0,1,.32-1.79,9.06,9.06,0,0,1,.33,1.84,12,12,0,0,1,0,1.86,12.62,12.62,0,0,1-.29,1.85A8.52,8.52,0,0,1,237.16,302.12Z"/><path class="cls-28" d="M233.41,303.19a10.12,10.12,0,0,1-.06-1.8c0-.59.08-1.19.16-1.77s.18-1.17.3-1.74a12,12,0,0,1,.47-1.71,9.13,9.13,0,0,1,.19,1.79,13,13,0,0,1-.42,3.52A8.23,8.23,0,0,1,233.41,303.19Z"/><path class="cls-28" d="M229.47,304.25a10.64,10.64,0,0,1,.1-1.85c.08-.6.18-1.2.31-1.79s.28-1.18.45-1.75a11.82,11.82,0,0,1,.64-1.71,9.58,9.58,0,0,1,0,1.84,14.26,14.26,0,0,1-.74,3.55A9,9,0,0,1,229.47,304.25Z"/><path class="cls-28" d="M225.55,304.91l.37-1a6,6,0,0,0,.25-.93c.15-.61.32-1.2.51-1.79s.4-1.17.64-1.74a12.67,12.67,0,0,1,.82-1.67,9.86,9.86,0,0,1-.17,1.87,14.52,14.52,0,0,1-.45,1.8,13.94,13.94,0,0,1-.68,1.74c-.14.29-.28.57-.44.84s-.17.28-.26.41A2.93,2.93,0,0,1,225.55,304.91Z"/><path class="cls-28" d="M221.77,304.84a9.77,9.77,0,0,1,.4-1.76,16.67,16.67,0,0,1,.63-1.66,16.45,16.45,0,0,1,.8-1.59,9.84,9.84,0,0,1,1-1.49,9.56,9.56,0,0,1-.39,1.76,16,16,0,0,1-.62,1.66,16.22,16.22,0,0,1-.8,1.59A9.71,9.71,0,0,1,221.77,304.84Z"/><path class="cls-28" d="M217.88,305a10.19,10.19,0,0,1,.45-1.79,17.49,17.49,0,0,1,.68-1.69,17.23,17.23,0,0,1,.84-1.61,10.26,10.26,0,0,1,1.07-1.51,10,10,0,0,1-.44,1.79,16.75,16.75,0,0,1-.67,1.69,17.06,17.06,0,0,1-.85,1.61A10.14,10.14,0,0,1,217.88,305Z"/><path class="cls-28" d="M214.41,305a10.75,10.75,0,0,1,.56-1.8,18.41,18.41,0,0,1,.78-1.69,18.07,18.07,0,0,1,.95-1.6,10.82,10.82,0,0,1,1.16-1.49,10.52,10.52,0,0,1-.55,1.8,17.52,17.52,0,0,1-.78,1.69,17.88,17.88,0,0,1-.95,1.6A10.69,10.69,0,0,1,214.41,305Z"/><path class="cls-28" d="M210.76,304.86a9.76,9.76,0,0,1,.42-1.75,16.62,16.62,0,0,1,.65-1.65,16.45,16.45,0,0,1,.81-1.58,9.77,9.77,0,0,1,1-1.48,9.58,9.58,0,0,1-.41,1.75,16,16,0,0,1-.64,1.65,16.27,16.27,0,0,1-.82,1.58A9.71,9.71,0,0,1,210.76,304.86Z"/><path class="cls-28" d="M206.86,304.94a10.2,10.2,0,0,1,.47-1.78,17.55,17.55,0,0,1,.7-1.68,17.31,17.31,0,0,1,.86-1.6,10.25,10.25,0,0,1,1.09-1.49,10,10,0,0,1-.46,1.78,16.72,16.72,0,0,1-.69,1.68,17,17,0,0,1-.87,1.6A10.1,10.1,0,0,1,206.86,304.94Z"/><path class="cls-28" d="M203.38,304.9a10.81,10.81,0,0,1,.59-1.79,18.47,18.47,0,0,1,.8-1.68,18.19,18.19,0,0,1,1-1.59,10.82,10.82,0,0,1,1.18-1.47,10.51,10.51,0,0,1-.58,1.8,17.35,17.35,0,0,1-.8,1.68,17.75,17.75,0,0,1-1,1.59A10.56,10.56,0,0,1,203.38,304.9Z"/><path class="cls-28" d="M199.72,304.73a9.78,9.78,0,0,1,.45-1.75,16.78,16.78,0,0,1,.67-1.64,16.59,16.59,0,0,1,.84-1.56,9.83,9.83,0,0,1,1.06-1.46,9.57,9.57,0,0,1-.44,1.75,15.89,15.89,0,0,1-.67,1.64,16.09,16.09,0,0,1-.84,1.56A9.67,9.67,0,0,1,199.72,304.73Z"/><path class="cls-28" d="M195.81,304.74a10.24,10.24,0,0,1,.51-1.77,18.15,18.15,0,0,1,1.62-3.24,10.32,10.32,0,0,1,1.11-1.47,10,10,0,0,1-.49,1.78,16.93,16.93,0,0,1-1.62,3.25A10,10,0,0,1,195.81,304.74Z"/><path class="cls-28" d="M192.31,304.61a10.88,10.88,0,0,1,.64-1.78c.26-.57.54-1.12.85-1.65s.64-1.06,1-1.57a11,11,0,0,1,1.21-1.45,10.45,10.45,0,0,1-.61,1.78,17.1,17.1,0,0,1-.84,1.66,17.42,17.42,0,0,1-1,1.57A10.47,10.47,0,0,1,192.31,304.61Z"/><path class="cls-28" d="M188.62,304.31a9.87,9.87,0,0,1,.52-1.73,18.1,18.1,0,0,1,1.62-3.15,10,10,0,0,1,1.1-1.42,9.48,9.48,0,0,1-.49,1.73,15.83,15.83,0,0,1-1.62,3.16A9.36,9.36,0,0,1,188.62,304.31Z"/><path class="cls-28" d="M184.63,304.12a11,11,0,0,1,.64-1.73c.25-.55.53-1.09.83-1.62s.62-1,1-1.53a10.84,10.84,0,0,1,1.16-1.42,9.8,9.8,0,0,1-.57,1.75,15.61,15.61,0,0,1-.8,1.63,14.46,14.46,0,0,1-1,1.53A9,9,0,0,1,184.63,304.12Z"/><path class="cls-28" d="M180.86,303.6a17.74,17.74,0,0,1,1-1.66c.34-.53.69-1,1.06-1.54s.74-1,1.12-1.47a12.38,12.38,0,0,1,1.28-1.36,9.89,9.89,0,0,1-.72,1.74,14.22,14.22,0,0,1-1,1.59,13.43,13.43,0,0,1-1.18,1.46A7.15,7.15,0,0,1,180.86,303.6Z"/><path class="cls-28" d="M176.35,301.19a10,10,0,0,1,1.43-1.12,16.9,16.9,0,0,1,1.55-.91l.81-.39a.56.56,0,0,0,.34-.24,3.24,3.24,0,0,0,.3-.26,3.17,3.17,0,0,0,.49-.6,3.06,3.06,0,0,0,.18-.33l.21-.3a7.93,7.93,0,0,1-.71,1.61,3.79,3.79,0,0,1-1.18,1.27,3,3,0,0,1-.39.22.6.6,0,0,1-.23.08l-.21.09-.83.35A10.54,10.54,0,0,1,176.35,301.19Z"/><path class="cls-28" d="M173.18,299a10.39,10.39,0,0,1,1.48-1.13,17.94,17.94,0,0,1,3.29-1.65,10.58,10.58,0,0,1,1.81-.52,10.4,10.4,0,0,1-1.49,1.12,18,18,0,0,1-1.6.91c-.55.27-1.11.52-1.69.75A10.93,10.93,0,0,1,173.18,299Z"/><path class="cls-28" d="M170.4,296.94a10.93,10.93,0,0,1,1.56-1.08,18.37,18.37,0,0,1,1.67-.86,18.18,18.18,0,0,1,1.76-.69,11.07,11.07,0,0,1,1.87-.46,11,11,0,0,1-1.57,1.08q-.82.47-1.68.86c-.57.26-1.16.49-1.76.69A11.45,11.45,0,0,1,170.4,296.94Z"/><path class="cls-28" d="M167.56,294.7a9.86,9.86,0,0,1,1.41-1.14,16.64,16.64,0,0,1,1.53-.93,16.42,16.42,0,0,1,1.63-.76,10,10,0,0,1,1.75-.54,9.83,9.83,0,0,1-1.41,1.14,16.88,16.88,0,0,1-1.54.92,17.36,17.36,0,0,1-1.62.76A10.28,10.28,0,0,1,167.56,294.7Z"/><path class="cls-28" d="M164.39,292.49a10.25,10.25,0,0,1,1.45-1.15,17.29,17.29,0,0,1,1.57-.93,17.08,17.08,0,0,1,1.67-.76,10.32,10.32,0,0,1,1.79-.54,10.26,10.26,0,0,1-1.46,1.14,17.66,17.66,0,0,1-1.58.92,18.1,18.1,0,0,1-1.67.76A10.65,10.65,0,0,1,164.39,292.49Z"/><path class="cls-28" d="M161.62,290.44a10.76,10.76,0,0,1,1.54-1.1,18,18,0,0,1,1.65-.88,17.78,17.78,0,0,1,1.74-.71,10.8,10.8,0,0,1,1.85-.48,10.79,10.79,0,0,1-1.55,1.1,18.45,18.45,0,0,1-1.65.87c-.56.26-1.14.5-1.73.71A11.16,11.16,0,0,1,161.62,290.44Z"/><path class="cls-28" d="M158.77,288.21a9.74,9.74,0,0,1,1.38-1.16,16.33,16.33,0,0,1,1.51-.94,16.09,16.09,0,0,1,1.6-.78,9.71,9.71,0,0,1,1.73-.56,9.71,9.71,0,0,1-1.39,1.15,16.56,16.56,0,0,1-1.51.94,17,17,0,0,1-1.6.78A10,10,0,0,1,158.77,288.21Z"/><path class="cls-28" d="M155.61,286a10.13,10.13,0,0,1,1.43-1.17,17,17,0,0,1,1.55-.95,16.72,16.72,0,0,1,1.64-.78,10.07,10.07,0,0,1,1.77-.56,10.13,10.13,0,0,1-1.44,1.16,17.33,17.33,0,0,1-1.56.94,17.7,17.7,0,0,1-1.64.78A10.4,10.4,0,0,1,155.61,286Z"/><path class="cls-28" d="M152.84,284a10.6,10.6,0,0,1,1.51-1.12,17.65,17.65,0,0,1,1.63-.9,17.39,17.39,0,0,1,1.71-.72,10.53,10.53,0,0,1,1.83-.49,10.64,10.64,0,0,1-1.52,1.11,18.09,18.09,0,0,1-1.63.89,18.48,18.48,0,0,1-1.71.72A10.87,10.87,0,0,1,152.84,284Z"/><path class="cls-28" d="M149.89,280.48a9.86,9.86,0,0,1,1.65-.74,17.59,17.59,0,0,1,1.7-.5q.86-.21,1.74-.34c.29,0,.59-.07.89-.1a.7.7,0,0,0,.71-.27,4.39,4.39,0,0,1-1.42,1,14.67,14.67,0,0,1-1.69.53,15.1,15.1,0,0,1-1.75.33A9.29,9.29,0,0,1,149.89,280.48Z"/><path class="cls-28" d="M147.44,277.39a10.34,10.34,0,0,1,1.72-.68c.58-.18,1.17-.33,1.76-.45s1.19-.21,1.79-.28a10.76,10.76,0,0,1,1.84-.05,9.89,9.89,0,0,1-1.7.72,15.8,15.8,0,0,1-1.75.47,16,16,0,0,1-1.8.27A9.82,9.82,0,0,1,147.44,277.39Z"/><path class="cls-28" d="M145.39,274.51a11,11,0,0,1,1.8-.57c.61-.14,1.22-.25,1.83-.33s1.23-.14,1.85-.16a11.18,11.18,0,0,1,1.88.06,10.31,10.31,0,0,1-1.78.61,16.56,16.56,0,0,1-1.82.36,16.74,16.74,0,0,1-1.86.15A10.09,10.09,0,0,1,145.39,274.51Z"/><path class="cls-28" d="M143.38,271.38a10,10,0,0,1,1.69-.62,17.73,17.73,0,0,1,1.73-.39c.58-.1,1.17-.17,1.76-.22a10.19,10.19,0,0,1,1.8,0,9.46,9.46,0,0,1-1.67.66,15.22,15.22,0,0,1-1.73.41,14.92,14.92,0,0,1-1.76.21A9.14,9.14,0,0,1,143.38,271.38Z"/><path class="cls-28" d="M141.14,268.09a10.43,10.43,0,0,1,1.76-.55c.59-.13,1.19-.24,1.79-.31s1.2-.13,1.81-.15a11.11,11.11,0,0,1,1.83.07,9.88,9.88,0,0,1-1.74.6,15.92,15.92,0,0,1-3.6.48A9.56,9.56,0,0,1,141.14,268.09Z"/><path class="cls-28" d="M139.31,265a11.28,11.28,0,0,1,1.85-.4c.62-.08,1.24-.14,1.85-.17s1.24,0,1.86,0a12,12,0,0,1,1.86.2,10.18,10.18,0,0,1-1.82.48,15.81,15.81,0,0,1-1.84.21,15,15,0,0,1-1.87,0A10,10,0,0,1,139.31,265Z"/><path class="cls-28" d="M137.61,261.59a10.11,10.11,0,0,1,1.76-.41c.59-.09,1.18-.15,1.77-.18s1.18,0,1.77,0a11.19,11.19,0,0,1,1.78.17,9.37,9.37,0,0,1-1.73.5,14.11,14.11,0,0,1-3.54.24A8.13,8.13,0,0,1,137.61,261.59Z"/><path class="cls-28" d="M135.8,257.84a11.38,11.38,0,0,1,1.84-.21c.61,0,1.22,0,1.82,0s1.2.06,1.8.11a12.18,12.18,0,0,1,1.79.29,9.45,9.45,0,0,1-1.8.38,13.9,13.9,0,0,1-1.81.09,12.19,12.19,0,0,1-1.82-.16A7.67,7.67,0,0,1,135.8,257.84Z"/><path class="cls-28" d="M134.6,254.09a15.79,15.79,0,0,1,1.91.18c.63.09,1.23.2,1.84.31s1.22.23,1.81.37a15.6,15.6,0,0,1,1.77.49,9.39,9.39,0,0,1-1.87.16,11.69,11.69,0,0,1-1.85-.15,11,11,0,0,1-1.83-.45A7.39,7.39,0,0,1,134.6,254.09Z"/><path class="cls-28" d="M134.38,249.27a15.21,15.21,0,0,1,1.68.76c.53.27,1.07.52,1.63.75s1.06.44,1.61.64,1,.38,1.58.61a8.75,8.75,0,0,1-3.5-.44,6.31,6.31,0,0,1-1.62-.82A4.34,4.34,0,0,1,134.38,249.27Z"/><path class="cls-28" d="M135.2,245.1a10.61,10.61,0,0,1,1.61.92c.5.34,1,.7,1.46,1.08s.92.78,1.36,1.19a15.92,15.92,0,0,1,1.26,1.29,8.77,8.77,0,0,1-1.67-.77,13.28,13.28,0,0,1-1.5-1,13.52,13.52,0,0,1-1.35-1.22A9,9,0,0,1,135.2,245.1Z"/><path class="cls-28" d="M136.21,241.65a11.1,11.1,0,0,1,1.55,1.08c.48.4.95.81,1.39,1.24s.86.88,1.27,1.35a13.06,13.06,0,0,1,1.13,1.49,9.78,9.78,0,0,1-1.6-1,15.4,15.4,0,0,1-1.41-1.21,15.19,15.19,0,0,1-1.26-1.37A9.75,9.75,0,0,1,136.21,241.65Z"/><path class="cls-28" d="M137.49,238.13a9.93,9.93,0,0,1,1.52,1c.47.36.93.74,1.36,1.14s.85.82,1.24,1.26a10.39,10.39,0,0,1,1.09,1.43,9.38,9.38,0,0,1-1.55-.92,14.94,14.94,0,0,1-1.37-1.12,14.58,14.58,0,0,1-1.24-1.28A9.29,9.29,0,0,1,137.49,238.13Z"/><path class="cls-28" d="M138.74,234.37a10.36,10.36,0,0,1,1.51,1.06c.47.39.91.8,1.34,1.23s.83.88,1.22,1.35a11.11,11.11,0,0,1,1.05,1.51,9.87,9.87,0,0,1-1.53-1,15.46,15.46,0,0,1-1.35-1.21,15.87,15.87,0,0,1-1.21-1.36A9.57,9.57,0,0,1,138.74,234.37Z"/><path class="cls-28" d="M140,231.07a11,11,0,0,1,1.46,1.2c.45.43.87.88,1.27,1.35s.79,1,1.15,1.46a11.74,11.74,0,0,1,1,1.61,10.31,10.31,0,0,1-1.49-1.16,16.74,16.74,0,0,1-2.43-2.81A10.24,10.24,0,0,1,140,231.07Z"/><path class="cls-28" d="M141.58,227.67a10,10,0,0,1,1.44,1.09q.67.59,1.27,1.25t1.14,1.36a10.29,10.29,0,0,1,1,1.51,9.45,9.45,0,0,1-1.47-1,15.12,15.12,0,0,1-2.41-2.6A9,9,0,0,1,141.58,227.67Z"/><path class="cls-28" d="M143.16,224a10.49,10.49,0,0,1,1.41,1.2c.43.43.84.88,1.22,1.34s.76.95,1.1,1.44a11.22,11.22,0,0,1,.93,1.58,9.83,9.83,0,0,1-1.45-1.14,15.38,15.38,0,0,1-1.25-1.32,15.14,15.14,0,0,1-1.09-1.46A9.48,9.48,0,0,1,143.16,224Z"/><path class="cls-28" d="M144.8,220.78a11.65,11.65,0,0,1,1.31,1.36c.4.48.78,1,1.13,1.48s.69,1,1,1.56a12.06,12.06,0,0,1,.83,1.68,10.07,10.07,0,0,1-1.38-1.28,15.52,15.52,0,0,1-1.16-1.45,14.4,14.4,0,0,1-1-1.59A9,9,0,0,1,144.8,220.78Z"/><path class="cls-28" d="M146.88,217.47a10.61,10.61,0,0,1,1.23,1.32c.38.46.73.94,1.06,1.43s.65,1,.95,1.49a11.6,11.6,0,0,1,.79,1.59,9.25,9.25,0,0,1-1.34-1.2,13.45,13.45,0,0,1-1.12-1.37,11.82,11.82,0,0,1-.92-1.52A7.33,7.33,0,0,1,146.88,217.47Z"/><path class="cls-28" d="M149.74,213.77c.33.55.55,1.13.81,1.69l.75,1.67.74,1.64a16.53,16.53,0,0,1,.65,1.66,8.92,8.92,0,0,1-1.22-1.36,10.86,10.86,0,0,1-.95-1.54,8.8,8.8,0,0,1-.66-1.72A4.8,4.8,0,0,1,149.74,213.77Z"/><path class="cls-28" d="M154.74,211.79a9.64,9.64,0,0,1-.33,1.85,13,13,0,0,1-.51,1.49l-.08.26a3.75,3.75,0,0,0-.12,1.72,2.48,2.48,0,0,0,.25.75,6.71,6.71,0,0,1,.21.76,8.06,8.06,0,0,1-.89-1.61,3.53,3.53,0,0,1-.32-1.78,3.35,3.35,0,0,1,.7-1.76l.06-.08C154.14,212.83,154.36,212.31,154.74,211.79Z"/><path class="cls-28" d="M157.57,211.38a6.41,6.41,0,0,1,.31,1.74,7.48,7.48,0,0,1-.16,1.75,9.36,9.36,0,0,1-.53,1.72,7.83,7.83,0,0,1-.9,1.63,10.21,10.21,0,0,1,.19-1.8c.11-.59.24-1.17.38-1.74l.43-1.7A6.65,6.65,0,0,0,157.57,211.38Z"/><path class="cls-28" d="M156.6,215.28a5.18,5.18,0,0,1,.89-1.57,6.8,6.8,0,0,1,1.27-1.27,2.75,2.75,0,0,1,1.86-.65,1.28,1.28,0,0,1,.34.08,1.22,1.22,0,0,1,.39.19,2.11,2.11,0,0,1,.82,1.06,2.83,2.83,0,0,1,.18,1,3.59,3.59,0,0,1-.15,1,3.93,3.93,0,0,1-.17.46l-.16.35c-.09.2-.29.48-.37.61a8.13,8.13,0,0,1-.1-1.19,4,4,0,0,0-.26-1.5,1.74,1.74,0,0,0-.44-.6,1.26,1.26,0,0,0-.54-.23,1.6,1.6,0,0,0-.92.18,7.23,7.23,0,0,0-1.4,1A10.51,10.51,0,0,0,156.6,215.28Z"/><path class="cls-29" d="M206.16,299.82"/><polygon class="cls-19" points="29.21 391.69 31.44 394.33 28.03 389.48 26.32 389.93 29.21 391.69"/><polygon class="cls-19" points="15.01 402.64 15.01 400.92 13 397.82 10.76 399.63 15.01 402.64"/><polygon class="cls-19" points="1.8 415.39 0.86 419.35 1.83 419.28 6.9 423.13 4.26 418.26 1.8 415.39"/><polygon class="cls-19" points="16.84 395.24 19.68 399.6 18.26 395.24 17.69 394.04 16.52 394.98 16.84 395.24"/><polygon class="cls-19" points="32.46 388.85 37.73 392.7 35.09 389.26 33.99 387.93 31.95 388.46 32.46 388.85"/><polygon class="cls-19" points="11.26 412.58 11.26 409.75 7.51 407.31 5.99 405.54 5.05 406.84 8.93 410.56 11.26 412.58"/><path class="cls-19" d="M27.59,395.54c-1-1.33-3.1-4-3.81-5l-2.68.7-.56.46,3,2.59S28.81,397.17,27.59,395.54Z"/><polygon class="cls-19" points="8.93 415.83 5.68 412.99 3.15 409.74 2.64 411.86 4.46 415.22 8.72 418.06 8.93 415.83"/><polygon class="cls-19" points="10.35 403.46 8.81 401.62 7.63 403.26 12.98 406.9 10.35 403.46"/><path class="cls-14" d="M304.49,172.63c7.75-3.42,18.4,1,23.94,4.84,3.09,2.14,5.92,5.33,11,12.17,5.53,7.51,8.63,11,9.74,15.82.71,3.08.67,5.69,2.43,10.55.56,1.53.75,1.81,2.84,6.49,4.09,9.17,3.48,8.46,4.46,10.14,2.23,3.84,3,3.53,7.71,10.14,1,1.43,2,3,4.06,6.09,3,4.64,4,6.25,6.49,10.14,2.22,3.44,3.9,5.9,5.68,8.52,8.69,12.79,10.18,13.78,11.36,17.85,1.06,3.67,2.16,8,.41,12.17-.69,1.63-1.86,3.35-2.33,6.49a28.06,28.06,0,0,0-.15,5c0,2.05.19,3.5.46,6.09.24,2.36.45,4.37.91,7,.68,3.83.87,3.13,1.07,5,.42,4.12-.71,5.46.15,9.28.32,1.41.42,1,.91,2.89.69,2.68,1.51,6,.15,8.52-.2.36-.4.64-.76,1.37a17.93,17.93,0,0,0-1.22,3.2c-.32,1.09-1.41,4.76-4.26,6.54a4.38,4.38,0,0,1-6.85-1.83c-.64-1.38-.27-2.41-1.07-2.89s-1.24.17-2-.15c-1.12-.49-1.28-2.48-1.37-3.8-.25-3.76.92-5.66,0-6.39-.36-.28-.65-.1-2.59.15-2.82.36-4.25.53-5.17-.15-.75-.55-.93-1.41-1.22-2.74-.4-1.89-.07-2.59,0-5.33.11-4.21-.62-5,.3-6.24.56-.73,1.4-1.2,1.67-2.43a4.11,4.11,0,0,0,0-1.52c-.52-2.65-4.56-5.53-6.24-4.56-1.3.74,0,3.08-1.83,5.63a7.73,7.73,0,0,1-3.65,2.59c-1,.39-3.61,1.41-5.78.3s-2.73-3.83-3.35-7c-.56-2.87-1.08-5.54.15-8.06a18.59,18.59,0,0,0,1.52-4.26,2.84,2.84,0,0,0,0-2c-.38-.82-1.19-1-1.83-1.37-2.17-1.24-1.5-4-3.5-7.15a12.51,12.51,0,0,0-2.89-3c-5.25-4.52-12.16-14.28-14-16.89-7.23-10.22-6.23-12.49-13.24-20.69-3-3.47-3.21-3.14-6.24-6.69a95.65,95.65,0,0,1-11.87-18.26C290.93,218.31,288.33,179.76,304.49,172.63Z"/><path class="cls-20" d="M365,321.09c1.68-1,5.72,1.91,6.24,4.56a4.11,4.11,0,0,1,0,1.52c-.28,1.23-1.12,1.71-1.67,2.43-.93,1.22-.2,2-.3,6.24-.07,2.73-.4,3.44,0,5.33.29,1.33.47,2.19,1.22,2.74.93.68,2.35.51,5.17.15,1.93-.25,2.23-.44,2.59-.15.92.73-.25,2.63,0,6.39.09,1.33.25,3.31,1.37,3.8.74.32,1.3-.26,2,.15s.42,1.51,1.07,2.89a4.38,4.38,0,0,0,6.85,1.83c2.85-1.79,3.94-5.45,4.26-6.54a17.93,17.93,0,0,1,1.22-3.2c.36-.73.56-1,.76-1.37,1.36-2.53.54-5.84-.15-8.52-.5-1.91-.59-1.48-.91-2.89-.87-3.82.27-5.16-.15-9.28-.19-1.89-.39-1.19-1.07-5-.46-2.62-.67-4.64-.91-7-.26-2.58-.41-4-.46-6.09a28.06,28.06,0,0,1,.15-5,15.07,15.07,0,0,1,.51-2.24l-1.14-4-8.27-10.35-26.9,2.43,1.5,5.48-9.78,7.75c.49,1.7.73,3.08,2.1,3.86.64.37,1.44.55,1.83,1.37a2.84,2.84,0,0,1,0,2,18.59,18.59,0,0,1-1.52,4.26c-1.23,2.52-.71,5.19-.15,8.06.62,3.17,1.14,5.87,3.35,7s4.77.09,5.78-.3a7.73,7.73,0,0,0,3.65-2.59C365,324.17,363.7,321.84,365,321.09Z"/><polygon class="cls-19" points="364.4 322.04 370.02 314.25 371.69 322.04 371.24 327.18 375.57 326.27 375.57 318.2 375.57 313.03 373.97 309.83 369.41 309.83 364.4 322.04"/><path class="cls-19" d="M340.65,262.06a25.88,25.88,0,0,1,3.85-3.2c1.57-.91,2.69-3.2,4.06-4.4s1.37-2.45,2-3.42a8.43,8.43,0,0,1,2-1.92l4.26-.76,4.56-1.74s2.28-1.76,2.28-2.87-2.74,0-2.74,0l-3.35,1.32s-5.78,3.14-7.61,3.75-7.15,3.8-8.67,4.56a25.74,25.74,0,0,0-4.44,3.53c-.33.34-5.6,4.07-6.21,4.83s-9.2,3.92-9.2,3.92h0c2.41,4,3.53,7.24,8.44,14.18,1.84,2.6,8.75,12.37,14,16.89a12.51,12.51,0,0,1,2.89,3c1.44,2.29,1.51,4.35,2.24,5.79,1.38-.2,3.09-.45,4-.62,1.67-.3.61-4.41.61-4.41l6.85-6.85s2-5.93,1.83-5.93-2.13-.15-4.56-.15-3.2.46-5.33.73-4.11-2.71-3.65-3,3.65-1.67,3.65-1.67l4.41-5s-2,.15-4.56.3,0,0-1.67.61-6.09.61-7.3,0,0,0,1.27-.91a5.86,5.86,0,0,0,1.78-2,22,22,0,0,1,1.67-3c.46-.46,4.72-6.11,4.72-6.11s-2.43-.59-3.5,0-1.67.17-2.74.63-8.67.91-8.67.91,1.83-4,2.28-5.17A19.1,19.1,0,0,0,340.65,262.06Z"/><path class="cls-20" d="M394.16,285.39c-1.18-4.07-2.67-5.06-11.36-17.85-1.78-2.62-3.46-5.08-5.68-8.52-2.52-3.89-3.46-5.51-6.49-10.14-2-3.1-3-4.65-4.06-6.09-4.68-6.61-5.47-6.3-7.71-10.14-1-1.69-.38-1-4.46-10.14l-.42-1a22.43,22.43,0,0,0-7.69,4.45c-2.89,2.89-5.17,11.72-5.17,11.72h4.11l6.09-2.43-3.76,5.17s7.41.91,8.63,0,1.37-1.22,2.74-1.37,1.07,2.74,0,3.2,4,1.43,4.72,1.47,3,3.09,3.8,4.16,2.13,4.41,0,4.41h-6.85s.61,3.5.61,4,2.43,1.94,2.43,1.94l2,5.21s-3.65,2-3.35,2.89-2.43,2.43,0,2.59,11.56,0,11.56,0-4.41,6.39-5.17,7-2.89,1.37-1.83,1.67,5.78-.76,7,0a9.33,9.33,0,0,0,3.8.76l7.46,2.13v2.89c0,.91,4,8.06,4,8.06l6,4.8C396.07,292.48,395.11,288.67,394.16,285.39Z"/><path class="cls-30" d="M351.91,318.05a14.46,14.46,0,0,1,5.17-.3,14.65,14.65,0,0,1,6.85,2.74"/><path class="cls-16" d="M357.92,290.78c3.56-1,7-2.4,10.49-3.53.89-.28,1.77-.56,2.69-.79a18.15,18.15,0,0,1,2.86-.53,6.77,6.77,0,0,1,1.55,0c.47.05.94.11,1.4.17.94.13,1.87.29,2.8.5a19.93,19.93,0,0,1,2.77.87,10.61,10.61,0,0,1,2.61,1.47,16.17,16.17,0,0,1,3.91,4.29,17,17,0,0,1,2.58,10.85,20.53,20.53,0,0,0-3.87-10,16.34,16.34,0,0,0-3.73-3.64,12.53,12.53,0,0,0-4.73-1.93c-.86-.21-1.74-.38-2.63-.52l-1.34-.19a4.41,4.41,0,0,0-.61-.05,3.89,3.89,0,0,0-.59,0,33.29,33.29,0,0,0-5.26.93A66.43,66.43,0,0,1,357.92,290.78Z"/><path class="cls-19" d="M315.9,172a46.49,46.49,0,0,0-12.14,13,38.07,38.07,0,0,0-3.67,7.93,41.57,41.57,0,0,0-1.77,8.57,103.29,103.29,0,0,0-.68,17.84A126.25,126.25,0,0,0,300,237.2a66.47,66.47,0,0,1-4.71-17.67,71,71,0,0,1-.56-9.21c0-1.54.1-3.09.2-4.61s.22-3,.39-4.58a41.94,41.94,0,0,1,2.07-9.14,35.16,35.16,0,0,1,4.4-8.29A35.9,35.9,0,0,1,315.9,172Z"/><path class="cls-31" d="M318.8,108h0a14.65,14.65,0,0,1,10.79,17.62L321,161.51a14.65,14.65,0,0,1-17.62,10.79h0"/><path class="cls-31" d="M212.9,154.48l-3.51-.84A14.65,14.65,0,0,1,198.6,136l8.39-34.9c1.88-7.81,5.71-13.07,13.52-11.19"/><path class="cls-15" d="M323.45,73.93a69.52,69.52,0,0,0-13.82-15.12,8,8,0,0,0-3.54-1.62L249,46.35a8,8,0,0,0-3.89.2,68.86,68.86,0,0,0-18.34,9,8.14,8.14,0,0,0-3.36,5.19l-16.64,87.56,3.81,5.65L299,170.74a8.13,8.13,0,0,0,6.14-1.3l.13-.09a8.15,8.15,0,0,0,3.37-5.18l5.3-27.92c-7.62,23.39-25.75,20.38-53.84,14.89-30.79-6-50.44-8.79-44.31-40.22s31.2-53.14,62-47.12c27.78,5.43,41.42,28.37,39.31,55.9L324.68,80A8.15,8.15,0,0,0,323.45,73.93Z"/><path class="cls-32" d="M305.19,163.43a284.65,284.65,0,0,0-47.32-13.17,268,268,0,0,0-47.6-4.9"/><circle class="cls-33" cx="315.91" cy="77.31" r="3.7"/><path class="cls-32" d="M297.16,170.31a286.67,286.67,0,0,0-81.57-15.2"/><path class="cls-32" d="M305.19,169.44a284.65,284.65,0,0,0-47.32-13.17,268,268,0,0,0-47.6-4.9"/><circle class="cls-33" cx="251.24" cy="57.88" r="2.74"/><rect class="cls-15" x="319.31" y="89.49" width="28.39" height="40.24" rx="10.22" ry="10.22" transform="translate(26.33 -60.34) rotate(10.76)"/><rect class="cls-34" x="328.7" y="92.34" width="14.69" height="8.95" rx="3.68" ry="3.68" transform="translate(23.98 -61.04) rotate(10.76)"/><rect class="cls-31" x="327.83" y="107.3" width="9.13" height="16.28" rx="3.75" ry="3.75" transform="translate(27.4 -60.03) rotate(10.76)"/><rect class="cls-15" x="190.78" y="60.81" width="28.39" height="40.24" rx="10.22" ry="10.22" transform="translate(18.71 -36.84) rotate(10.76)"/><rect class="cls-34" x="200.17" y="63.66" width="14.69" height="8.95" rx="3.68" ry="3.68" transform="translate(16.37 -37.54) rotate(10.76)"/><rect class="cls-31" x="199.3" y="78.62" width="9.13" height="16.28" rx="3.75" ry="3.75" transform="translate(19.78 -36.54) rotate(10.76)"/><path class="cls-31" d="M219,84.33l4.49-23.6a8.21,8.21,0,0,1,1.49-3.38,14.66,14.66,0,0,0-12.76,11.79h0A14.65,14.65,0,0,0,219,84.33Z"/><path class="cls-31" d="M324.48,75.61l-.19,0a8.19,8.19,0,0,1,.39,4.43L320,104.45a14.6,14.6,0,0,0,4.44-28.84Z"/><path class="cls-35" d="M275.88,63.81c-26.5-5.34-48.61,11.2-57.39,37l-3.75,20.38c-.07,21.9,17.81,24.69,44,30,22.58,4.55,38.5,7.38,47.5-5.12l7.4-40.2C311,84.73,298.11,68.29,275.88,63.81Z"/><ellipse class="cls-36" cx="233.17" cy="106.39" rx="27.46" ry="10.98" transform="translate(89.26 318.47) rotate(-80.37)"/></g></g></svg>