<svg xmlns="http://www.w3.org/2000/svg" width="246.98" height="246.88" viewBox="0 0 246.98 246.88"><defs><style>.cls-1{fill:#edbfae;}.cls-1,.cls-10,.cls-11,.cls-13,.cls-2,.cls-4,.cls-7,.cls-8,.cls-9{stroke:#000;}.cls-1,.cls-10,.cls-11,.cls-12,.cls-13,.cls-2,.cls-4,.cls-7,.cls-8,.cls-9{stroke-miterlimit:10;stroke-width:0.5px;}.cls-12,.cls-3,.cls-4{fill:#fff;}.cls-5{fill:#d1948e;}.cls-6{fill:#5c7193;}.cls-7{fill:#6b3e1f;}.cls-8{fill:#f6cdb9;}.cls-9{fill:none;}.cls-10{fill:#cecccc;}.cls-11{fill:#b28a8a;}.cls-12{stroke:#fff;}.cls-13{fill:#e39999;}</style></defs><title>img-portrait</title><g id="Layer_2" data-name="Layer 2"><g id="Layer_1-2" data-name="Layer 1"><g id="Layer_2-2" data-name="Layer 2"><g id="Layer_23" data-name="Layer 23"><path class="cls-1" d="M175.84,175.27l.58,1.73v7.26l-4.91,9.53-7.22,7.8-7.8,4.91-10.11,2.89L138,210.55l-10.08-1.75-11.26-2.31-10.4-4.33-5.2-5.2L95,189.16l-5.2-7.8-2.31-7.22-1.73-8.66-1.73-9v-7.8l1.16-4,1.73-3.18,5.78-1.16,4.91-1.73,2.89-1.73L108,117.82l4.33-9.82,14.73,21.68,17.62,7.22s39.28,13.29,39.57,13Z" transform="translate(-4.71)"/><path d="M216,92.13l3.8-15.3-8.38-8.38-4.62-5.2L199,53.43l-9.84-7.51-20.51-5.2-16.17,2.6-15.31,4.31L129.23,55,122,58.2l1.3-7.09L128.5,41l6.07-13,3.21-7.2L145,13l10.65-8.09,10.4-2.6,12.42-1.15L191.73,0l11,2,11.84,7.53S226.41,21.76,227.28,22,232,32.59,232,32.59l4,15.31v9l-6.36,18.19-4.9,11.84-6.07,8.38Z" transform="translate(-4.71)"/><path class="cls-2" d="M126.2,53.43,134,58l-1.69,17.34-19.93,38.7-4.91-2.31L104,103.69l-2.94-7.18v-9s2.31-6.64,2.6-7.51,4.62-6.93,5.49-7.51Z" transform="translate(-4.71)"/><path class="cls-1" d="M218.46,31.69h0L179.32,15.11h0a8,8,0,0,1,10.49-4.25l31.78,13.46Z" transform="translate(-4.71)"/><path class="cls-3" d="M203.4,88c-1,.87-2.68.65-3.81.33-.73-.21-1.5-.27-2.23-.48a6.64,6.64,0,0,1-1.42-.82,19.46,19.46,0,0,1-3.23-1.66,11.94,11.94,0,0,0-3.94-2c-.78-.28-1.57-.42-2.36-.67-.34-.1-.7-.16-1-.28a4.41,4.41,0,0,1-.81-.59c.16-.5,1.35-.63,1.81-.63a11.6,11.6,0,0,0,2-.1,30.47,30.47,0,0,1,4.86-.58c1.58,0,5.79,2,4.94.6-4-6.47,2.09,1.57,3.32,3.65a12.22,12.22,0,0,1,1.73,3.45" transform="translate(-4.71)"/><path class="cls-4" d="M167.07,74.14c-.08-.32-.36-.55-.47-.9s-.12-.77-.21-1.13a14.06,14.06,0,0,0-.66-1.49c-.16-.45-.27-.94-.43-1.4a3.35,3.35,0,0,0-1.19-1.67,8.83,8.83,0,0,0-1.7-1.25c-.71-.3-1.49-.38-2.21-.68a7.63,7.63,0,0,0-2.42-.72,15.7,15.7,0,0,0-2.15-.29,12.35,12.35,0,0,0-2.23.45c-1.25.28-2.5.62-3.77.8.31.53.86.72,1.31,1.06a15.24,15.24,0,0,1,1.34,1.19c2,1.94,4.81,2.23,7.41,2.82a15.13,15.13,0,0,1,3.64,1.37c1.09.57,2.28,1,3.35,1.64" transform="translate(-4.71)"/><ellipse class="cls-5" cx="181.27" cy="82.17" rx="1.88" ry="2.31"/><circle class="cls-6" cx="191.81" cy="84.48" r="4.19"/><path class="cls-3" d="M148.8,66.38c.13,1.29,1.55,2.28,2.6,2.81.71.34,1.32.81,2,1.15a6.64,6.64,0,0,0,1.6.34,19.46,19.46,0,0,0,3.6.93,11.94,11.94,0,0,1,4.26,1.17c.77.31,1.45.74,2.2,1.09.3.14.59.34.9.45a4.41,4.41,0,0,0,1,.11c.22-.47-.58-1.37-.92-1.68a11.6,11.6,0,0,1-1.42-1.42,30.47,30.47,0,0,0-3.21-3.7,13.33,13.33,0,0,0-4.06-2.87,6.91,6.91,0,0,0-4.91.47,15,15,0,0,0-3.6,1.39" transform="translate(-4.71)"/><ellipse class="cls-5" cx="165.68" cy="73.8" rx="2.31" ry="1.88" transform="translate(-5.07 146.79) rotate(-47.74)"/><circle class="cls-6" cx="158.05" cy="68.71" r="4.19" transform="translate(-3.8 139.48) rotate(-47.74)"/><circle cx="158.46" cy="68.69" r="1.73" transform="translate(52.98 208.95) rotate(-77.74)"/><circle cx="191.52" cy="84.19" r="1.73"/><path class="cls-1" d="M112.32,103.11v10.7l3.47,11.84,2.6,8.66,5.78,13.29,6.64,7.51,6.35,4,8.38,2.89h10.11l7.14-1.79,8.38-4s8.09-4.05,8.09-3.47,6.93-4.33,6.93-4.33l5.49-3.75,4.33-5.78,8.38-17L217.1,95.31l4.33-9.53,1.16-2.31,1.16-9.24.87-6.93V54.55l-2-4c-.62-2.89-1.77-2.85-4.62-5.2s-2.57-3.21-6.32-5.24-11.55-5.78-11.55-5.78l-9.82-4-7.51-2.6-8.66-2h-6.06l-8.38,2-7.53,3.5-6.64,4.62-8.38,8.38-5.2,5.2-2,4Zm72.3-21.21c.16-.55,1.35-.69,1.81-.69a10.53,10.53,0,0,0,2-.11,27.76,27.76,0,0,1,4.86-.64,12.16,12.16,0,0,1,4.94.67c1.64.71,2.56,2.35,3.32,4a18.2,18.2,0,0,1,1.72,3.73h0c-1,.78-2.58.55-3.65.22A31.18,31.18,0,0,1,196,87.65c-1-.66-2.35-1-3.28-1.88a11.56,11.56,0,0,0-3.94-2.2c-.77-.31-1.57-.47-2.36-.74a9,9,0,0,1-1-.3A4.45,4.45,0,0,1,184.62,81.9ZM149.14,66c1.3-.21,2.59-.58,3.87-.9.77-.19,3.76-.12,4.5-.19,1.89-.18,4,1.24,4.75,1.57a9.16,9.16,0,0,1,1.74,1.4,3.77,3.77,0,0,1,1.22,1.9c.17.52.28,1.06.45,1.57a16.51,16.51,0,0,1,.68,1.67c.1.41.11.91.22,1.27s.4.64.49,1l-.4-.22c-1.09-.67-2.32-1.2-3.44-1.84a14.75,14.75,0,0,0-3.73-1.54c-2.67-.65-5.49-1-7.61-3.16a16.18,16.18,0,0,0-1.38-1.33C150,66.78,149.44,66.56,149.14,66Z" transform="translate(-4.71)"/><path class="cls-7" d="M218.06,96.47l2-3.47-.88-1.33L214.86,97l-3.14,5.85-.58-1.16-2,7.51v-1.44L205.67,117v-2.34l-3.18,7.8v-2.31l-3.18,6.93-1.44-2.31-.87,4.62-2.36,1.41-4.33,5.2L188,133.15s-6.05,2.6-6.05,2.31,3.18-4.62,3.18-4.62l-2-.58,4-4h-4.32l2.31-2.89-2.31-.87,2.31-1.16s-.58-2-.58-2.31-1.16-3.47-1.16-3.47L180.49,117l-1.18-4.65L177,114.66l-1.8-3.5-1.73,2.31-1.44-2.6-3.18,1.44-.58-2.89-5.2,1.44.58-3.75-4,2v-3.47l-4,2,1.44-3.18-2.6.58-1.44-2.6-4.33,2.6v-2.89l-5.49,2,1.16-2-7.51,2.31.87-3.47-4.33,6.93-.87-2.31-2,7.8.29-2.31-4.62,4.33,1.16-5.49-3.47.87,3.47-6.35-4.62-1.16,4-4.62h-4.62L125,94.35l-4.62-.58,5.2-4.62-2.89-.87,2.6-2.6-1.44-2.31s2-4,2.31-4h-2.31l2.89-4-2.31-.29,2-2.89-.87-2.31,1.59-3,.87.58,1.16-4.33,1.44-1.44V56.2s.85,2.29,1.16,2,1.73-4.62,2.31-5.78L136,51.7l-1.14-5.21-3.47,3.18L129.95,54l-17.63,49.69v10.65l3.47,11.84,2.6,8.66,5.78,13.29,6.64,7.51,6.35,4,8.38,2.89h10.11l7.22-1.73,8.38-4s8.09-4.05,8.09-3.47,6.93-4.33,6.93-4.33l5.48-3.76,4.33-5.78,8.38-17Z" transform="translate(-4.71)"/><polygon class="cls-8" points="151.52 130.84 151.23 136.61 147.19 137.48 150.08 142.1 147.19 144.12 148.05 148.17 145.17 149.9 145.17 154.23 149.21 151.06 152.39 154.23 154.99 151.06 157.59 154.23 157.59 149.9 162.49 152.5 162.78 148.17 167.12 151.06 167.98 148.17 172.32 148.17 170.01 145.57 174.63 141.81 170.01 141.81 174.63 137.77 170.01 136.61 173.76 131.99 168.85 131.99 151.52 130.84"/><polygon class="cls-8" points="147.13 123.83 143.56 129.28 145.79 132.06 140.77 134.89 141.45 138.17 138.21 141.46 139.08 144.47 136.25 148.45 135.53 143.54 131.26 144.9 131.53 140.71 127.66 142.35 130.49 138.37 125.4 138.35 128.03 134.22 123.15 134.75 124.43 131.67 121.44 129.54 124.73 128.29 123.99 122.56 127.19 124.83 126.63 118.85 130.58 120.06 131 113.96 134.4 116.38 147.13 123.83"/><polygon class="cls-7" points="205.53 72.78 209 72.21 202.35 71.63 206.11 71.34 199.18 69.89 203.8 69.61 196.87 68.74 198.89 67.87 193.51 68.41 195.24 67.26 186.18 69.89 190.8 69.03 187.33 71.05 190.8 70.76 185.6 72.5 192.24 72.5 193.11 70.76 196 73.94 195.71 72.21 200.62 74.52 199.75 72.78 205.53 76.25 203.22 73.36 208.13 77.41 207.55 75.09 209.86 78.85 210.15 77.41 210.73 81.45 211.31 79.14 212.46 81.74 212.17 79.43 210.44 74.52 208.13 73.36 205.53 72.78"/><path class="cls-9" d="M206.22,89.22a9,9,0,0,0-.49-2.52,21.71,21.71,0,0,0-1-2.78,8.75,8.75,0,0,0-3.79-4.28c-1.43-.71-2.9-1.93-4.55-2a18.4,18.4,0,0,1-2.15-.18,8.6,8.6,0,0,0-2.24.23,10.85,10.85,0,0,0-3.27.46c-1.14.43-2.66.76-3.47,1.61" transform="translate(-4.71)"/><path class="cls-9" d="M181.15,108c1-.4,1.54-2.54,1.54-3.54a6.3,6.3,0,0,0-1.12-3c-.67-1.31-1-2.71-1.67-4-.32-.56-.68-1.08-1-1.61-.1-.17-.43-.75-.43-.65" transform="translate(-4.71)"/><path d="M176.94,107.38c0,.68-2,.53-2.51.53a10.17,10.17,0,0,1-2.34-.23,6.74,6.74,0,0,1-1.15-.69c-.38-.19-.84-.28-1.21-.43a6.45,6.45,0,0,1,2-1,6.81,6.81,0,0,1,2.44-.27c.94.11,1.8-.11,2.42.65.37.39,1,1.89,0,1.89" transform="translate(-4.71)"/><path d="M163.83,103.51c-.85-.07-1.56,0-2.17-.64a26,26,0,0,0-1.74-2,5.76,5.76,0,0,0-1.49-1c-.93-.44-1.93-.64-2.93-1,.7-.61,1.72-.1,2.5,0a3.8,3.8,0,0,1,2.4.87c1.38,1.22,3.27,2.09,3.6,4.09" transform="translate(-4.71)"/><polygon class="cls-7" points="151.23 50.68 148.94 48.02 154.41 51.82 151.71 49.2 157.96 52.52 154.6 49.34 160.48 53.11 159.48 51.15 163.27 55 162.67 53.01 167.95 60.83 164.96 57.21 166.33 60.98 163.85 58.54 166.73 63.2 161.63 58.95 162.07 57.07 157.82 57.66 159.15 56.51 153.9 55.15 155.67 54.37 149.01 53.34 152.64 52.6 146.28 52.57 148.2 51.16 144.02 52.57 144.72 51.27 141.69 54.01 142.73 51.87 140.18 53.13 141.87 51.53 146.35 48.87 148.86 49.46 151.23 50.68"/><path class="cls-9" d="M153.05,98.49a3.81,3.81,0,0,1-.54-3.32c.3-.75,2.18-3,2.42-2.89" transform="translate(-4.71)"/><path class="cls-9" d="M172.84,109.75a20.56,20.56,0,0,0,5.63-.14" transform="translate(-4.71)"/><path class="cls-9" d="M155.26,101.26c1.32.42,2.61,2,4,2.74" transform="translate(-4.71)"/><path class="cls-9" d="M179.49,90.11a23.25,23.25,0,0,1,1-5.34" transform="translate(-4.71)"/><path class="cls-9" d="M162.15,78.26c1.33-.28,2.6-.6,3.9-1" transform="translate(-4.71)"/><path class="cls-9" d="M184.68,85.35a18.32,18.32,0,0,0,2.74,2.74" transform="translate(-4.71)"/><path class="cls-9" d="M148,65a9,9,0,0,1,2.12-1.47,21.71,21.71,0,0,1,2.62-1.33,8.75,8.75,0,0,1,5.7-.43c1.53.47,3.44.62,4.67,1.72a18.4,18.4,0,0,0,1.67,1.37,8.6,8.6,0,0,1,1.45,1.72,10.85,10.85,0,0,1,2,2.59c.52,1.1,1.37,2.4,1.37,3.57" transform="translate(-4.71)"/><path class="cls-9" d="M135.72,185.72c2.38,1.59,7.07-2.76,8.38-4.66,1.93-2.8,5-5.74,4.48-9.5" transform="translate(-4.71)"/><path class="cls-9" d="M94.42,159.61c.29-7.83,3.64-15.86,6.64-23" transform="translate(-4.71)"/><path class="cls-9" d="M167.64,194.81c-.13-.7,1.62-3,2.11-4.13.75-1.68,1.17-3.52,1.75-5.26a54.21,54.21,0,0,1,4.37-10.1" transform="translate(-4.71)"/><path class="cls-9" d="M115.22,155.39c.59-1.38.53-3,1.59-4.19" transform="translate(-4.71)"/><path class="cls-9" d="M136.74,177.19c.71-.77,4.63-4.1,5.63-3.32" transform="translate(-4.71)"/><path class="cls-9" d="M109.15,33.79" transform="translate(-4.71)"/><polygon class="cls-1" points="127.68 51.12 110.35 95.31 109.48 95.31 106.3 95.31 104.86 93.87 103.41 89.82 102.26 85.49 103.41 83.47 103.41 80 104.28 75.38 105.44 69.32 107.17 64.7 108.61 59.5 110.35 55.74 113.81 52.57 116.41 51.12 119.01 51.99 122.48 55.74 127.68 51.12"/><path class="cls-1" d="M198.85,132.72a1.48,1.48,0,0,0,1.33,2.14h0a1.48,1.48,0,0,0,.43-.06l2.68-.8s4.82-3.19,4.89-3.63a1.46,1.46,0,0,0,0-.24V128a1.48,1.48,0,0,1,.15-.64l3-6.27.06-.14,1.38-3.86a1.48,1.48,0,0,0,.06-.23l.76-4.06A1.48,1.48,0,0,1,214,112l1.51-1.47a1.48,1.48,0,0,0,.34-.53l.75-2,1.73-4,1.16-2.92.77-1.74a1.48,1.48,0,0,0-.23-1.57l-.59-.68a1.47,1.47,0,0,0-1.53-.46,3.28,3.28,0,0,0-2.18,1.86Z" transform="translate(-4.71)"/><path class="cls-9" d="M216.45,100.09c.2.61-.76,1.45-1.23,2.1a6.17,6.17,0,0,0-1.25,2.65c-.23,1-1,4.22,0,4.91a16.77,16.77,0,0,1-.11-2.37,18.47,18.47,0,0,1,.85-1.67c.27-.73.06-1.59.52-2.24.31-.45,1.37-1.09,1.82-1.59.63-.7,3-3.14.7-2.27-.8.3-2.17,1.26-2.17,2.2" transform="translate(-4.71)"/><path class="cls-9" d="M213,109.81c.57,1.33-.6,3-.72,4.33-.1,1.52-.74,5-2,6-2.53-4.41-.42-7.57,2.58-10.94.32.7-.17,1.28,0,2" transform="translate(-4.71)"/><path class="cls-9" d="M120,150.91c.05,1.11-.2,2.21-.14,3.32" transform="translate(-4.71)"/><path class="cls-9" d="M123.38,62.51c1.46,2.86-2.83,3.39-4.6,3.31-2.72-.12-3.22.86-4.32,3.22a35.5,35.5,0,0,0-1.85,5,12.13,12.13,0,0,1-1.4,2.87c-.58,1.07-.39,2.34-1,3.28.06-2.94-.33-6,.29-8.88a14.52,14.52,0,0,1,1.28-3.94,9.52,9.52,0,0,0,1.11-1.91,10.17,10.17,0,0,0,0-2,12.36,12.36,0,0,1,3.24-8c1.13-1.23,1.93-2.28,3.64-1.78s1.21,1.7,1.71,3.2,2,2.71,2.23,4.32a7.3,7.3,0,0,1-.42,2.45" transform="translate(-4.71)"/><path class="cls-9" d="M123.16,67.11c1.95.09-1.5,6-2.05,6.93-.83,1.4-1.86,2.7-2.78,4-.63.88-1.21,3-2.08,3.39-.08-.77.57-1.65.24-2.42-.43-1-1.62-.65-2.11-1.65-.61-1.22.11-3.74.72-4.83a8.8,8.8,0,0,1,5-3.77c.75-.26,3.43-1,3.06-1.76" transform="translate(-4.71)"/><path class="cls-10" d="M86.89,141.52,84,148.16v8.38l5.79,24.92,6.93,10.11,9.53,10.69,10.69,4.33,22.53,4,8.09-1.44,9-2.6,7.8-4.91,7.51-9,4-9,.58-6.64-.64-1.68.87-2.89,2.89,1.44,5.78,4.91,3.18,4.33L192,186l4.69,8.61,5.49,5.2,8.38,10.69,8.38,11-2.31,1.73,13.57,6.07L251,246.63H5c.17-26.88.83-58.12,1-85,8.11-2.39,16.23-6.78,24.34-9.17l9.24-3.75L60.05,145l11.26-2,3.47-1.73,7.8-2.31H94.42Z" transform="translate(-4.71)"/><path class="cls-10" d="M0,162.67" transform="translate(-4.71)"/><polygon class="cls-7" points="181.27 4.91 174.63 8.95 172.6 14.44 178.96 17.62 175.78 11.26 183.58 17.33 182.13 10.69 190.22 21.66 189.36 13.86 197.15 25.7 194.84 15.31 201.49 26.28 202.64 20.8 208.71 33.79 209.57 22.82 215.64 36.39 215.35 26.57 222.57 40.44 217.95 26.86 223.15 33.79 214.77 18.48 223.73 29.17 218.53 18.2 226.9 25.7 215.35 13 221.99 18.2 212.46 8.38 219.97 14.15 215.64 8.95 207.26 6.64 213.33 6.64 200.62 3.75 205.82 2.89 185.6 2.89 181.27 4.91"/><path class="cls-11" d="M167.19,120.45a12.85,12.85,0,0,1-6.3-1.58c-1.45-.83-2.73-2-4.24-2.83a23.38,23.38,0,0,0-2.92-1.4c-.9-.33-1.82-.55-2.72-.88-1.65-.6-3.26-1.31-4.94-1.83a34.58,34.58,0,0,0-4.2-.92c-.83-.16-2.15-.6-3-.22a2.17,2.17,0,0,0-1.05,1.82c0,.88.78,1.76,1,2.63a21.26,21.26,0,0,0,1.62,4.21,3.79,3.79,0,0,0,1.13,1.61,18.33,18.33,0,0,0,2,1.24c1.06.57,2.1,1.17,3.06,1.81s1.81,1.36,2.75,2c2.51,1.73,4.84,3.42,7.84,4.23a15,15,0,0,0,4.49.64,6.63,6.63,0,0,1,1.59-.14,14.73,14.73,0,0,1,2.14.87,3.39,3.39,0,0,0,2.48.14,6.6,6.6,0,0,1,1.06-.29,6.22,6.22,0,0,0,1.2-.1,4.45,4.45,0,0,0,1.87-1.19c.82-.78,3.08-2.16,2.47-3.53a5.92,5.92,0,0,0-1.6-1.55c-.72-.57-1.64-1-2.3-1.57s-1.17-1.29-1.88-1.85a8.34,8.34,0,0,1-1.68-1.38" transform="translate(-4.71)"/><path class="cls-12" d="M172.39,125.08l-1.16.58-1.44,2v1.44l1.16.29.58-.87,1.16-1.73s0-1.15-.29-1.44Z" transform="translate(-4.71)"/><polygon class="cls-12" points="164.52 127.95 163.07 129.68 161.63 129.1 161.34 127.95 161.92 126.22 163.07 124.19 164.81 123.33 165.96 123.91 165.96 125.93 164.52 127.95"/><polygon class="cls-12" points="162.49 124.19 161.05 127.66 160.47 127.95 158.45 127.66 157.59 126.5 158.16 124.77 159.03 122.75 160.47 121.88 161.63 121.88 162.49 122.46 162.49 123.91 162.49 124.19"/><path class="cls-12" d="M162,126.5l-.54.57-1.16-.29-.87-.29-.58-.58h-.58l-2-1.73.29-.29,1.73-3.75,1.16-1.73s3.71,1.16,4,1.16.29,2.6.29,2.6Z" transform="translate(-4.71)"/><polygon class="cls-12" points="151.52 123.91 149.21 124.19 147.48 122.75 145.46 121.88 145.17 120.15 147.19 117.26 148.63 116.4 150.37 116.97 152.96 118.71 153.25 120.15 151.52 123.91"/><polygon class="cls-12" points="141.7 119.86 140.83 117.84 141.99 115.24 144.59 113.51 146.61 113.8 147.19 117.26 145.17 119.86 143.14 120.73 141.99 120.15 141.7 119.86"/><polygon class="cls-12" points="141.99 114.95 140.83 117.6 138.81 118.42 138.23 118.13 138.23 116.11 138.52 114.95 140.26 112.93 141.41 113.51 141.99 114.95"/><polygon class="cls-12" points="138.23 111.78 136.79 112.06 136.21 113.8 135.63 116.4 137.95 116.11 138.52 114.95 138.52 112.35 138.23 111.78"/><path class="cls-12" d="M169.8,131.65l-2.31.58H162.9l-3.75-.87-3.75-1.73-4.62-1.73-2.6-2-2.89-2.31-3.47-2.31v-1.44l1.44-.87.58.58.87,1.16h2.89v1.44h.87l1.73.58,1.44.58,3.18,1.16A31.5,31.5,0,0,0,158,126.2c.29,0,.29.87.29.87H160a6.31,6.31,0,0,0,1.44.87h1.44l1.73.87,2,.87s1.73.29,1.73,0,1.44.87,1.44.87Z" transform="translate(-4.71)"/><path class="cls-13" d="M136.94,112.15l.58,2.6.87,3.18,1.16,3.75,2,3.47,2.6,4,4.62,3.18,4.62,1.16,2.31,2h4.91l4.33-.58,3.75-.87,4-2.31,3.18-1.73,1.13-1.76-6.69-6.94-5.49-2.89h-4l-5.2-3.75L151,112.93l-6-1.73-6.64-.87Zm2-.67,5.2.58,3.47,1.44,3.47,1.16,3.75,1.73,2.89,1.44,1.16,1.73,3.47.58,1.73.58,4,1.16,2.31,1.73,2.31,1.44,1.73,1.44v.58l-.87,1.16-1.44,1.16-.87,1.16-1.44.58h-4.63l-2.89-.58-3.18-.87-3.18-1.16-2-.87-6.35-3.47-5.2-3.18-.87-2-.87-3.47-1.73-2.6Z" transform="translate(-4.71)"/><path class="cls-13" d="M188.87,111.77" transform="translate(-4.71)"/><path class="cls-9" d="M197.92,80.78a1.57,1.57,0,0,1,.17-.31" transform="translate(-4.71)"/><path class="cls-9" d="M196.91,80.64a1.09,1.09,0,0,1,.46-.91" transform="translate(-4.71)"/><path class="cls-9" d="M196.12,80.6c0-.28-.16-1.06.19-1.16" transform="translate(-4.71)"/><path class="cls-9" d="M195,80.41c0-.38.07-1.06.46-1.16" transform="translate(-4.71)"/><path class="cls-9" d="M194.2,80.35c-.35-.27-.09-1,.21-1.16" transform="translate(-4.71)"/><path class="cls-9" d="M193.11,80.33c-.29-.13.1-1.13.43-.91" transform="translate(-4.71)"/><path class="cls-9" d="M192.07,80.5c-.17-.23.05-1,.33-1" transform="translate(-4.71)"/><path class="cls-9" d="M191.33,80.53c-.1-.18-.12-.57.1-.68" transform="translate(-4.71)"/><path class="cls-9" d="M190.32,80.66c-.12-.19,0-.53.1-.72" transform="translate(-4.71)"/><path class="cls-9" d="M189.38,81c0-.23,0-.56.23-.72" transform="translate(-4.71)"/><path class="cls-9" d="M197.93,80.77a.82.82,0,0,1,.85-.54" transform="translate(-4.71)"/><path class="cls-9" d="M198.67,81.21a.88.88,0,0,1,.6-.43" transform="translate(-4.71)"/><path class="cls-9" d="M199.57,81.94c.22-.1.43-.37.68-.37" transform="translate(-4.71)"/><path class="cls-9" d="M200.39,82.79c.17-.22.33-.56.66-.56" transform="translate(-4.71)"/><path class="cls-9" d="M200.78,83.58a1.35,1.35,0,0,1,1-.48" transform="translate(-4.71)"/><path class="cls-9" d="M201.38,84.9a1.41,1.41,0,0,1,1-.39" transform="translate(-4.71)"/><path class="cls-9" d="M201.88,86c.19-.16.37-.43.66-.43" transform="translate(-4.71)"/><path class="cls-9" d="M202.5,86.91a1.18,1.18,0,0,1,.62-.41" transform="translate(-4.71)"/><path class="cls-9" d="M203,87.8a.81.81,0,0,1,.46-.23" transform="translate(-4.71)"/><path class="cls-9" d="M159,65.12a.62.62,0,0,0,.36-.66c0-.14-.2-.74-.2-.56" transform="translate(-4.71)"/><path class="cls-9" d="M158,64.84c.11-.24-.18-.67-.28-1" transform="translate(-4.71)"/><path class="cls-9" d="M156.22,65.11a1.12,1.12,0,0,0-.22-1.27" transform="translate(-4.71)"/><path class="cls-9" d="M154.4,64.95a7,7,0,0,0-.17-.88" transform="translate(-4.71)"/><path class="cls-9" d="M153.28,64.9c.34-.22,0-.7-.28-.83" transform="translate(-4.71)"/><path class="cls-9" d="M151.75,65.34a1.34,1.34,0,0,0-.17-1.16" transform="translate(-4.71)"/><path class="cls-9" d="M155.39,64.9a.93.93,0,0,0-.44-.72" transform="translate(-4.71)"/><path class="cls-9" d="M160,65.29a2.11,2.11,0,0,0,.39-1" transform="translate(-4.71)"/><path class="cls-9" d="M161,66c0-.36.5-1,.66-1.1" transform="translate(-4.71)"/><path class="cls-9" d="M162.23,66.11c.2-.25.43-.72.77-.72" transform="translate(-4.71)"/><path class="cls-9" d="M163,66.55a2,2,0,0,1,.61-.72" transform="translate(-4.71)"/><path class="cls-9" d="M163.73,67.21c.22-.22.45-.5.77-.5" transform="translate(-4.71)"/><path class="cls-9" d="M164.77,68.26a2.17,2.17,0,0,1,.88-.72" transform="translate(-4.71)"/><path class="cls-9" d="M165.6,69.94c.09-.34.23-.87.61-.94" transform="translate(-4.71)"/><path class="cls-9" d="M165.6,71.13a3.71,3.71,0,0,1,.94-.72" transform="translate(-4.71)"/><path class="cls-9" d="M166.37,72.28c.19-.22.36-.53.55-.77" transform="translate(-4.71)"/><path class="cls-9" d="M151.14,74.65a5.6,5.6,0,0,0,2.76,1" transform="translate(-4.71)"/><path class="cls-9" d="M195.73,92.43c1,.57,2.42.77,3.42,1.21" transform="translate(-4.71)"/><circle class="cls-3" cx="190.8" cy="83.27" r="0.66"/><circle class="cls-3" cx="158.09" cy="67.37" r="0.66" transform="translate(-7.52 7.02) rotate(-2.52)"/></g></g></g></g></svg>