<svg xmlns="http://www.w3.org/2000/svg" width="299.33" height="336.6" viewBox="0 0 299.33 336.6"><defs><style>.cls-1{fill:#f2f2f2;}.cls-2{fill:#fff;}.cls-3{fill:#e6e6e6;}</style></defs><title>img-flashlight_1</title><g id="Layer_2" data-name="Layer 2"><g id="Layer_1-2" data-name="Layer 1"><path class="cls-1" d="M298.31,249.61l-53.54-92.73a7.67,7.67,0,0,0-10.45-2.8L130.55,214a7.67,7.67,0,0,0-2.8,10.45l41.12,71.23a32.57,32.57,0,0,0,44.36,11.89l82.27-47.5A7.67,7.67,0,0,0,298.31,249.61Zm-34.43,10.54L210.1,291.2a7.67,7.67,0,0,1-10.45-2.8l-37.72-65.32a7.67,7.67,0,0,1,2.8-10.45l53.79-31.05a7.67,7.67,0,0,1,10.45,2.8l37.72,65.32A7.67,7.67,0,0,1,263.88,260.15Z"/><rect class="cls-1" x="116.94" y="65.28" width="96.88" height="275.34" rx="25.05" ry="25.05" transform="matrix(0.86, -0.51, 0.51, 0.86, -80.87, 114.06)"/><ellipse class="cls-1" cx="63.86" cy="42.18" rx="73.3" ry="21.99" transform="translate(-12.6 38.89) rotate(-30.98)"/><path class="cls-2" d="M14.75,84.3C29,83.53,51.73,75.11,75.18,61s41.58-30.2,49-42.4c-14.23.77-37,9.19-60.43,23.27S22.12,72.11,14.75,84.3Z"/><path class="cls-3" d="M.86,79.63l.16.27-.15-.28Z"/><path class="cls-3" d="M75.18,61C40.47,81.87,7.27,90.32,1,79.91L35.3,137h0l.15.28c6.25,10.41,39.45,2,74.16-18.87s57.78-46.17,51.53-56.58l-.18-.27h0L126.71,4.46C133,14.87,109.89,40.2,75.18,61Z"/><path class="cls-3" d="M126.53,4.19l.18.27-.16-.27Z"/></g></g></svg>