<svg xmlns="http://www.w3.org/2000/svg" xmlns:xlink="http://www.w3.org/1999/xlink" width="200" height="160.03" viewBox="0 0 200 160.03"><defs><style>.cls-1{fill:#d1af97;}.cls-14,.cls-16,.cls-2,.cls-20,.cls-26,.cls-27{fill:none;}.cls-2{stroke:#000;}.cls-16,.cls-2,.cls-20,.cls-26,.cls-27,.cls-7{stroke-miterlimit:10;}.cls-3{fill:#927060;}.cls-4{fill:#2d1c17;}.cls-5{fill:#bf9477;}.cls-6{fill:#a5795b;}.cls-7{fill:#7c4557;stroke:#936170;stroke-width:0.25px;}.cls-8{fill:#ae735f;}.cls-9{fill:#9e766c;}.cls-10{fill:#d4baa5;}.cls-11{fill:#b4a290;}.cls-12{fill:#ccbcaa;}.cls-13{fill:#71584d;}.cls-15{fill:#fff;}.cls-16{stroke:red;}.cls-16,.cls-20,.cls-26,.cls-27{stroke-width:0.1px;}.cls-17{fill:url(#radial-gradient);}.cls-18{fill:#7e6865;}.cls-19{fill:#937f74;}.cls-20{stroke:#7a594b;}.cls-21{fill:#805249;}.cls-22{fill:#957269;}.cls-23{fill:#855040;}.cls-24{fill:#6c4940;}.cls-25{fill:#402c25;}.cls-26{stroke:#decfc0;}.cls-27{stroke:#331f08;}.cls-28{fill:#cea097;}</style><radialGradient id="radial-gradient" cx="88.28" cy="68.58" r="3.69" gradientTransform="translate(-24.91 -30.42) scale(1.25 1.21)" gradientUnits="userSpaceOnUse"><stop offset="0.26" stop-color="#18a766"/><stop offset="0.42" stop-color="#1c9763"/><stop offset="0.72" stop-color="#266e5b"/><stop offset="1" stop-color="#314253"/></radialGradient></defs><title>img-cyclops</title><g id="Layer_2" data-name="Layer 2"><g id="scars"><path class="cls-1" d="M200,160a5.48,5.48,0,0,0-.11-.74c-1.39-6-12.76-8.41-26-11.22-18.11-3.86-22.09-.91-33.94-5.61-8.45-3.35-18-7.13-21.74-16.34-3.08-7.52-3.48-21.46-.88-33a7.08,7.08,0,0,0,.25-3.6c-3-11.94-48.7-13.56-53.8-.5-1.29,3.32,1,5.15,1.72,22.11a23.54,23.54,0,0,1-1.25,10.23c-1.38,3.55-3.48,5.81-6.26,8.75A48.66,48.66,0,0,1,48.65,138c-10.61,6.76-23.28,8.3-29.72,9.08-4.14.5-7.35.62-11.1,3-1.12.7-6.55,4.27-7.82,9.9,0,0,0,.06,0,.08Z"/><ellipse class="cls-2" cx="125.98" cy="74.52" rx="3.02" ry="3.45"/><path class="cls-1" d="M124.77,60.64c5.65-31.32-7.18-44.8-21.19-54.39A20.33,20.33,0,0,0,78.33,8.13c-11,10.33-24.51,28.5-20.05,53.18,2.63,8.45,4.55,14.59,4.55,14.59l.89,3.95L62.08,91.06c5,17,14.13,30,24.14,35.26,1.43-.16,3.72-3.56,5.48-6.9,1.71,3.11,3.79,6.08,5.12,6.23,10-5.25,19.18-18.27,24.14-35.26l-1.63-11.21.89-3.95S122.14,69.09,124.77,60.64Z"/><path class="cls-3" d="M96.62,126.06c-2.71-.31-8.54-12.31-8-13.36S90.44,99.52,90.38,99c0,0,0-.11,0-.21l14.21-5.69.58,3.89-.32,3.06a9.6,9.6,0,0,0,1.21.8,2.78,2.78,0,0,0,1.28,0c.57-.19,3.09-3.83,3.42-3.87a27.27,27.27,0,0,0,4.69-3.75,22.85,22.85,0,0,0,1-3.28V85.59A33.29,33.29,0,0,1,118,81.38a9.79,9.79,0,0,0,1.32-.19l1.4,9.61a79.09,79.09,0,0,1-8.62,19.67l-.05.08q-.73,1.16-1.48,2.25l0,.06C106.41,118.87,101.62,123.43,96.62,126.06Z"/><path class="cls-3" d="M86.22,126.32c2.71-.31,8.54-12.31,8-13.36s-1.79-13.18-1.72-13.74c0,0,0-.11,0-.21L78.26,93.32l-.58,3.89.32,3.06a9.6,9.6,0,0,1-1.21.8,2.78,2.78,0,0,1-1.28,0c-.57-.19-3.09-3.83-3.42-3.87a27.27,27.27,0,0,1-4.69-3.75,22.85,22.85,0,0,1-1-3.28V85.86a33.29,33.29,0,0,0-1.59-4.22,9.79,9.79,0,0,1-1.32-.19l-1.4,9.61a79.09,79.09,0,0,0,8.62,19.67l.05.08q.73,1.16,1.48,2.25l0,.06C76.44,119.14,81.23,123.7,86.22,126.32Z"/><path class="cls-4" d="M94.49,89.26l6.91-.93s3.52,1.3,3.58,1.43,1.21.81.8,1.18-5.59,2.23-5.59,2.23l-5.68-.8-2,.8Z"/><path class="cls-5" d="M70.29,52.91c0,1.35,3.82.75,5.63,1.36,2.4.8,5.1,3,8.06,2.76,5.17-.48,4.25.32,9.48-3.26,4.06-2.78-2.7-9.59-7.67-9.59-3,0-4.57,1.52-8.1,3.48C75.4,48.93,70.19,49.53,70.29,52.91Z"/><path class="cls-6" d="M70.29,52.08c0,1.11.7.83,2.39.83a12.85,12.85,0,0,1,4,.59c2.77,1.09,4.08,2.53,6.78,3.1a11.54,11.54,0,0,0,7-.62c1.08-.52,2.62-1.3,2.7-3.07s-.07-2.57-1-3.73A9.57,9.57,0,0,0,84.92,46a12.51,12.51,0,0,0-7.45,3.33,8,8,0,0,1-4.38,2.08C71,51.63,70.29,50.89,70.29,52.08Z"/><path class="cls-7" d="M72.13,52.44c0,.34,1.54,0,3.05-.13a3.83,3.83,0,0,1,2.93.85c2.33,2.3,5.7,2.44,7.9,2.39,4.95-.13,6.15-1.37,6.15-2.63,0-1.69-2.2-6-6.14-5.87-2.53.1-3.21,0-5.85,1.9-1.26.9-3.42,2.64-5.28,2.85S72.13,52.16,72.13,52.44Z"/><path class="cls-8" d="M79.68,77.26s1,1,2.16,2.09a14.35,14.35,0,0,0,3.44,2.55c1.71.62,1.3.43,2.11.74s1.54.56,1.54.56l1.57.37s.93.5,1.39,0,1.29-1.25,1.16-1.93a22.42,22.42,0,0,0-1.16-2.84l-2.16-1.95-2.34,1.51-3.3-.56L80.58,75.9l-1.24,1Z"/><path class="cls-5" d="M100.79,52.52c0,1.35-3.82.75-5.63,1.36-2.4.8-5.1,3-8.06,2.76-5.17-.48-4.25.32-9.48-3.26-4.06-2.78,2.7-9.59,7.67-9.59,3,0,4.57,1.52,8.1,3.48C95.68,48.53,100.89,49.13,100.79,52.52Z"/><path class="cls-6" d="M100.79,51.69c0,1.11-.7.83-2.39.83a12.85,12.85,0,0,0-4,.59c-2.77,1.09-4.08,2.53-6.78,3.1a11.54,11.54,0,0,1-7-.62c-1.08-.52-2.62-1.3-2.7-3.07s.07-2.57,1-3.73a9.57,9.57,0,0,1,7.24-3.16A12.51,12.51,0,0,1,93.61,49,8,8,0,0,0,98,51C100.09,51.23,100.79,50.5,100.79,51.69Z"/><path class="cls-7" d="M98.94,52c0,.34-1.54,0-3.05-.13a3.83,3.83,0,0,0-2.93.85c-2.33,2.3-5.7,2.44-7.9,2.39-4.95-.13-6.15-1.37-6.15-2.63,0-1.69,2.2-6,6.14-5.87,2.53.1,3.21,0,5.85,1.9,1.26.9,3.42,2.64,5.28,2.85S98.94,51.76,98.94,52Z"/><path class="cls-9" d="M88.78,32.11c.19-.07,1.33-.23,1.33-.23h1.6l2,.31,1.36.3c.19,0,.51-.1.32-.14L94,32l-1.31-.25c-.11,0-1.87-.21-1.87-.21a10.83,10.83,0,0,0-1.47.13c-.19.08-.85.3-1,.35l-.53.13Z"/><path class="cls-9" d="M89.6,34.6a24.55,24.55,0,0,0,2.47,0,3.17,3.17,0,0,1,1.78,0c.64.25,2.17,1.07,2.17,1.07l2.28,1.07,1,.46a20.46,20.46,0,0,1,3.32,2.31,8.44,8.44,0,0,1,1.4,1.61L101.59,39l-4.42-2.39s-1.87-1-2-1.07L92.62,35h-3l-1.83,0Z"/><path class="cls-9" d="M67.7,38c.22-.14,1.33-1.21,1.33-1.21s1.28-.87,1.49-1.07a8.43,8.43,0,0,1,.94-.78c.26-.17-.77-.14.55-.42s3.78-1.07,3.78-1.07.38,0,0,.27-1.91.84-2.64,1.13a6.12,6.12,0,0,0-2.3,1.2c-.64.66-1.83,1.28-2.13,1.61a10.89,10.89,0,0,1-1.4,1Z"/><path class="cls-9" d="M69.54,39.14,71,37.88s2.55-1.42,2.85-1.5a19.61,19.61,0,0,1-2,1.42c-.26.19-1.39,1.49-1.8,1.87L68.69,41Z"/><path class="cls-9" d="M69.54,41.12c.26,0,2-2,2.1-2s.45-.35.94-.75a20.81,20.81,0,0,1,1.93-1.48l3.1-1.28-1.83,1-4.14,2.76Z"/><polygon class="cls-9" points="81.99 33.07 76.34 34.93 73.58 37.03 75.66 36.02 80.08 33.94 81.99 33.07"/><path class="cls-9" d="M85.05,27.67s3.32-.17,3.78-.17,1.91.17,1.91.17-1.87.21-2.42.29-.26-.08-1.23,0-2.42,0-2.64,0S85.05,27.67,85.05,27.67Z"/><path class="cls-10" d="M69.24,24.53a15,15,0,0,1,1.7-.45,1.8,1.8,0,0,1,.7,0l.4-.87a7.6,7.6,0,0,0,0-1c0-.41-.22-1,0-1.16s1.08-.86,1.11-.87a8.64,8.64,0,0,0,0-1.27,1.46,1.46,0,0,1,0-1c.2-.33.12-.58.37-.78l1.06-.87.81.62s.38.45.51.33,0-.25.3-.37.47-.25.68-.12.21.29.3.41-.94.33,0,.29a3.89,3.89,0,0,0,1.87-.5,21.38,21.38,0,0,0,2.25-2.6,3.35,3.35,0,0,1,1.53-1,5.6,5.6,0,0,0,1.54-.83,7.13,7.13,0,0,0,1.52-2.27,4.81,4.81,0,0,1,.55-1.4c.17-.29.38-.7.6-1.07a2,2,0,0,1,.68-.83,5,5,0,0,1,1.45-.17,8.28,8.28,0,0,1,1.75,0C91.6,6.83,93,7,93.38,7a.83.83,0,0,0,.76-.3c.17-.24.17-.16.64-.32a3.72,3.72,0,0,1,1.53-.21,13.27,13.27,0,0,1,2,.54s0-.08,1.15-.17.64-.21,1.49.17a16.34,16.34,0,0,1,1.91.91c.64.37.72,1.2,1.66,1.9s1.28,1.11,1.7,1.36,1.85.33,2,.66,1.71.37,2.35.78a13.61,13.61,0,0,1,2.42,2c.55.66.3-.38.21-.46s-2.76-2.1-3-2.14-4.12-1.49-4.12-1.49L104,7.91l-1.57-1.49-2-.26H98.1l-1.4-.69-1.87.45s-1.11.21-1.53.25-1.83,0-1.83,0L88,6.17,85.57,8l-.31,2.1-1.15,1L82,12.65l-2.17,3-1.15.83-.89.45-.47-.87L76,16l-.21.21L75,15.5l-2.15,1.15-.36,2.11-.14,1.44-1.07,1.7.35,1.4-2.4.5-.85.74Z"/><path class="cls-11" d="M90,12.25s-1.19,1.36-1.51,1.68a5.85,5.85,0,0,1-1,.82,5.66,5.66,0,0,0-1.36,1.11c-.31.42-1,1.28-1.49,1.91a16.63,16.63,0,0,1-1.92,2c-.21.14-3.13,4.34-3.13,4.34S77.34,26.67,77.11,27s-.89,1-.94,1.31-.23.71.12.67.41-.07.59-.27,1.56-2,1.56-2L81.24,23l2.43-3.32,2.28-2.79,1.76-1.82,1.72-1.25s.16.2.33-.42A9.33,9.33,0,0,0,90,12.25Z"/><path class="cls-12" d="M86.37,32.83"/><path class="cls-13" d="M94.57,28.49v3.06l-.38,1.85L92.87,36s-.89,2-1,2.17-1.57,2.93-1.57,2.93L93.13,36l1.44-2.62Z"/><path class="cls-11" d="M96.19,10.75c1.14,0,2.28,0,3.42.15a11.71,11.71,0,0,1,3.34.76,24.85,24.85,0,0,0-3.36-.51C98.46,11,97.31,11,96.19,10.75Z"/><path class="cls-11" d="M81.91,15.66c.43-.2.78-.54,1.2-.77a11.26,11.26,0,0,1,1.28-.65,24.9,24.9,0,0,1,2.72-.89c1.84-.5,3.67-1,5.47-1.57a35.45,35.45,0,0,1-5.4,1.81c-.92.25-1.83.5-2.71.83A22.19,22.19,0,0,0,81.91,15.66Z"/><path class="cls-11" d="M93.3,20a3.72,3.72,0,0,1,1.84,0,10.46,10.46,0,0,0,1.81.31,6.2,6.2,0,0,1-1.84-.16A4.8,4.8,0,0,0,93.3,20Z"/><path class="cls-11" d="M97.89,19.21c1.14-.06,2.27,0,3.41-.07a9.77,9.77,0,0,1,1.71.13c.56.08,1.12.2,1.68.27a15.16,15.16,0,0,1-1.7-.18,9.74,9.74,0,0,0-1.69-.08C100.16,19.26,99,19.28,97.89,19.21Z"/><path class="cls-11" d="M87,23.13a2,2,0,0,1,.82-.9c.34-.23.7-.42,1-.64A5.61,5.61,0,0,1,91,20.53,3.4,3.4,0,0,0,90,21l-1,.69c-.36.21-.72.38-1.07.59A2.48,2.48,0,0,0,87,23.13Z"/><path class="cls-11" d="M95.17,22.35c-.06,0,0,0-.07,0s0,0,.07,0,0,0,.07,0S95.23,22.33,95.17,22.35Z"/><path class="cls-11" d="M95.17,22.35c.16-.31.53-.4.81-.53s.62-.16.93-.26A3.06,3.06,0,0,1,96,22a3.91,3.91,0,0,0-.45.14A1.3,1.3,0,0,0,95.17,22.35Z"/><path class="cls-11" d="M97.25,20.57a6.13,6.13,0,0,1,.72-.3,2.59,2.59,0,0,1,.77-.11c-.24.1-.49.16-.73.26A4.78,4.78,0,0,1,97.25,20.57Z"/><path class="cls-11" d="M102,17.69a2.13,2.13,0,0,1,1.32.25,3.46,3.46,0,0,1,1,.85h0l.1-.2-.06.22v0l0,0a4.92,4.92,0,0,0-1.08-.76A2.73,2.73,0,0,0,102,17.69Z"/><path class="cls-11" d="M105.28,19.21c.39.29.45.81.69,1.18s.49.76.72,1.16l0,0a.65.65,0,0,1-.06-.23c0,.07,0,.15.09.2l0,0a8,8,0,0,1-.81-1.12A6,6,0,0,0,105.28,19.21Z"/><path class="cls-11" d="M103.2,20.45a1,1,0,0,1,1,.16,5.71,5.71,0,0,1,.79.63,5.85,5.85,0,0,0,.76.64l.39.31.18.18.09.08s.05,0,0,0l-.06,0h.06s0,0,0,0l-.1-.07-.2-.15-.41-.29a5.87,5.87,0,0,1-.8-.61,5.61,5.61,0,0,0-.74-.66A1.15,1.15,0,0,0,103.2,20.45Z"/><path class="cls-11" d="M101.29,21.19a1.45,1.45,0,0,1,1.1.15,8.15,8.15,0,0,1,.95.61,15.41,15.41,0,0,0,1.91,1.13v0a.9.9,0,0,1-.2-.19.89.89,0,0,0,.22.16v0a9.93,9.93,0,0,1-2-1,8.06,8.06,0,0,0-.91-.64A1.66,1.66,0,0,0,101.29,21.19Z"/><path class="cls-11" d="M99.59,12.38a10.94,10.94,0,0,1,3.93,1.72,10.63,10.63,0,0,1,2.94,3.13A12.66,12.66,0,0,0,99.59,12.38Z"/><path class="cls-11" d="M106.68,17.43a1.61,1.61,0,0,1,1,.31c.31.2.59.4.88.62a3.48,3.48,0,0,1,1.28,1.71,4.09,4.09,0,0,0-1.37-1.59c-.27-.23-.56-.45-.84-.65A2,2,0,0,0,106.68,17.43Z"/><path class="cls-11" d="M89.13,19c.47,0,.92,0,1.38-.07s.91-.1,1.38-.14a5.31,5.31,0,0,1-2.76.21Z"/><path class="cls-11" d="M94.91,30.59a2.93,2.93,0,0,1,1.66.13,6.24,6.24,0,0,1,1.49.79,16.48,16.48,0,0,0,2.73,1.92h0l0-.16.06.15h0A12.62,12.62,0,0,1,98,31.63,4.37,4.37,0,0,0,94.91,30.59Z"/><path class="cls-11" d="M95.36,27.22A12.69,12.69,0,0,1,100,29h0v0h0a24.39,24.39,0,0,0-2.28-1C97,27.69,96.16,27.46,95.36,27.22Z"/><path class="cls-11" d="M99.54,24.15A13,13,0,0,1,103,25.8a5.21,5.21,0,0,1,2.16,3.15h0a.2.2,0,0,0,0-.33.22.22,0,0,1,0,.36h0v0a5.46,5.46,0,0,0-2.21-3A16,16,0,0,0,99.54,24.15Z"/><path class="cls-11" d="M100.06,25.61l-.29-.16v0a10.52,10.52,0,0,1,5.62,5.18,12.61,12.61,0,0,0-5.63-5.16v0Z"/><path class="cls-11" d="M87.09,34.28a15,15,0,0,1,8.26.34,20,20,0,0,0-8.26-.34Z"/><path class="cls-11" d="M81.26,31.18a24.84,24.84,0,0,1,8-1c-1.35.06-2.71.14-4,.33S82.59,30.9,81.26,31.18Z"/><path class="cls-11" d="M82.79,29.87a17.12,17.12,0,0,1,3.31-.69,17.37,17.37,0,0,1,3.39,0h0a.1.1,0,0,0-.07-.15.11.11,0,0,1,.08.17h0a25.09,25.09,0,0,0-3.37.13A25.44,25.44,0,0,0,82.79,29.87Z"/><path class="cls-11" d="M83.18,26.84c2.15-.09,4.3-.1,6.46,0h.14l-.14,0-.32.06.32-.08v0C87.49,26.92,85.34,26.93,83.18,26.84Z"/><path class="cls-11" d="M84,25.84c.84-.08,1.69-.08,2.53-.13s1.68,0,2.53,0c-.84.08-1.68.08-2.53.13S84.83,25.89,84,25.84Z"/><path class="cls-11" d="M72.73,33.82l-.22.06v0A28.87,28.87,0,0,1,78.91,32v0l-.25-.17.26.14h0q-3.25.77-6.41,1.82v0Z"/><path class="cls-11" d="M103.54,30a6.81,6.81,0,0,1,3.91,4.25h0l.13-.12-.12.13h0A8.37,8.37,0,0,0,103.54,30Z"/><path class="cls-11" d="M100.7,30.7a17.58,17.58,0,0,1,4.44,4h0v-.24l0,.24v0l0,0A35.07,35.07,0,0,0,100.7,30.7Z"/><path class="cls-11" d="M101.87,33.87a15,15,0,0,1,3.78,4.36h0l0-.35.06.34v.08l0-.07A26.3,26.3,0,0,0,101.87,33.87Z"/><path class="cls-11" d="M110,33.94l.25-.24h0v0a8.56,8.56,0,0,1,.33,7.07l0,0v0l0-.27,0,.27h0a10,10,0,0,0-.33-7.05h0Z"/><path class="cls-11" d="M93.89,23.15a12.85,12.85,0,0,1,5.83.26h0l-.1,0,.1-.05h0a20.22,20.22,0,0,0-2.9-.33A20.43,20.43,0,0,0,93.89,23.15Z"/><path class="cls-11" d="M99.3,22.82a22.5,22.5,0,0,1,2.66.91A23,23,0,0,1,104.47,25h0l-.11-.15.12.14,0,0,0,0c-.85-.39-1.69-.8-2.56-1.14S100.17,23.17,99.3,22.82Z"/><path class="cls-11" d="M109,15.42c-.07-.1.08-.23.19-.18a1.15,1.15,0,0,1,.29.15c.18.11.35.24.53.36.35.25.68.51,1,.79a12.94,12.94,0,0,1,1.74,1.88h0l0-.28.07.28v.06l0,0a20.33,20.33,0,0,0-1.81-1.79q-.47-.43-1-.82l-.51-.38a1.13,1.13,0,0,0-.26-.17C109,15.22,108.9,15.31,109,15.42Z"/><path class="cls-11" d="M95.38,30a4.67,4.67,0,0,1,1.91.18,4.59,4.59,0,0,1,1.66,1A6.74,6.74,0,0,0,95.38,30Z"/><path class="cls-11" d="M97.46,31.43a3.59,3.59,0,0,1,1.89.94A8,8,0,0,0,101,33.64a5.78,5.78,0,0,1-1.78-1.16A4.26,4.26,0,0,0,97.46,31.43Z"/><path class="cls-11" d="M96.69,34.3c.89.68,1.73,1.41,2.6,2.12s1.7,1.46,2.5,2.23c-.89-.68-1.73-1.41-2.6-2.12S97.5,35.08,96.69,34.3Z"/><path class="cls-11" d="M97.39,33.42a7.81,7.81,0,0,1,5.41,5.33h0v-.27l0,.27v.08l0-.08A8.83,8.83,0,0,0,97.39,33.42Z"/><path class="cls-11" d="M81.94,32.62A9.7,9.7,0,0,1,84,32.19a9.86,9.86,0,0,1,2.15.07v0l-.12,0h.12v0a17.56,17.56,0,0,0-2.14.06A18,18,0,0,0,81.94,32.62Z"/><path class="cls-11" d="M89.39,29.68a6.57,6.57,0,0,1,4.22.42,11.22,11.22,0,0,0-4.22-.42Z"/><path class="cls-11" d="M89.23,25.65c.42-.35.89-.63,1.33-.94s.92-.58,1.41-.82c-.42.35-.89.63-1.33.94S89.73,25.41,89.23,25.65Z"/><path class="cls-11" d="M92.63,25.47a13.07,13.07,0,0,1,3.14-.34,13.51,13.51,0,0,1,3.13.43h0l.09.53-.13-.52,0,0a17.26,17.26,0,0,0-3.13-.34A18.06,18.06,0,0,0,92.63,25.47Z"/><path class="cls-11" d="M94.37,26.18a13.82,13.82,0,0,1,3.81.76,13.62,13.62,0,0,1,3.43,1.82,17,17,0,0,0-3.48-1.68A17.28,17.28,0,0,0,94.37,26.18Z"/><path class="cls-11" d="M80.85,30.56c-.26.4-.54.78-.78,1.19s-.51.8-.74,1.21l0,0,.21-.13-.18.16-.07.07,0-.09a8.22,8.22,0,0,1,.67-1.27A7.49,7.49,0,0,1,80.85,30.56Z"/><path class="cls-11" d="M83,25.33c.47-.34,1-.63,1.47-.94s1-.57,1.53-.85v0a.18.18,0,0,0-.28,0,.2.2,0,0,1,.32-.08l0,0,0,0c-.49.31-1,.63-1.48.92S83.53,25.08,83,25.33Z"/><path class="cls-11" d="M84.76,25.28c.21-.18.45-.29.66-.46s.45-.29.7-.41a3.2,3.2,0,0,1-.61.54A3.24,3.24,0,0,1,84.76,25.28Z"/><path class="cls-11" d="M106.77,35.51a3.67,3.67,0,0,1,2.33,3h0l0-.28v.44l0-.16a4.24,4.24,0,0,0-.82-1.75A4.54,4.54,0,0,0,106.77,35.51Z"/><path class="cls-11" d="M103.54,30.76a14.5,14.5,0,0,1,2.64,3.4c-.45-.57-.85-1.16-1.31-1.71S104,31.34,103.54,30.76Z"/><path class="cls-11" d="M85.82,28.62c.92-.15,1.85-.23,2.78-.34s1.86-.17,2.79-.19c-.92.15-1.85.23-2.78.34S86.75,28.59,85.82,28.62Z"/><path class="cls-11" d="M112.88,24c.22.34.38.7.6,1s.4.68.58,1A5.14,5.14,0,0,1,112.88,24Z"/><path class="cls-11" d="M114.35,19.77c.36.7.64,1.43,1,2.14s.58,1.44.82,2.19c-.35-.69-.64-1.42-1-2.14S114.59,20.51,114.35,19.77Z"/><ellipse class="cls-14" cx="100.5" cy="43.05" rx="3.51" ry="0.51"/><ellipse class="cls-14" cx="102.35" cy="55.64" rx="1.66" ry="0.95"/><path class="cls-15" d="M91.77,51.69c-.6,1.72-.6,1.72-2.38,2.43a8.78,8.78,0,0,1-4.1.87,10.93,10.93,0,0,1-4.43-.46c-1.25-.32-1.07-.94-1.06-1.82a4.8,4.8,0,0,1,2-4.33,5.9,5.9,0,0,1,3.54-1.32,7.39,7.39,0,0,1,4.23,1.1C90.76,49,92.32,50.12,91.77,51.69Z"/><path class="cls-16" d="M87,47.69s-.36-.51-.59-.42a1.35,1.35,0,0,0-.53.44c-.19.22-.14.62-.44.41s-.49-.38-.49-.38,0-.08-.16,0-.14.18-.26.18.11.09-.12,0-.29,0-.32-.17l0-.2"/><path class="cls-16" d="M80.56,50.26s-.54.34-.44.56a1.33,1.33,0,0,0,.44.53c.22.19.64.15.41.43s-.4.46-.4.46-.08,0,0,.15.18.14.18.26.1-.1,0,.11,0,.28-.18.31l-.2,0"/><path class="cls-17" d="M85.28,48.16a4.64,4.64,0,0,0-4.71,4.57,4.43,4.43,0,0,0,.4,1.83,10.84,10.84,0,0,0,4.3.42,8.78,8.78,0,0,0,4.1-.87l.41-.16a4.4,4.4,0,0,0,.2-1.23A4.64,4.64,0,0,0,85.28,48.16Z"/><path d="M88.07,52.72a2.79,2.79,0,0,0-5.57,0A2.68,2.68,0,0,0,83.81,55c.37,0,.8,0,1.47,0A10.11,10.11,0,0,0,87,54.88,2.67,2.67,0,0,0,88.07,52.72Z"/><path class="cls-15" d="M85,51.63c-.15.17-.64,0-1.09-.37s-.69-.82-.55-1,.64,0,1.09.37S85.16,51.46,85,51.63Z"/><path class="cls-16" d="M90.43,49.19s-.54.34-.44.56a1.33,1.33,0,0,0,.44.53c.22.19.64.15.41.43s-.4.46-.4.46-.08,0,0,.15.18.14.18.26.1-.1,0,.11,0,.28-.18.31l-.2,0"/><path class="cls-18" d="M78.3,52.52c0-4.21,3-6.64,7.21-6.64a7.6,7.6,0,0,1,5.65,2.51,7.6,7.6,0,0,0-5.34-2.18c-4.21,0-7.18,2.09-7.18,6.31l-.09.85Z"/><path class="cls-19" d="M90.28,54.16,87,55.31l-1.84.2a13.14,13.14,0,0,1-2.5-.24,6.45,6.45,0,0,1-4.21-1.72v.62a10.37,10.37,0,0,0,6.71,2.13l1.88-.36,2.43-.66L91,54.4Z"/><path class="cls-20" d="M91.09,56.4a17.06,17.06,0,0,1-6,1,14.76,14.76,0,0,1-7.86-2"/><path class="cls-20" d="M91.88,56.84A19.07,19.07,0,0,1,85.06,58a16.73,16.73,0,0,1-8.7-2.12"/><path class="cls-20" d="M92.68,57.26a21,21,0,0,1-7.62,1.33,18.62,18.62,0,0,1-9.55-2.3"/><path class="cls-8" d="M80.11,69.83h-1.2l-1,1.18v1.18a.39.39,0,0,1-.26.5,13.48,13.48,0,0,1-1.63.25,3.72,3.72,0,0,1-.48.43,3.52,3.52,0,0,0-1,1.11c-.19.43-.19.68-.45.8a.82.82,0,0,1-.57,0l1.53-3s1.07-1.27,1.36-1.66.89-1.23,1.52-1.36a9.51,9.51,0,0,1,1-.26C79.15,69,80.11,69.83,80.11,69.83Z"/><path class="cls-21" d="M98.53,91.43c-.74.08-1.74.2-2.93.37-.65.1-1.44.21-2.3.37-2.2.42-2.47.69-3.76.93A14,14,0,0,1,84.76,93c-1.8-.26-2.22-.61-4.34-.8a12.48,12.48,0,0,0-2.55,0c-.75.08-2.86.3-3,1.05-.06.31.24.56.83,1.11,1.89,1.8,1.63,2,2.42,2.54s2.13.82,4.53,1.11a28.59,28.59,0,0,0,4.91.19L91,97.93c1-.09,1.87-.18,3.06-.19.25,0,.8,0,1.5,0,1.15,0,1.94.14,2.19.16A9.28,9.28,0,0,0,103.44,96c1-.73.44-.63,2.74-2.85,1-1,1.62-1.47,1.47-1.86s-.84-.35-2.3-.5a5.27,5.27,0,0,0-1.85,0,5.16,5.16,0,0,0-1.47.74c-.64.34-1.69.53-3.51-.12"/><path class="cls-22" d="M78.76,93.35a24.15,24.15,0,0,1,2.68.31c1.44.22,2.66.45,3.25.56a22.81,22.81,0,0,0,2.36.43c1.21.05,1.59-.23,3.63-.62a18.83,18.83,0,0,1,3.38-.43c1.94,0,2,.39,3.76.31a6.69,6.69,0,0,0,3.76-.87c.84-.57,1.11-1.19,1.91-1.24.64,0,1.38.3,1.47.74,0,.26-.12.65-2,1.79-2.08,1.28-3.11,1.92-4.34,2.1s-1.08-.14-4-.43a25.44,25.44,0,0,0-4.53-.19c-2,.13-2.08.46-4.21.56a21.19,21.19,0,0,1-3.44-.12,10.43,10.43,0,0,1-3.63-.8c-1.15-.54-2.4-1.5-2.23-1.92S77.47,93.28,78.76,93.35Z"/><path class="cls-23" d="M74.87,91.8c-.32-.77.77-2.14,2-2.72a10,10,0,0,1,2.42-.56c1.33-.29,1.56-.64,2.17-.56.93.13,1.33.88,1.85,1.3,2.15,1.75,7.69-1.13,9.56-2.1,5.16-2.69,5.11-4.09,7.71-4.33,2.84-.27,6.7,1,7.71,4,.54,1.53.61,3.6-.38,4.21s-2.6-.2-4-.8a8.14,8.14,0,0,0-2.61-1.05,5.64,5.64,0,0,0-2.17.19,11.23,11.23,0,0,0-2.55,1.24l-2.17,1.11a25.61,25.61,0,0,1-5,1.92c-3.4.85-3.7-.5-11.54-1C76.45,92.52,75.15,92.48,74.87,91.8Z"/><path class="cls-24" d="M99.42,86.6c-.22-.36-1.11-.2-2.55.06a11.83,11.83,0,0,0-3.44,1.11c-1.5.77-1.37,1.26-2.68,1.92a9.15,9.15,0,0,1-3.32.8c-3,.37-4.92-.36-5,0-.06.2.44.54.83.74,1.33.68,2.54.29,4.78-.06,3.75-.59,3.9,0,5.1-.74,1.47-.86,1.46-1.8,2.87-2.1,1.16-.25,1.92.23,2.74-.37C99.23,87.6,99.61,86.93,99.42,86.6Z"/><path class="cls-1" d="M90.68,69a4.68,4.68,0,0,1,0-2.66c.26-.19.25-.43.47-.5a5.12,5.12,0,0,1,1.52-.31,6.2,6.2,0,0,1,2.15,0c1,.25,1.72.5,2.23.56a26.87,26.87,0,0,1,2.93.25,7.47,7.47,0,0,1,2.36.87L105,69s.89,1,1.27,1.39.06.34-.51.34h-2c-.83,0-1.21-.31-1.66,0s0,.31-.45.31h-1.4l-.57-.62L97.18,67.7l-5.67.09Z"/><path class="cls-25" d="M92.68,67.79a5.76,5.76,0,0,1,1.13-.37h1.79l1.28,1.05L97.7,70a.84.84,0,0,1,.38.64,4.43,4.43,0,0,1,0,1.84,6.68,6.68,0,0,0-.31,1.42c-.06.19-.26,1-.45,1.06s-.57.43-.83.55a.82.82,0,0,1-.57,0l1.47.43a1.82,1.82,0,0,0,1.28-1c.45-.87.38-.5.45-.87a6,6,0,0,0,0-2.38A6.72,6.72,0,0,1,98.59,70c0-.19-.51-1-.57-1.24a9.6,9.6,0,0,0-1.08-1.36l-2.3-.5-2.76.87Z"/><path class="cls-4" d="M79.77,76.21s-.2-1.24,0-1.24a12.28,12.28,0,0,1,1.27.62c.21.06.65.62.65.62a2.75,2.75,0,0,0,1.28.58,2.55,2.55,0,0,1,1.22.54l1.38.5s.07.25.58.31,1.08-.06,1.53,0a.75.75,0,0,0,.89-.5,7.09,7.09,0,0,1,.34-.85c.1-.2-.69-.27.41-.76a11.39,11.39,0,0,1,1.57-.62L92.28,75a2.87,2.87,0,0,1,1.11,0,10.62,10.62,0,0,1,1.32.43v.43s.7.83.26.69-.7.07-1.34,0-.66-.11-.94,0a2.44,2.44,0,0,1-.8.25c-.18,0,.46-.08-.18,0s-.13,0-.64.06-.65,0-1.09.37a16.86,16.86,0,0,1-2.58,1.18l-2.11.43L83.35,78s-.38-.74-.86-.74-1.28-.55-1.45-.4-.93,0-.93,0Z"/><path class="cls-1" d="M78.91,69a1.15,1.15,0,0,0,.43-.77c0-.59-.76-1.72-1.47-1.34s-1.62,1-1.62,1a14.37,14.37,0,0,0-1.39,1.34c-.12.23.13,0-.38.67s-.64,1.18-1,1.73a22.59,22.59,0,0,0-1.34,3,10.06,10.06,0,0,1-.83,1.73C70.53,78,68,83.21,70.16,86.91c.78,1.35,1.89,2.29,2.1,2.17s-1-1.72-1.4-4.21a13,13,0,0,1,.45-5.45,11.55,11.55,0,0,1,1.4-3.9C73.89,73.66,76.37,71.36,78.91,69Z"/><path class="cls-1" d="M71.62,55.91l-6.95.68"/><path class="cls-26" d="M72,57c-.84-.06-6.13-.41-7.61,2.28a3,3,0,0,0-.26.62"/><path class="cls-26" d="M72.32,57.83c-3.58.39-6.15,1.65-6.38,3.22a1.81,1.81,0,0,0,.13.93"/><path class="cls-26" d="M71.81,59.13c-3.68,1.81-6,4.5-5.67,6.93a3.69,3.69,0,0,0,.51,1.42"/><path class="cls-26" d="M73.34,59.44c-3.73,2-6.1,4.78-5.74,7.3a3.78,3.78,0,0,0,.45,1.3"/><path class="cls-26" d="M71.18,58.57c-3.9,1.36-6.44,3.78-6.31,6.06a3.31,3.31,0,0,0,.51,1.55"/><path class="cls-26" d="M73.41,60.05"/><path class="cls-26" d="M69.39,54.36c-1.08-1-3.86-3.83-3.63-7.49a6.94,6.94,0,0,1,.19-1.24"/><path class="cls-26" d="M69.71,53.68C67,51,65.79,48.11,66.78,46.32a2.78,2.78,0,0,1,.77-.87"/><path class="cls-3" d="M72.07,65.19c-.2-.11-2,2.42-3.25,4.46a29.84,29.84,0,0,0-2,3.47c-.58,1.31-.69,2-1,2-.71,0-.66-3-2.49-5.32a9.07,9.07,0,0,0-3.19-2.46l2.68,8.59.73,3.25a3.2,3.2,0,0,1,1.62-.83,2.32,2.32,0,0,0,1.4-.5c.62-.61.41-1.57.38-2.29-.06-1.8,1-2.26,3.25-6.31C71.08,67.65,72.25,65.3,72.07,65.19Z"/><path class="cls-26" d="M68,82.33c.17,4.47.53,8.29.89,11.32.32,2.7.66,4.81,2.23,6.87a10.87,10.87,0,0,0,3.32,2.85"/><path class="cls-27" d="M96.88,39.77l-1.24,1.15"/><path class="cls-27" d="M81.68,37.45a4.6,4.6,0,0,0,2.18,2.49.25.25,0,0,0,.12-.31"/><path class="cls-27" d="M82.46,37.65l.89,1.24"/><path class="cls-27" d="M83.1,36.79l.64,1.61"/><path class="cls-27" d="M83.87,35.92a7.55,7.55,0,0,0,.72,2.75l0-.64"/><path class="cls-27" d="M84.86,35.93l.6,2.36"/><path class="cls-27" d="M85.81,38.88a2.62,2.62,0,0,1,.37-2.28"/><path class="cls-27" d="M86.94,38.89a2.09,2.09,0,0,1,1.38-2"/><path class="cls-27" d="M87.81,38.89a2.31,2.31,0,0,1,1.43-2l.15.65"/><path class="cls-27" d="M89,39.37a3,3,0,0,1,2.13-2,.25.25,0,0,1,.08.32"/><path class="cls-27" d="M90.4,39.27a2.27,2.27,0,0,1,2-1.49l0,.37"/><path class="cls-27" d="M93.25,39.63A1.85,1.85,0,0,1,95,37.94l.08.33"/><path class="cls-27" d="M93.8,40.5a3.5,3.5,0,0,1,1.69-1.79.84.84,0,0,1-.16,1"/><path class="cls-27" d="M94.64,40.64a2.19,2.19,0,0,1,2.1-1.55"/><path class="cls-27" d="M96,40.62a4.56,4.56,0,0,1,2.17-1.11"/><path class="cls-27" d="M97.45,42.14a2.41,2.41,0,0,1,3.2-.92"/><path class="cls-27" d="M98.31,43a2.17,2.17,0,0,1,2.17-.64"/><path class="cls-27" d="M100.06,43.35a3.17,3.17,0,0,1,1.77-.77"/><path class="cls-27" d="M100,42.59a1.59,1.59,0,0,0,1-.4,1.38,1.38,0,0,1,1-.34c.36.08.57.62.25.8"/><path class="cls-27" d="M97,42.22a2.76,2.76,0,0,1,1.43-1.67,1.16,1.16,0,0,1,.88-.12.51.51,0,0,1,.3.71"/><path class="cls-27" d="M96.87,41.2a.85.85,0,1,1,1.63,0"/><path class="cls-27" d="M95.72,41.24a2.59,2.59,0,0,1,1-1.61"/><path class="cls-27" d="M89.75,39.5a.78.78,0,0,1,.61-1"/><path class="cls-27" d="M90.13,39.76a2.21,2.21,0,0,1,2.1-2.12l.09.75"/><path class="cls-27" d="M91.92,39.63a1.63,1.63,0,0,1,.9-1.8.35.35,0,0,1,.09.43"/><path class="cls-27" d="M92.79,39.76a1.92,1.92,0,0,1,1-1.61"/><path class="cls-27" d="M89.08,37.41a2.33,2.33,0,0,0-1.39-1.74"/><path class="cls-27" d="M88.84,37.16A4,4,0,0,0,89.09,39"/><path class="cls-27" d="M88.84,36.29l1,3.31v-.46"/><path class="cls-27" d="M91,36.66v1.86"/><path class="cls-27" d="M91.77,37.41l.13,1.18v-.44"/><path class="cls-27" d="M92.66,37.28l.15,2.09a4.46,4.46,0,0,1,.54-3.3l.27,1.32"/><path class="cls-27" d="M93.94,39l1.4-1.49"/><path class="cls-27" d="M94.61,39.9A2.78,2.78,0,0,1,97,38.48"/><path class="cls-27" d="M96.23,39.88a4,4,0,0,1,2-1.23"/><path class="cls-27" d="M96.12,41a7.37,7.37,0,0,1,2.36-2.17l-.28.81"/><path class="cls-27" d="M97.38,41.49a5.3,5.3,0,0,1,2.17-2"/><path class="cls-27" d="M98.4,41.61,100.7,40a1.75,1.75,0,0,1-1.16,1.08"/><path class="cls-27" d="M99.8,41.86a8.53,8.53,0,0,1,2.81.25"/><path class="cls-27" d="M100.06,42.85l2.17-.62"/><path class="cls-27" d="M71.23,47.67a2.94,2.94,0,0,1,2.58-1.55l0,.32"/><path class="cls-27" d="M70.91,46.21a1.06,1.06,0,0,1,1.13-.6,1,1,0,0,1,.84,1"/><path class="cls-27" d="M70.88,45.57a.68.68,0,0,1,.63-.82,1.14,1.14,0,0,1,1,.57,3.17,3.17,0,0,1,.37,1.12"/><path class="cls-27" d="M70.61,43.83a3.69,3.69,0,0,1,1.78,1.87"/><path class="cls-27" d="M71.39,42.84l2,2.23"/><path class="cls-27" d="M72.52,43.22a4.35,4.35,0,0,0,1.27,1.67.64.64,0,0,0,0-.79"/><path class="cls-27" d="M72.93,42a1.78,1.78,0,0,0,1.35,1.69"/><path class="cls-27" d="M72.9,41.24,75,42.66"/><path class="cls-27" d="M72.63,40.64a2.53,2.53,0,0,1,2.7,2.58"/><path class="cls-27" d="M73.15,40.3a2.62,2.62,0,0,1,2.5,2.06"/><path class="cls-27" d="M74.43,39.38a3.25,3.25,0,0,1,2,2.6"/><path class="cls-27" d="M75.45,38.37a1.85,1.85,0,0,1,1.7,2"/><path class="cls-27" d="M76.72,40.13l-.51-2"/><path class="cls-27" d="M78,40.73a1.93,1.93,0,0,1-.82-2.47"/><path class="cls-27" d="M79.54,40.45a1.28,1.28,0,0,1-1-.84,1.22,1.22,0,0,1,.33-1.25"/><path class="cls-27" d="M80.91,40.89a3.22,3.22,0,0,1-.47-2.61"/><path class="cls-27" d="M81.72,39.63l-.12-.87"/><path class="cls-27" d="M81.7,39.39,82,37.9"/><path class="cls-27" d="M83.21,39.15a1.89,1.89,0,0,1-.09-2.1"/><path class="cls-27" d="M81.39,40.63a2.38,2.38,0,0,1-1.44-3"/><path class="cls-27" d="M80.15,40.63l-1-1.48"/><path class="cls-27" d="M79.26,40.63,77.86,39"/><path class="cls-27" d="M78.51,41.37l-.89-2.1"/><path class="cls-27" d="M78,41.61l-1.4-1.36"/><path class="cls-27" d="M76.71,42.36a3.8,3.8,0,0,0-1.44-1.6"/><path class="cls-27" d="M76.31,43.36a2.39,2.39,0,0,0-2.67-1.1"/><path class="cls-27" d="M75.18,46a2.78,2.78,0,0,0-2.57-1,1,1,0,0,0,.93,1.08"/><path class="cls-27" d="M74.23,46.44A3.46,3.46,0,0,0,73,46a1.17,1.17,0,0,0-1.1.46.68.68,0,0,0,.35,1"/><path class="cls-27" d="M73.9,48.11a4.74,4.74,0,0,0-3,.21l.68.1"/><path class="cls-27" d="M85.12,38.77a3.42,3.42,0,0,1,1.81-2.59"/><path class="cls-27" d="M87.52,39.27a2,2,0,0,1,.8-1.77,2.1,2.1,0,0,1,2-.23"/><path class="cls-27" d="M90,39.51a13.4,13.4,0,0,1,3.43-2.62l-.33.54"/><path class="cls-27" d="M93.3,38.89,95,37.41"/><path class="cls-27" d="M94.43,40.11,96.08,39"/><path class="cls-27" d="M96.25,41.49A2.59,2.59,0,0,1,98,39.62l-.13.64"/><path class="cls-27" d="M100.31,40.62l-.13.87"/><path class="cls-27" d="M100.82,41.37l.77-.74"/><path class="cls-27" d="M98.4,42a7.46,7.46,0,0,1,2.55-1.49"/><path class="cls-27" d="M99.59,43.51a.61.61,0,0,1-.07-.9,1.62,1.62,0,0,1,.94-.43,1.33,1.33,0,0,1,1,.1c.28.2.31.71,0,.82"/><path class="cls-27" d="M100.31,44.46a3.07,3.07,0,0,1,2.93-.48"/><path class="cls-27" d="M100.44,43.72a4,4,0,0,1,4,0"/><path class="cls-27" d="M106.33,2.13"/><path class="cls-27" d="M109.45,4.1"/><path class="cls-27" d="M112,5"/><path class="cls-27" d="M112.44,7"/><path class="cls-27" d="M97.25,4.36a3.57,3.57,0,0,1,2-1.25"/><path class="cls-27" d="M97.86,5.94a6.26,6.26,0,0,1,5.4-1.65"/><path class="cls-27" d="M104,6.34a5,5,0,0,1,2.94-1.1"/><path class="cls-27" d="M103.64,11.42A8.29,8.29,0,0,1,108,8.15"/><path class="cls-27" d="M105.79,12.77A7.69,7.69,0,0,1,110.56,9l0,.39"/><path class="cls-27" d="M109.39,14a6.33,6.33,0,0,1,4-3.2"/><path class="cls-27" d="M112.4,16.59a5,5,0,0,1,4.51-1.18"/><path class="cls-27" d="M115.22,18.58l4.59-1.73"/><path class="cls-27" d="M116.76,20.45a10.72,10.72,0,0,1,3.32-1.24"/><path class="cls-27" d="M118.66,23l3.55-1.16"/><path class="cls-27" d="M82.84,9.32A21.69,21.69,0,0,0,76,5.83l-.13.38"/><path class="cls-27" d="M79.9,13.29a44.53,44.53,0,0,0-6-1.33"/><path class="cls-27" d="M78.76,16.36l-4.59-.5"/><path class="cls-27" d="M75.58,21.32a39.89,39.89,0,0,0-6.38-2.23"/><path class="cls-27" d="M74.94,22.92a17.35,17.35,0,0,0-6.25-3.22"/><path class="cls-27" d="M71.75,25a7.5,7.5,0,0,0-4.59-3"/><path class="cls-27" d="M67.44,27.5a5.63,5.63,0,0,0-5-3.53"/><path class="cls-27" d="M66.07,30.29a11.77,11.77,0,0,0-8.35-3"/><path class="cls-27" d="M66.14,33.57a22.19,22.19,0,0,0-7.53.46"/><path class="cls-27" d="M64.48,33.69a19.08,19.08,0,0,0-5.48.82c-.59.18-1.29.59-1.16,1.17"/><path class="cls-27" d="M74.5,15.81a22.26,22.26,0,0,0-7.18-4.35"/><path class="cls-27" d="M81.19,8.57A39.48,39.48,0,0,1,75.7,4.73"/><path class="cls-27" d="M86,7.64a10.52,10.52,0,0,1-2.45-5"/><path class="cls-27" d="M86.42,5.09a4,4,0,0,1,0-4.76"/><path class="cls-27" d="M88.06,2.63A3.67,3.67,0,0,1,88.84,0"/><path class="cls-27" d="M95.54,3.72A4.63,4.63,0,0,1,99.28,1"/><path class="cls-27" d="M92.64,6.32A4.21,4.21,0,0,1,97,2.87"/><path class="cls-27" d="M95.05,6.43A9,9,0,0,1,99.8,4.26"/><path class="cls-27" d="M106.94,12a7.47,7.47,0,0,1,5-.85"/><path class="cls-27" d="M108.12,15.66a9.65,9.65,0,0,1,5.72-1.61"/><path class="cls-27" d="M111.55,18.17a35.71,35.71,0,0,0,4.74-1.31l-.29.25"/><path class="cls-27" d="M115.75,19.1a4.9,4.9,0,0,1,3.06-.67"/><path class="cls-27" d="M114.24,23.21a9.6,9.6,0,0,1,3.58-2,3.31,3.31,0,0,1,3.63,1.31"/><path class="cls-27" d="M117.94,25.66a6.26,6.26,0,0,1,2.73-1.88,2.17,2.17,0,0,1,2.7,1.33l-.48.29"/><path class="cls-27" d="M117.27,29a9.07,9.07,0,0,1,4.34.49,1.51,1.51,0,0,1,.68.42.55.55,0,0,1,0,.72"/><path class="cls-27" d="M117.34,28.43a1,1,0,0,1,.19-1.38A2.59,2.59,0,0,1,119,26.6a5.7,5.7,0,0,1,2.52.33,2.67,2.67,0,0,1,1.64,1.8l-.32.26"/><path class="cls-27" d="M116.66,28.55a4.85,4.85,0,0,1,5.83-1.28l-.12.74"/><path class="cls-27" d="M118.41,31.93l3.82-1-.61.29"/><path class="cls-27" d="M118.27,32.49l4.06,2.14"/><path class="cls-27" d="M99.15,118.87a12.6,12.6,0,0,1,7.07,6.16l-.59.67a11.18,11.18,0,0,1-4.86-3.23,1.94,1.94,0,0,1-.64-1.71,1.46,1.46,0,0,1,1.41-.9,3.7,3.7,0,0,1,1.71.52,15.34,15.34,0,0,1,7,7.35,2.18,2.18,0,0,1-2-1.22"/><path class="cls-27" d="M103,119a17.45,17.45,0,0,1,6.17,7.39"/><path class="cls-27" d="M109.36,127.38l-2.55-2.6"/><path class="cls-27" d="M100.94,117.24l3.57,5.82"/><path class="cls-27" d="M102.44,115.4q3.1,4.57,6.55,8.9l-.78-1.62"/><path class="cls-27" d="M103.8,114.21a33.17,33.17,0,0,1,7.38,10.53l-.29-.33"/><path class="cls-27" d="M105.94,113.64a42.64,42.64,0,0,1,6.47,8.73l-.5-.92"/><path class="cls-27" d="M106.43,112.78l.14-.54A19.48,19.48,0,0,1,113,122.7l-.46-.39"/><path class="cls-27" d="M107.58,112.66l.25-.6a14.86,14.86,0,0,1,4.81,5.82"/><path class="cls-27" d="M108.74,110.29a19,19,0,0,1,5.11,10"/><path class="cls-27" d="M110,108.08a35.58,35.58,0,0,1,3.4,12.88l-.49-1.5"/><path class="cls-27" d="M111,106.45a75.94,75.94,0,0,1,2.06,11.3l-.22-2.37"/><path class="cls-27" d="M111.81,104.83l2.27,12.41-1.22-4.48"/><path class="cls-27" d="M112.82,106.09a46.89,46.89,0,0,0,2.18,9.54,13,13,0,0,0-.81-4.08"/><path class="cls-27" d="M114.43,104.22a82.51,82.51,0,0,1,1.88,12.4,34.42,34.42,0,0,0-2.1-6.07"/><path class="cls-27" d="M114.57,103.19A24.48,24.48,0,0,1,118,115.37a1.29,1.29,0,0,1-.74-1"/><path class="cls-27" d="M114.51,101.13a41.8,41.8,0,0,1,3.78,13.64,36.5,36.5,0,0,1-2.16-6.56"/><path class="cls-27" d="M117,97.35a27.41,27.41,0,0,1,2.61,12.77,64.19,64.19,0,0,1-2-8.23"/><path class="cls-27" d="M117.6,95.5a39.72,39.72,0,0,1,2.72,13.55l-2.13-7.79"/><path class="cls-27" d="M118.58,95.69a31.93,31.93,0,0,1,2.17,15.69,2,2,0,0,1-1.06-1.32"/><path class="cls-27" d="M114.73,103.5a81.43,81.43,0,0,1,3.49,12.81l-.94-2.66"/><path class="cls-27" d="M112.23,104.61a34,34,0,0,0,1.89,11.1c.33.94.93,2,2,2a2.92,2.92,0,0,0,.17-3.24"/><path class="cls-27" d="M110.11,107.8c-1.18,1-1.33,2.7-1.26,4.21a25.12,25.12,0,0,0,.93,5.72,4.94,4.94,0,0,0,2.08,3.22,2.41,2.41,0,0,0,.54-3"/><path class="cls-27" d="M106.09,116.62a13.31,13.31,0,0,0,2.35,8.06,1.52,1.52,0,0,0,.41-1.5"/><path class="cls-27" d="M103.61,115.51a25.84,25.84,0,0,0,2.22,8.16c.41.88,1,1.84,2,2a3.19,3.19,0,0,0,.29-2.15"/><path class="cls-27" d="M105.06,118.1a19.47,19.47,0,0,0,4.12,7.67,2.08,2.08,0,0,0,.06-1.6"/><path class="cls-27" d="M103.89,111.78a40.9,40.9,0,0,1,8.39,13.51"/><path class="cls-27" d="M106.81,109.9c1.33,0,2.32,1.18,3.05,2.26A30.54,30.54,0,0,1,114.41,123"/><path class="cls-27" d="M107.06,108.9c1.3-.27,2.38,1,3.07,2.07a44.5,44.5,0,0,1,5.6,13.86l-.49.18-.9-.85"/><path class="cls-27" d="M109.63,109.08a1,1,0,0,1,1.19-.09,2.57,2.57,0,0,1,.82,1,42.19,42.19,0,0,1,5,13.63l-.74-.79"/><path class="cls-27" d="M111.35,109.22a122.07,122.07,0,0,1,6.36,14.87l-.05-.41"/><path class="cls-27" d="M111.18,107.57a1.1,1.1,0,0,1,.43-1.22,32.5,32.5,0,0,1,6.55,14"/><path class="cls-27" d="M112.69,104.67c1.39.25,2.35,1.46,3.13,2.6A49.14,49.14,0,0,1,122,119.95l-.62-.24"/><path class="cls-27" d="M114.4,102c.82-.32,1.66.42,2.19,1.11a25.46,25.46,0,0,1,5.06,12.19,30.49,30.49,0,0,1-4.77-12"/><path class="cls-27" d="M123.88,110.73c-2.43-3.68-5.49-8.73-5.91-13.15,1.83,1.3,3.17,4.15,4,6.15a23.54,23.54,0,0,1,1.21,3.43C123.46,108.06,123.4,110,123.88,110.73Z"/><path class="cls-27" d="M117.77,94.1a37.91,37.91,0,0,1,5.16,13.81,35.91,35.91,0,0,1-3-9.86"/><path class="cls-27" d="M121.18,93.19a59.79,59.79,0,0,1,4.92,16.6L124.92,108"/><path class="cls-27" d="M120.05,101q.64,7.27,1.78,14.5a37.87,37.87,0,0,0-3.9-9.08"/><path class="cls-27" d="M115,104.74a79.24,79.24,0,0,1-1.47,19.68l-1-3"/><path class="cls-27" d="M95.82,118.72a28.09,28.09,0,0,0-.69,8.77,4,4,0,0,0,1,2.67,2.8,2.8,0,0,0,.64-2.64"/><path class="cls-27" d="M98.05,119.81a28.42,28.42,0,0,1,5.35,14.65l-.79-3.23"/><path class="cls-27" d="M100.59,120.67a54,54,0,0,1,1.44,16.8l-.06-2.16"/><path class="cls-27" d="M101.52,129a39.57,39.57,0,0,0-2,11.49,10.56,10.56,0,0,0,1.08-2.68"/><path class="cls-27" d="M102,132.8a13.93,13.93,0,0,0,2,12.8l.39-.64"/><path class="cls-27" d="M100.76,124.55c2.15,6-.75,13,1.91,18.86a5.49,5.49,0,0,0,1.8,2.33,2.93,2.93,0,0,0,2.87.32"/><path class="cls-27" d="M100,120.51a48.87,48.87,0,0,1,3.73,18.58c0,2.74-.14,5.72,1.55,7.91a4.47,4.47,0,0,0,2.52,1.68,3.11,3.11,0,0,0,2.87-.78"/><path class="cls-27" d="M97,119.59c3.41,4.15,6.51,9.08,6.06,14.37-.15,1.79-.71,3.53-1,5.3a8.37,8.37,0,0,0,.49,5.29,4.28,4.28,0,0,0,4.54,2.35v-.7"/><path class="cls-27" d="M96.31,121.91a13.59,13.59,0,0,1,5.53,10.25,42.79,42.79,0,0,1-.77,7.14,12.27,12.27,0,0,0,.74,7.06,4,4,0,0,0,1.81,1.93,2.13,2.13,0,0,0,2.49-.46"/><path class="cls-27" d="M93.15,120.47a26.07,26.07,0,0,1,9.57,18.32,38.9,38.9,0,0,0,.35,4.73,6.6,6.6,0,0,0,2.25,4.09"/><path class="cls-27" d="M92.88,122c3.34,1.91,4.94,5.81,5.42,9.55s.07,7.54.56,11.28a6.29,6.29,0,0,0,1.79,4.13c1.19,1,3.36,1,4.09-.37"/><path class="cls-27" d="M93.15,122.63a14.49,14.49,0,0,0-1.56,6.69,33.64,33.64,0,0,0,2.51,13.9,9.18,9.18,0,0,0,2.42,3.73,4,4,0,0,0,4.25.69"/><path class="cls-27" d="M89.85,120.38a25.72,25.72,0,0,0,7.58,23.16,1.32,1.32,0,0,0,.31-1.89"/><path class="cls-27" d="M94.79,122.92A50.77,50.77,0,0,0,101.09,141l.37-.74"/><path class="cls-27" d="M93.87,121.4a17.09,17.09,0,0,1,4.87,17.92A8.21,8.21,0,0,0,98,142.7c.12,1.16,1.15,2.33,2.33,2.11a2.26,2.26,0,0,0,.23-1.84"/><path class="cls-27" d="M89.37,120.29A17.5,17.5,0,0,1,95.24,136a4.56,4.56,0,0,0,.05,2.7c.4.83,1.74,1.24,2.28.49"/><path class="cls-27" d="M89.75,117.94c1.32.18,2.09,1.51,2.66,2.68l7.13,14.69"/><path class="cls-27" d="M96.26,117.84a11.11,11.11,0,0,1,2.46,8.39c-.2,1.61-.77,3.23-.47,4.82a4.75,4.75,0,0,0,2.44,3.26,5,5,0,0,0,4.14.21"/><path class="cls-27" d="M90,97.12a1.11,1.11,0,0,1,1.11.39,2.77,2.77,0,0,1,.5,1.1,18.42,18.42,0,0,1,.64,5.75"/><path class="cls-27" d="M89.85,100.29l4,5.14"/><path class="cls-27" d="M90.2,101.53l2.34,6.54"/><path class="cls-27" d="M90.24,101.52a12.82,12.82,0,0,1,2.2,8.34l-.72-1"/><path class="cls-27" d="M90.14,102.29A14.67,14.67,0,0,1,92,112.6l-.52-.68"/><path class="cls-27" d="M89.61,106.84A30.14,30.14,0,0,1,91.14,116v-1.13"/><path class="cls-27" d="M89.86,106.34l1.59,13-.58-2"/><path class="cls-27" d="M87.55,110.68a104.48,104.48,0,0,0,1,13.79l0-2.28"/><path class="cls-27" d="M89.2,112.24a35.09,35.09,0,0,1,2.26,13.24l0-.57"/><path class="cls-27" d="M90.57,114.87a56.49,56.49,0,0,1,1.8,10l-.09-3.33"/><path class="cls-27" d="M92.07,114.5l1.43,8.12V121.2"/><path class="cls-27" d="M93.58,116.86q.43,3,1.08,5.91l.17-.71"/><path class="cls-27" d="M91.94,111.77,94.73,119l-.41-1.16"/><path class="cls-27" d="M91.9,109.56a21.35,21.35,0,0,0,2.9,5.2.49.49,0,0,0-.12-.61"/><path class="cls-27" d="M92.69,108.81l2.3,4.83"/><path class="cls-27" d="M91.14,110.79a2.05,2.05,0,0,1-.63-1.62A8.91,8.91,0,0,1,95,114.5"/><path class="cls-27" d="M90.5,106.58a13.73,13.73,0,0,1,2.78,6.69"/><path class="cls-27" d="M90.62,104.86a8.81,8.81,0,0,1,1.4,4.46"/><path class="cls-27" d="M90.25,102.87l2.17,4.7"/><path class="cls-27" d="M89.92,101.4a6.29,6.29,0,0,1,3.21,4.33"/><path class="cls-27" d="M91.51,100.28a15.68,15.68,0,0,1,2.68,4.58"/><path class="cls-27" d="M92.28,101.39l.38,1.24"/><path class="cls-27" d="M90.39,102.39a8.86,8.86,0,0,0-.26,6.76l.49-.33"/><path class="cls-27" d="M91.6,107.07a27.64,27.64,0,0,0-1.43,7.39l.2-.94"/><path class="cls-27" d="M90.87,112.16a34.74,34.74,0,0,0-2.09,10.39l.86-.38"/><path class="cls-27" d="M88.92,118.46A39.23,39.23,0,0,0,87,129a5.6,5.6,0,0,0,.9-2.56"/><path class="cls-27" d="M88.32,120.15c-.62.16-.82.91-.89,1.53a25.89,25.89,0,0,0,.63,9.09l.37-1.38"/><path class="cls-27" d="M85.93,121.57a8.76,8.76,0,0,0,2.87,9l.48-.38-.06-.66"/><path class="cls-27" d="M85.9,123.3a1.18,1.18,0,0,0-1.16.54,2.61,2.61,0,0,0-.37,1.27,8.79,8.79,0,0,0,1.74,6,4.63,4.63,0,0,0,3.26,2,2.08,2.08,0,0,0,0-1.42"/><path class="cls-27" d="M82,122.91a5.43,5.43,0,0,0,.34,3.76,17.51,17.51,0,0,0,2.47,4.4,5.73,5.73,0,0,0,1.7,1.6,2.56,2.56,0,0,0,2.28.17"/><path class="cls-27" d="M85.6,129.73A7.54,7.54,0,0,1,89,134.35a4.32,4.32,0,0,1-2.46,4.8"/><path class="cls-27" d="M82.76,126.55a6.09,6.09,0,0,1,3.5,3.49,5.84,5.84,0,0,1-.38,4.85,5.6,5.6,0,0,0-1.13,2.49A3.41,3.41,0,0,0,86.61,140a14,14,0,0,0,5,2"/><path class="cls-27" d="M82.47,127.05a3.05,3.05,0,0,1,3.78,2.47c.16,1.82-1.43,3.29-2.07,5a5.11,5.11,0,0,0,.92,5A5.48,5.48,0,0,0,90,141.32a1,1,0,0,0-.2-1.05"/><path class="cls-27" d="M82.29,126.57c2.47,2,5,4.06,6.23,6.93.58,1.39.7,3.23-.51,4.16-1,.74-2.63.82-2.91,2a1.6,1.6,0,0,0,.61,1.52,5,5,0,0,0,1.56.79c1.47.54,3.28,1,4.47,0l-.35-.5"/><path class="cls-27" d="M83.65,122.67a1.82,1.82,0,0,1,2,.65,4.58,4.58,0,0,1,.79,2,35.32,35.32,0,0,1,.62,4.85,30.77,30.77,0,0,0,.39,4.54,6.68,6.68,0,0,0,2.2,3.93,4,4,0,0,0,4.38.51,2.66,2.66,0,0,0,.81-3.92"/><path class="cls-27" d="M86.8,122.56l-.49-.7a15.72,15.72,0,0,1,7.57,10.79c.32,1.88.3,3.88,1.26,5.55a5.67,5.67,0,0,0,4.64,2.75,2.73,2.73,0,0,0,2-.6,1.28,1.28,0,0,0,.08-1.84"/><path class="cls-27" d="M90.93,122.22c3.22,2.45,5.38,6.39,5,10.34a26.42,26.42,0,0,0-.38,3.48A3.29,3.29,0,0,0,97.21,139c1.08.51,2.69-.2,2.67-1.36"/><path class="cls-27" d="M97.92,134.67l6.46,8.29"/><path class="cls-27" d="M91.41,127.18a1.52,1.52,0,0,0-.72,1.42,4.41,4.41,0,0,0,.47,1.59c1.62,3.7,3.44,7.59,6.9,9.8a1.25,1.25,0,0,0-.44-1.67"/><path class="cls-27" d="M64.09,93.5a3.37,3.37,0,0,0-3.62.76,4.75,4.75,0,0,0-1.29,3.52,10,10,0,0,0,1,3.7,4.83,4.83,0,0,0,.94,1.52,2,2,0,0,0,1.65.63l.22-.38"/><path class="cls-27" d="M62.57,93.57a14.87,14.87,0,0,1-1.19,9.16"/><path class="cls-27" d="M63.39,92.38a29.36,29.36,0,0,1,.5,14.76l-1.18-1.58"/><path class="cls-27" d="M65.35,98a27.83,27.83,0,0,1,.94,10.13l-.28-.42"/><path class="cls-27" d="M65.69,99.6a23.74,23.74,0,0,1,1.22,9.8,10.34,10.34,0,0,0-.06,2.29,2.76,2.76,0,0,0,1.1,2"/><path class="cls-27" d="M65.69,103.47a9.05,9.05,0,0,0,3.11,10.21"/><path class="cls-27" d="M69,101.82A19.64,19.64,0,0,0,68,108a12.53,12.53,0,0,0,.29,4.38,4.46,4.46,0,0,0,3,3.1"/><path class="cls-27" d="M69.38,102c.43,3.42-.51,6.84-.65,10.28a6.2,6.2,0,0,0,.84,3.9,2.8,2.8,0,0,0,3.63.92"/><path class="cls-27" d="M70.38,105.73a33,33,0,0,0,1,10.39,1.69,1.69,0,0,0-.14-1.36"/><path class="cls-27" d="M65.9,99.15A5.79,5.79,0,0,1,67.33,104c-.17,1.73-.76,3.4-1,5.13a6.13,6.13,0,0,0,1.16,4.93,1.15,1.15,0,0,0,.52-1.27"/><path class="cls-27" d="M61.11,95.81a18.05,18.05,0,0,0,1.6,11,2.49,2.49,0,0,0,.58.83,1,1,0,0,0,1,.21.58.58,0,0,0,.29-.83"/><path class="cls-27" d="M63.19,93.61a15,15,0,0,1,2.57,8.88l-.25-.85"/><path class="cls-27" d="M65.18,97.79l3,10.55,0-.38"/><path class="cls-27" d="M67.65,102.76a71.69,71.69,0,0,1,3.09,11.85l-.14-.47"/><path class="cls-27" d="M71.32,106.15a59.52,59.52,0,0,1,3,11.2c-.82-2.19-1.64-4.58-.88-6.79,1,.44,1.3,1.63,1.5,2.67l1.77,9.21"/><path class="cls-27" d="M75,113.52q1,5.51,2.4,10.94l.14-.42"/><path class="cls-27" d="M77.9,114.93l3.63,12.91.29-.7"/><path class="cls-27" d="M79.42,115.87a132.4,132.4,0,0,0,4.87,13.79l.21-.79"/><path class="cls-27" d="M83.13,118a53.51,53.51,0,0,1,3.38,12.52"/><path class="cls-27" d="M82.3,117.7a2.9,2.9,0,0,0-2,2,6.19,6.19,0,0,0-.11,2.86,17.06,17.06,0,0,0,2.75,7.06,2.3,2.3,0,0,0,1.38,1.13c.61.1,1.32-.54,1-1.06"/><path class="cls-27" d="M80,115c.65,3.57-3.55,6.84-2.62,10.35.39,1.47,1.61,2.58,2.68,3.68s2.11,2.47,2,4a7.69,7.69,0,0,1-.84,2.41,3.61,3.61,0,0,0-.36,2.48,1.61,1.61,0,0,0,2,1.09"/><path class="cls-27" d="M75.41,114.82a5.6,5.6,0,0,1,3.73,3,5.33,5.33,0,0,1-.06,4.68c-.76,1.48-2.2,2.6-2.68,4.18a5.1,5.1,0,0,0,.43,3.61A15.55,15.55,0,0,0,79,133.33a1.61,1.61,0,0,0,.8.63c.34.08.78-.17.72-.51"/><path class="cls-27" d="M75.83,114.51l-.38-1c-.14,2.43.88,4.75,1.69,7.05s1.4,4.87.43,7.11a14.61,14.61,0,0,0-1.4,3.06,4.27,4.27,0,0,0,1.17,3.44,13.23,13.23,0,0,0,3,2.32,2.86,2.86,0,0,0,1.86.63c.66-.1,1.19-1,.72-1.42"/><path class="cls-27" d="M80.68,116.47c-.17,2.1-1.41,3.95-2.4,5.83s-1.74,4.12-.88,6.06c.67,1.52,2.19,2.5,3.56,3.48S83.76,134,84,135.67a.91.91,0,0,0,.57-1.21"/><path class="cls-27" d="M83.49,117.52c.28,4.58.55,9.29-.91,13.65a6.92,6.92,0,0,0-.61,2.92,4,4,0,0,0,1.89,2.74,12.41,12.41,0,0,0,3.21,1.34c.65.2,1.5.35,1.9-.18s-.26-1.55-.95-2"/><path class="cls-27" d="M84.93,111.44a6.89,6.89,0,0,0-.84,2.69"/><path class="cls-27" d="M83.41,118.86a6.07,6.07,0,0,0-3.26,6.3,8.93,8.93,0,0,0,4.23,6.06c.9.57,2,1.14,2.25,2.14.33,1.18-.58,2.31-1.19,3.39a7.37,7.37,0,0,0-.53,5.95,3.29,3.29,0,0,0,1.43,1.92,1.66,1.66,0,0,0,2.18-.49"/><path class="cls-27" d="M86,125.08a3.18,3.18,0,0,0-2.52,1,5.1,5.1,0,0,0-1.2,2.46,10.57,10.57,0,0,0,2.09,8.15,32.55,32.55,0,0,0,6.26,6.1l-.35-.43"/><path class="cls-27" d="M82.31,119.75a8,8,0,0,1,1.52,9.37c-.9,1.67-2.45,3.22-2.29,5.1A5.36,5.36,0,0,0,83,137.05a21.64,21.64,0,0,0,7.33,5.61"/><path class="cls-27" d="M80.84,118.74a3.51,3.51,0,0,0-2.3,2.49,10,10,0,0,0-.17,3.47,32.36,32.36,0,0,0,1.6,9.4A11.35,11.35,0,0,0,86.4,141a6.14,6.14,0,0,1,2.06.92,1.36,1.36,0,0,1,.24,1.95"/><path class="cls-27" d="M84.39,121.35a8.71,8.71,0,0,0-4.61,7.6c0,3.64,2.4,6.83,4.79,9.64s5,5.72,5.64,9.3l.58-1"/><path class="cls-27" d="M83.38,124.54a6.91,6.91,0,0,0-.67,11.77c1.38,1,3.23,1.62,3.77,3.19.66,1.92-1.08,4.25.07,5.95l.31-.71"/><path class="cls-27" d="M84.05,123.9a2.21,2.21,0,0,0-2.92-.09,4.3,4.3,0,0,0-1.4,2.75,9.88,9.88,0,0,0,2.9,8.64c1.4,1.35,3.19,2.28,4.54,3.67s2.21,3.56,1.24,5.22"/><path class="cls-27" d="M84.59,123.19c-2,2.77-1.88,6.54-.63,9.68s3.52,5.78,5.74,8.36a.29.29,0,0,0,.27-.33"/><path class="cls-27" d="M85.58,124a7.39,7.39,0,0,1,4.3,4,7.07,7.07,0,0,1-.16,5.79c-.59,1.21-1.55,2.37-1.39,3.7a3.25,3.25,0,0,0,2.08,2.42,9.25,9.25,0,0,0,3.33.54,3.48,3.48,0,0,0,2-.35,1.15,1.15,0,0,0,.34-1.72"/><path class="cls-27" d="M87.49,123.24l.54-.63a21.76,21.76,0,0,1,5.18,4.88,7.07,7.07,0,0,1,1,6.69c-.46,1-1.27,2-1.38,3.07-.15,1.52,1,2.86,2.28,3.78A3.78,3.78,0,0,0,98,142c1-.21,1.75-1.56,1-2.29"/><path class="cls-27" d="M87.93,123.68l-.32-.5a6.62,6.62,0,0,1,4.72,2.46,6.23,6.23,0,0,1,1.19,5.07c-.31,1.45-1.14,2.84-1,4.31a4.68,4.68,0,0,0,3,3.55,14.48,14.48,0,0,0,4.83.88l-.23-.69"/><path class="cls-27" d="M89.73,124.24c1.47.16,2.38,1.61,3,2.93a33.09,33.09,0,0,1,2.71,10,14.78,14.78,0,0,0,.85,4.47,4.09,4.09,0,0,0,3.53,2.61c1.57,0,3-1.78,2.25-3.12"/><path class="cls-27" d="M92.24,125.44a14.34,14.34,0,0,1,5.47,10c.3,3.07-.19,6.52,1.84,8.89a3.44,3.44,0,0,0,3.44,1.27c1.24-.38,1.91-2.15.94-3"/><path class="cls-27" d="M87.69,124.66c1.68,3.44,3.41,7.07,3.1,10.87a21.48,21.48,0,0,0-.25,3.1A3.17,3.17,0,0,0,92,141.26a2.37,2.37,0,0,0,2.52-.19,2.21,2.21,0,0,0,.77-2.33"/><path class="cls-27" d="M81.06,119.83l-.36-1a9.38,9.38,0,0,1,1.33,6,45.21,45.21,0,0,0-.34,6.27,6.81,6.81,0,0,0,2.88,5.38c2,1.18,4.51.88,6.64,0"/><path class="cls-27" d="M104.9,115.38a2.21,2.21,0,0,1,2,1.09,5.74,5.74,0,0,1,.7,2.24,60.6,60.6,0,0,1,.73,7.85,3.4,3.4,0,0,0,.72,2.47,2.39,2.39,0,0,0,2.42.33,6.88,6.88,0,0,0,2.1-1.43"/><path class="cls-27" d="M107.54,111.33a3.2,3.2,0,0,1,3.29,1.21,5.43,5.43,0,0,1,1,3.44,27.45,27.45,0,0,1-.75,4.68,9.42,9.42,0,0,0,0,4.69,4.3,4.3,0,0,0,3.41,3c1.62.17,3.35-1.21,3.14-2.77"/><path class="cls-27" d="M110.31,109.37c2.55,1.76,3.4,5.05,3.65,8.08s.09,6.19,1.36,9a1.82,1.82,0,0,0,.6.81,1.44,1.44,0,0,0,2-.82,3.9,3.9,0,0,0-.08-2.34"/><path class="cls-27" d="M111.1,105.28c1.06-.48,2.23.43,2.91,1.35a11.44,11.44,0,0,1,2.06,8.49c-.2,1.27-.62,2.61-.1,3.79a3.17,3.17,0,0,0,3.84,1.5,3.85,3.85,0,0,0,2.46-3.43"/><path class="cls-27" d="M117.6,97a17.46,17.46,0,0,1,4.72,13.46c-.13,1.4-.42,2.9.22,4.16.88,1.76,3.13,2.34,5.1,2.72l-1.44-.47"/><path class="cls-27" d="M116.46,110.6a2.33,2.33,0,0,0-2.56-.39"/><path class="cls-27" d="M67.81,102.18c-.93,1.38-3.08,1.8-3.64,3.36a3,3,0,0,0,.41,2.46A14.41,14.41,0,0,0,67,110.68a6,6,0,0,1,1.91,3,2.53,2.53,0,0,1-1.57,2.91l-.09-.85"/><path class="cls-27" d="M69.3,105.41a1.67,1.67,0,0,0-2,.43,3.33,3.33,0,0,0-.7,2,8.22,8.22,0,0,0,3.21,7c1.05.8,2.44,1.58,2.48,2.88,0,1.12-1,2-1.83,2.73s-1.65,1.94-1.1,2.93a.36.36,0,0,0,.48-.22"/><path class="cls-27" d="M67,104.38a8.69,8.69,0,0,0,2.14,5.41,36.45,36.45,0,0,1,3.54,4.79,5.87,5.87,0,0,1,.25,5.65,7.89,7.89,0,0,0-1,1.7A2.73,2.73,0,0,0,73,124.69a8.5,8.5,0,0,0,2.9,1.31l-.1-1"/><path class="cls-27" d="M71.6,112.55a10.9,10.9,0,0,1,1.49,10.32,26.2,26.2,0,0,0-1.46,3.7,3.42,3.42,0,0,0,1.11,3.59,1.84,1.84,0,0,0,2,.12,1.12,1.12,0,0,0,.18-1.74"/><path class="cls-27" d="M70.74,113.15c2.18,2.3,2.83,5.58,3.08,8.7s.21,6.33,1.35,9.25a3.58,3.58,0,0,0,.95,1.5,1.6,1.6,0,0,0,1.7.28,1,1,0,0,0,.29-1.49"/><path class="cls-27" d="M73.09,112.93c1.53.89,1.84,2.87,2,4.6.29,3.39.58,6.85,1.92,10a3,3,0,0,0,.82,1.23,1.21,1.21,0,0,0,1.41.12.72.72,0,0,0-.09-1.21"/><path class="cls-27" d="M74.06,114.13c1.11,1.46,2.7,2.53,3.84,4s1.72,3.6.58,5a5.21,5.21,0,0,0-.8,1,2.29,2.29,0,0,0,.93,2.42,6.35,6.35,0,0,1,1.91,2"/><path class="cls-27" d="M69.72,108.76c1.72,3,3.48,6.11,3.77,9.52a1.59,1.59,0,0,1-.3,1.29c-.33.33-1.06.21-1.08-.25"/><path class="cls-27" d="M70,106.69l1.32,9.08a1.72,1.72,0,0,0,.39-1.5"/><path class="cls-27" d="M71.33,108.71l2,5.66.05-1.71"/><path class="cls-27" d="M72.62,112.54l.8,3.1.15-2.23"/><path class="cls-27" d="M71.37,110.3a8,8,0,0,0-.27,2.6l.27-.74"/><path class="cls-27" d="M72.56,111.67a5.89,5.89,0,0,0,1.5,4.74l.34-1.12"/><path class="cls-27" d="M75,113.27a6.76,6.76,0,0,0,1.55,3.78l.41-.64"/><path class="cls-27" d="M77.28,113.53a15.73,15.73,0,0,0,1.08,7,2.76,2.76,0,0,0,.41-2.14"/><path class="cls-27" d="M78.26,117a8.73,8.73,0,0,0,1.07,4.82.68.68,0,0,0,.32-.73"/><path class="cls-27" d="M79.22,118.53a4.12,4.12,0,0,1,.44,1.5,3.73,3.73,0,0,0,.47,1.49,1.39,1.39,0,0,0,1.36.67.83.83,0,0,0,.59-1.19"/><path class="cls-27" d="M82.2,120.77a3.15,3.15,0,0,1,.59,1.54,2,2,0,0,0,.8,1.42c.49.29,1.31,0,1.27-.55"/><path class="cls-27" d="M85.8,122.43a12.26,12.26,0,0,0,.9,4,2.15,2.15,0,0,0,.12-3.08L86,125l-1.2-.6"/><path class="cls-27" d="M70.38,109.57a17.91,17.91,0,0,0,1.46,5.36,2.34,2.34,0,0,0-.1-2"/><path class="cls-27" d="M68.33,108.7a2.61,2.61,0,0,0,.88,2.67,4.27,4.27,0,0,0,.1-3.79"/><path class="cls-27" d="M65.63,101.89l.25.66a1.16,1.16,0,0,0,.51-.9"/><path class="cls-27" d="M58.34,95.69a1.19,1.19,0,0,0-.67-1.41.64.64,0,0,0,.25.89l1.21-1.79a10.72,10.72,0,0,1,.56,2.82,4.26,4.26,0,0,0,.18,1.27,1.2,1.2,0,0,0,.94.81c.44,0,.9-.37.79-.78"/><path class="cls-27" d="M66.48,101.53a1.58,1.58,0,0,0,.85,1.64"/><path class="cls-27" d="M67.68,102.63a8.69,8.69,0,0,0,2.53,4.47"/><path class="cls-27" d="M91.13,76.15a4.39,4.39,0,0,1,2.17,2.47"/><path class="cls-27" d="M92.85,76.06a3.41,3.41,0,0,1,1.41,3.29"/><path class="cls-27" d="M85,77.13a1.24,1.24,0,0,0-1.74.59,3.33,3.33,0,0,0-.06,2"/><path class="cls-27" d="M83.1,76.52a5,5,0,0,0,0,2.35"/><path class="cls-27" d="M83,77.63a1.12,1.12,0,0,0,.72,1.13A1.18,1.18,0,0,0,85,78.38"/><path class="cls-27" d="M85.14,77.76a2,2,0,0,0-.27,1.86"/><path class="cls-27" d="M98.14,122.06A2.3,2.3,0,0,0,97,120.5a85.08,85.08,0,0,0,1.31,10.33l-.28-2"/><path class="cls-27" d="M95.17,125.69A32.47,32.47,0,0,0,100,139.06a3,3,0,0,0-.37-2.14"/><path class="cls-27" d="M97.66,121.67a24.35,24.35,0,0,1,5.93,12c.31,1.74.26,3.87-1.25,4.86-1,.64-2.51.73-2.94,1.8a2.5,2.5,0,0,0,.69,2.32,16.4,16.4,0,0,0,6.41,5,1.34,1.34,0,0,0,.14-1.78"/><path class="cls-27" d="M98.11,120.62A12.21,12.21,0,0,1,101.28,134a10.42,10.42,0,0,0-1.19,3.7c0,1.83,1.36,3.38,2.81,4.55s3.1,2.2,4,3.78l-.52-1.76"/><path class="cls-27" d="M96.57,122.12a20,20,0,0,1,4.1,5.58,6.62,6.62,0,0,1-.48,6.57c-.89,1.14-2.34,2-2.52,3.44-.16,1.22.7,2.32,1.58,3.2a24.59,24.59,0,0,0,6.61,4.71,1.17,1.17,0,0,0-.36-1.62"/><path class="cls-27" d="M96.67,123.75a10.59,10.59,0,0,1,4.9,6.06,10.25,10.25,0,0,1-.72,7.67c-.65,1.24-1.57,2.42-1.62,3.81-.06,1.73,1.29,3.23,2.82,4.11a5.25,5.25,0,0,0,3,.82,2.67,2.67,0,0,0,2.39-1.71,1.79,1.79,0,0,0-1.47-2.25"/><path class="cls-27" d="M98,128.3a8.62,8.62,0,0,1,4.12,6.76c.16,2.79-1.09,5.56-.67,8.32a4.42,4.42,0,0,0,1.53,2.88,2.71,2.71,0,0,0,3.17.16,1.79,1.79,0,0,0,0-2.84"/><path class="cls-27" d="M93.54,127.3A11.05,11.05,0,0,1,101,135c.59,2.35.37,4.93,1.53,7.08a6.65,6.65,0,0,0,6.34,3.33"/><path class="cls-27" d="M104.12,117.42a10.57,10.57,0,0,1,1.41,4.67,19.43,19.43,0,0,0,.9,4.82,5.34,5.34,0,0,0,3.42,3.37,2.29,2.29,0,0,0,1.77-.17,1.17,1.17,0,0,0,.45-1.54"/><path class="cls-27" d="M105,114.2a15.73,15.73,0,0,1,3.69,10.58l0-.62"/><path class="cls-27" d="M106.79,113.54c3.68,4.28,3.41,10.6,6.19,15.48l.3-.72"/><path class="cls-27" d="M106.82,114.13a6,6,0,0,1,4.67,3.66,10.1,10.1,0,0,1,.38,6,7.66,7.66,0,0,0-.3,3,2.12,2.12,0,0,0,2.12,1.82,2,2,0,0,0,1.51-1.36,4.09,4.09,0,0,0,0-2.09"/><path class="cls-27" d="M112.85,113.07a25.34,25.34,0,0,1,4.93,12.64.84.84,0,0,0,.74-.63,2.34,2.34,0,0,0,0-1"/><path class="cls-27" d="M114.62,107.66a10.26,10.26,0,0,1,4.52,5.38,19.76,19.76,0,0,1,1.15,7c0,.39,0,.85.38,1.06a.83.83,0,0,0,1.11-.51,2.26,2.26,0,0,0-.07-1.34"/><path class="cls-27" d="M116.4,99a9.65,9.65,0,0,1,4.14,6.34,17.67,17.67,0,0,1-.4,7.64,4.42,4.42,0,0,0-.2,1.66,1.43,1.43,0,0,0,1,1.23,1.46,1.46,0,0,0,1.48-.78,4,4,0,0,0,.39-1.69"/><path class="cls-27" d="M117.06,93.55a14.3,14.3,0,0,1,3.89,12.76c-.58,2.86-2.06,5.82-1,8.56a1.17,1.17,0,0,0,.75-1.22"/><path class="cls-27" d="M118.17,94.46a16.84,16.84,0,0,1-.76-6c2.64,2.44,2.9,6.4,2.71,9.93s-.58,7.32,1.23,10.39a2.81,2.81,0,0,0,1.08-3.24"/><path class="cls-27" d="M118.09,88.14a22.69,22.69,0,0,1,3,21.63"/><path class="cls-27" d="M118,97.68l-1.52-1.6a34.6,34.6,0,0,1,4.23,8.12,11.47,11.47,0,0,1-.49,8.88c-.77,1.4-1.93,2.59-2.58,4.06s-.59,3.42.74,4.35a1.88,1.88,0,0,0,1.81.25,1.16,1.16,0,0,0,.6-1.55"/><path class="cls-27" d="M116.18,102.16c-1.63,1.09-1.63,3.41-1.34,5.31a47.74,47.74,0,0,0,2.31,9,7.9,7.9,0,0,1,.76,3.79,2.57,2.57,0,0,1-2.7,2.29,11.84,11.84,0,0,1-1.37-.5,1.28,1.28,0,0,0-1.36.24,1.41,1.41,0,0,0,0,1.4,10.51,10.51,0,0,0,3.42,4.48,1.22,1.22,0,0,0-.56-1.6"/><path class="cls-27" d="M67.17,109.79l.62.12A6.4,6.4,0,0,1,66,114.83a3.85,3.85,0,0,0-1.14,1.46c-.33,1.13.75,2.13,1.62,3a13.83,13.83,0,0,1,3.62,5.64l-.53-.42"/><path class="cls-27" d="M66.1,106.79a17.3,17.3,0,0,1,3.25,5.93c.53,2.19,0,4.78-1.86,6.12-1,.72-2.46,1.19-2.71,2.38a2.13,2.13,0,0,0,.86,2,6.65,6.65,0,0,0,2.1,1"/><path class="cls-27" d="M65.94,105.74a34.57,34.57,0,0,1,.75,15.52,2.35,2.35,0,0,0,2.14.81"/><path class="cls-1" d="M121.95,60c-1.1,7.21.57,13.42,3.73,13.87s-1.48-8.14,4.43-12.63c5.73-4.34,2.7-13-.46-13.47S123,52.76,121.95,60Z"/><path class="cls-28" d="M132.33,54.19c0,1.66-1.38,5.07-3.09,5.07s-3.09-3.42-3.09-5.07,1.38-4.74,3.09-4.74S132.33,52.53,132.33,54.19Z"/><path class="cls-28" d="M124.71,61.92c-.6,1.74-.47,3.36.3,3.61s1.88-1,2.48-2.7.47-3.36-.3-3.61S125.31,60.18,124.71,61.92Z"/><ellipse class="cls-2" cx="57.68" cy="75.42" rx="3.02" ry="3.45"/><path class="cls-1" d="M61.72,60.87c1.1,7.21-.57,13.42-3.73,13.87s1.48-8.14-4.43-12.63c-5.73-4.34-2.7-13,.46-13.47S60.62,53.66,61.72,60.87Z"/><path class="cls-28" d="M50.72,55.28c0,1.66,1.38,5.07,3.09,5.07s3.09-3.42,3.09-5.07-1.38-4.74-3.09-4.74S50.72,53.62,50.72,55.28Z"/><path class="cls-28" d="M59,62.82c.6,1.74.47,3.36-.3,3.61s-1.88-1-2.48-2.7-.47-3.36.3-3.61S58.36,61.08,59,62.82Z"/></g></g></svg>