<svg xmlns="http://www.w3.org/2000/svg" width="210" height="200.86" viewBox="0 0 210 200.86"><defs><style>.cls-1,.cls-7{fill:none;}.cls-1{stroke:#e6e6e6;stroke-width:3px;}.cls-1,.cls-3,.cls-4,.cls-5,.cls-6{stroke-miterlimit:10;}.cls-2{fill:#ff6c73;}.cls-3{fill:#e02482;stroke:#ef3793;}.cls-3,.cls-4,.cls-5,.cls-6{stroke-width:7px;}.cls-4{fill:#6ce582;stroke:#bbf9c8;}.cls-5{fill:#ffda8f;stroke:#f9f3bb;}.cls-6{fill:#ff8a8a;stroke:#f9bbbb;}</style></defs><title>img-sm</title><g id="Layer_2" data-name="Layer 2"><g id="Layer_1-2" data-name="Layer 1"><line class="cls-1" x1="105.48" y1="147.74" x2="16.29" y2="84"/><line class="cls-1" x1="105.48" y1="147.74" x2="31.64" y2="26"/><line class="cls-1" x1="85.39" y1="34.67" x2="105.48" y2="147.74"/><line class="cls-1" x1="126.82" y1="41" x2="105.48" y2="147.74"/><line class="cls-1" x1="173.07" y1="16.5" x2="105.48" y2="147.74"/><line class="cls-1" x1="194" y1="72" x2="105.48" y2="147.74"/><path class="cls-2" d="M66.69,192.91c0,10.24,16.75,7.66,37.91,7.66s38.71,2.58,38.71-7.66-17.55-29.44-38.71-29.44S66.69,182.66,66.69,192.91Z"/><circle class="cls-2" cx="105" cy="147.74" r="17.74"/><circle class="cls-3" cx="126.82" cy="41" r="12"/><circle class="cls-4" cx="85.39" cy="34.67" r="12"/><circle class="cls-5" cx="194" cy="71" r="12"/><circle class="cls-6" cx="173.07" cy="16.5" r="12"/><circle class="cls-4" cx="16.29" cy="84" r="12"/><circle class="cls-5" cx="31.64" cy="26" r="12"/><rect class="cls-7" width="210" height="200.86"/></g></g></svg>