<svg xmlns="http://www.w3.org/2000/svg" width="121" height="201" viewBox="0 0 121 201"><defs><style>.cls-1{fill:#fff46f;}.cls-2{fill:#fba900;}</style></defs><title>img-resume_2</title><g id="Layer_2" data-name="Layer 2"><g id="Layer_1-2" data-name="Layer 1"><polygon class="cls-1" points="104.1 24.16 79.83 0 0 0 0 201 121 201 121 40.97 104.1 24.16"/><polygon class="cls-2" points="120.5 41 120.5 40.47 104.1 24.16 79.83 0 79.5 0 79.5 41 120.5 41"/><rect class="cls-2" x="10.5" y="8" width="62" height="19"/><rect class="cls-2" x="10.5" y="47" width="102" height="11"/><rect class="cls-2" x="10.5" y="62" width="28" height="6"/><rect class="cls-2" x="10.5" y="71" width="102" height="6"/><rect class="cls-2" x="10.5" y="82" width="102" height="11"/><rect class="cls-2" x="10.5" y="97" width="28" height="6"/><rect class="cls-2" x="10.5" y="106" width="102" height="6"/><rect class="cls-2" x="10.5" y="117" width="102" height="11"/><rect class="cls-2" x="10.5" y="132" width="28" height="6"/><rect class="cls-2" x="10.5" y="141" width="102" height="6"/><rect class="cls-2" x="10.5" y="152" width="102" height="11"/><rect class="cls-2" x="10.5" y="167" width="42" height="6"/><rect class="cls-2" x="10.5" y="176" width="102" height="6"/><rect class="cls-2" x="10.5" y="33" width="62" height="7"/></g></g></svg>