<svg xmlns="http://www.w3.org/2000/svg" width="210" height="200" viewBox="0 0 210 200"><defs><style>.cls-1{fill:#e6e6e6;}.cls-2{fill:#72dd5f;}.cls-3{fill:#8bea78;}.cls-4{fill:#f257e7;}.cls-5{fill:#61d650;}</style></defs><title>img-email_4</title><g id="Layer_2" data-name="Layer 2"><g id="Layer_1-2" data-name="Layer 1"><rect class="cls-1" y="85" width="210" height="115"/><polygon class="cls-2" points="105 86 0 86 52.5 43 105 0 157.5 43 210 86 105 86"/><polygon class="cls-3" points="105 85 210 85 157.5 128 105 171 52.5 128 0 85 105 85"/><rect class="cls-4" x="13" y="99" width="182" height="101"/><polygon class="cls-5" points="0 143.1 0 86.2 52 114.65 104 143.1 52 171.55 0 200 0 143.1"/><polygon class="cls-5" points="210 142.1 210 199 158 170.55 106 142.1 158 113.65 210 85.2 210 142.1"/><rect class="cls-5" y="142" width="210" height="58"/></g></g></svg>