<svg id="Layer_1" data-name="Layer 1" xmlns="http://www.w3.org/2000/svg" width="1920" height="1080" viewBox="0 0 1920 1080"><defs><style>.cls-1{fill:none;}.cls-1,.cls-2{stroke:#e5e5e5;stroke-miterlimit:10;stroke-width:4px;}.cls-2{fill:#b3b3b3;}</style></defs><title>img-bg-skills</title><path class="cls-1" d="M625,725a12,12,0,0,1-12,12H-3a12,12,0,0,1-12-12"/><path class="cls-1" d="M625.5,726,625,378a12,12,0,0,1,12-12h572a12,12,0,0,1,12,12V950"/><circle class="cls-2" cx="1221" cy="950" r="11"/><circle class="cls-1" cx="1221" cy="950" r="15"/><circle class="cls-1" cx="1221" cy="950" r="20.5"/><path class="cls-1" d="M284,366H613a12,12,0,0,1,12,12V576"/><circle class="cls-2" cx="285" cy="365" r="11"/><circle class="cls-1" cx="285" cy="365" r="15"/><circle class="cls-1" cx="285" cy="365" r="20.5"/><path class="cls-1" d="M824.5,365.5a12,12,0,0,1-12-12v-189a12,12,0,0,1,12-12h826a12,12,0,0,1,12,12v189"/><circle class="cls-2" cx="1663" cy="353" r="11"/><circle class="cls-1" cx="1663" cy="353" r="15"/><circle class="cls-1" cx="1663" cy="353" r="20.5"/><path class="cls-1" d="M1635.5,710.5h-403a12,12,0,0,1-12-12v-278"/><circle class="cls-2" cx="1643" cy="711" r="11"/><circle class="cls-1" cx="1643" cy="711" r="15"/><circle class="cls-1" cx="1643" cy="711" r="20.5"/><path class="cls-1" d="M178.5,1000.5h434a12,12,0,0,0,12-12v-304"/><circle class="cls-2" cx="178" cy="1001" r="11"/><circle class="cls-1" cx="178" cy="1001" r="15"/><circle class="cls-1" cx="178" cy="1001" r="20.5"/><path class="cls-1" d="M1220.5,508.5v268a12,12,0,0,1-12,12h-444a12,12,0,0,1-12-12v-268"/><circle class="cls-2" cx="752" cy="508" r="11"/><circle class="cls-1" cx="752" cy="508" r="15"/><circle class="cls-1" cx="752" cy="508" r="20.5"/></svg>