<svg xmlns="http://www.w3.org/2000/svg" width="195" height="198.31" viewBox="0 0 195 198.31"><defs><style>.cls-1{fill:#ffd82b;}.cls-2{fill:#00bf88;}.cls-3,.cls-4,.cls-5,.cls-6,.cls-7{fill:none;stroke-width:10px;}.cls-3{stroke:#ff816e;}.cls-11,.cls-12,.cls-13,.cls-14,.cls-15,.cls-16,.cls-3,.cls-4,.cls-5,.cls-6,.cls-7{stroke-miterlimit:10;}.cls-4{stroke:#56d5ff;}.cls-5{stroke:#00bf88;}.cls-6{stroke:#ffd82b;}.cls-7{stroke:#c388ff;}.cls-8{fill:#56d5ff;}.cls-9{fill:#ff816e;}.cls-10,.cls-12{fill:#c388ff;}.cls-11{fill:#db61d0;stroke:#f987e8;}.cls-11,.cls-12,.cls-13,.cls-14,.cls-15,.cls-16{stroke-width:7px;}.cls-12{stroke:#d9bbfc;}.cls-13{fill:#8a9eff;stroke:#bbc6f9;}.cls-14{fill:#6ce582;stroke:#bbf9c8;}.cls-15{fill:#ff8a8a;stroke:#f9bbbb;}.cls-16{fill:#ffda8f;stroke:#f9f3bb;}</style></defs><title>img-social-media</title><g id="Layer_2" data-name="Layer 2"><g id="Layer_1-2" data-name="Layer 1"><polygon class="cls-1" points="61.04 105.58 51.27 105.58 56.16 98.53 61.04 91.48 65.93 98.53 70.81 105.58 61.04 105.58"/><polygon class="cls-2" points="123 90.09 113.23 90.09 118.12 83.05 123 76 127.89 83.05 132.78 90.09 123 90.09"/><path class="cls-3" d="M185,193H128.19a1.91,1.91,0,0,1-1.61-2.1V137.17a1.91,1.91,0,0,1,1.61-2.1h34.68"/><path class="cls-4" d="M111.53,198V124.34a2.54,2.54,0,0,1,2.73-2.28h31.79"/><path class="cls-5" d="M96.48,198V111.07a2.54,2.54,0,0,1,2.73-2.28h21.09a2.54,2.54,0,0,0,2.73-2.28V89.62"/><path class="cls-6" d="M81.44,198V123.2a2.54,2.54,0,0,0-2.73-2.28H62.92a2.54,2.54,0,0,1-2.73-2.28V104.37"/><path class="cls-7" d="M0,193.31H64.16A2.25,2.25,0,0,0,66.39,191V132.92a2.25,2.25,0,0,0-2.23-2.28H25.67"/><polygon class="cls-8" points="142.51 121.65 142.51 113.51 150.97 117.58 159.43 121.65 150.97 125.72 142.51 129.79 142.51 121.65"/><polygon class="cls-9" points="156 134.66 156 126.52 164.46 130.59 172.92 134.66 164.46 138.73 156 142.79 156 134.66"/><polygon class="cls-10" points="32.75 130.97 32.75 139.11 24.29 135.04 15.83 130.97 24.29 126.9 32.75 122.83 32.75 130.97"/><circle class="cls-11" cx="58.5" cy="76.5" r="12"/><circle class="cls-12" cx="92.5" cy="83.5" r="12"/><circle class="cls-13" cx="91.5" cy="46.5" r="12"/><circle class="cls-14" cx="57.5" cy="42.5" r="12"/><circle class="cls-15" cx="24.5" cy="107.5" r="12"/><circle class="cls-14" cx="122.5" cy="59.5" r="12"/><circle class="cls-13" cx="148.5" cy="95.5" r="12"/><circle class="cls-12" cx="179.5" cy="115.5" r="12"/><circle class="cls-11" cx="179.5" cy="83.5" r="12"/><circle class="cls-16" cx="154.5" cy="61.5" r="12"/><circle class="cls-15" cx="139.5" cy="30.5" r="12"/><circle class="cls-14" cx="18.5" cy="75.5" r="12"/><circle class="cls-16" cx="23.5" cy="44.5" r="12"/><circle class="cls-16" cx="75.5" cy="15.5" r="12"/></g></g></svg>