<svg xmlns="http://www.w3.org/2000/svg" width="376.78" height="606.5" viewBox="0 0 376.78 606.5"><defs><style>.cls-1{fill:#f2f2f2;}.cls-2{fill:#e6e6e6;}</style></defs><title>img-wrench_1</title><g id="Layer_2" data-name="Layer 2"><g id="Layer_1-2" data-name="Layer 1"><path class="cls-1" d="M345.68,13.5,304.89,89.79a12,12,0,0,1-16.24,4.92l-67-35.84c-16.71,31.24,6,58.77-7,91.52L5.18,542.14a43.77,43.77,0,0,0,18,59.24h0a43.23,43.23,0,0,0,58.51-17.74L291.37,191.42c17.26-25.92,54.65-25.86,71.36-57.1C386.93,89.05,379,36.95,345.68,13.5ZM30.95,585.14a28,28,0,1,1,37.89-11.49A28,28,0,0,1,30.95,585.14Z"/><path class="cls-2" d="M76.14,500.64a49.24,49.24,0,0,1,12.12,9.15l154-298.62c3.81-7.13,6.19-13.3-.13-16.68l-2.62-1.4c-6.35-3.4-12.47,2-16.3,9.18L62.83,495.83A49.24,49.24,0,0,1,76.14,500.64Z"/><path class="cls-2" d="M222.51,58.52a7.82,7.82,0,0,0,1.44,1l52.33,28.5c5.16,2.81,12.52-.68,16.37-7.74L332.88,6.45C297.92-12.22,248.76,11,222.51,58.52Z"/><path class="cls-2" d="M274,123.14a11.54,11.54,0,0,0-5.88-12.22l-17.64-9.43A11.54,11.54,0,0,0,237,103.39L215.43,91.85c1.18,17.48,6.53,34.79.86,53.76l78.12,41.77c11.51-13.81,29.33-19.57,44.9-29.29Z"/><rect class="cls-1" x="236.9" y="133.5" width="39" height="7" rx="2" ry="2" transform="translate(14.68 298.51) rotate(-61.87)"/><rect class="cls-1" x="225.44" y="127.37" width="39" height="7" rx="2" ry="2" transform="translate(14.03 285.16) rotate(-61.87)"/><rect class="cls-1" x="213.97" y="121.24" width="39" height="7" rx="2" ry="2" transform="translate(13.38 271.81) rotate(-61.87)"/></g></g></svg>