<svg xmlns="http://www.w3.org/2000/svg" width="460.59" height="548.83" viewBox="0 0 460.59 548.83"><defs><style>.cls-1,.cls-3{fill:#f32f3c;}.cls-2{fill:none;}.cls-2,.cls-3{stroke:#f32f3c;stroke-miterlimit:10;}</style></defs><title>img-silo-balloon</title><g id="Layer_2" data-name="Layer 2"><g id="Hot_Air_Balloon" data-name="Hot Air Balloon"><polygon class="cls-1" points="261.24 482.79 200.31 482.79 197.55 465.25 264.93 465.25 261.24 482.79"/><path class="cls-2" d="M246.47,498.94h-27a27.8,27.8,0,0,0-3.93,13.85c0,10.71,8.06,19.39,18,19.39s18-8.68,18-19.39a26.35,26.35,0,0,0-4.33-13.88C247,498.92,246.72,498.94,246.47,498.94Z"/><path class="cls-1" d="M351,17.79a162.73,162.73,0,0,0-66-17.6L284.62,0H176l-.31.19a162.73,162.73,0,0,0-66,17.6C39,46.31-13.76,116,3.19,191.55c4.57,20.37,12.24,51.6,19.39,70.16C36.66,298.31,73.39,345,96,371.09c11.08,12.79,31,31.83,43.39,44.31,14.46,14.54,23.67,24,45.23,39.69h39.69v-.41l.05.41H276c21.56-15.69,30.77-25.15,45.23-39.69,12.41-12.48,32.3-31.52,43.39-44.31,22.57-26,67.15-90.78,81.23-127.39,7.14-18.56,7-31.78,11.54-52.16C474.36,116,421.58,46.31,351,17.79Z"/><rect class="cls-3" x="221.55" y="495.71" width="23.08" height="7.38" rx="2.52" ry="2.52"/><path class="cls-3" d="M247.89,520.87a12.76,12.76,0,0,1-5,3,11.33,11.33,0,0,1-3.33.5H227.83a8.42,8.42,0,0,1-3.81-.92,9.32,9.32,0,0,1-1.17-.7L216,517.86v28.19a2.27,2.27,0,0,0,2.27,2.27h30.46a2.35,2.35,0,0,0,2.35-2.35V517.86Z"/><line class="cls-2" x1="219.7" y1="499.4" x2="200.31" y2="482.79"/><line class="cls-2" x1="219.7" y1="499.4" x2="211.85" y2="482.33"/><line class="cls-2" x1="218.78" y1="499.4" x2="226.16" y2="483.71"/><line class="cls-2" x1="246.47" y1="499.4" x2="261.24" y2="482.79"/><line class="cls-2" x1="246.93" y1="498.94" x2="254.32" y2="482.33"/><line class="cls-2" x1="247.39" y1="499.4" x2="238.16" y2="483.71"/><circle class="cls-1" cx="198.93" cy="460.17" r="1.38"/><circle class="cls-1" cx="203.55" cy="460.17" r="1.38"/><path class="cls-1" d="M184.62,455.09l12.92,10.15h67.32L276,455.09Zm14.31,6.46a1.38,1.38,0,1,1,1.38-1.38A1.38,1.38,0,0,1,198.93,461.56Zm4.62,0a1.38,1.38,0,1,1,1.38-1.38A1.38,1.38,0,0,1,203.55,461.56Zm4.62,0a1.38,1.38,0,1,1,1.38-1.38A1.38,1.38,0,0,1,208.16,461.56Zm4.62,0a1.38,1.38,0,1,1,1.38-1.38A1.38,1.38,0,0,1,212.78,461.56Zm4.62,0a1.38,1.38,0,1,1,1.38-1.38A1.38,1.38,0,0,1,217.39,461.56Zm4.62,0a1.38,1.38,0,1,1,1.38-1.38A1.38,1.38,0,0,1,222,461.56Zm4.62,0a1.38,1.38,0,1,1,1.38-1.38A1.38,1.38,0,0,1,226.62,461.56Zm4.62,0a1.38,1.38,0,1,1,1.38-1.38A1.38,1.38,0,0,1,231.24,461.56Zm4.62,0a1.38,1.38,0,1,1,1.38-1.38A1.38,1.38,0,0,1,235.85,461.56Zm4.62,0a1.38,1.38,0,1,1,1.38-1.38A1.38,1.38,0,0,1,240.47,461.56Zm4.62,0a1.38,1.38,0,1,1,1.38-1.38A1.38,1.38,0,0,1,245.09,461.56Zm4.62,0a1.38,1.38,0,1,1,1.38-1.38A1.38,1.38,0,0,1,249.7,461.56Zm4.62,0a1.38,1.38,0,1,1,1.38-1.38A1.38,1.38,0,0,1,254.32,461.56Zm4.62,0a1.38,1.38,0,1,1,1.38-1.38A1.38,1.38,0,0,1,258.93,461.56Z"/><path class="cls-1" d="M231.24,468c16.33,0,29.94.16,33,.37l.66-3.14H197.55l.5,3.15C200.77,468.18,214.59,468,231.24,468Z"/><polygon class="cls-1" points="198.06 468.48 200.31 482.79 261.24 482.79 264.25 468.48 198.06 468.48"/><ellipse class="cls-1" cx="230.78" cy="482.79" rx="30.46" ry="0.92"/><path class="cls-3" d="M229.47,522c0-1.45-.31-3.77-.91-4.59h0l2.75,2.75-.92-2.77a41.08,41.08,0,0,1-.9-4.76,7.28,7.28,0,0,0-1-2.64.61.61,0,0,0-.5-.36l-1.81.75-.09,0-1.21.5v.92h.78c0,.81.14,1.82.14,2.77,0,1.94.31,2.78.94,3.12a5.79,5.79,0,0,0-1.16,2.42l1.14,1.62V524l-.5.52c-.21.22-.3.49-.2.59s.37,0,.59-.22l.17-.18h1.78A4.44,4.44,0,0,0,229.47,522Z"/><path class="cls-3" d="M242.4,508.78v-1h-3.52a1.09,1.09,0,0,0-.81.36c-.57.62-1.66,1.9-1.66,2.64v3l.22-.15a6.43,6.43,0,0,0-.24,1.87,4.94,4.94,0,0,0-.73.61c-1,1-.66,3.16-.65,5a8.05,8.05,0,0,0,.92,3.69h4.62v-3.69l.92-3.69a2.41,2.41,0,0,0-1.09-1.68,2.86,2.86,0,0,0,1.94-2.92c0-1.54-.24-3.27-1.35-4h1.43Z"/></g></g></svg>