<svg id="Layer_1" data-name="Layer 1" xmlns="http://www.w3.org/2000/svg" width="152" height="200.89" viewBox="0 0 152 200.89"><defs><style>.cls-1{fill:#a67c52;}.cls-2{fill:#accce8;}.cls-3{fill:#fff664;}.cls-4{fill:#fca900;}.cls-5,.cls-6{fill:none;stroke-miterlimit:10;}.cls-5{stroke:#fca900;stroke-width:4px;}.cls-6{stroke:#39b54a;stroke-width:5px;}.cls-7{fill:#e6e6e6;}.cls-8{fill:#7abae5;}</style></defs><title>img-quality</title><g id="Layer_2" data-name="Layer 2"><g id="Layer_1-2" data-name="Layer 1-2"><path class="cls-1" d="M0,103v91.06a6.86,6.86,0,0,0,6.86,6.83H145.14a6.86,6.86,0,0,0,6.86-6.83V103Z"/><rect class="cls-2" y="6.83" width="152" height="194.06" rx="12" ry="12"/><rect class="cls-3" x="8.62" y="12.3" width="133.13" height="181.76"/><rect class="cls-4" x="62.52" y="21.41" width="71.69" height="9.57"/><rect class="cls-4" x="62.52" y="46.46" width="71.69" height="9.57"/><rect class="cls-4" x="62.52" y="71.52" width="71.69" height="9.57"/><rect class="cls-4" x="62.52" y="96.57" width="71.69" height="9.57"/><rect class="cls-4" x="62.52" y="121.63" width="71.69" height="9.57"/><rect class="cls-4" x="12.4" y="146.68" width="121.82" height="9.57"/><rect class="cls-4" x="12.94" y="163.99" width="121.82" height="9.57"/><rect class="cls-4" x="14.01" y="181.3" width="121.82" height="9.57"/><rect class="cls-5" x="22.64" y="18.22" width="17.25" height="14.58"/><rect class="cls-5" x="22.64" y="43.73" width="17.25" height="14.58"/><rect class="cls-5" x="22.64" y="69.24" width="17.25" height="14.58"/><rect class="cls-5" x="22.64" y="94.3" width="17.25" height="14.58"/><rect class="cls-5" x="22.64" y="119.35" width="17.25" height="14.58"/><polyline class="cls-6" points="25.33 48.16 33.8 55.43 44.2 38.72"/><polyline class="cls-6" points="25.33 23.56 33.8 30.83 44.2 14.12"/><path class="cls-7" d="M101.09,0H60.61C53.78,0,48.24,4.68,48.24,10.46v5.26h64.14V9.55C112.38,4.27,107.33,0,101.09,0ZM80.31,5.92a3,3,0,0,1-3.23-2.73,3.28,3.28,0,0,1,6.47,0A3,3,0,0,1,80.31,5.92Z"/><path class="cls-8" d="M6.86,200.89H145.14a6.86,6.86,0,0,0,6.86-6.83H0A6.86,6.86,0,0,0,6.86,200.89Z"/></g></g></svg>