<svg id="Layer_1" data-name="Layer 1" xmlns="http://www.w3.org/2000/svg" width="163" height="200.57" viewBox="0 0 163 200.57"><defs><style>.cls-1{fill:#006805;}.cls-2{fill:#fff;}</style></defs><title>img-gear</title><g id="Layer_2" data-name="Layer 2"><g id="Layer_1-2" data-name="Layer 1-2"><path class="cls-1" d="M128.74,171.51a31.9,31.9,0,0,0,10.68-17,87.93,87.93,0,0,1,20.16,12.57,54,54,0,0,1-9.7,15.46A84.42,84.42,0,0,1,128.74,171.51Z"/><path class="cls-1" d="M102.35,177.69a30.92,30.92,0,0,0,10.12.65,30.55,30.55,0,0,0,9.73-2.71,69.78,69.78,0,0,1,2.3,22.79,55,55,0,0,1-9.53,1.86,56.43,56.43,0,0,1-9.71.13A71.49,71.49,0,0,1,102.84,189,67.77,67.77,0,0,1,102.35,177.69Z"/><path class="cls-1" d="M81.29,160.44a33.74,33.74,0,0,0,2.53,4.44A31.52,31.52,0,0,0,95.14,175,79,79,0,0,1,76.8,189.89,54.77,54.77,0,0,1,64,176.44,84.24,84.24,0,0,1,81.29,160.44Z"/><path class="cls-1" d="M81.29,133.1a30.49,30.49,0,0,0-1.78,4.78,29.86,29.86,0,0,0-1,5,33,33,0,0,0,.38,10.21,93.76,93.76,0,0,1-23.78-3.77,54.82,54.82,0,0,1,.33-8.93,51.16,51.16,0,0,1,1.81-8.8A91.4,91.4,0,0,1,81.29,133.1Z"/><path class="cls-1" d="M102.35,115.85a31,31,0,0,0-16.94,10.68,79.08,79.08,0,0,1-12.76-19.45A54.68,54.68,0,0,1,88.66,97,72.85,72.85,0,0,1,102.35,115.85Z"/><path class="cls-1" d="M128.74,122a31.34,31.34,0,0,0-8.74-5,30.25,30.25,0,0,0-9.93-1.9,69.59,69.59,0,0,1,3.62-10.84,73,73,0,0,1,5.48-10.37,54,54,0,0,1,18,6.7A74.33,74.33,0,0,1,128.74,122Z"/><path class="cls-1" d="M140.35,146.77a32.2,32.2,0,0,0-6.27-19.11,89.23,89.23,0,0,1,23.3-5.87A53.45,53.45,0,0,1,163,138.9,93.38,93.38,0,0,1,140.35,146.77Z"/><path class="cls-2" d="M109.31,104.7a42.07,42.07,0,1,0,42,42.14v-.07a42,42,0,0,0-41.93-42.07Zm0,57.42a15.35,15.35,0,1,1,15.31-15.39v0a15.33,15.33,0,0,1-15.31,15.35Z"/><path class="cls-1" d="M51.84,122.27a22.55,22.55,0,0,0,7.51-12,61.81,61.81,0,0,1,14.18,8.88A38.15,38.15,0,0,1,66.71,130,59.3,59.3,0,0,1,51.84,122.27Z"/><path class="cls-1" d="M33.28,126.63a21.66,21.66,0,0,0,7.12.46,21.42,21.42,0,0,0,6.85-1.91,49.49,49.49,0,0,1,1.62,16.1,38.52,38.52,0,0,1-6.71,1.32,39.53,39.53,0,0,1-6.83.09,50.68,50.68,0,0,1-1.71-8A48.07,48.07,0,0,1,33.28,126.63Z"/><path class="cls-1" d="M18.47,114.45a23.86,23.86,0,0,0,1.78,3.13,22.1,22.1,0,0,0,2.26,2.81,21.8,21.8,0,0,0,5.7,4.34,55.59,55.59,0,0,1-12.9,10.49,38.62,38.62,0,0,1-9-9.48A59.35,59.35,0,0,1,18.47,114.45Z"/><path class="cls-1" d="M18.47,95.13a21.59,21.59,0,0,0-1.25,3.37,21.17,21.17,0,0,0-.71,3.53,23.37,23.37,0,0,0,.27,7.21A65.7,65.7,0,0,1,0,106.59a38.88,38.88,0,0,1,.23-6.31,36.27,36.27,0,0,1,1.28-6.22A64,64,0,0,1,18.47,95.13Z"/><path class="cls-1" d="M33.28,82.95a21.78,21.78,0,0,0-11.91,7.54,55.88,55.88,0,0,1-9-13.74,38.44,38.44,0,0,1,11.26-7.12A51.46,51.46,0,0,1,33.28,82.95Z"/><path class="cls-1" d="M51.84,87.31a22,22,0,0,0-6.18-3.58,21.2,21.2,0,0,0-7-1.34,49.3,49.3,0,0,1,2.54-7.66A51.63,51.63,0,0,1,45,67.41,37.86,37.86,0,0,1,57.7,72.14,52.64,52.64,0,0,1,51.84,87.31Z"/><path class="cls-1" d="M60,104.79a22.81,22.81,0,0,0-4.41-13.5A62.56,62.56,0,0,1,72,87.15a37.87,37.87,0,0,1,4,12.09A65.5,65.5,0,0,1,60,104.79Z"/><path class="cls-2" d="M38.17,75.07A29.72,29.72,0,1,0,67.68,105q0-.1,0-.21A29.62,29.62,0,0,0,38.17,75.07Zm0,39.88a10.17,10.17,0,1,1,10.1-10.24v.07a10.13,10.13,0,0,1-10,10.22h-.06Z"/><path class="cls-1" d="M117.48,81a32.39,32.39,0,0,0,15.23-12.92A83.5,83.5,0,0,1,147.82,85.5,54.85,54.85,0,0,1,134,97.23,80.35,80.35,0,0,1,117.48,81Z"/><path class="cls-1" d="M90.79,79.34a30.11,30.11,0,0,0,9.31,3.46,30.45,30.45,0,0,0,10,.21,68.39,68.39,0,0,1-4.78,22,54.51,54.51,0,0,1-9.53-.94,55.26,55.26,0,0,1-9.16-2.61,69.52,69.52,0,0,1,1.19-11.32A66.7,66.7,0,0,1,90.79,79.34Z"/><path class="cls-1" d="M76.27,57.28a32.22,32.22,0,0,0,1,4.86,29.73,29.73,0,0,0,1.81,4.62,29.37,29.37,0,0,0,5.74,8A80.23,80.23,0,0,1,63,83.5a52,52,0,0,1-7.91-16.15A85.71,85.71,0,0,1,76.27,57.28Z"/><path class="cls-1" d="M84.6,31.7a30.77,30.77,0,0,0-3.13,4A29.87,29.87,0,0,0,79,40.06a32.44,32.44,0,0,0-2.76,9.66A90.74,90.74,0,0,1,55,39.49a54.26,54.26,0,0,1,3-8.26,51.2,51.2,0,0,1,4.39-7.73A89,89,0,0,1,84.6,31.7Z"/><path class="cls-1" d="M109.64,21.48A31.34,31.34,0,0,0,90.47,26.7,75.34,75.34,0,0,1,84.41,4.92,55.35,55.35,0,0,1,102.52,0,69.3,69.3,0,0,1,109.64,21.48Z"/><path class="cls-1" d="M132.56,34.7a29.79,29.79,0,0,0-6.71-7.22,29.22,29.22,0,0,0-8.76-4.57,70.11,70.11,0,0,1,6.7-9.13,74,74,0,0,1,8.3-8.16A51.62,51.62,0,0,1,147,17,75.05,75.05,0,0,1,132.56,34.7Z"/><path class="cls-1" d="M135.93,61.11a31.11,31.11,0,0,0-.07-19.65,88.82,88.82,0,0,1,23.68,1.07,51.62,51.62,0,0,1,.06,17.59A93.46,93.46,0,0,1,135.93,61.11Z"/><path class="cls-2" d="M119.58,13A42.48,42.48,0,0,0,67.33,40.56,40.11,40.11,0,0,0,92.65,91.32l1.29.41a42.48,42.48,0,0,0,52.25-27.55,40.11,40.11,0,0,0-25.3-50.77Zm-.83,43a12.92,12.92,0,0,1-15.89,8.38,12.2,12.2,0,0,1-8.21-15.17l.12-.39a12.92,12.92,0,0,1,15.89-8.38,12.2,12.2,0,0,1,8.21,15.17Z"/></g></g></svg>