<svg xmlns="http://www.w3.org/2000/svg" xmlns:xlink="http://www.w3.org/1999/xlink" width="213.85" height="295.75" viewBox="0 0 213.85 295.75"><defs><style>.cls-1{fill:#edbfae;}.cls-1,.cls-11,.cls-2,.cls-6,.cls-7,.cls-8{stroke:#000;}.cls-1,.cls-10,.cls-11,.cls-13,.cls-15,.cls-2,.cls-27,.cls-29,.cls-30,.cls-31,.cls-32,.cls-34,.cls-6,.cls-7,.cls-8{stroke-miterlimit:10;}.cls-1,.cls-10,.cls-11,.cls-2,.cls-6,.cls-7,.cls-8{stroke-width:0.25px;}.cls-10,.cls-3{fill:#fff;}.cls-4{fill:#d1948e;}.cls-5{fill:#5c7193;}.cls-6{fill:#6b3e1f;}.cls-7{fill:#f6cdb9;}.cls-21,.cls-27,.cls-29,.cls-30,.cls-32,.cls-8{fill:none;}.cls-9{fill:#b28a8a;}.cls-10{stroke:#fff;}.cls-11{fill:#e39999;}.cls-12{fill:#ccc;}.cls-13,.cls-25{fill:#f2f2f2;}.cls-13,.cls-27,.cls-31{stroke:#999;}.cls-14{fill:#ced5db;}.cls-15,.cls-19{fill:#c2c8cc;}.cls-15,.cls-34{stroke:#b3b3b3;}.cls-16,.cls-31{fill:#b3b3b3;}.cls-17{fill:#c1272d;}.cls-18{fill:#00c27b;}.cls-20{fill:#eaeff4;}.cls-22{fill:#f74b4b;}.cls-23{fill:#666;}.cls-24{fill:#999;}.cls-26{fill:#e6e6e6;}.cls-27{stroke-width:6px;}.cls-28{fill:gray;}.cls-29{stroke:gray;}.cls-30{stroke:#c2c8cc;stroke-width:0.5px;}.cls-32{stroke:#4d4d4d;}.cls-33,.cls-34{fill:#4d4d4d;}.cls-35{fill:url(#radial-gradient);}.cls-36{opacity:0.49;}</style><radialGradient id="radial-gradient" cx="-67.28" cy="1223.97" r="8.09" gradientTransform="translate(248.9 -245.3) scale(1.83 0.25)" gradientUnits="userSpaceOnUse"><stop offset="0.06" stop-color="#e0e0e0"/><stop offset="0.21" stop-color="#fff"/><stop offset="0.51" stop-color="#4f4f4f"/><stop offset="1"/></radialGradient></defs><title>img-astronaut</title><g id="Layer_2" data-name="Layer 2"><g id="HELMET"><path class="cls-1" d="M134.08,69.58c0,.09,9.59,2.79,9.59,2.79l4.47,1,5.93-2-.53,2.36-1.2,4.46.32.69.72,1,1,1-.11.81-.34.89-1.09,1.42-1.6,1.41-1.56,1.36-1.47,1-2.11.75-2.28.63-1.75.27-2.65-.57-2.53-1-2.23-1-1.48-1.3-1.58-1.85-.84-1.91-.32-2.37.37-2.38,1-1.32.36-.24Z"/><path d="M135,55.13l0-2.32.7-2.8,1.3-4.15,1.26-1.64,2.94-2.27a16.3,16.3,0,0,1,2.41-1.35c.21.06,4.24-.61,4.24-.61l3.38.17,2.44,1.06,2.45,1.94L158.35,45,160,46.83l1,2.87.32,2.37-.39,1.73L160.29,57l-.4,2.52L159.16,61l-1-1.52L157.66,57l-2.4-2.79-2.81-2.58L147.7,50l-3,.09-2.91.78-1.64.35-2.82.44-1.41,3.29Z"/><path class="cls-2" d="M159.68,65.24a9.48,9.48,0,0,1,0,2.09L159.16,69l-1.26,1.64-1.58.94-1.81,1-1.29-.22,1.51-9.67,2.09-3.39,2.18.17Z"/><path class="cls-1" d="M152.49,43.46l-8.12-1.69-.42,1.76,10,2.08h0A1.81,1.81,0,0,0,152.49,43.46Z"/><path class="cls-3" d="M139,55.83a3,3,0,0,1,.82-.4c.53-.22,2.86-.89,1.16-.23-.36.14.75.32,1.05.53a7.19,7.19,0,0,1,.87.74,2.78,2.78,0,0,0,.38.28c.09.06.31.24.27.35a1.14,1.14,0,0,1-.24,0L143.1,57c-.19-.06-.37-.14-.56-.19a3.08,3.08,0,0,0-1.05-.15,5,5,0,0,1-.88-.12,1.72,1.72,0,0,1-.39,0c-.17-.06-.33-.15-.5-.2s-.63-.27-.7-.56"/><path class="cls-3" d="M148.18,58c.29,0,.59.1.89.14a3.87,3.87,0,0,1,.91.22,3.72,3.72,0,0,0,1.85.45,3.94,3.94,0,0,1,.43,0,1,1,0,0,0,.41,0c-.22-.2-.42-.42-.63-.64a2.86,2.86,0,0,0-.37-.37,3.89,3.89,0,0,0-.46-.23,1.94,1.94,0,0,0-.58-.18c-.18,0-.35-.12-.53-.16a2.29,2.29,0,0,0-.51,0,.85.85,0,0,0-.47.15l-.28.2a3.46,3.46,0,0,0-.34.19c-.07.05-.13.13-.2.18s-.16.06-.22.1"/><path d="M148.16,58.08c.9.26,1.76.56,2.65.84a4.27,4.27,0,0,0,1.92.07.25.25,0,0,0,.11-.41,4.64,4.64,0,0,0-2.68-1.65c-1-.15-1.41.49-2.21.85-.28.13,0,.56.25.42.76-.37,1.13-.93,2.09-.71a4.48,4.48,0,0,1,2.2,1.44l.11-.41c-1.54.27-2.88-.6-4.41-.59a.08.08,0,0,0,0,.16Z"/><path class="cls-4" d="M142.87,56.74a.45.45,0,0,0,0,.67.54.54,0,0,0,.69-.18.45.45,0,0,0,0-.67A.54.54,0,0,0,142.87,56.74Z"/><path class="cls-5" d="M141.67,56.58a1.06,1.06,0,0,1-1.41.22.9.9,0,0,1-.23-1.31,1.06,1.06,0,0,1,1.41-.22A.9.9,0,0,1,141.67,56.58Z"/><path class="cls-3" d="M152.71,59a3.35,3.35,0,0,0-.51-.72,1.64,1.64,0,0,0-.9-.73,3.45,3.45,0,0,0-1.2,0,7.81,7.81,0,0,0-1.15.26,3,3,0,0,1-.48.07c-.11,0-.39.07-.42.19a1.09,1.09,0,0,0,.21.11l.24,0c.2,0,.39,0,.58.09a3,3,0,0,1,1,.34,4.92,4.92,0,0,0,.83.29,1.67,1.67,0,0,0,.36.15c.18,0,.37,0,.55,0a1.11,1.11,0,0,0,.9-.17"/><path class="cls-4" d="M148.85,58.05a.48.48,0,0,1-.38.56.5.5,0,0,1-.52-.47.48.48,0,0,1,.38-.56A.5.5,0,0,1,148.85,58.05Z"/><path class="cls-5" d="M149.61,58.28a1,1,0,0,0,1.12.82,1,1,0,0,0,.88-1,1,1,0,0,0-1.12-.82A1,1,0,0,0,149.61,58.28Z"/><path d="M150.37,58.47a.43.43,0,0,0,.55-.2.38.38,0,0,0-.22-.51.43.43,0,0,0-.55.2A.38.38,0,0,0,150.37,58.47Z"/><path d="M141.29,56.24a.44.44,0,0,1-.58.09.37.37,0,0,1-.1-.54.44.44,0,0,1,.58-.09A.37.37,0,0,1,141.29,56.24Z"/><path class="cls-1" d="M158.27,59l.17-1-.29-1.63-.47-2.62L157,52.08l-1-1.61L154.67,49l-.34-.23-.85-.57-2-.76-1.84-.5-2.49-.54s-2.06-.33-3.08-.45a7.55,7.55,0,0,0-2,.12c-.89,0-1.12-.11-1.64.35l-1,.47-.49.63-1.3,1.69-.8,1.38-1.07,1.84-.1.57-.49,2.31L134,61.83,133.3,66l0,1.62.55,1.4a9.84,9.84,0,0,0,.75,1.7,10.81,10.81,0,0,1,1.1,1.69l1.08,1.83L138,75.53l2,1.32,2,.57,1.81.09,2.36-.5,3-1.67,1.73-1.24,2.34-1.71,1.5-2Zm-15-1.92-.23-.07c-.19-.05-.37-.13-.57-.17a3,3,0,0,0-1.08-.11,4.88,4.88,0,0,1-.91-.09,8,8,0,0,1-.92-.21c-.26-.08-.6-.24-.69-.52,0,0,0,0,0,0a4.49,4.49,0,0,1,.86-.46,1.89,1.89,0,0,1,1.22-.3,3,3,0,0,1,1.06.52,6.53,6.53,0,0,1,.87.75,2.52,2.52,0,0,0,.38.28c.09.06.3.24.26.36A1.15,1.15,0,0,1,143.31,57.13Zm9,1.74a4.18,4.18,0,0,0-.46.06,3.65,3.65,0,0,1-1.94-.42,3.78,3.78,0,0,0-.95-.21c-.31,0-.62-.09-.93-.11h-.11c.07-.05.16-.07.24-.12s.14-.14.22-.2a4,4,0,0,1,.37-.22l.31-.23a1,1,0,0,1,.5-.18,2.37,2.37,0,0,1,.54,0,2.5,2.5,0,0,1,1.15.33c.14.11.73.49.86.62s.41.46.63.67A1,1,0,0,1,152.31,58.87Z"/><path class="cls-6" d="M134,61.93l-.75,4.2,0,1.62.55,1.4a9.84,9.84,0,0,0,.75,1.7,10.81,10.81,0,0,1,1.1,1.69l1.08,1.83,1.17,1.26,2,1.32,2,.57,1.81.09,2.36-.5,3-1.67,1.73-1.24,2.34-1.71,1.5-2,3.51-11.37.32-1-.23-1-1,.8.27.38c0,.29-.37,1.27-.36,1.36s.51-.22.51-.22l-.77,1,.08.45-.38.94h.25l-.11.76-.49.31v.79l-.49-.25v1.12l-.45-.3a6,6,0,0,1-.11,1l-.61.23.15.81-.69-.22.37,1.52-1-.5,0,1.17-.91-.6.15,1.37-1.07-.39-.21,1.61-.56-.61-.54,1.15-.3-1.39-.27.46.7-1.69-.49.31.12-1.83-.32.75-1.15-1.4-.06.52-.79-1.09-.4.53-.49-1-.65.29-.43-.44-.16.77-.51-.9-.49.63-.51-.9-.41.76-.82-.94-.52.45-.42-.68-.65.29,0-.65-.83.41-.13-.72-.87.69-.36-.64s-.67.43-.71.48-.44.35-.44.35l.29.51-.58-.14,0,.83-.85-.57.23,1.27-.48-.16s0,1.21,0,1.26A11.66,11.66,0,0,1,135.7,66l-.86.23-.12-1.51-.25-.57.48-1-.61.23.35-1.68-.24.32-.08.11.47-1.84-.32.42.62-2.14-.2.26.66-1.64-.28.14.19-1.47-.1-1.54-.35.12-.09.9Z"/><polygon class="cls-7" points="138.69 67.7 137.73 67.06 137.82 68.4 136.75 68.01 137.09 69.35 136.18 68.75 136.56 70.03 135.75 70.21 136.59 70.77 136.36 71.41 137.62 71.45 137.06 72.28 138.39 72.44 137.79 73.24 138.74 73 138.81 73.91 139.88 73.75 140.22 74.86 140.83 74.06 140.51 73.37 141.24 72.75 140.96 72 142.18 71.53 141.5 70.85 142.26 69.75 138.69 67.7"/><polygon class="cls-7" points="147.65 69.35 148.65 69.35 147.88 70.52 148.82 70.81 147.88 71.83 148.82 71.83 147.87 72.78 148.34 73.44 147.46 73.44 147.28 74.17 146.39 73.44 146.33 74.53 145.33 73.87 145.32 74.97 144.8 74.17 144.26 74.97 143.61 74.16 142.78 74.96 142.79 73.87 143.38 73.43 143.21 72.41 143.8 71.9 143.21 70.72 144.04 70.51 144.1 69.05 147.65 69.35"/><polygon class="cls-6" points="139.2 51.87 138.59 51.78 137.56 52.45 137.18 52.84 137.77 52.51 137.56 53.01 138.24 52.35 138.09 52.65 139.07 52.26 138.64 52.61 140.17 52.51 139.31 52.74 140.93 52.86 140.52 53.06 141.8 53.28 141.5 53.56 142.52 53.36 142.44 53.79 143.75 54.65 142.97 53.66 143.61 54.16 143.21 53.34 144 54.1 142.59 52.44 142.77 52.88 141.79 52.08 142.06 52.5 140.58 51.75 141.45 52.41 139.88 51.77 140.58 52.31 139.2 51.55 139.79 52.11 139.2 51.87"/><path d="M143.73,56.64a3.3,3.3,0,0,0-5.45-1s0,0,0,0a3.29,3.29,0,0,1,5.41,1s0,0,0,0Z"/><path d="M142.92,60.3c-.15-.09-.44.08-.58.14-.4.15-.76.4-1.15.59s-1,.78-.81,1.37a.2.2,0,1,0,.37-.16c-.31-.63.74-1,1.1-1.24s.73-.38,1.07-.6a.06.06,0,0,0,0-.1Z"/><path d="M141.49,62.9c-.19-.12.14-.32.26-.35s.37.1.57.2a1.61,1.61,0,0,1,.44.37,1.41,1.41,0,0,1,.25.45c-.09,0-.2-.06-.3-.08a1.88,1.88,0,0,1-.32,0,2.5,2.5,0,0,1-.49-.26c-.1-.07-.52-.3-.42-.42"/><path d="M144.52,63.81c.34-.32.84-.23,1.28-.28a1,1,0,0,1,.59.15c.17.08.44.12.49.33-.24-.06-.46-.16-.71-.21a1.49,1.49,0,0,0-.43,0c-.21,0-.41.1-.62.13a.72.72,0,0,1-.51-.17"/><polygon class="cls-6" points="154.19 55.24 154.76 55.46 155.27 56.53 155.38 57.04 155.06 56.48 154.96 57.01 154.75 56.11 154.7 56.44 154.08 55.64 154.26 56.14 153.01 55.32 153.61 55.93 152.16 55.25 152.4 55.62 151.18 55.19 151.28 55.57 150.53 54.91 150.35 55.31 148.75 55.42 149.97 54.94 149.15 55.06 149.94 54.55 148.85 54.83 150.98 54.09 150.58 54.37 151.87 54.16 151.4 54.39 153.08 54.47 151.97 54.61 153.67 54.82 152.77 54.95 154.38 54.97 153.55 55.15 154.19 55.24"/><path d="M147.83,63c.07.07.05.39.05.5a.77.77,0,0,1-.53.69c-.15.07,0,.28.13.22a1,1,0,0,0,.65-.75c0-.21,0-.66-.12-.82s-.29.06-.18.18Z"/><path d="M140.78,63.06a5.62,5.62,0,0,0,1.11.78c.14.08.27-.14.13-.22a5.32,5.32,0,0,1-1.06-.74c-.12-.11-.3.07-.18.18Z"/><path d="M145.43,64.58a9,9,0,0,1,1.15,0c.16,0,.22-.21.07-.24a9.4,9.4,0,0,0-1.21,0c-.16,0-.16.24,0,.25Z"/><path d="M143.91,58.15c-.2.36-.4.72-.61,1.07-.07.12.1.26.19.15a3.18,3.18,0,0,0,.51-1.18.05.05,0,0,0-.1,0Z"/><path d="M147.8,58.73a7.53,7.53,0,0,1,.55.72c.12.18.37-.05.19-.19a3.39,3.39,0,0,1-.65-.62c0-.06-.13,0-.08.08Z"/><path d="M142.13,58a3.07,3.07,0,0,0,1-.08c.2,0,.12-.34-.09-.31s-.6.16-.91.21c-.12,0-.07.18,0,.19Z"/><path d="M147.79,57.41a3.29,3.29,0,0,1,5.31,1.4,0,0,0,0,0,0,0,3.29,3.29,0,0,0-5.34-1.41s0,0,0,0Z"/><path d="M138,78.17c-1,.79-1.1,4.29.46,4.62.45.1.62-.62.19-.68-1.26-.17-1-3.21-.61-3.91,0,0,0,0,0,0Z"/><path d="M152.15,78a14.91,14.91,0,0,1-1.9,5c-.09.13.13.26.22.13A15.09,15.09,0,0,0,152.4,78c0-.16-.2-.22-.24-.07Z"/><path d="M132,75.32a12.63,12.63,0,0,1-.66,2.68,6.18,6.18,0,0,0-.32,1.06,2.67,2.67,0,0,1-.13.84c-.08.14.14.27.22.13a1.41,1.41,0,0,0,.12-.52,6.73,6.73,0,0,1,.35-1.44,12.71,12.71,0,0,0,.67-2.74c0-.16-.23-.16-.25,0Z"/><path d="M147,78.62a3.45,3.45,0,0,1-.27.94.13.13,0,0,0,.24.07,3.64,3.64,0,0,0,.28-1,.13.13,0,0,0-.25,0Z"/><path d="M138.91,79.54c.34.06.51,1,.55,1.25s.27.09.24-.07c-.06-.38-.25-1.35-.73-1.43-.16,0-.23.21-.07.24Z"/><path class="cls-8" d="M165.1,58.17"/><polygon class="cls-1" points="158.49 59.83 159.69 59.59 160.32 59.78 160.63 60.38 160.87 61.41 160.68 62.32 160.24 63.46 159.93 64.53 159.3 65.79 158.83 66.75 158.34 67.38 158.28 67.9 157.45 68.54 156.6 69.09 156.11 69.17 155.49 68.75 155.32 68.64 158.11 58.31 158.49 59.83"/><path class="cls-1" d="M135.11,56.08a.7.7,0,0,0-.17-.62.37.37,0,0,0-.37-.12l-.21,0a.34.34,0,0,0-.26.26l-.09.42-.18.68-.23,1-.13.47a.31.31,0,0,0,0,.14l.08.46a.31.31,0,0,1,0,.19l-.42.84,0,0-.27.89v0l-.29,1.54a.32.32,0,0,1-.06.14l-.3.39,0,0a8.45,8.45,0,0,0,.45,1.3l.41.5.07.07h0a.36.36,0,0,0,.56-.22Z"/><path d="M134.78,56.77a.84.84,0,0,0-.21-.92c-.13-.11-.26-.13-.35,0a1.41,1.41,0,0,0,0,.78,1.88,1.88,0,0,1,.1.34c0,.17-.14.31-.19.47a2.37,2.37,0,0,1-.4.81.13.13,0,0,0,.12.21c.35-.06.54-.49.67-.77a2.24,2.24,0,0,0,.2-.54c0-.23-.07-.66.06-.84s-.12-.25-.22-.13,0,.7-.12,1-.35,1-.68,1l.12.21a1.79,1.79,0,0,0,.42-.62c.07-.22.13-.39.21-.59a.61.61,0,0,0,0-.21,5.29,5.29,0,0,0-.15-.66,1,1,0,0,1,0-.32q-.15-.11.05.12a.55.55,0,0,1,.06.46c-.07.15.15.27.22.13Z"/><path d="M134,58.87a2.35,2.35,0,0,1,.29-.37l-.21-.09c.11,1,0,1.78-1,2.23l.18.07a1.87,1.87,0,0,1,.36-1.15c.16-.28.24-.77.49-1s0-.31-.13-.22c-.35.26-.43.78-.64,1.15a1.94,1.94,0,0,0-.33,1.25.13.13,0,0,0,.18.07,2.07,2.07,0,0,0,1.09-2.44.13.13,0,0,0-.21-.09,2.13,2.13,0,0,0-.29.37c-.1.12.07.3.18.18Z"/><path d="M146.23,78.84c.16-.2.28-.42.44-.63s-.12-.25-.22-.13-.28.42-.44.63.12.25.22.13Z"/><path d="M158.26,61.82a2.49,2.49,0,0,1,1.27-.95c1.74-.5.81,1.62.44,2.32a1.56,1.56,0,0,0-.21.51c-.16.63-.49,2.08-1.21,2.39.32-.14.25-.65.34-1a7.11,7.11,0,0,0,.39-1.47.91.91,0,0,0-.13-.64c-.2-.3-1.42-.87-.82-1.32.13-.1,0-.31-.13-.22-.47.35-.36.73,0,1.13a1.83,1.83,0,0,1,.53,2.07c-.17.61-.35,1.21-.52,1.82,0,.11.13.22.21.12A8,8,0,0,0,160,64c.3-1,1.21-2,.75-3.14a.74.74,0,0,0-.93-.49,3.7,3.7,0,0,0-1.25.69,1.41,1.41,0,0,0-.55.74c-.06.15.18.21.24.07Z"/><path d="M157.59,62.35c-.13.18,0,.37.11.53a2.7,2.7,0,0,1,.69,1.39,1,1,0,0,1-.71,1.07c-.07,0-.15-.05-.22,0-.33.15-.33.26-.53.57l.23,0c-.09-.26.19-3.47.49-3.36.15.05.22-.19.07-.24-.51-.18-.61.8-.66,1.09a7.4,7.4,0,0,0-.08,1.11,5.07,5.07,0,0,0-.06,1.47.13.13,0,0,0,.23,0,.78.78,0,0,1,.09-.15l.38-.29.16,0a1.93,1.93,0,0,0,.26,0,1.31,1.31,0,0,0,.55-.84,1.66,1.66,0,0,0-.09-1.1c-.06-.14-.77-1-.68-1.15s-.12-.26-.22-.13Z"/><polygon class="cls-6" points="153.51 41.94 149.54 39.3 150.44 40.14 147.54 39.01 148.73 39.8 146.76 39.13 145.18 39.51 147.47 39.44 144.22 39.99 146.25 39.91 142.2 40.72 144.9 40.44 142.34 41.77 145.59 40.98 141.8 42.69 143.8 42.1 140.99 43.98 144.35 42.38 142.91 44.14 146.01 42.45 144.64 44.57 147.65 42.99 147.11 44.14 149.95 43 148.04 44.6 151.23 43.45 149.97 44.77 153.09 43.82 151.88 44.84 154.26 44.75 152.75 45.5 154.44 45.75 154.81 44.48 154.07 42.88 153.51 41.94"/><path class="cls-9" d="M141.6,66.43a2.16,2.16,0,0,1-.52,0c-.22,0-.42.07-.63.09s-.45,0-.67,0a1.53,1.53,0,0,0-.53.07c-.31.17-.06.72,0,1a1,1,0,0,0,.2.46,1.48,1.48,0,0,0,.22.17,1.51,1.51,0,0,1,.17.19.83.83,0,0,0,.5.3,3.78,3.78,0,0,1,.54.12c.12,0,.19.16.29.23a3.73,3.73,0,0,0,1,.47,6.72,6.72,0,0,0,2.13.25c.27,0,.54,0,.82,0s.57,0,.85.07a4.75,4.75,0,0,0,.57,0,1,1,0,0,0,.45-.15,5.18,5.18,0,0,0,.91-.56c.17-.13.44-.19.57-.35a.46.46,0,0,0,0-.47c-.11-.18-.43-.27-.63-.36a8.69,8.69,0,0,0-1-.38c-.4-.12-.82-.2-1.23-.31l-.66-.19a6,6,0,0,0-.77-.13c-.41-.05-.82,0-1.23,0a3.24,3.24,0,0,1-1.46-.53"/><path d="M141.6,66.31c-1.28.08-3.61-.17-2.26,1.81a3.73,3.73,0,0,0,1.76,1,8.16,8.16,0,0,0,3.57.73c1.23,0,2,.19,3-.46.35-.21.91-.39.93-.87,0-.67-1.27-.92-1.71-1.06-1.64-.53-3.86-.38-5.31-1.19-.14-.08-.27.14-.13.22,1.22.68,2.49.49,3.82.8.56.13,2.1.33,2.51.79,1.06,1.18-1.56,1.56-2.1,1.57s-1.17,0-1.73-.05a7.6,7.6,0,0,1-3.06-.93c-.46-.2-.83-.2-1.19-.59-1.43-1.56,1-1.52,1.86-1.57.16,0,.16-.26,0-.25Z"/><path class="cls-10" d="M139.85,66.64c-.1,0-.26.23-.26.23l0,.47v.23l.27.1.2-.26v-.56l-.15-.26Z"/><polygon class="cls-10" points="140.11 66.97 140.39 66.61 140.7 66.65 140.92 67.03 140.86 67.55 140.73 67.95 140.51 68.12 140.15 68.04 140.11 67.53 140.11 66.97"/><polygon class="cls-10" points="141.07 67.06 141.28 66.79 141.53 66.8 141.75 66.95 141.92 67.3 141.8 67.78 141.67 68.17 141.34 68.27 140.9 68.06 140.83 67.93 141.03 67.11 141.07 67.06"/><path class="cls-10" d="M142,67.19s.36-.47.42-.44,1,.32,1,.32l0,.47-.19.91,0,.09-.64.05-.11-.08-.19,0-.21-.06-.27-.1,0-.18Z"/><polygon class="cls-10" points="143.41 67.58 143.67 67.35 144.43 67.37 144.85 67.49 145.01 67.84 145 68.63 144.7 68.91 144.18 68.81 143.64 68.84 143.23 68.49 143.41 67.58"/><polygon class="cls-10" points="145.63 69.05 145.32 69 145.04 68.58 145.01 67.84 145.61 67.28 146.05 67.49 146.31 68.15 146.18 68.78 145.72 69.03 145.63 69.05"/><polygon class="cls-10" points="146.67 67.91 146.98 67.95 147.03 68.55 146.93 68.8 146.65 69.17 146.49 69.14 146.21 68.73 146.35 68.1 146.67 67.91"/><polygon class="cls-10" points="147.4 68.07 147.03 68.55 146.99 68.83 147.4 69.19 147.65 68.64 147.78 68.25 147.54 68.01 147.4 68.07"/><path class="cls-10" d="M139.63,67.93s.45,0,.4,0,.34.23.34.23l.52.11.46.07.28.19a1.63,1.63,0,0,0,.4,0l.34.23s.12-.16.18-.12a8.14,8.14,0,0,0,.87.1l.79.2.36.08.42.12.17.11.2-.26.4.26.17.11.33-.1.19,0,.16.35-.2.26-1,0-.89,0-.79,0-1.15-.29-1-.17-.86-.33-.91-.6-.37-.41Z"/><path class="cls-11" d="M148.65,68.35l-1.43-.71-1.43-.47-1.15-.29h-1.55l-.79-.53-1.48-.19-2.28.4,0,.47.38.73.47.95.62.65.77.67,1,.64.74-.07,1.07.39,1.35,0,1.08-.4.88-.37.75-.54.62-.47.48-.4Zm-.48.4-.7.25-.66.52-.45.26-1.47-.1-1.73-.2-.52-.11-.79-.2-.75-.26-.65-.27-.28-.19-.62-.41-.2-.29v-.32l-.12-.4v-.32l.08-.11.54,0,.66,0,.7,0,1,.32.42.12.76.35.47-.17.77.11,1,.17.84.24.88.19,1.1.57Z"/><path class="cls-11" d="M138.52,62"/><path d="M141,55.06v.08c0,.16.22.23.24.07v-.08c0-.16-.22-.23-.24-.07Z"/><path d="M141.22,55.05l0,.16c-.07.15.15.27.22.13a.39.39,0,0,0,.06-.29c0-.16-.27-.16-.25,0Z"/><path d="M141.47,55.14l-.09.15c-.11.12.07.3.18.18a.44.44,0,0,0,.16-.32.13.13,0,0,0-.25,0Z"/><path d="M141.67,55.25l-.06.17c-.09.13.13.26.22.13a.4.4,0,0,0,.09-.37.13.13,0,0,0-.24.07Z"/><path d="M141.88,55.34l-.06.13c-.14.08,0,.29.13.22a.32.32,0,0,0,.18-.35c0-.16-.26-.16-.25,0Z"/><path d="M142.05,55.58l0,0a.13.13,0,0,0,.13.22.26.26,0,0,0,.07-.42c-.12-.1-.3.07-.18.18Z"/><path d="M142.23,55.69l0,.1c-.12.11.06.29.18.18a.31.31,0,0,0,.1-.34.13.13,0,0,0-.24.07Z"/><path d="M142.37,55.85l0,0c-.12.11.06.28.18.18a.27.27,0,0,0,.11-.23c0-.16-.23-.16-.25,0Z"/><path d="M142.56,56l0,.09c-.1.12.07.3.18.18a.47.47,0,0,0,.11-.2c.05-.15-.19-.22-.24-.07Z"/><path d="M142.67,56.13l0,.13a.13.13,0,0,0,.22.13.4.4,0,0,0,.07-.19c0-.16-.22-.23-.24-.07Z"/><path d="M140.91,55l.05.12c0,.16.24.16.25,0a.31.31,0,0,0-.13-.3c-.12-.1-.3.07-.18.18Z"/><path d="M140.72,55.06l0,.09c0,.16.27.16.25,0a.38.38,0,0,0-.07-.22c-.09-.13-.3,0-.22.13Z"/><path d="M140.42,55.08a.57.57,0,0,1,.08.16c.06.15.28,0,.22-.13a.57.57,0,0,0-.08-.16c-.09-.14-.3,0-.22.13Z"/><path d="M140.17,55.09l0,.13a.13.13,0,0,0,.25,0,.35.35,0,0,0-.07-.25.13.13,0,0,0-.22.13Z"/><path d="M139.92,55.18l.1.17c.05.15.29.09.24-.07a.49.49,0,0,0-.17-.28c-.11-.12-.29.06-.18.18Z"/><path d="M139.61,55.36l.12.18c.06.15.28,0,.22-.13a.43.43,0,0,0-.16-.23c-.12-.11-.29.06-.18.18Z"/><path d="M139.4,55.51l.06.14c0,.16.27.09.24-.07a.39.39,0,0,0-.08-.2c-.09-.13-.3,0-.22.13Z"/><path d="M139.16,55.6l.05.13c0,.16.28.09.24-.07a.41.41,0,0,0-.08-.19c-.08-.14-.3,0-.22.13Z"/><path d="M139,55.76l.06.1a.13.13,0,0,0,.22-.13l-.06-.1a.13.13,0,0,0-.22.13Z"/><path d="M151.07,57c-.21,0-.29.25-.26.4s.28.09.24-.07l0-.09c.16,0,.16-.23,0-.25Z"/><path d="M151.3,57.22a.74.74,0,0,0-.25.2c-.1.13.12.25.22.13a.63.63,0,0,1,.16-.11.13.13,0,0,0-.13-.22Z"/><path d="M151.66,57.43a.44.44,0,0,0-.31.29c-.06.15.18.21.24.07l.13-.12c.15-.05.09-.3-.07-.24Z"/><path d="M151.92,57.73l-.16.14c-.12.11.06.29.18.18l.16-.14c.12-.1-.05-.28-.18-.18Z"/><path d="M152.26,57.86c-.15,0-.27,0-.29.21s.22.23.24.07l0,0c.16,0,.16-.25,0-.25Z"/><path d="M152.45,58.08a.48.48,0,0,0-.24.23c-.07.14.14.27.22.13l.15-.15c.14-.07,0-.29-.13-.22Z"/><path d="M151.82,57.63a.33.33,0,0,0-.22.09c-.13.09,0,.31.13.22l.16-.06c.16,0,.09-.27-.07-.24Z"/><path d="M150.66,57a.87.87,0,0,0-.08.29c0,.16.23.16.25,0l0-.17c.06-.15-.15-.27-.22-.13Z"/><path d="M150.31,57l0,.22c-.06.15.18.22.24.07a.64.64,0,0,0,0-.35c0-.16-.27-.09-.24.07Z"/><path d="M150,57a.23.23,0,0,1,0,.17.13.13,0,0,0,.25,0,.43.43,0,0,0-.07-.29c-.09-.13-.31,0-.22.13Z"/><path d="M149.8,57v.18c0,.16.24.16.25,0a.66.66,0,0,0,0-.24c0-.16-.28-.09-.24.07Z"/><path d="M149.52,57l.07.16c0,.16.27.09.24-.07a.39.39,0,0,0-.09-.22c-.09-.13-.31,0-.22.13Z"/><path d="M149.17,57l.06.22c0,.16.26.09.24-.07a.66.66,0,0,0-.09-.28c-.07-.15-.28,0-.22.13Z"/><path d="M148.84,57.2v.18c0,.15.19.22.24.07a.39.39,0,0,0,0-.32c0-.16-.28-.09-.24.07Z"/><path d="M148.6,57.44l.07.22c0,.16.28.09.24-.07a1.27,1.27,0,0,0-.1-.28c-.06-.15-.28,0-.22.13Z"/><path d="M148.35,57.53q0,.11,0,.21a.13.13,0,0,0,.25,0q0-.11,0-.21a.13.13,0,0,0-.25,0Z"/><path d="M150.39,60.09a1.91,1.91,0,0,0,.74.2c.16,0,.16-.24,0-.25a1.46,1.46,0,0,1-.62-.16c-.14-.07-.27.15-.13.22Z"/><path d="M139,57.48c.28.07.55.17.84.22s.22-.21.07-.24-.56-.15-.84-.22a.13.13,0,0,0-.07.24Z"/><path class="cls-3" d="M141.35,56a.17.17,0,0,1-.22,0,.14.14,0,0,1,0-.21.17.17,0,0,1,.22,0A.14.14,0,0,1,141.35,56Z"/><path class="cls-3" d="M150.91,58a.17.17,0,0,1-.22,0,.14.14,0,0,1,0-.21.17.17,0,0,1,.22,0A.14.14,0,0,1,150.91,58Z"/><path class="cls-12" d="M179.89,75.37l-3.61,7.91,1,7.49-1,4.63s-5.53,10-5.88,10.23,0,11.1,0,11.1l-2,13.27-5.6,13.3s1.45,8.53.41,8.54-5.85,7.07-5.85,7.07a10.09,10.09,0,0,0,1,5.91c1.52,2.79-.11,6.72,1.2,7.71.7.53,3.77,2.1,6.47,3.44a27,27,0,0,0,3.61-9.23l17.7-93.14Z"/><polygon class="cls-12" points="92.29 65.33 89.58 79.57 96.95 74.48 92.29 65.33"/><path class="cls-12" d="M98.43,43a27,27,0,0,0-3.69,9.36l-.44,2.33,2.65.92,4-5.59Z"/><path class="cls-12" d="M87,150.12l-1.83-4.17-3.71-10.54s6.81-4.56,7.89-5.47-.84-10.44-.84-10.44l.84-5.56-4.8-8.06L76.38,149a27.19,27.19,0,0,0-.38,2.83A15.74,15.74,0,0,0,87,150.12Z"/><path class="cls-13" d="M178.71,43.65l-12.87,69.43-56.05-11.26,13.29-71.65a26.63,26.63,0,0,0-22.94,21.42L80.4,147.82c-3,14.64,6,29.16,20,32.27l37.83,8.41c14,3.11,27.89-6.33,30.9-21l19.73-96.23A27.88,27.88,0,0,0,178.71,43.65Z"/><path class="cls-14" d="M76.58,87.65,76,93l1.4,3.69A25.92,25.92,0,0,0,78.6,99a21,21,0,0,0,3,1.48L88,98.76l6.65-3.86L104,87.65l6.24-5.05V79.72l-1.64-3.2-2.67-2Z"/><path class="cls-14" d="M77.22,88.42s1.89.57,2.46,0,1.64-1.64,2-1.89,1.89-1.72,3-1.72a12,12,0,0,0,2.46,0c.49-.16,5.25-2.05,5.25-2.05l1.48-1.15,4.1-1.4,2.54-3.2,4-.9,1.72-1.4-2.54-2.05-2.05-3-4-5.42-2-2.79-.28-1.76-2.19-3.83-.94-2.75-.81-2.36-1-1.05L89,45.42,87.15,42.3l-1.44-2.56-1.84-3.27L83.22,33,81,30.65l-4.19-1.48-22.73,7.3v9.44s1.81,5.33,2.05,5.58,3.61,5.25,3.61,5.25l1.23,3,1.44,1.56v2.63L64,65.44l.41,1.89L66.15,69,67,71.68,68.61,73l.25,2.54,1.81.9.66,2.71a28.59,28.59,0,0,0,1.4,2.54c.25.25,1.64,2.46,1.64,2.46L76,86.94Z"/><polygon class="cls-14" points="85.31 98.95 85.31 139.38 89.62 158.92 98.64 164.17 107.34 181.07 110.22 182.55 132.46 174.84 141.87 164.83 151.08 173.77 151.99 161.87 156.25 141.35 163.15 124.78 163.15 108.03 169.22 94.08 110.22 82.59 85.31 98.95"/><rect class="cls-15" x="109.71" y="102.17" width="39.99" height="61.71" rx="4.46" ry="4.46" transform="translate(27.12 -21.88) rotate(10.76)"/><path class="cls-16" d="M125.21,161.5l-17.69-2.95-.43-.07.08-.45,2.5-14.19c.85-4.73,1.65-9.46,2.55-14.18l5.27-28.33.17-.89.89.17L136.1,104l.82.16-.16.81L134,119.28l-2.91,14.2c-1,4.72-1.92,9.44-2.93,14.09Zm-.06-.08,10.7-56.59.07.1-17.58-3.33.12-.08-10.8,56.61,0-.07Z"/><path class="cls-16" d="M135.9,148.55l-17.64-3.21-.17,0,0-.18L125,107.86l.07-.39.4.07,8.81,1.57,8.79,1.64.52.1-.1.52c-1.2,6.27-2.43,12.53-3.71,18.74Zm-.06-.08,3.22-18.8c1.08-6.2,2.2-12.34,3.36-18.49l.42.62-8.78-1.7-8.77-1.77.47-.32-7.29,37.19-.14-.21Z"/><rect class="cls-17" x="117.58" y="107" width="2.03" height="4.38" transform="translate(22.47 -20.22) rotate(10.76)"/><rect class="cls-18" x="120.31" y="107.5" width="2.03" height="1.85" transform="translate(22.37 -20.74) rotate(10.76)"/><rect x="119.82" y="110.03" width="2.03" height="1.85" transform="translate(22.84 -20.61) rotate(10.76)"/><path class="cls-14" d="M89.62,158.92,77.47,169.75l-6.73,7.71-4.43,4.76-5.69,6.62-4.43,4L52,195.74s-1.26,4.27-2.41,4.43a47.19,47.19,0,0,0-5.42,1.91L35,204.93l-23.58,6.13-6.24,5-3.39,4.71L0,228.13.66,237l3.83,5.58,6.46,2.08,9.19-1.2,7.22-2.19,8-3.06,5.25-.11,1.53-.55,3.72.22s3.83.55,4.49.55,5.91-.22,5.91-.22l9.74-6,2.3-.11,5-5.69L77,222.33l9.63-7.11,7.22-4.81,8.75-5.58,8.1-7,2.63-.22,2.52.11,2.41,1.09,2,6.46,6.24,8.75,6.67,6.35,5.25,7.11,2.08,5.25,2.63,4.71,1.31,7.22,4.16,9.3.77,1v3.17l1.75,3.61a35.08,35.08,0,0,0,2.41,4.16c.88,1.09,7,6.13,7,6.13l15.1,20.68,5,2.19,4.92.88,5.36-2.84,3.94-5.25,3.06-5.14,1.31-5.91-.66-6-5.14-7.66-8.1-6.67-3.39-4.6-1.2-3-.33-7.11L178,236.77l-1.2-3.39-.33-4.81-2.74-4.81-1.53-6.24-2.3-6.78,1-3.06-5.58-5.91.77-1.31L162.6,195l-3.28-6.78-4.49-7.33-8.64-16.3Z"/><polygon class="cls-12" points="36.03 204.6 34.96 204.93 23.22 207.98 20.02 213.13 11.71 218.06 8.1 224.73 8.1 235.98 10.61 239.83 16.11 243.97 20.13 243.44 27.36 241.26 32.8 239.17 26.81 233.2 28.12 217.18 36.03 204.6"/><path class="cls-19" d="M198.6,270.58l-5.14-7.66-8.1-6.67-.89-1.21c-2,1.44-4.23,3-4.8,3.5-1.09.88-13.57,12.91-13.57,12.91s-2.5.65-5,1.38l14.49,19.85,5,2.19,4.92.88,5.36-2.84,3.94-5.25,3.06-5.14,1.31-5.91Z"/><path class="cls-19" d="M97.58,64.21l-2-2.79-.28-1.76-2.19-3.83-.94-2.75-.81-2.36-1-1.05L89,45.42,87.15,42.3l-1.44-2.56-1.84-3.27L83.22,33,81,30.65l-1-.36c-.47,2.46-1.55,8.18-1.35,8.57s2.3,1.81,2.3,2.87-1.48,3,0,3,2.79.9,2.63,2,1.72,2.46,1.72,2.46v2.38H87.4a27.62,27.62,0,0,0-.74,3c0,.49,2.22,2.38,2.22,2.38s-.74,3.94-.82,4.19,2.63,1.95,2.63,1.95l.57,3.3,5.66,1.23-.49,3.78s-.25,1.48,1,1.48,3.78-1.07,3.61,0-.41,2.46-.41,2.46l2.24-3.88-1.26-1.86Z"/><path class="cls-20" d="M66.36,45.17c1-.61,2-1.15,3-1.7s2-1.09,3-1.65c2-1.12,3.95-2.26,5.89-3.55a12.87,12.87,0,0,1-2.48,2.48,23.52,23.52,0,0,1-9.44,4.41Z"/><path class="cls-20" d="M65,53.52a10.75,10.75,0,0,1,3.14-1.25A16.64,16.64,0,0,0,69.78,52a4.66,4.66,0,0,0,1.48-.75,19.39,19.39,0,0,0,2.2-2.36,24.57,24.57,0,0,1,2.39-2.38l.08.06a10.09,10.09,0,0,1-1.66,3,9.18,9.18,0,0,1-1.22,1.24,4.54,4.54,0,0,1-1.53.92c-.56.19-1.1.34-1.62.57s-1,.55-1.53.78a8.11,8.11,0,0,1-3.36.55Z"/><path class="cls-20" d="M70.44,55.63c1-.61,2-1.15,3-1.7s2-1.09,3-1.65c2-1.12,3.95-2.26,5.89-3.55a12.88,12.88,0,0,1-2.48,2.48,23.52,23.52,0,0,1-9.44,4.41Z"/><path class="cls-20" d="M74.9,65a4.37,4.37,0,0,1,1.22-1.1,3.66,3.66,0,0,1,1.51-.6,15.7,15.7,0,0,0,1.62-.25c.27,0,.54-.12.83-.15a2.06,2.06,0,0,0,.65-.2A11.16,11.16,0,0,0,83.11,61c.75-.66,1.6-1.36,2.3-2l.09,0a3.63,3.63,0,0,1-.66,1.55,8.73,8.73,0,0,1-1,1.28A6,6,0,0,1,81,63.47a2.37,2.37,0,0,1-.91,0,2.61,2.61,0,0,0-.75-.08,2.93,2.93,0,0,0-1.43.57,6.42,6.42,0,0,1-1.38.68A8.4,8.4,0,0,1,75,65.1Z"/><path class="cls-20" d="M77.89,71.87c.55-.25,1.11-.44,1.66-.66s1.1-.43,1.63-.66A31,31,0,0,0,84.3,69,13.93,13.93,0,0,0,87,67a5.9,5.9,0,0,0,1-1.31,2,2,0,0,0,.28-1.62,2,2,0,0,1,.17,1.8,5.15,5.15,0,0,1-.9,1.64,10.13,10.13,0,0,1-2.83,2.36,16.13,16.13,0,0,1-6.91,2Z"/><path class="cls-20" d="M81.54,75.32a9.9,9.9,0,0,1,3.2-1c.56-.06,1.13,0,1.68-.13A5.47,5.47,0,0,0,88,73.63c.92-.55,1.83-1.17,2.76-1.75a19.28,19.28,0,0,1,3-1.47l.06.08a11.08,11.08,0,0,1-2.51,2.29,11.27,11.27,0,0,1-1.5.82,6.17,6.17,0,0,1-1.66.55,12.07,12.07,0,0,0-1.66.35c-.54.16-1,.45-1.58.63a8.44,8.44,0,0,1-3.36.3Z"/><path class="cls-19" d="M56.24,42.33c1.73-.56,3.42-1.22,5.15-1.67a30.29,30.29,0,0,0,5-1.95l9.6-5-.11.09,1-1.18a11.77,11.77,0,0,1,1-1.15c.76-.71,1.5-1.44,2.27-2.13-.57.87-1.17,1.71-1.76,2.57a11.77,11.77,0,0,1-1,1.2l-1,1.18,0,.05-.06,0-9.62,5a31,31,0,0,1-5.1,2A20.89,20.89,0,0,1,56.24,42.33Z"/><path class="cls-20" d="M56.56,36.25,53,30.62a1.22,1.22,0,0,1-.14-.33l-.94-3.52a1.18,1.18,0,0,0-.34-.57l-4.09-3.7-.09-.09L44.15,18.7l-.1-.13-.57-.86a1.22,1.22,0,0,1-.18-.43l-.39-1.9a1.27,1.27,0,0,1,.14-.89l.64-1.09a1,1,0,0,1,1.1-.5l1.5.37a1,1,0,0,1,.41.21l2.4,2,.09.09,1.9,2a1.07,1.07,0,0,0,.17.15l3.08,2.13.15.08,1.68.79L54,19.14,53.9,19l-2.35-2.39a1.14,1.14,0,0,1-.17-.23l-1.87-3.21,0-.07-1-1.93a1.25,1.25,0,0,1-.12-.43l-.18-1.84a4.13,4.13,0,0,1,1.13-3.31h0a.53.53,0,0,1,.38-.16h0A3.66,3.66,0,0,1,52.66,7l.81,1.11a1.18,1.18,0,0,1,.13.23L55,11.57q.11.26.24.51l.15.3L57,15.67a1.17,1.17,0,0,0,.15.23l1.5,1.79a.54.54,0,0,0,.41.2h.07a.6.6,0,0,0,.56-.63h0a.66.66,0,0,0-.18-.46l-1.24-1.28a8.19,8.19,0,0,1-1-1.21l-.47-.72a11.33,11.33,0,0,1-1.67-4.25L55,8.67l0-.12L54.4,6.38a1.28,1.28,0,0,1,0-.35V5.57a1.28,1.28,0,0,1,0-.22l.5-2.91a1.25,1.25,0,0,1,.07-.25L55.43,1a1.08,1.08,0,0,1,.7-.66l.71-.2a1,1,0,0,1,.79.13L58.83,1a1.12,1.12,0,0,1,.38.44L60.5,4.06a1.24,1.24,0,0,1,.1.28l.78,3.45.53,2.77a1.22,1.22,0,0,0,0,.14,9.21,9.21,0,0,0,1,2.35,5,5,0,0,1,.61,1.81,1.11,1.11,0,0,0,.72.83l.56.18c-.2-.07-1-2.32-1.28-2.77a17.71,17.71,0,0,1-.47-3.44,19.22,19.22,0,0,0,.13-3.59,22.28,22.28,0,0,1,.27-3.59A14.41,14.41,0,0,1,64.84.42a1,1,0,0,1,.8-.42h.31a2.35,2.35,0,0,1,1.89,1l.77,1.06a1.22,1.22,0,0,1,.22.57c.1.85.37,3.09.37,3.27a34.37,34.37,0,0,1,0,4.57,19.54,19.54,0,0,0-.42,3.12,1.22,1.22,0,0,0,.38,1l1.28,1.15a1,1,0,0,0,1,.2l.1,0a.57.57,0,0,0,.27-.21L74.41,12l.13-.15,1.91-1.91A5.77,5.77,0,0,1,80,8.21h0a1,1,0,0,1,.92.46h0A6.39,6.39,0,0,1,82,12.24v.42a1.27,1.27,0,0,1-.07.42L80.58,17a1.21,1.21,0,0,1-.11.22l-1.84,3a1.2,1.2,0,0,0-.09.17l-1.44,3.54a1.26,1.26,0,0,0-.09.39l-.22,3.28a1.19,1.19,0,0,1-.46.87l-8.12,6.12a1,1,0,0,1-.22.13c-.93.39-7.26,3-7.44,2.95s-2.47-.69-3.4-.94A1,1,0,0,1,56.56,36.25Z"/><path class="cls-19" d="M70.7,19.1a11.92,11.92,0,0,1-2.31,1.4c-.42.18-.85.32-1.26.51a10.3,10.3,0,0,0-1.17.67c-.75.5-1.53,1-2.32,1.38s-1.63.8-2.43,1.12v.05c0-.19.14-.2.21-.3l.27-.22c.18-.14.36-.28.55-.4.38-.25.76-.5,1.15-.72a22.93,22.93,0,0,1,2.44-1.16,10.89,10.89,0,0,0,1.22-.58c.39-.23.76-.5,1.14-.73a11.54,11.54,0,0,1,2.48-1.07Z"/><path class="cls-19" d="M72.72,20.09a23.08,23.08,0,0,1-3.14,2.09,21.76,21.76,0,0,0-3.27,1.87,40,40,0,0,1-6.52,3.77l0,0a40,40,0,0,1,6.41-4,21.77,21.77,0,0,0,3.2-2A23.07,23.07,0,0,1,72.7,20Z"/><path class="cls-21" d="M57.71,11.55"/><path class="cls-19" d="M57,10.73a1.83,1.83,0,0,1,.94-.55c.18,0,.37,0,.55-.05a1.91,1.91,0,0,0,.5-.21,3,3,0,0,1,1-.38,2,2,0,0,1,.58,0c.17,0,.48.13.48.39h0c-.27-.14-.6.06-.92.11a7.13,7.13,0,0,1-1,.12,1.53,1.53,0,0,0-.53.1,4.69,4.69,0,0,0-.46.29,2.08,2.08,0,0,1-1.06.2Z"/><path class="cls-21" d="M51,12.55"/><path class="cls-20" d="M47.09,20.07"/><path class="cls-19" d="M77.6,11.79a1.78,1.78,0,0,1,.89.66c.09.16.16.34.26.5a2.1,2.1,0,0,0,.38.4,2.43,2.43,0,0,1,1,2h0a5.33,5.33,0,0,1-1.14-1.81,1.47,1.47,0,0,0-.28-.46,3.76,3.76,0,0,0-.44-.32,2.25,2.25,0,0,1-.61-.9Z"/><path class="cls-19" d="M75.47,16.83a1.55,1.55,0,0,1,.86.52c.1.14.17.3.27.43a1.6,1.6,0,0,0,.39.31,2.61,2.61,0,0,1,.76.67,1.26,1.26,0,0,1,.25,1h-.05c-.19-.28-.42-.46-.62-.7a5.52,5.52,0,0,1-.53-.8,1.28,1.28,0,0,0-.3-.38,3.9,3.9,0,0,0-.44-.24,1.76,1.76,0,0,1-.61-.78Z"/><path class="cls-19" d="M52.12,18.14a1.81,1.81,0,0,1,.7-.83c.16-.08.35-.14.5-.23a1.85,1.85,0,0,0,.39-.37,3,3,0,0,1,.83-.71,2.08,2.08,0,0,1,.54-.19c.17,0,.47-.07.59.16l0,0c-.29,0-.54.29-.82.45a6.51,6.51,0,0,1-.94.47,1.52,1.52,0,0,0-.45.27,4.68,4.68,0,0,0-.33.43,2,2,0,0,1-.93.54Z"/><path class="cls-19" d="M56.31,6.49a1.83,1.83,0,0,1,.94-.55c.18,0,.38,0,.55-.05a1.9,1.9,0,0,0,.5-.21,3,3,0,0,1,1-.38,2,2,0,0,1,.58,0c.17,0,.48.13.48.39h0c-.27-.14-.6.06-.92.11a7.13,7.13,0,0,1-1,.12,1.53,1.53,0,0,0-.53.1,4.7,4.7,0,0,0-.46.29,2.08,2.08,0,0,1-1.06.2Z"/><path class="cls-19" d="M64.81,5.26a1.82,1.82,0,0,1,1-.36c.18,0,.37.06.55.05a1.87,1.87,0,0,0,.53-.11A3,3,0,0,1,68,4.66a2.11,2.11,0,0,1,.56.12c.17.09.43.21.4.47h0c-.25-.18-.59-.06-.93-.07a7,7,0,0,1-1-.08,1.52,1.52,0,0,0-.53,0,4.64,4.64,0,0,0-.51.2,2.06,2.06,0,0,1-1.08,0Z"/><path class="cls-19" d="M64.24,9.18a1.82,1.82,0,0,1,1-.36c.18,0,.37.06.55.05a1.87,1.87,0,0,0,.53-.11,3,3,0,0,1,1.08-.18A2.11,2.11,0,0,1,68,8.7c.17.09.43.21.4.47h0c-.25-.18-.59-.06-.93-.07a7,7,0,0,1-1-.08,1.53,1.53,0,0,0-.53,0,4.64,4.64,0,0,0-.51.2,2.06,2.06,0,0,1-1.08,0Z"/><path class="cls-19" d="M50.27,12.54a1.91,1.91,0,0,1,.72-.85c.17-.09.35-.15.51-.24a2,2,0,0,0,.4-.38,3.18,3.18,0,0,1,.85-.73,2.12,2.12,0,0,1,.56-.19c.17,0,.5-.07.6.19l0,0c-.16-.06-.28.07-.42.15L53,10.8a7.16,7.16,0,0,1-1,.49,1.6,1.6,0,0,0-.47.28,4.89,4.89,0,0,0-.35.44,2.16,2.16,0,0,1-.95.56Z"/><path class="cls-19" d="M45.53,20.47a1.81,1.81,0,0,1,.55-.93c.14-.11.32-.2.45-.31a1.85,1.85,0,0,0,.32-.43,3,3,0,0,1,.69-.84,2.07,2.07,0,0,1,.5-.28c.17-.05.45-.15.61.06l0,0c-.29,0-.48.38-.73.59a6.51,6.51,0,0,1-.84.62,1.51,1.51,0,0,0-.4.35,4.68,4.68,0,0,0-.26.48,2,2,0,0,1-.82.69Z"/><path class="cls-19" d="M47.18,22.54a1.81,1.81,0,0,1,.55-.93c.14-.11.32-.2.45-.31a1.85,1.85,0,0,0,.32-.43,3,3,0,0,1,.69-.84,2.08,2.08,0,0,1,.5-.28c.17-.05.45-.15.61.06l0,0c-.29,0-.48.38-.73.59a6.53,6.53,0,0,1-.84.62,1.52,1.52,0,0,0-.4.35,4.68,4.68,0,0,0-.26.48,2,2,0,0,1-.82.69Z"/><path class="cls-20" d="M76.47,88.61,76,93l1.4,3.69A25.93,25.93,0,0,0,78.6,99a14.71,14.71,0,0,0,2.5,1.27l1.52-.64-.18-1s-1.82-.89-1.91-1.29-.2-2-.2-2a17.23,17.23,0,0,1,1.15-2.1c.23-.19,1.06-1.76,1.51-2.13a10.49,10.49,0,0,0,1.91-3.07c0-.49,2-1,3-1.22s2-2.51,2-2.51l-.15-1.47Z"/><path class="cls-20" d="M105.93,74.53q-4.36,2.59-8.76,5.1c-1.46.85-2.9,1.74-4.41,2.49a42.43,42.43,0,0,1-4.68,2L88,84a42.45,42.45,0,0,1,4.25-2.79c1.46-.86,3-1.56,4.51-2.31q4.53-2.28,9.09-4.49Z"/><path class="cls-20" d="M87.68,88.51a4.68,4.68,0,0,1,1.81,1.15,6.08,6.08,0,0,1,1.26,1.77,5.92,5.92,0,0,1,.57,2.1,5.1,5.1,0,0,1-.25,2.13c-.19-.7-.31-1.35-.52-2a11.77,11.77,0,0,0-.7-1.81A16.34,16.34,0,0,0,87.68,88.51Z"/><path class="cls-20" d="M90.4,86.68a4.48,4.48,0,0,1,2,.41,3.5,3.5,0,0,1,1.62,1.47,4.12,4.12,0,0,1,.45,2.11c0,.7-.15,1.31-.2,2a6,6,0,0,1-.57-1.94A5.65,5.65,0,0,0,93.18,89,4.06,4.06,0,0,0,92,87.76C91.55,87.37,91,87.08,90.4,86.68Z"/><path class="cls-20" d="M85.31,90.77a4.43,4.43,0,0,1,1.81,2.12,3.5,3.5,0,0,1,.28,1.45,1.46,1.46,0,0,1-.7,1.31,2.25,2.25,0,0,0-.08-1.23,12,12,0,0,0-.43-1.14A15.54,15.54,0,0,1,85.31,90.77Z"/><path class="cls-19" d="M88,98.76l6.65-3.86L104,87.65l6.24-5.05V81.52l-10.09,8.16-6.4,5.14-6,3.53-5.06,1.29-1.13.81.08,0Z"/><path class="cls-20" d="M88.06,151.85l5.55-7.55,4.84-1L100.9,133s6.3-2,7.07-1.55-3.5-8.51-3.5-8.51L102.28,119a18.45,18.45,0,0,1-2.15-3c-.31-.82-2.46-4.27-2.46-5.12s-4.07-1.77-4.07-1.77H88.18l-3-6.57v36.77Z"/><path class="cls-20" d="M166.72,93.6l-6.64-1.29-4-.23-4.92,1.84s4.76,1.65,5.09,1.73-5.09,0-5.09,0-4.92,1.55-3.61,1.72l6.89.82,4.76,2.09,1.64,3.82h-3.13l3.63,6.86a11.27,11.27,0,0,0,1.81-1.37V108l4.25-9.75C167.13,96.47,166.87,94.65,166.72,93.6Z"/><path class="cls-19" d="M122.61,89.63a14.18,14.18,0,0,1,4.21,0c.69.13,1.38.33,2.07.42a11.81,11.81,0,0,0,2.1.05,30.91,30.91,0,0,1,4.21.07,22,22,0,0,1,4.15.81v.1a22,22,0,0,1-4.22.15,30.91,30.91,0,0,1-4.17-.59,11.81,11.81,0,0,0-2.08-.28c-.7,0-1.41.07-2.11.09a14.18,14.18,0,0,1-4.16-.7Z"/><path class="cls-19" d="M113.22,94.58c-.63-1.27-1.18-2.56-1.72-3.86s-1-2.62-1.49-4l0,0v0c0-1.24.09-2.49.22-3.73.12,1.24.17,2.49.22,3.73v-.08c.54,1.3,1,2.62,1.52,3.94S112.85,93.21,113.22,94.58Z"/><path class="cls-19" d="M90.39,102.57a23.31,23.31,0,0,1,2.66-.87c.9-.23,1.8-.45,2.72-.6l-.07,0c1.11-.36,2.28-.58,3.38-1l-.06,0,1.36-1.35A5.21,5.21,0,0,1,102,97.65a6.71,6.71,0,0,1,2-.24,18.45,18.45,0,0,1,1.94.09l.25,0,.15.24a13.88,13.88,0,0,0,1.06,1.57,1.87,1.87,0,0,0,.51.48c.05,0-.07,0,0,0l.24-.06.49-.13-.06,0c.84-.36,1.67-.73,2.54-1l0,.09c-.72.58-1.47,1.09-2.22,1.6h0l-.06,0-.46.2-.23.1a.9.9,0,0,1-.47,0,2.21,2.21,0,0,1-1.09-.69,9,9,0,0,1-1.25-1.72l.4.27c-.6-.07-1.23-.16-1.84-.19a9.3,9.3,0,0,0-1.77,0,4.4,4.4,0,0,0-1.57.77,8.35,8.35,0,0,0-1.41,1.23l0,0h0c-1.09.42-2.11,1-3.18,1.5h-.07c-.9.22-1.82.37-2.74.5a23.31,23.31,0,0,1-2.79.23Z"/><path class="cls-14" d="M93.1,118.54s5.26,11.12,7.7,11.47"/><path class="cls-14" d="M95.86,118.54s3.94,8.41,6.4,9.95"/><path class="cls-14" d="M88.49,127.78s4.08,10.49,6.13,10.8"/><path class="cls-19" d="M162,114a15.61,15.61,0,0,1-.57,4.75c-.24.76-.56,1.5-.79,2.27a18.16,18.16,0,0,0-.48,2.34,19.38,19.38,0,0,1-.46,2.35A23.92,23.92,0,0,1,159,128a16.61,16.61,0,0,1-2.25,4.25l-.09,0c.41-1.56.85-3.06,1.33-4.56s1-3,1.62-4.45a13,13,0,0,0,.7-2.27c.15-.78.19-1.58.29-2.37a21.65,21.65,0,0,1,1.29-4.58Z"/><path class="cls-20" d="M82.92,83.74,86.17,83l3.21-2.57-3.21,1.14L78.6,84.07l.6-.41c.25-.16,2.3-2.63,2.3-2.63s-1.64.82-2.46,1.15a20.41,20.41,0,0,1-3.86.41l.41-2.3s.41-.25.41-.49,4.86-4,4.86-4l-3,.76A10,10,0,0,1,76,77.1c-.49,0-4.1.41-4.1.41l6.38-5.64s-4.08,1.86-4.57,1.94-3.45,0-3.45,0l9.55-5.5-3.8,2H71.29l.52-1.4,4.76-3.12L73.7,66.92l-3.36.41s-1.31-1.81-.74-2.27a24.12,24.12,0,0,0,2.88-2.65c.83-1,1.06-2.05,0-1.48S70.25,62,70.25,62l-3.19,1.48c-.89.41-.72-1.48-.72-1.48s1-.73,1.45-1.14.49-1.56.43-1.92a15.12,15.12,0,0,1,1.54-2.84s-.74.33-.82.51-2.05.88-2.23,1.21-4.25.49-4.25.49l2.87-1.7,3.61-2v-.9a20.85,20.85,0,0,0-3,.41c-.74.25-1.72,1.31-2.54,1.56s-2-2-2-2l3.53-2.13,2.63-1.21H64.18L60.94,51,65,47.9l-5.81,1.78,7.15-4.6-1.43.68-5.72,1,5.72-3.45-5.25,1.07-5.58-.78v2.26s1.81,5.33,2.05,5.58,3.61,5.25,3.61,5.25l1.23,3,1.44,1.56v2.63L64,65.44l.41,1.89L66.15,69,67,71.68,68.61,73l.25,2.54,1.81.9.66,2.71a28.59,28.59,0,0,0,1.4,2.54c.25.25,1.64,2.46,1.64,2.46L76,86.94l1.23,1.48s1.89.57,2.46,0,1.64-1.64,2-1.89,1.89-1.72,3-1.72,1.73.12,2.25,0L89.38,83Z"/><path class="cls-19" d="M161.18,126.47l-3.38,5L154,137.74s-1.31,3.17-1,3.61a6.73,6.73,0,0,1,.49,2.63,30.62,30.62,0,0,1-3.12,3s1.2,5,1.2,5.36-2.63,4.92-2.63,5.36v5.69l.72,9,1.43,1.39.91-11.9,4.27-20.52,5.35-12.88Z"/><path class="cls-19" d="M103.73,203.87l-4.1-.91-2.79,2.17L84.91,213.9H83.16l-3,2.74L78,219.37s-3,2-3.08,2.63-3.39,4-3.39,4.27a33.28,33.28,0,0,1-2.9,2.74L67,231.19l1.32.76,5-5.68L77,222.33l9.63-7.11,7.22-4.81,8.75-5.58Z"/><path class="cls-20" d="M33.81,234.25c1.05.18.08-.38-1.3-1.05A2.53,2.53,0,0,0,33.81,234.25Z"/><path class="cls-20" d="M98.15,167.82s1.48,1.19,1.64,1.27a11.6,11.6,0,0,0,1.15.29l-.74-1-2.63-2.63c-.25-.25-2.38-1.74-2.5-1.9s-3.69-1.43-3.69-1.43l-6.53.76-7.38,6.58-6.73,7.71-4.43,4.76-5.69,6.62-4.43,4L52,195.74s-1.26,4.27-2.41,4.43a47.19,47.19,0,0,0-5.42,1.91L35,204.93l-4.66,1.21-6.12,9-2.84,9.51S22.65,230.1,24,231s4.16,4.38,6.13,4.81a9,9,0,0,0,3.72,0l-5.25-4.38s2.27,1,3.95,1.79c-2.19-2.83-4.71-10.33-4.71-10.33l1.64-6.13v5a32.56,32.56,0,0,0,2,5.55c.88,1.45,1.76,3.64,2.85,4.29A14.24,14.24,0,0,1,37.53,234c.44.66,1.09-1.31,0-2.63a13.44,13.44,0,0,1-2.41-4.08v-4.46s2.73,5.25,3,6.13a10.08,10.08,0,0,0,3.34,3.28c.66.22,5,3.06,4.16,2.19s-3.5-3.72-3.72-4.6-1.09-.93-1.75-2.54-2.41-4.9-2.41-4.9l6.57,7.22s.44-2.84-.66-3.5a5.61,5.61,0,0,1-3.06-3.28c-1.09-2.41-3.28-5.25-2.41-6.57s1.31-6.78,1.31-6.78.44,8.73,1.31,9,3.28,4.61,3.28,4.61L48,225.5l-3.5-7-1.75-4.36,2.84,4.36L49.35,222a22.23,22.23,0,0,0-1.53-3.51,12.76,12.76,0,0,1-2-4.36c-.22-1.53-.44-2.84-.44-2.84l7,7.21-2-5-3.72-4.6,5.69,5-2.84-5-.22-3.72,5.47,3.72-2.37-6.1L51.76,201l4.38,3.28L58.76,206l-3.94-6.35,8.53,4.81-1.19-1.75a16.57,16.57,0,0,1-1.81-1.64c-.7-.78-1.35-1.07-1.81-1.64s-1.72-1.11-1.64-2a3.15,3.15,0,0,1,.41-1.35,3.29,3.29,0,0,0,1.15,1.52,55.16,55.16,0,0,0,5.29,3c.9.25,0-.66,0-.66l-2.3-2-2-1.9-1.19-1.72,3.16,2.09a18.38,18.38,0,0,0,3,2.05c.41,0,.66-.52.66-.52s-4.6-5-4.72-5.59,2,0,2,0l.66-1.76,3.57,2.08,1.52,1.07L65.74,191l.81-.46,2.26,1.15-.17-1.43,1.15-1.36,3.58-3.79,2,1.45-.74-2.78L72.87,181l3.61,1.35,1.35.25-4.64-5.09-.41-1.89,4.06,2.59,1,.08,1.35-.33-2.54-2.09-1-2,4.19-5.38,2.91,3.86a22.82,22.82,0,0,0,2.42,2.34l3.45,2.17a19.31,19.31,0,0,0-1.31-1.72A15.1,15.1,0,0,1,85.8,173c0-.16-1.31-2.13-1.31-2.13s-1.27-2.38-1.31-2.42a3.75,3.75,0,0,1,.37-.7l2.83,2.67,4.51,2.67,3.41.94,2,.82-2.87-3.24s-3.73-2.54-4-2.79-3.36-2.3-3.36-2.3l.41-2.17a24.25,24.25,0,0,1,2.17,1.76,28.47,28.47,0,0,0,2.46,3c.21.08,1.44.7,1.27.57S91,168,91,168l-1.81-2.3-1.56-1.35L91,165.81s1.81,1.31,2,1.56,2.75,2.13,2.75,2.13,2.63,2,2.79,2a16,16,0,0,1,1.64.74s-.94-1.6-1.11-1.76-2.63-2.3-2.83-2.42S92,163.83,92,163.83l3.61,1.57Z"/><path class="cls-22" d="M89.33,215.12l4.76-3.35c-2.36-5.75-5.53-12.44-10.15-17.54A58.54,58.54,0,0,0,66.23,181L62,185.83c4.67,3,7.89,4.89,12.12,9A81.57,81.57,0,0,1,89.33,215.12Z"/><path class="cls-19" d="M55.15,216.64l2.41,4.49s3,3.17,3.58,3.72,2.87,1.64,3,2-4.49-5.09-4.49-5.09l-3.06-4.21-1.42-3.61Z"/><path class="cls-19" d="M62.81,208.21s3.06,2,3.06,2.3a25.63,25.63,0,0,0,1.53,3,42,42,0,0,0,3.72,3.17c.77.66,2.41,1.86,2.41,1.86L71,215.12l-2.41-3s-2-2.3-2.3-2.74-3.5-2.74-3.5-2.74l-2.41-.88Z"/><path class="cls-19" d="M69.26,199.19s1.31,3.11,2.3,3.44,2.84,2.08,3.61,2.63A38.09,38.09,0,0,1,78,208l-3.3-4.4L72.22,201Z"/><path class="cls-19" d="M57.67,226.37s3.23,2.52,3.47,2.74a17,17,0,0,0,2.33,1.2c.33.11,3.5.88,3.5.88V230.1l-4.65-1.31-2.68-1.45-2-1.5Z"/><path class="cls-19" d="M45.41,228.51l3.5,2.68s1.53,1.09,2.08,1.42a29.71,29.71,0,0,0,2.84,1.13,10.13,10.13,0,0,0,2.52,1.49h3.28l-2,.74-3.17-.63-2-1.06-2-1.09-3-2Z"/><path class="cls-19" d="M45.41,231.19s2.19,1.5,2.3,2,1.53,1.49,2.08,1.93a20.3,20.3,0,0,1,2,1.31,8.63,8.63,0,0,0,1.75,1.09l-3.28-1-3.28-2.26-2.19-3.1Z"/><path class="cls-19" d="M64.56,218.5s.66,2.41,1.2,2.74a11.37,11.37,0,0,1,2.08,1.42c.22.33,1.86,1.86,1.42.88a11.45,11.45,0,0,0-2-3.17c-.44-.23-1.53-2.74-1.53-2.74Z"/><path class="cls-20" d="M6.67,219.81l4.81-4.69,14-5.26v-2.46l-14.12,3.67-6.24,5-3.39,4.71L0,228.13.66,237l3.83,5.58,5.18,1.67,1.28-.46-3.5-3.28-2.3-5.14v-8Z"/><path class="cls-19" d="M113,184.25l1.31,2.74a27,27,0,0,0,0,4.27A7,7,0,0,0,115,193a12.21,12.21,0,0,1,0-2.84c.22-.44-.33-2.84,0-3.5s-1-3.39-1-3.39Z"/><path class="cls-19" d="M117.63,181l-.77,5.27a31.5,31.5,0,0,1,.77,3.94,14.12,14.12,0,0,0,.66-1.31,1.34,1.34,0,0,0,.65-1.2v-4.38Z"/><path class="cls-19" d="M106.25,184.14,102.31,181,98,176l2.19,1.53s2.74,2.08,3.06,2.52,2.3,2.46,2.3,2.46Z"/><path class="cls-19" d="M92.9,176s3.39,2.52,3.72,2.84,2.74,2.74,3,3.17,1.37,1,1.81,2.08a9.67,9.67,0,0,0,2,2.52s2.08-.74,1.09-1.08a6,6,0,0,1-2.35-1.44c-.16-.33-2-2.92-2.52-2.79s-2.68-3.12-2.68-3.12Z"/><path class="cls-19" d="M132.18,216.75c0-.66-1.49-2.3-2.48-2.84s-1-2.59-2-3.82-2.85-6.74-3.28-7.84-1.42-6.73-1.42-6.73-5.47-2-6.57-1.64-4.71-.22-6.24,0-3.67,1.64-3.94,2.52-6.57,6-6.62,6.57c0,.35,2,.78,1.64,2.73l1.37-.87,8.1-7,2.63-.22,2.52.11,2.41,1.09,2,6.46,6.24,8.75,5.69,6.93,5.48,6.39c.64-1.07-2.53-7.74-2.53-7.74S132.18,217.4,132.18,216.75Z"/><path class="cls-16" d="M169,217a9.67,9.67,0,0,1-2.09,2.53,9.56,9.56,0,0,1-2.75,1.78,9.56,9.56,0,0,1,2.09-2.53A9.67,9.67,0,0,1,169,217Z"/><path class="cls-16" d="M170.21,219.32a15,15,0,0,1-3,2.75,14.81,14.81,0,0,1-3.61,1.93,14.82,14.82,0,0,1,3-2.75A15,15,0,0,1,170.21,219.32Z"/><path class="cls-16" d="M171.27,221a12.94,12.94,0,0,1-2.79,2.58,12.8,12.8,0,0,1-3.37,1.77,12.8,12.8,0,0,1,2.79-2.58A12.94,12.94,0,0,1,171.27,221Z"/><path class="cls-16" d="M169.14,225.72a8.24,8.24,0,0,1-2,2.24,8.15,8.15,0,0,1-2.65,1.45,8.15,8.15,0,0,1,2-2.24A8.24,8.24,0,0,1,169.14,225.72Z"/><path class="cls-23" d="M140,226.7a22.17,22.17,0,0,1,5-.5,21.92,21.92,0,0,1,5,.5,21.92,21.92,0,0,1-5,.5A22.17,22.17,0,0,1,140,226.7Z"/><path class="cls-19" d="M163.64,251a2.1,2.1,0,0,1,.88-.69,1.2,1.2,0,0,1,.89-.07c.3.13.6.44.89.5a1.16,1.16,0,0,0,.88-.24,2.45,2.45,0,0,1,.88-.41A2.5,2.5,0,0,1,169,250a2.88,2.88,0,0,1,1.79.95v.2a2.88,2.88,0,0,1-1.76,1,2.49,2.49,0,0,1-.89-.11,2.45,2.45,0,0,1-.89-.39,1.16,1.16,0,0,0-.89-.21c-.29.06-.59.39-.88.52a1.2,1.2,0,0,1-.89,0,2.1,2.1,0,0,1-.9-.67Z"/><line class="cls-21" x1="158.8" y1="247.55" x2="161.34" y2="247.42"/><path class="cls-23" d="M150.1,242.66a2.61,2.61,0,0,1,1.74-.31c.29.07.57.24.86.28a2.08,2.08,0,0,0,.87-.09,5.33,5.33,0,0,1,1.74-.21,4.11,4.11,0,0,1,1.72.53v.1a4.12,4.12,0,0,1-1.75.43,5.33,5.33,0,0,1-1.73-.31,2.08,2.08,0,0,0-.86-.14c-.29,0-.58.18-.87.23a2.61,2.61,0,0,1-1.72-.42Z"/><path class="cls-23" d="M170.79,239.72a1.9,1.9,0,0,1,.75-1.29,6.74,6.74,0,0,0,.69-.34,1.47,1.47,0,0,0,.43-.6,3.8,3.8,0,0,1,.83-1.22,3,3,0,0,1,1.36-.7l.07.07a3,3,0,0,1-.67,1.37,3.79,3.79,0,0,1-1.2.85,1.47,1.47,0,0,0-.59.44,6.78,6.78,0,0,0-.33.7,1.9,1.9,0,0,1-1.28.78Z"/><path class="cls-19" d="M160,258.37a2,2,0,0,1,.53-1,1.1,1.1,0,0,1,.76-.37c.31,0,.7.2,1,.15a1.07,1.07,0,0,0,.7-.53,3.06,3.06,0,0,1,1.37-1.13,2.72,2.72,0,0,1,1.94.25l.08.18a2.72,2.72,0,0,1-1.2,1.54,3.06,3.06,0,0,1-1.77.16,1.07,1.07,0,0,0-.87.12c-.24.16-.38.57-.59.8a1.1,1.1,0,0,1-.81.27,2,2,0,0,1-1-.3Z"/><line class="cls-21" x1="173.28" y1="264.62" x2="178.37" y2="259.65"/><path class="cls-20" d="M197,281c-.49-.49-1.93-1.56-2.13-1.81s-1.27-1.81-1.27-1.81.49-.37.62-.29a21,21,0,0,1,1.89,1.44c.57.53,1.11,1.44,1.56,1.81l.68.54.28-1.27-1.17-1,0-1.31a2.7,2.7,0,0,1,.82.12,5,5,0,0,1,.74.55l.15-.67-1.14-1.16.33-1.11.62-.12.19-.06-.48-4.36-3.35-5h-1.37s-1.67-.9-1.31-2a10.07,10.07,0,0,0,.26-1.19l-3.89-3.2h-.77c-.08.16.41,3.16.41,3.45s1,3.86,1,3.86,1.64,1.44,1.6,1.64a13.5,13.5,0,0,1-1.5,2.5,17.7,17.7,0,0,0-2.07.78,3.63,3.63,0,0,0-.86,1.89c0,.45.86,1.15,1.07,1.19a9.76,9.76,0,0,1,.66,2.5,3.1,3.1,0,0,0,.41,1c0-.08.74-.9.94-.9s.66.16.78,0a23.4,23.4,0,0,0,.12-2.87s.86-2.05.86-2.26.62-.9.86-1.15a10.92,10.92,0,0,0,.66-1.6,15,15,0,0,1-.41,2.17,13.64,13.64,0,0,0-.53,2.09c0,.45-.29,2.87-.29,2.87a18.55,18.55,0,0,0-1.48,2.46c0,.29.08,3,.08,3l.08,3.24,2.3,1.48,1.64,1.56.39-.52.37-.62c-.85-.71-1.74-1.46-1.86-1.61s-1.23-1.56-1.23-1.56l1.23-.78s1.23,1.15,1.48,1.44.61.83,1.08,1.35l.89-1.5c-1.45-1.12-3.24-2.56-3.24-2.56l-.53-1.89.82.21s1,1.23,1.11,1.35,2.32,1.28,2.66,1.52h0l.3-.5.13-.57C197.56,281.55,197.13,281.2,197,281Z"/><path class="cls-20" d="M181.75,290.61l-5.14-2.44.22-1.94,1.87-2.63-.89-3.5-1.53-1.72-2.63,1.72H172s-1.31-3.06-.74-3.61-1.7,1.31-1.7,1.31l-1.37-.55-1.31-3.57-1.44,1.6-2.24-3.39v-2.23l-4-2-1.64-2.31,3.06-1.3s-.22-3.28-2.3-1.88a1.93,1.93,0,0,1-3-.75l-1.11-2.19,3.61-.88,2.28-1.16,2.64-1.79s-.44-1.11-3.83-.34-3.59,0-3.59,0l2.72-2s.77-2.3-.77-1.64-1.95,0-1.95,0l-.68-.77s2.3-.88,1.31-.88a9.55,9.55,0,0,1-2.74-.77l-1.61-.88-5-3.17-2.08-3s-.31-.25-.69-.59l.58,3.21,4.16,9.3.77,1v3.17l1.75,3.61a35.08,35.08,0,0,0,2.41,4.16c.88,1.09,7,6.13,7,6.13l13,17.76,2.34.18,1.11,1.53.11-2.19,1.09.77.56,2,.64-.77,1.09-.55,1.31,2.74Z"/><path class="cls-24" d="M171.33,212.23a15.28,15.28,0,0,1-1.6,1.94,23.68,23.68,0,0,1-1.8,1.69,12.61,12.61,0,0,1-2,1.46c-.71.42-1.47.77-2.18,1.19l-.09.05h0a16.27,16.27,0,0,0-4.32,2,39.64,39.64,0,0,1-4.22,2.26,29.53,29.53,0,0,1-4.44,1.75,28.07,28.07,0,0,1-4.71,1.11l-.08-.18a28.08,28.08,0,0,1,4.08-2.6,29.54,29.54,0,0,1,4.35-2,39.64,39.64,0,0,1,4.56-1.45,16.28,16.28,0,0,0,4.46-1.69l-.09.05c.58-.59,1.11-1.24,1.69-1.82a12.61,12.61,0,0,1,1.9-1.56,23.64,23.64,0,0,1,2.07-1.33,15.28,15.28,0,0,1,2.27-1.08Z"/><path class="cls-16" d="M155.19,182.31s-.41,1.26-.93,1.56a17.81,17.81,0,0,0-2.11,1.81,15,15,0,0,0-.71,1.61,5.5,5.5,0,0,0,0,1.18s1.53-1.23,1.64-1.4a17.44,17.44,0,0,1,1.59-1.68,5.91,5.91,0,0,0,1-.7c.27-.22.35-1.88.35-1.88l-.55-.9Z"/><path class="cls-16" d="M157.57,186.46l-.63,1.09-.6,1.72a15.3,15.3,0,0,0-.77,1.37,8.88,8.88,0,0,0,0,1.48,7.36,7.36,0,0,1,.33.85,6,6,0,0,0,1.67-.77,3.45,3.45,0,0,0,.52-.77,6.15,6.15,0,0,0,.22-1.72,15,15,0,0,0,0-1.94C158.22,187.69,157.57,186.46,157.57,186.46Z"/><path class="cls-25" d="M152.32,181.91l-2.24,2.83s-.55,1.12-.66,1.31-.6,1.34-.6,1.34a12.35,12.35,0,0,1-1.15.88c-.16.05.14-.82.14-.82s.49-.85.6-1,.52-1.1.66-1.37.77-1.25.91-1.47,1.26-1.5,1.26-1.5a5.3,5.3,0,0,0,.38-.55c.08-.16.71-1,.71-1Z"/><path class="cls-25" d="M153.19,187.91a16.7,16.7,0,0,1-1.09,2.24c-.19.11-.63,1.75-.88,1.81a6.21,6.21,0,0,0-1.26.88,5.58,5.58,0,0,1-1.62,1.07c-.47.08-1.59.11-1.59.11a1.55,1.55,0,0,1,.55-1.18c.57-.47,1.81-1.86,2.27-2.27a15.15,15.15,0,0,0,1.56-2.11c.14-.22,1.18-1.45,1.18-1.45Z"/><path class="cls-26" d="M147.75,181.68,145.67,184s-1.67,2.43-1.81,2.65a15.46,15.46,0,0,1-3.88,2.11,7.82,7.82,0,0,1-2.38.33c-.79-.16-2-.16-1.4-.47s1.78-.68,2-.88.63-.88.79-.93,2.13-.49,2.13-.49a12.6,12.6,0,0,1,1.07-1.34c.16-.08,1.26-.6,1.45-.71s1.75-1.31,1.94-1.48S147.75,181.68,147.75,181.68Z"/><path class="cls-25" d="M158.34,193.82l-1.4,2.6-2.16.74-1.59,1.23h5.15a7.47,7.47,0,0,0,2.34,0c.74-.25,1.81-.9,1.89-1.31a9.51,9.51,0,0,0,0-1.56l-2.63-5.32Z"/><polygon class="cls-12" points="159.95 191.58 159.95 194.01 159.14 192.24 159.14 190.84 159.95 191.58"/><path class="cls-23" d="M142.8,174.34l-4.1,2.3L136,178.45l-2.44,1.64-1.72,1.82s3-1.74,3.36-1.82a17.84,17.84,0,0,0,2.51-2Z"/><path class="cls-16" d="M193.27,289.16l-3.82-2-.57.21s1.4,1.52,1.56,1.81a9,9,0,0,0,2,1l.47.14.63-.84Z"/><path class="cls-16" d="M187.64,289.32l1.23,2.09,1,2,1.14-.69a5.33,5.33,0,0,0-.49-1.1,15.06,15.06,0,0,1-.82-1.64Z"/><path class="cls-16" d="M183.62,295.19l.07-.21a17.23,17.23,0,0,0,.59-2.29c0-.41-.29-2.17-.29-2.17s.78-.62.9,0-.12,1.33,0,2.2a13.35,13.35,0,0,1,0,1.66,7.08,7.08,0,0,1-.16,1.24l-1.15-.2"/><path class="cls-16" d="M186.8,295.1l-1-3.28-.29-1.85s1.44,0,1.48.74.86,3.81.86,3.81Z"/><path class="cls-19" d="M153.41,230a6,6,0,0,0,1.1-.57Z"/><path class="cls-19" d="M163.8,240.05l-14.44,1.86,8.1-3-8.59,1.09,10.23-4.92-8.64,2.55s6-3.43,7.08-4c-1.09.35-6.35,0-5-.06s3.61-3.17,3.61-3.17l-7,1.82,4.26-2.23a10.1,10.1,0,0,1-10.17-1.5c-.88-.49-4.6-1.81-4.6-1.81l-7.22-9.08-.16.92,1.91,1.82,5.25,7.11,2.08,5.25,2.63,4.71,1.31,7.22,1,2.17,13.21-.42L150,245.09h5.18Z"/><path class="cls-19" d="M157.54,233.66l.14-.06C157.76,233.54,157.7,233.57,157.54,233.66Z"/><path class="cls-20" d="M184.32,254.83,182,251.65l-1.2-3-.33-7.11L178,236.77l-1.2-3.39-.33-4.81-1.78-3.13-4.52,4.29-7,3.84,11.43-4.89-8.08,6.07-1.68.41s3.94.9,4.43.49a22.77,22.77,0,0,1,4.35-2.79c3-1.65.82,0,.49.8A12.62,12.62,0,0,1,171,237c-1.16.82-4.4,3.45-4.4,3.45l7.92-1.48,1.72-2.71-.37,3.78s-2.09,3.45-2.5,3.86-4.51,3-4.51,3,3.32-.09,4-.58a8.48,8.48,0,0,0,2-1.64,5,5,0,0,1,.94-1l1.76-2.18s-2.79,6.36-3.36,6.94-3,2.54-3,2.54,4.19-1.72,4.55-2.22a31.63,31.63,0,0,1,2.5-3.36c.9-.9-4.43,6.32-4.43,6.32l-2,1,6.4-2.71,1-1-4.6,6.1,4.6-2,.88-.41,2.24,2.41Z"/><path class="cls-22" d="M166.92,202.25a56.88,56.88,0,0,1-16.67,12.44A74,74,0,0,1,131.88,221l3.84,5.32c6.55-.66,11.37-2.45,18.6-6,7.9-3.92,12.38-7.52,17-12.82Z"/><polygon class="cls-26" points="120.97 122.48 137.54 125.85 153.46 128.39 152.31 136.1 116.86 128.9 110.22 127.57 111.45 120.34 120.97 122.48"/><rect class="cls-24" x="138.36" y="121.7" width="5.58" height="13.58" transform="translate(23.49 -21.81) rotate(9.63)"/><path class="cls-27" d="M140,133.8l-3.94,16.41s-3.28,8.21-6.4,10a26.33,26.33,0,0,1-8,2.46s-23,.33-24.64-1-13.77-10.18-13.77-10.18-9.85-12.15-9-16.91,6.08-18.31,8.74-18.55c5.62-.49,2.1-1.64,2.1-1.64"/><path class="cls-27" d="M111.2,161.72"/><path class="cls-28" d="M142.37,138a10.49,10.49,0,0,1-1.62-1,18.21,18.21,0,0,1-2.78-2.5,10.71,10.71,0,0,1-1.16-1.52,10.34,10.34,0,0,1,1.62,1,17.54,17.54,0,0,1,1.45,1.18,18,18,0,0,1,1.33,1.32A10.86,10.86,0,0,1,142.37,138Z"/><path class="cls-28" d="M141.39,141.66a9.5,9.5,0,0,1-1.61-.82,16.18,16.18,0,0,1-1.45-1,16,16,0,0,1-1.34-1.18,9.69,9.69,0,0,1-1.19-1.39,9.37,9.37,0,0,1,1.61.82,15.88,15.88,0,0,1,1.45,1,16.33,16.33,0,0,1,1.34,1.18A9.81,9.81,0,0,1,141.39,141.66Z"/><path class="cls-28" d="M140.56,145.57a9.93,9.93,0,0,1-1.63-.87,17.31,17.31,0,0,1-2.83-2.31,10.15,10.15,0,0,1-1.2-1.43,9.81,9.81,0,0,1,1.63.87A16.69,16.69,0,0,1,138,142.9a17.11,17.11,0,0,1,1.35,1.23A10.25,10.25,0,0,1,140.56,145.57Z"/><path class="cls-28" d="M139.73,149a10.49,10.49,0,0,1-1.62-1,18.21,18.21,0,0,1-2.78-2.5,10.72,10.72,0,0,1-1.16-1.52,10.34,10.34,0,0,1,1.62,1,17.52,17.52,0,0,1,1.45,1.18,18,18,0,0,1,1.33,1.32A10.85,10.85,0,0,1,139.73,149Z"/><path class="cls-28" d="M138.27,153.13a9.92,9.92,0,0,1-1.42-1.12c-.44-.41-.85-.83-1.25-1.27l-.58-.67a3.64,3.64,0,0,0-.66-.49,6.39,6.39,0,0,1-1.2-1.35,9.37,9.37,0,0,1,1.61.82,14.86,14.86,0,0,1,1.45,1,3.08,3.08,0,0,1,.61.69l.54.73A8.42,8.42,0,0,1,138.27,153.13Z"/><path class="cls-28" d="M136.44,157a10.74,10.74,0,0,1-1.32-1.31c-.4-.46-.78-.94-1.14-1.42s-.71-1-1-1.5a12.55,12.55,0,0,1-.89-1.61,9.33,9.33,0,0,1,1.42,1.18,13.73,13.73,0,0,1,1.2,1.37,13.05,13.05,0,0,1,1,1.53A8.36,8.36,0,0,1,136.44,157Z"/><path class="cls-28" d="M134.2,160.4a14.15,14.15,0,0,1-1-1.62c-.32-.55-.62-1.1-.91-1.65s-.58-1.1-.84-1.65a14.93,14.93,0,0,1-.72-1.71,9.2,9.2,0,0,1,1.29,1.36,11.88,11.88,0,0,1,1,1.55,10.13,10.13,0,0,1,.78,1.73A6.31,6.31,0,0,1,134.2,160.4Z"/><path class="cls-28" d="M130.11,163.57a11.13,11.13,0,0,1-.33-1.79l-.19-1.78a9.73,9.73,0,0,0-.39-1.67c-.16-.55-.36-1-.51-1.58a7.9,7.9,0,0,1,1.07,1.44,6.61,6.61,0,0,1,.7,1.61,4.38,4.38,0,0,1,.12,1.87A6.71,6.71,0,0,1,130.11,163.57Z"/><path class="cls-28" d="M125.81,165.19a11,11,0,0,1,0-1.86c.05-.61.13-1.21.22-1.82s.2-1.2.31-1.78.24-1.17.38-1.74a8.15,8.15,0,0,1,.28,1.81,10.57,10.57,0,0,1-.07,1.81,10.81,10.81,0,0,1-.38,1.81A8,8,0,0,1,125.81,165.19Z"/><path class="cls-28" d="M121.63,166a2.16,2.16,0,0,1,.2-.47l.28-.72a6.5,6.5,0,0,0,.19-.7q.23-.92.52-1.8t.61-1.76a16.64,16.64,0,0,1,.74-1.7,9.14,9.14,0,0,1-.08,1.88,12.51,12.51,0,0,1-.4,1.82,12.1,12.1,0,0,1-.68,1.77c-.13.26-.26.52-.42.77s-.16.25-.25.38a2.35,2.35,0,0,1-.48.4Z"/><path class="cls-28" d="M117.76,165.9a9.56,9.56,0,0,1,.42-1.76,16.94,16.94,0,0,1,1.47-3.24,9.93,9.93,0,0,1,1.05-1.49,9.3,9.3,0,0,1-.4,1.76,15.55,15.55,0,0,1-.64,1.66,15.91,15.91,0,0,1-.83,1.58A9.64,9.64,0,0,1,117.76,165.9Z"/><path class="cls-28" d="M113.74,166a10,10,0,0,1,.48-1.78,17.8,17.8,0,0,1,1.59-3.29,10.35,10.35,0,0,1,1.11-1.5,9.76,9.76,0,0,1-.46,1.79,16.29,16.29,0,0,1-.7,1.68,16.58,16.58,0,0,1-.88,1.6A10,10,0,0,1,113.74,166Z"/><path class="cls-28" d="M110.14,166a10.62,10.62,0,0,1,.6-1.79,19,19,0,0,1,1.81-3.27,11,11,0,0,1,1.21-1.48,10.26,10.26,0,0,1-.58,1.8,17,17,0,0,1-.82,1.68,17.25,17.25,0,0,1-1,1.59A10.51,10.51,0,0,1,110.14,166Z"/><path class="cls-28" d="M106.35,165.8a9.64,9.64,0,0,1,.47-1.74,17.38,17.38,0,0,1,1.56-3.2,10,10,0,0,1,1.09-1.46,9.32,9.32,0,0,1-.45,1.75,15.3,15.3,0,0,1-.69,1.64,15.48,15.48,0,0,1-.87,1.56A9.44,9.44,0,0,1,106.35,165.8Z"/><path class="cls-28" d="M102.27,165.75a10.2,10.2,0,0,1,.57-1.76c.23-.56.5-1.11.78-1.65s.6-1.06.94-1.57a10.65,10.65,0,0,1,1.15-1.46,9.67,9.67,0,0,1-.52,1.77,15.85,15.85,0,0,1-1.71,3.22A9.48,9.48,0,0,1,102.27,165.75Z"/><path class="cls-28" d="M98.47,165.44a14.57,14.57,0,0,1,.84-1.72q.47-.82,1-1.6c.34-.52.7-1,1.08-1.52a11.86,11.86,0,0,1,1.26-1.41A9.89,9.89,0,0,1,102,161a14.83,14.83,0,0,1-.91,1.63,13.32,13.32,0,0,1-1.12,1.52A7.34,7.34,0,0,1,98.47,165.44Z"/><path class="cls-28" d="M93.58,163.14A9.7,9.7,0,0,1,95,162a16.38,16.38,0,0,1,1.57-.9,2.6,2.6,0,0,0,.73-.43,3.6,3.6,0,0,0,.61-.55,3,3,0,0,0,.44-.65,1.52,1.52,0,0,0,.1-.35,2,2,0,0,1,.26-.31c-.16.6-.42,1.13-.61,1.67a3.58,3.58,0,0,1-1.06,1.39,3.18,3.18,0,0,1-.87.47,3.63,3.63,0,0,0-.83.26A10.65,10.65,0,0,1,93.58,163.14Z"/><path class="cls-28" d="M90.33,160.87a10.06,10.06,0,0,1,1.48-1.13,17.31,17.31,0,0,1,3.31-1.64,10.43,10.43,0,0,1,1.84-.51,10.17,10.17,0,0,1-1.49,1.12,17.88,17.88,0,0,1-1.61.9c-.55.27-1.12.52-1.7.74A11,11,0,0,1,90.33,160.87Z"/><path class="cls-28" d="M87.49,158.77A10.52,10.52,0,0,1,89,157.69a18,18,0,0,1,3.44-1.54,10.87,10.87,0,0,1,1.89-.45,10.72,10.72,0,0,1-1.58,1.07,18.72,18.72,0,0,1-1.69.85c-.57.26-1.16.49-1.76.69A11.42,11.42,0,0,1,87.49,158.77Z"/><path class="cls-28" d="M84.57,156.48A9.47,9.47,0,0,1,86,155.33a16.12,16.12,0,0,1,3.15-1.69,9.66,9.66,0,0,1,1.76-.53,9.52,9.52,0,0,1-1.41,1.14,16.56,16.56,0,0,1-1.53.92,17.16,17.16,0,0,1-1.62.76A10.15,10.15,0,0,1,84.57,156.48Z"/><path class="cls-28" d="M81,154c.56-.36,1.25-.57,1.75-.93A16.66,16.66,0,0,1,86,151.35a10,10,0,0,1,1.8-.54A9.91,9.91,0,0,1,86.32,152a17.25,17.25,0,0,1-1.57.93,17.79,17.79,0,0,1-1.66.77c-.28.11-.57.22-.87.31L82,154a.51.51,0,0,1-.28,0C81.5,154.05,81.26,154,81,154Z"/><path class="cls-28" d="M78.43,150.68a11,11,0,0,1,1.8-.59c.61-.15,1.22-.27,1.84-.36s1.23-.16,1.86-.21l.94,0h.23l.15-.1a1.81,1.81,0,0,0,.27-.23,3.72,3.72,0,0,1-1.46,1.06,14.74,14.74,0,0,1-1.82.41,15.42,15.42,0,0,1-1.87.18A9.88,9.88,0,0,1,78.43,150.68Z"/><path class="cls-28" d="M76.29,147.44a9.76,9.76,0,0,1,1.7-.62c.57-.16,1.16-.28,1.74-.39s1.17-.18,1.77-.22a10.87,10.87,0,0,1,1.81,0,9.17,9.17,0,0,1-1.67.69,14,14,0,0,1-1.73.42,14.25,14.25,0,0,1-1.78.21A8.42,8.42,0,0,1,76.29,147.44Z"/><path class="cls-28" d="M74,143.93a10.56,10.56,0,0,1,1.79-.47c.6-.11,1.21-.19,1.81-.25s1.21-.1,1.82-.11a11.75,11.75,0,0,1,1.84.09,9.4,9.4,0,0,1-1.74.59,14.23,14.23,0,0,1-1.79.31,13,13,0,0,1-1.84.08A9,9,0,0,1,74,143.93Z"/><path class="cls-28" d="M72.18,140.43a14.85,14.85,0,0,1,1.91-.16c.63,0,1.26,0,1.88,0s1.24.05,1.86.1a14,14,0,0,1,1.85.27,9.52,9.52,0,0,1-1.84.41,13.32,13.32,0,0,1-1.86.11,10.63,10.63,0,0,1-1.88-.17A7.7,7.7,0,0,1,72.18,140.43Z"/><path class="cls-28" d="M71,135.73c.6.12,1.23.25,1.82.41s1.18.3,1.75.42l1.73.32c.56.1,1.11.19,1.69.35a8.57,8.57,0,0,1-1.78.28,8.67,8.67,0,0,1-1.76-.07,7,7,0,0,1-1.77-.47A5,5,0,0,1,71,135.73Z"/><path class="cls-28" d="M71.78,130.7a10.46,10.46,0,0,1,1.58,1c.49.36,1,.74,1.43,1.14s.91.8,1.35,1.21a16.26,16.26,0,0,0,1.3,1.18,5.2,5.2,0,0,1-1.7-.66,10.31,10.31,0,0,1-1.5-1,11.87,11.87,0,0,1-1.33-1.27A8.71,8.71,0,0,1,71.78,130.7Z"/><path class="cls-28" d="M73,127.13a11.11,11.11,0,0,1,1.5,1.16c.46.42.91.86,1.33,1.32s.83.93,1.22,1.41a13.73,13.73,0,0,1,1.08,1.54,9.52,9.52,0,0,1-1.57-1,14.28,14.28,0,0,1-1.37-1.27,14.49,14.49,0,0,1-1.2-1.45A9.62,9.62,0,0,1,73,127.13Z"/><path class="cls-28" d="M74.47,123.53a9.79,9.79,0,0,1,1.45,1.07c.45.39.88.81,1.29,1.24s.8.88,1.17,1.34a11,11,0,0,1,1,1.49,9.1,9.1,0,0,1-1.5-1,14.18,14.18,0,0,1-2.47-2.57A8.67,8.67,0,0,1,74.47,123.53Z"/><path class="cls-28" d="M76.11,119.65a10.65,10.65,0,0,1,1.38,1.23c.43.44.83.9,1.21,1.37s.75,1,1.1,1.45a11.85,11.85,0,0,1,.94,1.58,9.44,9.44,0,0,1-1.46-1.13A14.29,14.29,0,0,1,78,122.84a13.79,13.79,0,0,1-1.08-1.48A8.43,8.43,0,0,1,76.11,119.65Z"/><path class="cls-28" d="M78.09,116.17a14.8,14.8,0,0,1,1.15,1.54c.35.53.69,1.05,1,1.58s.64,1.06.94,1.61a13.91,13.91,0,0,1,.8,1.69,9.51,9.51,0,0,1-1.36-1.3,12.77,12.77,0,0,1-1.12-1.49,11.16,11.16,0,0,1-.89-1.67A6.7,6.7,0,0,1,78.09,116.17Z"/><path class="cls-28" d="M83.35,112.84a6.12,6.12,0,0,1-.33,1.8,7.46,7.46,0,0,0-.27,1.73,4.57,4.57,0,0,0,.32,1.71,3.12,3.12,0,0,0,.38.69,1.83,1.83,0,0,1,.4.65,11.23,11.23,0,0,1-1.19-1.32,3.94,3.94,0,0,1-.76-1.6,3.52,3.52,0,0,1,.11-1.94,3.91,3.91,0,0,1,.54-.9,3.69,3.69,0,0,1,.4-.43C83.09,113.1,83.31,113,83.35,112.84Z"/><path class="cls-28" d="M84,117.56a4.53,4.53,0,0,1,.82-1.59,2.46,2.46,0,0,1,1.36-1.07.52.52,0,0,1,.52.29.78.78,0,0,1,.11.42,1.36,1.36,0,0,1,0,.25l0,.18a5.2,5.2,0,0,1-.23.68,3.13,3.13,0,0,1-.26.56,8.77,8.77,0,0,1-1.17,1.84,11.71,11.71,0,0,1,.24-1.87,13.55,13.55,0,0,0,.27-1.83c0-.29,0-.63-.34-.7,0,0-.21,0-.31.15a1.2,1.2,0,0,0-.24.44,1,1,0,0,0,0,.29c0,.1,0,.21,0,.24a.87.87,0,0,0,0,.34C84.65,116.83,84.18,117.1,84,117.56Z"/><path class="cls-29" d="M111.2,161.72"/><polygon class="cls-19" points="15.76 211.28 16.96 212.7 15.12 210.08 14.2 210.32 15.76 211.28"/><polygon class="cls-19" points="8.1 217.18 8.1 216.25 7.01 214.58 5.8 215.56 8.1 217.18"/><polygon class="cls-19" points="0.97 224.06 0.46 226.19 0.98 226.16 3.72 228.24 2.3 225.61 0.97 224.06"/><polygon class="cls-19" points="9.08 213.19 10.61 215.54 9.85 213.19 9.54 212.54 8.91 213.05 9.08 213.19"/><polygon class="cls-19" points="17.51 209.74 20.35 211.82 18.93 209.96 18.34 209.25 17.23 209.53 17.51 209.74"/><polygon class="cls-19" points="6.07 222.54 6.07 221.01 4.05 219.7 3.23 218.74 2.72 219.44 4.82 221.45 6.07 222.54"/><path class="cls-19" d="M14.88,213.35c-.54-.72-1.67-2.18-2.06-2.67l-1.45.38-.3.25,1.62,1.4S15.54,214.23,14.88,213.35Z"/><polygon class="cls-19" points="4.82 224.3 3.06 222.76 1.7 221.01 1.43 222.16 2.41 223.97 4.71 225.5 4.82 224.3"/><polygon class="cls-19" points="5.58 217.62 4.75 216.63 4.12 217.51 7 219.48 5.58 217.62"/><path class="cls-14" d="M164.24,93.11c4.18-1.84,9.93.54,12.91,2.61,1.67,1.15,3.19,2.87,5.91,6.57,3,4.05,4.65,5.94,5.25,8.53a33,33,0,0,0,1.31,5.69c.3.83.41,1,1.53,3.5,2.2,4.95,1.88,4.56,2.41,5.47,1.2,2.07,1.63,1.91,4.16,5.47.55.77,1.09,1.61,2.19,3.28,1.64,2.5,2.14,3.37,3.5,5.47,1.2,1.85,2.1,3.18,3.06,4.6,4.69,6.9,5.49,7.43,6.13,9.63.57,2,1.17,4.31.22,6.57a11.74,11.74,0,0,0-1.26,3.5,15.14,15.14,0,0,0-.08,2.71c0,1.11.1,1.89.25,3.28s.24,2.36.49,3.78c.37,2.06.47,1.69.57,2.71.23,2.22-.38,2.95.08,5,.17.76.23.53.49,1.56.37,1.44.82,3.23.08,4.6-.11.2-.21.34-.41.74a9.67,9.67,0,0,0-.66,1.72,6.27,6.27,0,0,1-2.3,3.53,2.36,2.36,0,0,1-3.69-1c-.35-.74-.14-1.3-.57-1.56s-.67.09-1.07-.08c-.61-.27-.69-1.34-.74-2.05-.14-2,.49-3.05,0-3.45-.19-.15-.35-.05-1.4.08-1.52.2-2.29.29-2.79-.08s-.5-.76-.66-1.48a10.63,10.63,0,0,1,0-2.87c.06-2.27-.34-2.71.16-3.36.3-.39.75-.65.9-1.31a2.22,2.22,0,0,0,0-.82c-.28-1.43-2.46-3-3.36-2.46-.7.4,0,1.66-1,3a4.17,4.17,0,0,1-2,1.4,4,4,0,0,1-3.12.16c-1.19-.61-1.47-2.07-1.81-3.78-.3-1.55-.58-3,.08-4.35a10,10,0,0,0,.82-2.3,1.53,1.53,0,0,0,0-1.07c-.21-.44-.64-.54-1-.74-1.17-.67-.81-2.15-1.89-3.86a6.75,6.75,0,0,0-1.56-1.64c-2.83-2.44-6.56-7.71-7.55-9.11-3.9-5.51-3.36-6.74-7.14-11.16-1.6-1.87-1.73-1.7-3.36-3.61a51.59,51.59,0,0,1-6.4-9.85C156.92,117.76,155.52,97,164.24,93.11Z"/><path class="cls-20" d="M196.88,173.2c.91-.52,3.08,1,3.36,2.46a2.22,2.22,0,0,1,0,.82c-.15.66-.6.92-.9,1.31-.5.66-.11,1.09-.16,3.36a10.63,10.63,0,0,0,0,2.87c.15.72.25,1.18.66,1.48s1.27.28,2.79.08c1-.13,1.2-.24,1.4-.08.49.4-.14,1.42,0,3.45,0,.72.13,1.79.74,2.05.4.17.7-.14,1.07.08s.23.82.57,1.56a2.36,2.36,0,0,0,3.69,1,6.27,6.27,0,0,0,2.3-3.53,9.67,9.67,0,0,1,.66-1.72c.2-.39.3-.54.41-.74.73-1.36.29-3.15-.08-4.6-.27-1-.32-.8-.49-1.56-.47-2.06.14-2.78-.08-5-.1-1-.21-.64-.57-2.71-.25-1.42-.36-2.5-.49-3.78s-.22-2.18-.25-3.28a15.14,15.14,0,0,1,.08-2.71,8.13,8.13,0,0,1,.27-1.21l-.62-2.18L206.77,155l-14.51,1.31.81,3-5.28,4.18c.26.92.4,1.66,1.13,2.08.35.2.78.3,1,.74a1.53,1.53,0,0,1,0,1.07,10,10,0,0,1-.82,2.3c-.66,1.36-.38,2.8-.08,4.35.33,1.71.62,3.17,1.81,3.78a4,4,0,0,0,3.12-.16,4.17,4.17,0,0,0,2-1.4C196.89,174.85,196.18,173.6,196.88,173.2Z"/><polygon class="cls-19" points="196.56 173.71 199.59 169.5 200.49 173.71 200.24 176.48 202.58 175.99 202.58 171.64 202.58 168.85 201.72 167.12 199.26 167.12 196.56 173.71"/><path class="cls-19" d="M183.75,141.35a14,14,0,0,1,2.08-1.72c.85-.49,1.45-1.72,2.19-2.37s.74-1.32,1.07-1.85a4.55,4.55,0,0,1,1.07-1l2.3-.41,2.46-.94s1.23-.95,1.23-1.55-1.48,0-1.48,0l-1.81.71s-3.12,1.69-4.1,2-3.86,2.05-4.68,2.46a13.88,13.88,0,0,0-2.4,1.91c-.18.18-3,2.2-3.35,2.61s-5,2.11-5,2.11h0a75.87,75.87,0,0,0,4.55,7.65c1,1.4,4.72,6.67,7.55,9.11a6.75,6.75,0,0,1,1.56,1.64,19.39,19.39,0,0,1,1.21,3.12c.74-.11,1.66-.24,2.15-.33.9-.16.33-2.38.33-2.38l3.69-3.69s1.07-3.2,1-3.2-1.15-.08-2.46-.08a16.77,16.77,0,0,0-2.87.39c-1.15.15-2.22-1.46-2-1.62s2-.9,2-.9l2.38-2.71s-1.07.08-2.46.16,0,0-.9.33a8,8,0,0,1-3.94,0c-.66-.33,0,0,.68-.49a3.16,3.16,0,0,0,1-1.07,11.85,11.85,0,0,1,.9-1.64c.25-.25,2.54-3.29,2.54-3.29a3.63,3.63,0,0,0-1.89,0c-.57.32-.9.09-1.48.34a39.6,39.6,0,0,1-4.68.49s1-2.13,1.23-2.79A10.3,10.3,0,0,0,183.75,141.35Z"/><path class="cls-20" d="M212.61,153.94c-.63-2.2-1.44-2.73-6.13-9.63-1-1.42-1.86-2.74-3.06-4.6-1.36-2.1-1.87-3-3.5-5.47-1.09-1.67-1.64-2.51-2.19-3.28-2.52-3.56-3-3.4-4.16-5.47-.53-.91-.2-.52-2.41-5.47l-.23-.51a12.1,12.1,0,0,0-4.15,2.4c-1.56,1.56-2.79,6.32-2.79,6.32h2.22l3.28-1.31-2,2.79s4,.49,4.66,0,.74-.66,1.48-.74.57,1.48,0,1.72,2.13.77,2.54.79,1.64,1.67,2.05,2.24,1.15,2.38,0,2.38H194.5s.33,1.89.33,2.13,1.31,1,1.31,1l1.07,2.81s-2,1.07-1.81,1.56-1.31,1.31,0,1.4,6.24,0,6.24,0-2.38,3.45-2.79,3.78-1.56.74-1,.9,3.12-.41,3.78,0a5,5,0,0,0,2.05.41l4,1.15v1.56a36,36,0,0,0,2.13,4.35l3.22,2.59A10.65,10.65,0,0,0,212.61,153.94Z"/><path class="cls-30" d="M189.82,171.55a7.8,7.8,0,0,1,2.79-.16,7.9,7.9,0,0,1,3.69,1.48"/><path class="cls-16" d="M193.06,156.85c1.88-.75,3.66-1.57,5.56-2.25a13.84,13.84,0,0,1,3.06-.8,4,4,0,0,1,.91,0l.77.08c.52.07,1,.16,1.55.28a11.06,11.06,0,0,1,1.56.49,6.1,6.1,0,0,1,1.49.87,8.73,8.73,0,0,1,2.15,2.46,8.59,8.59,0,0,1,1.1,6.06,12.21,12.21,0,0,0-2.39-5.17,8.9,8.9,0,0,0-2-1.81,4.69,4.69,0,0,0-1.11-.57,9.73,9.73,0,0,0-1.29-.38c-.45-.11-.91-.2-1.38-.27l-.71-.11a3,3,0,0,0-.57,0,19.24,19.24,0,0,0-2.77.41A26.78,26.78,0,0,1,193.06,156.85Z"/><path class="cls-19" d="M170.4,92.77a28.73,28.73,0,0,0-6.1,7.3,22.56,22.56,0,0,0-1.81,4.19,24.63,24.63,0,0,0-.89,4.49,70.8,70.8,0,0,0-.52,9.5c.07,3.19.38,6.39.75,9.69a30.12,30.12,0,0,1-3.08-9.48,36.26,36.26,0,0,1-.13-10.05,21.32,21.32,0,0,1,1.18-5.07A18.36,18.36,0,0,1,170.4,92.77Z"/><path class="cls-31" d="M172,58.27h0a7.9,7.9,0,0,1,5.82,9.5l-4.65,19.35a7.9,7.9,0,0,1-9.5,5.82h0"/><path class="cls-31" d="M114.84,83.33l-1.9-.46a7.9,7.9,0,0,1-5.82-9.5l4.53-18.82c1-4.21,3.08-7,7.29-6"/><path class="cls-15" d="M174.47,39.88A37.5,37.5,0,0,0,167,31.72a4.29,4.29,0,0,0-1.91-.87L134.32,25a4.29,4.29,0,0,0-2.1.11A37.14,37.14,0,0,0,122.34,30a4.39,4.39,0,0,0-1.81,2.8l-9,47.23,2.06,3,47.7,9.06a4.38,4.38,0,0,0,3.31-.7l.07,0a4.39,4.39,0,0,0,1.82-2.79l2.86-15.06c-4.11,12.62-13.89,11-29,8-16.61-3.24-27.21-4.74-23.9-21.69s16.83-28.66,33.43-25.42c15,2.93,22.34,15.3,21.2,30.15l4.07-21.41A4.4,4.4,0,0,0,174.47,39.88Z"/><path class="cls-32" d="M164.62,88.15a153.54,153.54,0,0,0-25.52-7.1,144.57,144.57,0,0,0-25.67-2.64"/><circle class="cls-33" cx="170.4" cy="41.7" r="2"/><path class="cls-32" d="M160.29,91.87a154.63,154.63,0,0,0-44-8.2"/><path class="cls-32" d="M164.62,91.39a153.54,153.54,0,0,0-25.52-7.1,144.57,144.57,0,0,0-25.67-2.64"/><circle class="cls-33" cx="135.52" cy="31.22" r="1.48"/><rect class="cls-15" x="172.23" y="48.27" width="15.31" height="21.71" rx="7.66" ry="7.66" transform="translate(14.2 -32.55) rotate(10.76)"/><rect class="cls-34" x="177.3" y="49.81" width="7.92" height="4.83" rx="2.41" ry="2.41" transform="translate(12.94 -32.92) rotate(10.76)"/><rect class="cls-31" x="176.83" y="57.88" width="4.92" height="8.78" rx="2.46" ry="2.46" transform="translate(14.78 -32.38) rotate(10.76)"/><rect class="cls-15" x="102.9" y="32.8" width="15.31" height="21.71" rx="7.66" ry="7.66" transform="translate(10.09 -19.87) rotate(10.76)"/><rect class="cls-34" x="107.97" y="34.34" width="7.92" height="4.83" rx="2.41" ry="2.41" transform="translate(8.83 -20.25) rotate(10.76)"/><rect class="cls-31" x="107.5" y="42.41" width="4.92" height="8.78" rx="2.46" ry="2.46" transform="translate(10.67 -19.71) rotate(10.76)"/><path class="cls-31" d="M118.11,45.49l2.42-12.73a4.43,4.43,0,0,1,.8-1.82,7.91,7.91,0,0,0-6.88,6.36h0A7.9,7.9,0,0,0,118.11,45.49Z"/><path class="cls-31" d="M175,40.78l-.1,0a4.42,4.42,0,0,1,.21,2.39l-2.51,13.19A7.87,7.87,0,0,0,175,40.78Z"/><ellipse class="cls-35" cx="125.77" cy="57.39" rx="14.81" ry="5.92" transform="translate(48.14 171.78) rotate(-80.37)"/><path class="cls-36" d="M148.81,34.42c-14.3-2.88-26.22,6-31,20l-2,11c0,11.81,9.61,13.32,23.74,16.16,12.18,2.45,20.77,4,25.62-2.76l4-21.69C167.74,45.7,160.8,36.83,148.81,34.42Z"/></g></g></svg>