<svg xmlns="http://www.w3.org/2000/svg" width="498.96" height="594" viewBox="0 0 498.96 594"><defs><style>.cls-1{fill:#ccc;}.cls-13,.cls-14,.cls-2{fill:none;stroke-miterlimit:10;}.cls-2{stroke:#ccc;}.cls-3{fill:#fbb03b;}.cls-4{fill:#d9e021;}.cls-5{fill:#22b573;}.cls-6{fill:#93278f;}.cls-7{fill:#005bff;}.cls-8{fill:#f9414f;}.cls-9{fill:#a67c52;}.cls-10{fill:#999;}.cls-11{fill:#754c24;}.cls-12{fill:#8c6239;}.cls-13,.cls-14{stroke:#f2f2f2;}.cls-13{stroke-width:0.25px;}.cls-14{stroke-width:0.5px;}.cls-15{fill:#b3b3b3;}.cls-16{fill:#fff;}.cls-17{fill:#f4b3b3;}.cls-18{fill:#006837;}.cls-19{fill:#f28244;}.cls-20{fill:#f7931e;}.cls-21{fill:#8e4219;}</style></defs><title>img-hot-air-balloon</title><g id="Layer_2" data-name="Layer 2"><g id="Hot_Air_Balloon" data-name="Hot Air Balloon"><polygon class="cls-1" points="283 523 217 523 214 504 287 504 283 523"/><path class="cls-2" d="M267,540.5H237.76a30.11,30.11,0,0,0-4.26,15c0,11.6,8.73,21,19.5,21s19.5-9.4,19.5-21a28.55,28.55,0,0,0-4.69-15C267.54,540.48,267.27,540.5,267,540.5Z"/><path class="cls-3" d="M233,493H200c-23.35-17-33.33-27.25-49-43-13.44-13.52-35-34.15-47-48-24.45-28.21-64.24-78.84-79.5-118.5-7.74-20.11-16-53.93-21-76-24-107,81-203,189.5-203a191.71,191.71,0,0,1,40,4.2"/><path class="cls-4" d="M227,493H205c-17-14-28.29-25.8-45-44-38.46-41.9-80.18-100.14-105.5-152.1-25.89-53.13-27.94-83.57-30-122.37C19.46,80.24,102.36,0,198.46,0a174.3,174.3,0,0,1,34,3.34"/><path class="cls-5" d="M70.8,86.9A140.14,140.14,0,0,1,223.46,3L223,493H212c-.48-.66-1-1.82-1.5-2.5-23-33-69.56-82-102-138.3-37.13-64.31-50.62-130.9-54-186.7C52.53,133.27,60,108.58,70.8,86.9Z"/><path class="cls-6" d="M157.46,144.5c.9-30.92,4.32-62.61,11-79,11-27,15.94-36.43,29.5-51.5.89-1,11.07-12,13-14h27c-1,20-14.5,75.55-14.5,198.5,0,130.46,9,184,13.94,224.68,0,.22,5.06,54.32,5.06,54.32L243,493H230l-16.79-61c-28.23-74.07-51.45-190.1-51.71-197.5C161.25,228.67,156.23,186.67,157.46,144.5Z"/><path class="cls-7" d="M161.46,234.5c-.21-5.83-5.22-47.83-4-90,.9-30.92,4.32-62.61,11-79,11-27,15.94-36.43,29.5-51.5.76-.84,9.66-10.41,13-14H190.63c-14.09,8.56-31.56,18.82-36.17,22.5-28.38,22.68-32.58,44.34-44,79C99.64,134.33,102,171.15,102,209c0,27.78,9.32,53.48,17.5,77.5,9.38,27.55,18.53,52.91,32,77C162.55,383.33,208.32,473.83,220,493h10l-16.79-61C184.94,357.94,161.73,241.9,161.46,234.5Z"/><path class="cls-6" d="M306,4.5a191.71,191.71,0,0,0-40,4.2V493h33c23.35-17,33.33-27.25,49-43,13.44-13.52,35-34.15,47-48,24.45-28.21,72.74-98.34,88-138,7.74-20.11,7.55-34.43,12.5-56.5C519.5,100.5,414.52,4.5,306,4.5Z"/><path class="cls-7" d="M300.5,0a174.3,174.3,0,0,0-34,3.34L272,493h22c17-14,28.29-25.8,45-44,38.46-41.9,80.18-100.14,105.5-152.1,25.89-53.13,27.94-83.57,30-122.37C479.5,80.24,396.6,0,300.5,0Z"/><path class="cls-5" d="M428.16,86.9A140.14,140.14,0,0,0,275.5,3l.5,490h11c.48-.66,1-1.82,1.5-2.5,23-33,69.56-82,102-138.3,37.13-64.31,50.62-130.9,54-186.7C446.43,133.27,439,108.58,428.16,86.9Z"/><path class="cls-4" d="M388.5,101.5c-11.42-34.66-15.62-56.32-44-79C339.89,18.82,322.42,8.56,308.33,0H252V493h27c11.64-19.17,57.41-109.67,68.5-129.5,13.47-24.09,22.62-49.45,32-77,8.18-24,17.5-49.72,17.5-77.5C397,171.15,399.31,134.33,388.5,101.5Z"/><path class="cls-3" d="M341.5,144.5c-.9-30.92-4.32-62.61-11-79-11-27-15.94-36.43-29.5-51.5-.89-1-11.07-12-13-14H261c1,20,14.5,75.55,14.5,198.5,0,130.46-9,184-13.94,224.68,0,.22-5.06,54.32-5.06,54.32L256,493h13l16.79-61C314,357.94,337.23,241.9,337.5,234.5,337.71,228.67,342.72,186.67,341.5,144.5Z"/><path class="cls-8" d="M260.57,0H234.39C220,19.17,206.26,72.86,211.5,197.2c6.16,146.15,22,239.24,28,268.27L243,493h13l.5-16.52s5-54.16,5.06-54.38c4.94-40.72,13.94-94.32,13.94-224.91C275.5,73.07,271.37,19.17,260.57,0Z"/><path class="cls-9" d="M269.45,594h-33a2.46,2.46,0,0,1-2.46-2.46V561l7.41,5.23a9.32,9.32,0,0,0,5.39,1.77h12.72a13.14,13.14,0,0,0,9-3.74L272,561v30.45A2.55,2.55,0,0,1,269.45,594Z"/><rect class="cls-10" x="240" y="537" width="25" height="8" rx="4" ry="4"/><path class="cls-11" d="M268.54,564.26a13.14,13.14,0,0,1-9,3.74H246.81a9.33,9.33,0,0,1-5.39-1.77L234,561h0c0,6.08,5.92,9,12,9h15c6.08,0,11-2.92,11-9h0Z"/><rect class="cls-12" x="234" y="577" width="38" height="2"/><rect class="cls-12" x="234" y="584" width="38" height="2"/><rect class="cls-11" x="244" y="577" width="4" height="9"/><rect class="cls-11" x="260" y="577" width="4" height="9"/><path class="cls-11" d="M234,590v1.54a2.46,2.46,0,0,0,2.46,2.46h33a2.55,2.55,0,0,0,2.55-2.55V590Z"/><line class="cls-13" x1="238" y1="541" x2="217" y2="523"/><line class="cls-14" x1="238" y1="541" x2="229.5" y2="522.5"/><line class="cls-13" x1="237" y1="541" x2="245" y2="524"/><line class="cls-13" x1="267" y1="541" x2="283" y2="523"/><line class="cls-14" x1="267.5" y1="540.5" x2="275.5" y2="522.5"/><line class="cls-13" x1="268" y1="541" x2="258" y2="524"/><circle class="cls-15" cx="215.5" cy="498.5" r="1.5"/><circle class="cls-15" cx="220.5" cy="498.5" r="1.5"/><path class="cls-1" d="M200,493l14,11h72.93L299,493Zm15.5,7a1.5,1.5,0,1,1,1.5-1.5A1.5,1.5,0,0,1,215.5,500Zm5,0a1.5,1.5,0,1,1,1.5-1.5A1.5,1.5,0,0,1,220.5,500Zm5,0a1.5,1.5,0,1,1,1.5-1.5A1.5,1.5,0,0,1,225.5,500Zm5,0a1.5,1.5,0,1,1,1.5-1.5A1.5,1.5,0,0,1,230.5,500Zm5,0a1.5,1.5,0,1,1,1.5-1.5A1.5,1.5,0,0,1,235.5,500Zm5,0a1.5,1.5,0,1,1,1.5-1.5A1.5,1.5,0,0,1,240.5,500Zm5,0a1.5,1.5,0,1,1,1.5-1.5A1.5,1.5,0,0,1,245.5,500Zm5,0a1.5,1.5,0,1,1,1.5-1.5A1.5,1.5,0,0,1,250.5,500Zm5,0a1.5,1.5,0,1,1,1.5-1.5A1.5,1.5,0,0,1,255.5,500Zm5,0a1.5,1.5,0,1,1,1.5-1.5A1.5,1.5,0,0,1,260.5,500Zm5,0a1.5,1.5,0,1,1,1.5-1.5A1.5,1.5,0,0,1,265.5,500Zm5,0a1.5,1.5,0,1,1,1.5-1.5A1.5,1.5,0,0,1,270.5,500Zm5,0a1.5,1.5,0,1,1,1.5-1.5A1.5,1.5,0,0,1,275.5,500Zm5,0a1.5,1.5,0,1,1,1.5-1.5A1.5,1.5,0,0,1,280.5,500Z"/><path class="cls-8" d="M250.5,507c17.69,0,32.44.17,35.78.4L287,504H214l.54,3.41C217.49,507.18,232.46,507,250.5,507Z"/><polygon class="cls-8" points="214.55 507.5 217 523 283 523 286.26 507.5 214.55 507.5"/><ellipse class="cls-1" cx="250" cy="523" rx="33" ry="1"/><path class="cls-16" d="M36,136c-2.85,0-6,22.7-6,42,0,34.35,10.12,59.67,16,74,8.94,21.79,21,41.88,23,41s-7.16-20.73-15-48C36.09,182.72,40.08,136,36,136Z"/><path class="cls-16" d="M75.16,130.33c.11,10.67.4,31.37,1.24,49.82.92,20.07,1.38,30.11,2.74,41.35,4.07,33.39,23.44,72,25.86,71.52S95.29,248.67,75.16,130.33Z"/><path class="cls-16" d="M9.55,163.19c.73,7.84,1.87,19.08,3.62,32.6,1.9,14.71,2.84,22.07,4.54,30.25,5,24.32,14.65,47,16.4,46.45S31.57,249,9.55,163.19Z"/><path class="cls-17" d="M247.39,557.12c0,2.39.86,4-.62,4s-2.18-.56-2.18-3.62c0-2.16-.69-4.68.79-4.68S247.39,554.73,247.39,557.12Z"/><path class="cls-18" d="M245.59,568.47v-3.24l-1.24-1.76c0-.67,1.37-3.51,2.29-3.19,0,0-.39-1.56,1,.19.66.86,1,3.41,1,5a4.8,4.8,0,0,1-1,3h-2Z"/><path class="cls-19" d="M243.59,553.47l3.37-1.4a.66.66,0,0,1,.54.39,7.88,7.88,0,0,1,1.11,2.86,44.51,44.51,0,0,0,1,5.15l1,3-4-4v-4.15l-1-.85c-.12-.4.28,0,0,0h-2"/><path class="cls-17" d="M246.84,566.49a1.19,1.19,0,0,1,0-.22l.16-3.13c0-.37.2-.66.39-.65s.34.32.29.66l-.11,3.32Z"/><path class="cls-17" d="M247.58,566.46a1.19,1.19,0,0,1-.13.16l-2,2c-.23.24-.52.35-.64.23s0-.4.21-.64l2-2,.15-.13Z"/><path class="cls-17" d="M256.46,555.12c0,2.39-1.39,4,1,4s5.05-.55,5.05-3.61c0-2.16-.42-4.69-2.81-4.69S256.46,552.73,256.46,555.12Z"/><path class="cls-20" d="M260.59,568.47v-4l1-4c0-.83-1.21-2.5-2.69-2.1,0,0-1.44-1.44-3.61.72-1.07,1.07-.72,3.42-.7,5.38a8.73,8.73,0,0,0,1,4h5Z"/><path class="cls-21" d="M262.59,550.07h-3.82a1.18,1.18,0,0,0-.87.39c-.62.67-1.8,2.06-1.8,2.86v3.25l3.25-2.16v-1.08l.75-1.51a1.18,1.18,0,0,1,1.06-.66h1.43"/><path class="cls-17" d="M258.83,568.47a1.07,1.07,0,0,0,.07-.36v-5.05a1.08,1.08,0,0,0-2.16,0v5.05a1.07,1.07,0,0,0,.07.36Z"/><path class="cls-3" d="M256.46,564.74V561a.84.84,0,0,1,.84-.84h1.35a.84.84,0,0,1,.83,1l-.54,3.73a.84.84,0,0,1-.83.72h-.8A.84.84,0,0,1,256.46,564.74Z"/></g></g></svg>